<?xml version="1.0" encoding="UTF-8" standalone="no"?>
<svg
   viewBox="0 0 500 500"
   width="500"
   height="500"
   version="1.1"
   id="svg858"
   sodipodi:docname="copper_ore.svg"
   inkscape:version="1.3 (0e150ed6c4, 2023-07-21)"
   inkscape:export-filename="copper_ore.svg"
   inkscape:export-xdpi="96"
   inkscape:export-ydpi="96"
   xmlns:inkscape="http://www.inkscape.org/namespaces/inkscape"
   xmlns:sodipodi="http://sodipodi.sourceforge.net/DTD/sodipodi-0.dtd"
   xmlns="http://www.w3.org/2000/svg"
   xmlns:svg="http://www.w3.org/2000/svg">
  <defs
     id="defs858" />
  <sodipodi:namedview
     id="namedview858"
     pagecolor="#505050"
     bordercolor="#eeeeee"
     borderopacity="1"
     inkscape:showpageshadow="0"
     inkscape:pageopacity="0"
     inkscape:pagecheckerboard="0"
     inkscape:deskcolor="#505050"
     inkscape:zoom="2.5080194"
     inkscape:cx="420.25194"
     inkscape:cy="451.55154"
     inkscape:window-width="1920"
     inkscape:window-height="1017"
     inkscape:window-x="-8"
     inkscape:window-y="-8"
     inkscape:window-maximized="1"
     inkscape:current-layer="svg858" />
  <path
     d="m 266.48744,0.00845805 c -2.02696,0.03391 -4.08803,0.168807 -6.16628,0.374418 -2.07824,0.20561 -4.17456,0.48146 -6.27221,0.79817705 -4.19534,0.633431 -8.39736,1.429231 -12.47913,2.143467 -4.08179,0.714236 -8.04313,1.34709 -11.75643,1.657305 -1.85664,0.155108 -3.62433,0.488311 -5.32166,0.963617 -1.69732,0.475306 -3.32425,1.093417 -4.89935,1.816941 -1.57511,0.723525 -3.09882,1.552818 -4.58879,2.4525799 -1.48998,0.899761 -2.94659,1.86942 -4.38852,2.873436 -2.88389,2.008036 -5.70892,4.152787 -8.62322,6.145962 -1.45715,0.996586 -2.93633,1.955157 -4.45673,2.840058 -1.52039,0.884901 -3.08125,1.6962 -4.70198,2.397433 -1.62074,0.701233 -3.20222,1.490518 -4.75714,2.340835 -1.55491,0.850318 -3.083,1.760926 -4.59604,2.705093 -3.0261,1.888339 -5.99243,3.908864 -8.99473,5.841202 -1.50115,0.966171 -3.01123,1.91091 -4.54235,2.805229 -1.53112,0.894319 -3.08358,1.739041 -4.66862,2.506276 -1.58502,0.767238 -3.20309,1.456963 -4.86597,2.041883 -1.66289,0.584914 -3.3712,1.064681 -5.1359,1.412047 -3.52939,0.692876 -6.99749,1.597976 -10.38501,2.710901 -1.69375,0.556448 -3.36694,1.16548 -5.01835,1.825647 -1.65142,0.66016 -3.28037,1.37176 -4.88485,2.134755 -1.60447,0.763003 -3.18385,1.576012 -4.73681,2.440974 -1.55297,0.864961 -3.07888,1.781124 -4.57573,2.747182 -1.49686,0.966043 -2.96542,1.982754 -4.40158,3.049032 -1.43617,1.066277 -2.84059,2.182361 -4.21148,3.347989 -1.37182,1.1647 -2.76906,2.239351 -4.18534,3.244953 -1.41629,1.005602 -2.85162,1.942214 -4.30146,2.831346 -2.89966,1.778279 -5.85507,3.365934 -8.823484,4.934188 -2.96839,1.568254 -5.94911,3.117301 -8.89894,4.816633 -1.47492,0.849669 -2.94333,1.736936 -4.39723,2.683326 -1.45389,0.94639 -2.89399,1.951673 -4.31596,3.037425 -1.4229,1.084824 -2.70455,2.24965 -3.87478,3.480048 -1.17025,1.230414 -2.2288,2.526652 -3.20578,3.874791 -0.97696,1.348131 -1.87217,2.747353 -2.71524,4.185347 -0.84308,1.437993 -1.63467,2.914654 -2.40324,4.414646 -1.53715,2.99997 -2.98467,6.09534 -4.58009,9.17613 -0.79771,1.54038 -1.63249,3.07724 -2.53385,4.59604 -0.90135,1.5188 -1.86854,3.02077 -2.93293,4.49011 -1.06532,1.47027 -2.03023,3.01334 -2.90972,4.61781 -0.87949,1.60449 -1.67391,3.2698 -2.40179,4.98063 -0.72788,1.71083 -1.38785,3.4685 -1.99834,5.25781 -0.61049,1.7893 -1.17208,3.61089 -1.69939,5.45082 -1.05464,3.67984 -1.97664,7.43176 -2.90392,11.1469 -0.92727,3.71515 -1.85925,7.39298 -2.93293,10.92051 -1.07368,3.52567 -2.19927,7.27375 -3.27978,11.15561 -1.08053,3.88186 -2.11538,7.8975 -3.0084,11.95814 -0.89303,4.06065 -1.6439,8.16603 -2.15508,12.22807 -0.25559,2.03103 -0.45245,4.05207 -0.57614,6.05018 -0.12369,1.99811 -0.17473,3.97364 -0.14222,5.91667 0.0325,1.94302 -0.0839,3.93714 -0.30766,5.96891 -0.22373,2.03177 -0.55449,4.10066 -0.95201,6.1953 -0.79504,4.18929 -1.856,8.47961 -2.85166,12.76502 -0.49783,2.14272 -0.97901,4.28363 -1.40335,6.41154 -0.42433,2.1279 -0.79098,4.24161 -1.0594,6.32882 -0.26842,2.08721 -0.43868,4.14855 -0.46875,6.16918 -0.0301,2.02063 0.0794,4.00157 0.37007,5.92973 0.29164,1.92723 0.67203,3.79491 1.1247,5.61626 0.45267,1.82135 0.97767,3.5965 1.55863,5.33472 1.16191,3.47646 2.54853,6.80849 4.02716,10.08896 1.47863,3.28047 3.04956,6.50895 4.58299,9.77548 1.53343,3.26655 3.02883,6.5716 4.35514,10.00624 1.32445,3.43652 2.81156,6.76437 4.37111,10.03381 1.55954,3.26944 3.19178,6.48074 4.80647,9.68551 1.6147,3.20479 3.2121,6.40238 4.70199,9.64488 1.48988,3.24252 2.87251,6.52926 4.05764,9.91191 1.18699,3.38077 2.51812,6.67577 3.9546,9.9061 1.43649,3.23031 2.97799,6.39668 4.58154,9.52297 3.2071,6.2526 6.66608,12.34308 10.04687,18.4582 1.69039,3.05757 3.35212,6.07068 5.0735,8.99764 1.72139,2.92694 3.50281,5.76858 5.43051,8.48388 0.96384,1.35766 1.96446,2.68393 3.01275,3.97348 1.04829,1.28955 2.14399,2.54157 3.29865,3.75288 1.15465,1.21131 2.366914,2.38177 3.649844,3.50472 1.28294,1.12295 2.63613,2.19873 4.06925,3.22318 2.86438,2.04891 5.54562,4.12772 8.11674,6.23884 2.5711,2.11113 5.03281,4.25437 7.45787,6.43331 4.85012,4.35786 9.55468,8.85716 14.70387,13.51966 0,0 10.18609,9.1358 20.74679,18.43499 5.28036,4.64958 10.65394,9.33956 14.89543,12.94932 4.24149,3.60977 7.35082,6.13983 8.10077,6.46669 1.635,0.7126 4.95043,2.4715 8.88153,4.57573 3.93109,2.10423 7.43089,4.23977 11.52747,6.3324 0.85115,0.43479 1.65141,0.92523 2.40179,1.45123 0.75038,0.52599 1.45048,1.08749 2.09848,1.66311 1.29599,1.15123 4.1138,2.46429 4.99064,3.56448 0.87684,1.10018 2.40832,2.0917 2.85316,2.80813 0.44484,0.71644 2.15178,1.9728 2.15178,1.9728 2.41299,1.05696 2.25833,1.28892 4.68397,2.28353 2.42564,0.99462 4.40175,2.14597 6.88394,2.78265 1.24108,0.31834 2.49232,0.57395 3.75578,0.74738 1.26345,0.17344 2.53994,0.26529 3.83125,0.25687 1.2913,-0.008 2.59658,-0.11672 3.92123,-0.34394 1.32463,-0.22722 2.66805,-0.57352 4.03151,-1.05649 2.72505,-0.9678 5.42604,-1.72604 8.12834,-2.32488 0,0 3.32249,-0.89025 8.69143,-2.40904 5.36893,-1.51879 12.78478,-3.66678 20.97173,-6.18369 8.18694,-2.51692 17.14424,-5.40244 25.59826,-8.39682 4.227,-1.49719 8.32841,-3.02051 12.14389,-4.53945 3.81548,-1.51894 7.34491,-3.03338 10.43,-4.50898 2.2874,-1.09406 4.8041,-2.42717 7.45642,-3.92267 2.65232,-1.4955 5.44074,-3.1533 8.27202,-4.89646 5.66255,-3.48631 11.49759,-7.31391 16.76026,-10.86826 10.52532,-7.1087 18.76295,-13.12348 18.76295,-13.12348 1.91702,-1.97831 3.72056,-3.97174 5.46969,-5.97326 1.74914,-2.00154 3.44401,-4.01167 5.14462,-6.01971 1.70059,-2.00802 3.40656,-4.01462 5.17799,-6.01244 1.77142,-1.99783 3.60822,-3.98642 5.56982,-5.95731 1.9616,-1.97088 3.89789,-3.85679 5.77299,-5.73526 1.87511,-1.87847 3.68846,-3.75015 5.40439,-5.69318 1.71593,-1.94302 3.334,-3.95675 4.81808,-6.12129 0.74204,-1.08227 1.45125,-2.20268 2.1217,-3.36976 0.67046,-1.16707 1.30263,-2.38123 1.89241,-3.65274 1.1777,-2.54302 2.27251,-5.22525 3.29429,-7.99338 1.02178,-2.76813 1.97095,-5.62236 2.85747,-8.50857 1.77305,-5.7724 3.29661,-11.673 4.65264,-17.27545 1.35975,-5.60243 2.89556,-11.50472 4.57574,-17.37558 1.68016,-5.87085 3.50362,-11.71144 5.43921,-17.19127 0.48297,-1.37089 1.05777,-2.68338 1.69504,-3.95461 0.63726,-1.27123 1.33733,-2.50099 2.07526,-3.70499 1.47584,-2.40799 3.09889,-4.7136 4.65554,-7.04718 0.77833,-1.16678 1.54006,-2.33983 2.25811,-3.53665 0.71808,-1.1968 1.39273,-2.4167 1.9969,-3.67596 0.60418,-1.25927 1.13794,-2.55839 1.57459,-3.91252 0.43664,-1.35412 0.77716,-2.76343 0.99264,-4.24485 0.43095,-2.96282 0.96042,-6.03469 1.54846,-9.16016 0.58804,-3.12549 1.23354,-6.30462 1.89531,-9.48525 1.32352,-6.36125 2.71154,-12.72603 3.8298,-18.66282 0.55911,-2.96841 1.4272,-6.02145 2.37131,-9.13115 0.94411,-3.10968 1.96427,-6.27524 2.8299,-9.47073 0.43281,-1.59774 0.82743,-3.2035 1.15372,-4.81228 0.3263,-1.60879 0.58409,-3.22115 0.74594,-4.83404 0.16184,-1.6129 0.22743,-3.2269 0.16689,-4.83696 -0.0606,-1.61006 -0.24688,-3.21633 -0.58775,-4.81663 -0.68359,-3.2006 -1.21131,-6.45781 -1.61812,-9.75663 -0.40681,-3.2988 -0.69334,-6.63979 -0.89396,-10.00478 -0.20062,-3.36499 -0.31521,-6.75514 -0.38022,-10.15426 -0.065,-3.39912 -0.0798,-6.80673 -0.0798,-10.20796 0,-2.21422 0.14861,-4.48047 0,-6.68727 -0.0701,-1.02816 -0.21719,-2.00689 -0.43391,-2.94019 -0.21674,-0.9333 -0.50356,-1.82124 -0.85188,-2.66881 -0.34832,-0.84758 -0.75851,-1.65401 -1.22339,-2.42501 -0.46487,-0.771 -0.9835,-1.50667 -1.54991,-2.21022 -1.13283,-1.40712 -2.45353,-2.68838 -3.90236,-3.8806 -1.44883,-1.1922 -3.02687,-2.29462 -4.67151,-3.34508 -3.2893,-2.10092 -6.84929,-3.99182 -10.2007,-5.96455 -1.67571,-0.98638 -3.29988,-1.99371 -4.81083,-3.05775 -1.51095,-1.06404 -2.90856,-2.18538 -4.13456,-3.40023 -4.90398,-4.85941 -10.03086,-9.9763 -15.03329,-15.2713 -2.50123,-2.6475 -4.97233,-5.33984 -7.3679,-8.06594 -2.39558,-2.7261 -4.71639,-5.48606 -6.91947,-8.27056 -4.40615,-5.569 -8.51171,-11.784592 -13.09155,-17.580211 -1.14497,-1.448909 -2.31879,-2.872339 -3.5352,-4.252101 -1.2164,-1.379777 -2.47417,-2.716481 -3.78626,-3.993787 -1.31207,-1.277313 -2.67933,-2.495251 -4.11134,-3.63679 -1.43199,-1.141525 -2.92991,-2.205752 -4.50606,-3.178192 -1.57616,-0.972441 -3.08801,-1.995764 -4.55106,-3.060645 -1.46306,-1.064881 -2.87716,-2.172434 -4.25356,-3.311707 -2.75281,-2.278546 -5.35888,-4.686781 -7.92372,-7.15457 -2.56484,-2.467773 -5.0886,-4.994618 -7.67701,-7.507211 -2.58841,-2.512602 -5.24097,-5.011509 -8.06449,-7.424499 -1.33745,-1.140551 -2.58708,-2.391278 -3.80658,-3.660002 -1.2195,-1.268724 -2.40886,-2.555447 -3.62372,-3.770298 -3.2619,-2.786357 -6.36034,-6.100283 -9.65939,-8.91636 -1.85386,-1.586366 -3.57595,-3.375507 -5.27377,-5.173637 -1.69781,-1.798128 -3.37138,-3.605266 -5.12865,-5.228783 -6.62038,-3.451368 -12.80752,-6.927426 -19.16786,-10.0323579 -3.18015,-1.552465 -6.40422,-3.01119 -9.74646,-4.32902 -3.34223,-1.317831 -6.80332,-2.494087 -10.45901,-3.4786 -1.82879,-0.49132805 -3.72326,-0.82180405 -5.66706,-1.02021605 -1.9438,-0.19841 -3.93615,-0.264645 -5.96311,-0.230745 z m 0.67628,5.40148005 c 0.68091,-0.0041 1.26152,0.0844 1.82855,0.240905 1.13403,0.313 2.21161,0.898777 3.91687,1.560072 3.9529,0.832193 7.20582,1.603265 10.35162,2.616569 1.5729,0.5066539 3.11847,1.0742019 4.71215,1.7400259 1.59368,0.665823 3.2352,1.429754 4.99804,2.330676 0.639,0.326933 1.25799,0.666638 1.79807,1.041984 0.5401,0.375344 1.00135,0.785696 1.32643,1.252412 0.32507,0.466714 0.51397,0.990959 0.50793,1.592 -0.006,0.60104 -0.20706,1.279522 -0.66031,2.057845 -0.29164,-0.200619 -0.57221,-0.317965 -0.84462,-0.367162 -0.27241,-0.0492 -0.53684,-0.03059 -0.79382,0.03918 -0.51397,0.13955 -1.00083,0.484827 -1.4759,0.905568 -0.47508,0.420739 -0.93819,0.917468 -1.40479,1.359803 -0.4666,0.442341 -0.93657,0.830397 -1.42511,1.034731 -0.33065,1.133118 -0.4886,2.239832 -0.54131,3.336379 -0.0527,1.096548 -1.2e-4,2.182711 0.09,3.275427 0.18018,2.185434 0.51077,4.396187 0.45133,6.762734 -2.80123,-1.218567 -5.64884,-2.319649 -8.50857,-3.401685 -2.85973,-1.082035 -5.7316,-2.145037 -8.58112,-3.285585 -0.44025,0.05016 -0.83144,0.204509 -1.15083,0.433918 -0.31938,0.22941 -0.56755,0.534577 -0.72126,0.883799 -0.15372,0.349224 -0.2135,0.742682 -0.15673,1.152277 0.0568,0.409594 0.23068,0.834633 0.54276,1.245155 1.08296,0.616714 2.22253,1.14868 3.39443,1.636989 1.1719,0.488308 2.37577,0.933142 3.58599,1.374315 1.21021,0.441174 2.42727,0.878692 3.62517,1.353998 1.1979,0.475306 2.377,0.988231 3.51198,1.578939 0.62043,0.322289 1.08157,0.634696 1.40624,0.940397 0.32467,0.305701 0.51234,0.604236 0.5892,0.896861 0.0768,0.292626 0.0418,0.58042 -0.0813,0.863485 -0.123,0.283057 -0.33315,0.561798 -0.60807,0.838807 -0.54984,0.554025 -1.35638,1.099164 -2.22618,1.650054 -0.86981,0.550875 -1.80313,1.107576 -2.60931,1.683424 -0.80433,0.577706 -1.5361,1.314754 -2.20588,2.143471 -0.66977,0.828701 -1.27807,1.749308 -1.8358,2.692027 -1.11547,1.88544 -2.02888,3.86167 -2.83135,5.381166 -0.37523,1.469342 -0.82796,2.590106 -1.38012,3.475694 -0.55217,0.885603 -1.20342,1.535694 -1.97803,2.065103 -0.77461,0.529409 -1.67269,0.937266 -2.71525,1.338034 -1.04256,0.400776 -2.22996,0.794812 -3.58599,1.2945 -1.11641,0.564702 -2.06505,1.097187 -2.87924,1.655857 -0.8142,0.558654 -1.4946,1.14281 -2.07091,1.809679 -0.57631,0.66687 -1.04848,1.416691 -1.45123,2.306009 -0.40275,0.88931 -0.73543,1.918816 -1.02892,3.144815 -0.14582,0.613929 -0.35419,1.057265 -0.60807,1.35545 -0.25388,0.298186 -0.55373,0.451161 -0.8838,0.486165 -0.33007,0.035 -0.68937,-0.04785 -1.06375,-0.223496 -0.37439,-0.175608 -0.76399,-0.444191 -1.15083,-0.777856 -0.77368,-0.66733 -1.54022,-1.597574 -2.17249,-2.58174 -0.63227,-0.984165 -1.12969,-2.02197 -1.36561,-2.902461 -0.23777,-0.878633 -0.69642,-1.814442 -1.30756,-2.654304 -0.61113,-0.839846 -1.37437,-1.584162 -2.22328,-2.081063 -0.42445,-0.248447 -0.87085,-0.434175 -1.32933,-0.539856 -0.45847,-0.105681 -0.92925,-0.130276 -1.40479,-0.05513 -0.47554,0.07512 -0.95526,0.248833 -1.43091,0.542761 -0.47566,0.293935 -0.94742,0.707446 -1.40624,1.258217 -0.30465,0.497831 -0.48297,0.9808 -0.74304,1.486061 -0.54612,1.062533 -1.1114,2.062086 -1.71535,2.901012 -0.60395,0.838925 -1.24632,1.517706 -1.94755,1.940289 -0.35062,0.211303 -0.71624,0.35849 -1.09858,0.429568 -0.38234,0.07111 -0.78117,0.06568 -1.20017,-0.02757 -0.419,-0.09323 -0.85858,-0.274193 -1.31917,-0.555824 -0.46059,-0.281623 -0.94266,-0.663964 -1.44978,-1.158079 -1.01423,-0.986373 -2.08071,-1.722552 -3.19271,-2.266821 -1.11198,-0.54427 -2.26938,-0.897209 -3.46843,-1.114546 -1.19907,-0.217336 -2.43971,-0.299188 -3.71515,-0.304761 -1.27546,-0.0056 -2.58587,0.06569 -3.92704,0.156713 -2.44457,0.163466 -7.49717,1.24086 -9.65939,1.48606 -0.54241,0.0613 -1.26391,-0.07334 -2.03317,-0.338138 -0.76927,-0.264816 -1.58625,-0.65961 -2.31907,-1.1189 -0.73281,-0.459281 -1.38099,-0.982828 -1.81404,-1.504925 -0.21652,-0.261049 -0.37943,-0.521444 -0.47164,-0.773502 -0.0922,-0.252065 -0.11436,-0.496091 -0.0494,-0.722715 0.065,-0.224767 0.21872,-0.424947 0.44118,-0.608067 0.22245,-0.183112 0.51373,-0.349395 0.85187,-0.506479 0.67627,-0.31416 1.54242,-0.591697 2.43081,-0.89541 0.88838,-0.303714 1.79941,-0.633953 2.56577,-1.052138 0.38319,-0.209096 0.73019,-0.439815 1.02022,-0.700945 0.29003,-0.261138 0.52262,-0.552109 0.67773,-0.880899 0.31021,-0.657582 0.77483,-1.27134 1.32642,-1.853221 0.55158,-0.581882 1.18949,-1.131204 1.85032,-1.658755 1.32166,-1.055103 2.73034,-2.023598 3.69628,-2.989537 1.07554,-1.075537 2.0881,-1.851833 3.09258,-2.398889 1.00448,-0.547041 2.00112,-0.864173 3.04322,-1.02021 1.0421,-0.156036 2.13059,-0.151199 3.31897,-0.05372 1.18838,0.09752 2.47644,0.287055 3.91977,0.500676 1.44334,0.213621 2.77406,0.291119 4.0025,0.375869 1.22844,0.08475 2.35453,0.17699 3.39152,0.419404 0.5185,0.12121 1.01393,0.279074 1.48897,0.493424 0.47502,0.214334 0.92965,0.485347 1.36416,0.828649 0.43449,0.343303 0.8497,0.760299 1.2466,1.268376 0.3969,0.508076 0.77554,1.106825 1.13777,1.81549 0.40495,0.360369 0.86447,0.745355 1.36415,1.033279 0.49969,0.28791 1.03955,0.478787 1.60797,0.452781 0.17461,-0.698449 -0.0219,-1.614932 -0.0711,-2.455484 -0.0246,-0.420273 -0.0126,-0.820699 0.10158,-1.166788 0.11413,-0.346088 0.32989,-0.637148 0.71256,-0.83591 -0.14118,-0.921357 -0.43839,-1.359745 -0.74303,-2.22909 -0.9548,-1.742405 -2.18777,-3.954487 -3.49457,-6.111132 -1.30679,-2.156594 -2.68744,-4.257833 -3.93574,-5.777326 -0.59442,-0.419811 -1.33518,-0.81362 -2.02156,-1.277083 -0.34319,-0.231733 -0.67302,-0.480475 -0.96362,-0.758993 -0.29059,-0.278521 -0.54235,-0.58682 -0.72997,-0.936044 1.04396,-0.529408 2.17326,-0.890766 3.34944,-1.168241 1.1762,-0.277475 2.39884,-0.471592 3.62808,-0.667566 1.22925,-0.195974 2.46559,-0.392819 3.66871,-0.677725 1.20313,-0.284904 2.37352,-0.65735 3.47135,-1.201618 0.4421,-0.315787 0.6978,-0.771475 0.99409,-1.198716 0.14814,-0.213621 0.30726,-0.419116 0.50357,-0.597907 0.19633,-0.178792 0.4305,-0.3303 0.73143,-0.432467 0.9808,-0.962222 1.96595,-1.919515 2.96776,-2.744277 1.00181,-0.824761 2.02081,-1.51764 3.0708,-1.950453 0.525,-0.216408 1.05713,-0.367569 1.59926,-0.438272 0.54214,-0.07071 1.09319,-0.06037 1.65585,0.04644 0.56268,0.106811 1.13747,0.310796 1.72406,0.626932 0.58661,0.316134 1.18561,0.744482 1.79953,1.301753 1.22786,1.114544 2.35413,2.035788 3.2914,2.690582 0.93725,0.654794 1.68569,1.042622 2.15797,1.092777 0.23615,0.02508 0.40332,-0.03396 0.49052,-0.187209 0.0872,-0.15325 0.0937,-0.400598 0.0102,-0.750287 -0.16711,-0.699375 -0.69684,-1.809339 -1.67764,-3.403135 -0.27864,-0.452318 -0.46814,-0.887458 -0.5863,-1.311913 -0.11816,-0.424454 -0.16428,-0.837883 -0.15673,-1.245155 0.0151,-0.814545 0.24653,-1.606398 0.55582,-2.416299 0.30929,-0.809901 0.69635,-1.638789 1.02167,-2.529495 0.3253,-0.890706 0.58844,-1.8426 0.6516,-2.899559 -0.0186,-0.445816 -0.17676,-1.622013 -0.5297,-2.655752 -0.17647,-0.516869 -0.40112,-0.998331 -0.68208,-1.335132 -0.28096,-0.336801 -0.61793,-0.528596 -1.01731,-0.467296 -0.11332,0.731883 -0.26958,1.738345 -0.50793,2.792167 -0.23835,1.053824 -0.55879,2.15479 -1.00135,3.076609 -0.22128,0.46091 -0.47326,0.87769 -0.76045,1.220485 -0.28718,0.342794 -0.60934,0.611375 -0.97232,0.779311 -0.36299,0.167936 -0.76601,0.234911 -1.21468,0.171245 -0.44868,-0.06366 -0.94324,-0.257506 -1.48751,-0.609517 -1.69411,0.460678 -3.2031,0.919037 -4.6483,1.49767 -1.44519,0.578634 -2.82659,1.277549 -4.26806,2.217481 -1.28545,1.13126 -2.48381,2.06458 -3.66291,2.853119 -1.17909,0.788539 -2.33898,1.43254 -3.54826,1.982381 -1.20928,0.549842 -2.46831,1.005587 -3.84431,1.420755 -1.37599,0.415166 -2.86891,0.789529 -4.54816,1.174045 -2.41484,0.553556 -5.094,1.286606 -7.66394,2.281334 -1.28498,0.497366 -2.54268,1.05998 -3.72677,1.69794 -1.18408,0.637959 -2.29404,1.351967 -3.28413,2.150723 -1.97646,1.597512 -4.36584,2.925219 -6.38686,4.562669 -1.01052,0.818725 -1.92811,1.714543 -2.65721,2.760241 -0.36454,0.522848 -0.68277,1.08397 -0.9404,1.690684 -0.25762,0.606713 -0.45562,1.259205 -0.58194,1.96787 -0.12724,0.707736 -0.30986,1.37604 -0.53986,2.008499 -0.22999,0.63246 -0.50712,1.229314 -0.82429,1.796625 -0.63437,1.134629 -1.42784,2.149043 -2.31762,3.083865 -0.88978,0.934821 -1.87592,1.790354 -2.89666,2.606409 -1.02074,0.816055 -2.07549,1.592989 -3.10273,2.371313 -0.81733,0.62043 -1.55334,1.556187 -2.36696,2.054946 -0.40681,0.249369 -0.83306,0.390032 -1.29884,0.326525 -0.46579,-0.06351 -0.97071,-0.330708 -1.53541,-0.895411 -0.22198,-0.22198 -0.29633,-0.500683 -0.25397,-0.824295 0.0424,-0.323627 0.20173,-0.692824 0.44408,-1.09568 0.48471,-0.805727 1.30437,-1.747354 2.20297,-2.735569 0.8986,-0.98823 1.87546,-2.022728 2.67317,-3.014214 0.39886,-0.495727 0.75326,-0.981037 1.03037,-1.443967 0.27712,-0.462945 0.47786,-0.90273 0.56888,-1.310467 0.3678,-1.627221 1.39789,-4.250013 2.47435,-6.916562 1.07647,-2.666545 2.19879,-5.377394 2.74863,-7.179238 -0.0223,0.25263 -0.39607,-0.04772 -0.67192,-0.542761 -0.13792,-0.24752 -0.25135,-0.543516 -0.28444,-0.843164 -0.0331,-0.29965 0.0149,-0.603016 0.19882,-0.864934 0.3678,-0.523834 0.80549,-1.004831 1.12035,-1.297399 0.31486,-0.292567 0.50654,-0.397231 0.38022,-0.166892 0.37152,-1.305872 0.804,-2.571859 1.30031,-3.789162 0.4963,-1.217306 1.05707,-2.385651 1.68488,-3.497467 0.6278,-1.111813 1.32232,-2.167022 2.08831,-3.156426 0.76601,-0.989403 1.60263,-1.913072 2.51354,-2.763143 0.9109,-0.85007 1.89654,-1.6267 2.95906,-2.320517 1.06251,-0.693818 2.20262,-1.305005 3.42345,-1.825649 1.22083,-0.520642 2.52231,-0.95089 3.90816,-1.281436 1.38585,-0.330547 2.85562,-0.561452 4.41319,-0.684981 5.28293,-0.41981 9.89194,-0.801255 14.40492,-1.443974 2.25649,-0.3213609 4.48901,-0.7073309 6.76999,-1.1972659 2.28098,-0.489934 4.61009,-1.0832 7.06024,-1.816941 1.79813,-0.54241 3.3362,-1.069964 5.20121,-1.48606 0.96594,-0.213621 1.74699,-0.310853 2.42791,-0.314917 z m 36.40411,13.9593869 c 0.81594,0.07129 1.65903,0.238365 2.49176,0.480358 0.83275,0.241991 1.65638,0.558666 2.43227,0.933141 0.77588,0.374474 1.50391,0.8069 2.14927,1.275632 0.64536,0.468731 1.20743,0.974357 1.6486,1.499121 -0.039,0.523834 -0.24433,1.089469 -0.49487,1.671817 -0.25054,0.582349 -0.54572,1.181244 -0.7677,1.771953 -0.22198,0.590708 -0.3703,1.173699 -0.32363,1.722611 0.0233,0.274456 0.0952,0.540671 0.23075,0.795274 0.13551,0.254603 0.33471,0.497134 0.61242,0.725615 -0.96594,-2.704623 1.3969,4.183258 1.48606,4.45818 0.45325,0.965937 1.03636,1.888517 1.49332,2.851668 0.22848,0.481575 0.42544,0.974182 0.55872,1.48606 0.13328,0.511876 0.20306,1.043668 0.17705,1.606512 -0.64644,-0.03158 -1.25921,0.06049 -1.84597,0.235099 -0.58675,0.174612 -1.14693,0.431949 -1.69213,0.732868 -1.0904,0.601855 -2.11636,1.376293 -3.14917,2.004153 -0.69473,0.495973 -1.97257,1.18786 -3.51053,1.870638 -1.53795,0.68277 -3.33649,1.3562 -5.06915,1.81549 -0.86631,0.229641 -1.71577,0.405285 -2.50917,0.502124 -0.7934,0.09684 -1.53018,0.114828 -2.16959,0.02757 -0.63942,-0.08725 -1.18184,-0.279639 -1.5862,-0.602263 -0.40435,-0.322609 -0.67076,-0.775181 -0.75899,-1.384466 -0.13375,-0.930645 -0.16656,-1.840537 -0.12045,-2.737018 0.0461,-0.896488 0.17141,-1.779968 0.3512,-2.654303 0.35955,-1.748672 0.93999,-3.464671 1.55716,-5.196857 0.61718,-1.732186 1.27094,-3.480808 1.77631,-5.292637 0.25269,-0.905914 0.46856,-1.826549 0.62403,-2.770399 0.15547,-0.943849 0.2506,-1.910111 0.26267,-2.903913 0.0121,-0.993799 0.19746,-1.815766 0.521,-2.485957 0.32353,-0.670192 0.7854,-1.188327 1.34674,-1.573134 0.56133,-0.384808 1.22208,-0.637308 1.94755,-0.774957 0.72547,-0.13765 1.51473,-0.161261 2.33067,-0.08998 z m -108.39241,9.270461 c 0.36455,-0.08626 0.71442,-0.07927 1.04053,0.0537 0.32613,0.132955 0.6292,0.391308 0.90412,0.808332 0.23127,0.351082 0.3885,0.766963 0.48471,1.232095 0.0962,0.465133 0.13079,0.979929 0.12045,1.526694 -0.0207,1.093528 -0.22482,2.31692 -0.50067,3.542454 -0.55169,2.451064 -1.38621,4.907367 -1.59055,6.330267 -0.10031,0.70495 -0.30081,1.355421 -0.5834,1.963516 -0.28258,0.608096 -0.64759,1.174218 -1.0739,1.709549 -0.85263,1.070662 -1.95434,2.018954 -3.15062,2.943098 -1.19628,0.924143 -2.48649,1.823269 -3.71806,2.793614 -1.23157,0.970354 -2.40399,2.012453 -3.3625,3.221735 h 2.97212 c 0.86935,-0.427242 1.8422,-0.813388 2.85457,-1.085522 1.01238,-0.272135 2.06429,-0.430259 3.08967,-0.400538 -0.66501,0.913927 -1.28794,1.637452 -1.89966,2.261018 -0.61172,0.623566 -1.21161,1.147573 -1.83435,1.66166 -1.24551,1.028168 -2.57803,2.017847 -4.25356,3.69338 -0.41981,0.417954 -0.73138,0.844996 -0.9491,1.275634 -0.21773,0.430638 -0.34186,0.865511 -0.38893,1.300302 -0.0471,0.434784 -0.0166,0.868446 0.0755,1.298847 0.0921,0.430407 0.24561,0.856691 0.44553,1.274185 0.39984,0.83498 0.98445,1.636293 1.62682,2.368408 0.64237,0.732115 1.34315,1.395269 1.97658,1.956257 -0.53127,0.282351 -1.09272,0.459921 -1.66601,0.593555 -0.5733,0.133626 -1.15808,0.224008 -1.73857,0.329429 -0.5805,0.105414 -1.15669,0.226045 -1.70955,0.423758 -0.55286,0.197713 -1.08274,0.471824 -1.57314,0.882348 -0.5517,0.614857 -0.90051,1.389645 -1.1305,2.250861 -0.23,0.861216 -0.34175,1.808699 -0.41651,2.771851 -0.0748,0.963138 -0.11279,1.941166 -0.19882,2.861825 -0.086,0.920659 -0.21948,1.784142 -0.48326,2.517884 -0.95108,-0.616715 -1.81712,-1.334148 -2.62238,-2.111543 -0.80525,-0.777395 -1.54996,-1.614693 -2.25956,-2.472893 -1.41918,-1.7164 -2.69697,-3.514592 -4.03442,-5.074955 -0.71517,-0.863772 -1.30059,-1.796045 -1.74293,-2.75734 -0.44234,-0.961295 -0.7417,-1.952133 -0.8838,-2.932933 -0.1421,-0.980799 -0.12745,-1.951152 0.058,-2.873438 0.18557,-0.922286 0.54209,-1.795985 1.08264,-2.58174 -1.83157,1.23343 -3.26196,2.090932 -4.61056,3.163681 -0.6743,0.536379 -1.32788,1.127154 -2.00125,1.844513 -0.67337,0.717373 -1.36648,1.56205 -2.11879,2.607864 -0.37616,0.522908 -0.77217,0.972805 -1.18711,1.359805 -0.41493,0.387 -0.84839,0.710582 -1.29885,0.98103 -0.90092,0.540903 -1.87024,0.868535 -2.89375,1.059397 -1.02353,0.19087 -2.10162,0.2452 -3.22174,0.240905 -1.12011,-0.0043 -2.28209,-0.06716 -3.47279,-0.111744 -2.68605,-0.104024 -5.51021,-0.213562 -8.29378,-0.149475 -1.39179,0.03202 -2.7733,0.10687 -4.12295,0.248157 -1.34964,0.141295 -2.66678,0.348994 -3.92993,0.644348 0.34551,0.423527 0.54624,0.896511 0.65305,1.398985 0.10681,0.502474 0.1197,1.034439 0.09,1.573135 0.99566,0.611143 2.03834,1.132891 3.11434,1.576034 1.07599,0.443151 2.1848,0.807116 3.31606,1.102939 1.13127,0.295815 2.28377,0.523078 3.44522,0.692236 1.16144,0.169159 2.33236,0.280784 3.49892,0.343942 -0.26006,0.915784 -0.67057,1.693365 -1.19436,2.366959 -0.52379,0.673586 -1.16128,1.243238 -1.87209,1.741477 -0.71081,0.498231 -1.49504,0.925087 -2.31617,1.314814 -0.82112,0.389726 -1.67913,0.741819 -2.53385,1.089869 -0.85471,0.348065 -1.70628,0.691969 -2.51788,1.065208 -0.8116,0.373238 -1.5823,0.776986 -2.27408,1.242249 -0.69176,0.465263 -1.30429,0.992555 -1.79952,1.61667 -0.49523,0.624131 -0.8737,1.344424 -1.09568,2.194265 h 2.22909 c 0.65015,0.09659 1.63328,-0.165614 2.61221,-0.50648 0.97894,-0.340865 1.95371,-0.760387 2.589,-0.979581 0.80247,-0.282351 1.38946,-0.51269 2.22909,-0.74303 1.56779,-0.74303 3.56654,-2.021041 5.20121,-2.97212 1.0551,-0.609284 2.63776,-1.456339 3.71515,-2.22909 0.5164,-0.371515 0.68208,-0.698567 0.91427,-0.954912 0.2322,-0.256346 0.53092,-0.441984 1.31482,-0.531148 0.73746,-0.08359 1.42789,0.04785 2.08397,0.30621 0.65607,0.258322 1.27796,0.643709 1.87934,1.069555 0.60139,0.425852 1.18258,0.891465 1.75599,1.310459 0.5734,0.419003 1.13887,0.791157 1.711,1.028926 2.67491,0.631576 5.41175,1.103281 8.15446,1.552814 2.74271,0.449533 5.49129,0.876894 8.1922,1.419306 -0.82105,2.652618 -1.41716,5.473293 -2.00125,8.325712 -0.58409,2.852406 -1.15681,5.736016 -1.92723,8.517266 -0.38522,1.39063 -0.81962,2.75593 -1.33078,4.07796 -0.51116,1.32203 -1.09788,2.60153 -1.78792,3.82109 -0.69002,1.21955 -1.48288,2.37943 -2.40468,3.46263 -0.92181,1.08321 -1.97316,2.0896 -3.17965,3.0026 -0.30093,0.33251 -0.95102,1.10851 -1.78356,2.02592 -0.83255,0.91741 -1.84772,1.97675 -2.87634,2.87488 -0.51432,0.44908 -1.03208,0.8576 -1.5325,1.18856 -0.50043,0.33097 -0.98341,0.58392 -1.42801,0.72127 -0.4446,0.13734 -0.85044,0.15937 -1.19727,0.0276 -0.34682,-0.1318 -0.63459,-0.41749 -0.84171,-0.89396 -0.23591,-0.54241 -0.33721,-1.17097 -0.37587,-1.84306 -0.0386,-0.67209 -0.0144,-1.38825 0,-2.10573 0.0144,-0.7175 0.0187,-1.43586 -0.058,-2.11445 -0.0768,-0.6786 -0.23504,-1.31667 -0.54712,-1.87209 -0.62786,-1.11083 -1.12488,-2.2443 -1.55862,-3.39878 -0.43377,-1.15447 -0.804,-2.33021 -1.17551,-3.52649 -0.83963,-2.70463 -1.38947,-5.45384 -2.22909,-8.17333 -0.37152,-0.87306 -1.02364,-2.25359 -1.81404,-3.56132 -0.3952,-0.65387 -0.82465,-1.28916 -1.27127,-1.834353 -0.44664,-0.545198 -0.91034,-0.999955 -1.37287,-1.291594 -1.16842,-0.611142 -2.40858,-1.12685 -3.69193,-1.515083 -1.28336,-0.388233 -2.61001,-0.649163 -3.95025,-0.753187 -1.34023,-0.104024 -2.69389,-0.04993 -4.03297,0.19156 -1.33908,0.241485 -2.66312,0.670875 -3.94299,1.319168 -0.64087,0.323218 -1.28066,0.530843 -1.91708,0.645798 -0.63642,0.114954 -1.26965,0.13723 -1.90111,0.08852 -1.26292,-0.0974 -2.51586,-0.477805 -3.75579,-0.962164 -1.23993,-0.484367 -2.46756,-1.073218 -3.68032,-1.587647 -1.21275,-0.51443 -2.41038,-0.954504 -3.59179,-1.142119 -0.69102,0.04087 -1.28974,0.20567 -1.81694,0.462944 -0.5272,0.257275 -0.98342,0.60638 -1.38883,1.018762 -0.81083,0.824763 -1.4196,1.89908 -1.99544,2.976474 -0.62043,1.578941 -0.91195,3.222601 -1.48316,4.741171 -0.2856,0.75928 -0.64069,1.48809 -1.14212,2.16088 -0.50143,0.67279 -1.14932,1.28986 -2.01866,1.82855 -0.43467,0.26935 -0.79542,0.36905 -1.092784,0.33234 -0.29736,-0.0367 -0.53092,-0.21015 -0.71401,-0.48472 -0.18309,-0.27457 -0.31593,-0.65146 -0.40779,-1.09568 -0.0919,-0.44422 -0.14321,-0.9549 -0.16689,-1.50057 -0.0947,-2.18265 0.26383,-4.90458 0.33813,-5.981971 -0.052,-1.786987 -0.0802,-3.340329 -0.18575,-4.593144 -0.10554,-1.252816 -0.28787,-2.204593 -0.64871,-2.789268 -0.18041,-0.292331 -0.4058,-0.493372 -0.68788,-0.593555 -0.28207,-0.100168 -0.62142,-0.1 -1.03037,0.0087 -0.40896,0.108728 -0.88727,0.325938 -1.44833,0.660316 -0.56105,0.334371 -1.20481,0.785926 -1.9432,1.362703 -0.21548,0.170897 -0.66129,0.482969 -0.74303,0.74303 0.33994,0.774609 0.44042,1.542255 0.37007,2.301654 -0.0704,0.759399 -0.31219,1.510268 -0.65306,2.253759 -0.68173,1.487016 -1.76405,2.941766 -2.68913,4.360956 -0.99008,1.51764 -1.92648,2.87101 -2.90681,4.0141 -0.49017,0.57155 -0.99026,1.09026 -1.51508,1.55137 -0.52483,0.46111 -1.0731,0.86361 -1.65731,1.20307 -0.58421,0.33947 -1.20522,0.61622 -1.87354,0.82285 -0.66831,0.20662 -1.38517,0.34376 -2.16233,0.40634 -0.77717,0.0626 -1.61441,0.0506 -2.52515,-0.0421 -0.91073,-0.0927 -1.89437,-0.26624 -2.96341,-0.52537 0.61672,-1.98203 1.34414,-3.8795 2.17394,-5.69608 0.82982,-1.81657 1.76226,-3.5525 2.78927,-5.208459 1.027,-1.655969 2.14841,-3.232255 3.3567,-4.732462 1.20829,-1.500208 2.50256,-2.924581 3.87623,-4.273879 1.37368,-1.349284 2.82619,-2.623662 4.34934,-3.826895 1.52316,-1.203218 3.11782,-2.335321 4.77455,-3.397327 1.65672,-1.062012 3.37603,-2.053742 5.150424,-2.979379 1.77438,-0.925637 3.60369,-1.784721 5.47985,-2.578835 1.41175,-0.839624 3.17273,-1.426617 4.45818,-2.22909 2.48543,-1.55479 4.90267,-3.245124 7.30114,-4.97917 2.39847,-1.734047 4.77873,-3.512036 7.18939,-5.243296 2.41067,-1.73126 4.8517,-3.41533 7.3737,-4.961761 1.26101,-0.773212 2.54269,-1.511539 3.85012,-2.204415 1.30743,-0.692875 2.6406,-1.340359 4.00685,-1.930139 1.865,-0.802472 3.70058,-1.422903 5.54515,-1.996893 1.84457,-0.573991 3.69814,-1.101542 5.6003,-1.718257 2.57831,-0.837768 5.13283,-1.748968 7.6625,-2.729767 2.52966,-0.9808 5.03455,-2.03091 7.51302,-3.14917 2.47846,-1.11826 4.93012,-2.303913 7.35484,-3.554061 2.4247,-1.250148 4.82243,-2.565084 7.19084,-3.941544 0.98452,-0.865629 2.20193,-2.258466 3.50037,-3.474246 0.64922,-0.60789 1.31836,-1.171087 1.98963,-1.602158 0.67129,-0.431074 1.34408,-0.730318 1.9998,-0.808336 0.32694,-0.03994 0.6754,-0.18062 1.04054,-0.390381 0.36512,-0.20976 0.7472,-0.489239 1.13776,-0.803982 0.78111,-0.629483 1.59995,-1.403281 2.40614,-2.063649 0.80619,-0.660367 1.59867,-1.206147 2.32777,-1.378669 z m 123.68839,2.294395 c 0.18737,0.04946 0.35763,0.152381 0.52389,0.268478 0.3325,0.232197 0.65183,0.517103 1.07536,0.528248 0.52477,0.0084 1.06523,0.119161 1.61667,0.313465 0.55144,0.194305 1.11455,0.472116 1.68053,0.815592 1.13196,0.686953 2.28,1.634842 3.39733,2.697838 1.11732,1.062994 2.20303,2.240876 3.20866,3.38572 1.00565,1.144845 1.93142,2.257304 2.72832,3.189805 0.85263,0.997518 1.59554,1.970085 2.18556,2.945995 0.59001,0.975926 1.02741,1.955915 1.26982,2.969223 0.24241,1.013307 0.28885,2.05982 0.0987,3.169484 -0.19016,1.109671 -0.61723,2.281801 -1.32497,3.54681 -1.82228,-1.48606 -3.59609,-3.148591 -5.28393,-4.9487 -1.68784,-1.800094 -3.29,-3.738489 -4.76584,-5.772994 -1.47584,-2.034498 -2.82636,-4.165674 -4.01265,-6.354937 -1.18629,-2.189264 -2.20808,-4.435952 -3.02727,-6.700331 0.23777,-0.09845 0.44245,-0.10315 0.62984,-0.0537 z M 93.978206,116.00676 c 0.89396,0.0502 1.73536,0.20742 2.49902,0.49343 0.76366,0.286 1.4499,0.70053 2.03027,1.26547 0.58038,0.56493 1.0549,1.2812 1.39899,2.16814 0.344094,0.88693 0.557624,1.94506 0.612424,3.19706 0.0557,1.25106 -0.001,2.40211 -0.15819,3.46699 -0.15648,1.06488 -0.412904,2.04322 -0.754644,2.9489 -0.34173,0.90568 -0.76835,1.73861 -1.26837,2.51208 -0.50002,0.77348 -1.0724,1.48827 -1.70375,2.15652 -0.63134,0.66827 -1.32214,1.29077 -2.05784,1.8808 -0.7357,0.59005 -1.51613,1.14752 -2.32923,1.68633 -1.62619,1.07762 -3.38078,2.07967 -5.15477,3.11434 -1.77398,1.03467 -3.44958,2.12333 -4.96466,3.31171 -0.75754,0.59419 -1.47569,1.21387 -2.14492,1.86338 -0.66922,0.64951 -1.2895,1.32869 -1.85467,2.04479 -0.56517,0.71609 -1.07406,1.46853 -1.51943,2.26246 -0.44539,0.79394 -0.8279,1.63049 -1.13777,2.51353 -0.30987,0.88305 -0.54813,1.81312 -0.70675,2.79652 -0.15861,0.98342 -0.23766,2.0193 -0.2293,3.11435 0.009,1.09596 -0.0931,2.14237 -0.29314,3.13901 -0.20006,0.99663 -0.49766,1.94418 -0.87945,2.84296 -0.38179,0.89877 -0.8471,1.74886 -1.38302,2.55126 -0.53593,0.8024 -1.14288,1.55641 -1.80533,2.26392 -0.66246,0.70751 -1.38064,1.3683 -2.14202,1.98238 -0.76139,0.61409 -1.56472,1.1816 -2.39743,1.70375 -1.66543,1.0443 -3.44656,1.90645 -5.23169,2.5919 -0.32554,-0.94133 -0.65807,-1.75105 -0.99409,-2.43952 -0.33602,-0.68848 -0.6754,-1.25632 -1.01731,-1.7139 -0.34192,-0.45759 -0.68569,-0.80494 -1.02893,-1.0536 -0.34323,-0.24867 -0.68605,-0.39834 -1.02602,-0.46004 -0.33996,-0.0617 -0.67648,-0.0351 -1.0086,0.0682 -0.33212,0.10329 -0.6599,0.28339 -0.97958,0.5297 -0.63937,0.49264 -1.24899,1.2497 -1.81114,2.18265 -0.56215,0.93297 -1.07697,2.04157 -1.52524,3.23915 -0.44827,1.19759 -0.82988,2.48381 -1.12761,3.7703 -0.29773,1.28648 -0.51203,2.57352 -0.62258,3.7732 -0.11054,1.19967 -0.11756,2.31216 -0.004,3.2493 0.0557,1.93188 0.23586,3.58681 0.21914,5.23169 -0.008,0.82243 -0.0663,1.64257 -0.21333,2.49321 -0.14677,0.85064 -0.38279,1.73201 -0.74873,2.67752 -0.67616,1.74612 -1.21648,3.72612 -1.96787,5.57998 -0.37569,0.92692 -0.80491,1.82251 -1.32933,2.64124 -0.52441,0.81873 -1.14426,1.56077 -1.90401,2.1812 -0.13932,-1.28916 -0.15006,-2.54494 -0.0914,-3.78336 0.0586,-1.23842 0.18674,-2.45931 0.32653,-3.67742 0.13978,-1.2181 0.29059,-2.43325 0.39474,-3.66145 0.10413,-1.22821 0.16149,-2.46965 0.11319,-3.73837 -0.13375,-1.38947 -0.16964,-2.25343 -0.0609,-3.08096 0.10862,-0.82755 0.36185,-1.61871 0.80396,-2.86328 0.47925,-2.57089 1.20498,-5.03914 2.0056,-7.48836 0.80061,-2.4492 1.67611,-4.87938 2.45258,-7.37225 0.15975,-1.35974 0.14854,-2.15804 0.28879,-2.96051 0.14025,-0.80246 0.43195,-1.60912 1.19727,-2.98373 1.0551,-3.37707 2.15687,-6.80082 3.09402,-10.2689 0.46858,-1.73405 0.89529,-3.4785 1.25532,-5.23459 0.36002,-1.75611 0.65311,-3.52365 0.85187,-5.30135 0.18947,-1.70525 0.39166,-2.86978 0.72416,-3.9546 0.33251,-1.08481 0.79533,-2.08995 1.50493,-3.4757 0.57956,-1.13683 1.78327,-3.26933 2.22909,-4.45818 0.17647,-1.02166 0.46294,-2.09617 0.86058,-3.15497 0.39764,-1.05882 0.9062,-2.10215 1.52524,-3.06065 0.61904,-0.9585 1.34924,-1.83197 2.18991,-2.55271 0.42034,-0.36037 0.86806,-0.68266 1.34384,-0.95781 0.47578,-0.27516 0.97946,-0.50352 1.51073,-0.67628 v 8.17333 2.22909 5.94424 c 0.82105,-0.0669 1.30918,-0.14657 1.7197,-0.35555 0.41053,-0.20898 0.74344,-0.54723 1.25242,-1.13051 0.7616,-1.74612 1.42824,-3.56312 2.11009,-5.36519 0.68184,-1.80208 1.37959,-3.58989 2.20297,-5.27378 0.41168,-0.84194 0.85383,-1.65687 1.34239,-2.43662 0.48855,-0.77974 1.02212,-1.52316 1.61522,-2.21892 0.59308,-0.69578 1.24549,-1.34446 1.97077,-1.9345 0.72527,-0.59004 1.52391,-1.1222 2.40904,-1.58474 1.77027,-0.92507 3.75724,-1.76632 5.74833,-2.351 0.99553,-0.29232 1.99216,-0.52058 2.96341,-0.6632 0.97124,-0.14264 1.91707,-0.19963 2.81103,-0.14949 z"
     style="fill:#040101;stroke-width:0.74303"
     id="path1211"
     sodipodi:nodetypes="sssssssssssssssssscsssssscssssscsssssscssssscssssssssssscsssscssscsssssssscsscssssssssscsssssccsssssssscsssssssscsscscssssssssssssssscsssscssssssssssssssssssssscsccscsscsssscsscssscsssscsscscssscssscssssscsscssscssscssssscsssssccssssscsssccsssscsssssssssssssssssscscssccscsscssscsscsssssssssccsssscsscssssscscssscsscssscsssscsssssssscscsssscssssssscssccssssscssssccsscsscssssscsssssssssssscssscssssccscsscssssscssscssscsscssccssssssscsscscssscsssssssccsccccscssscscssssscssssscssscsccsscssscsssscsscssssssscsssssccsscsssssccsssssssccsssscscssscsscsssssscsssscssscssscssssssccsssssssssssscsssssscsssssssssscsccsscssscccscscsscsccssssccccscsssssssss" />
  <g
     id="g1"
     transform="translate(-0.23486486,0.85702953)">
    <g
       fill="#e8945a"
       fill-opacity="1"
       stroke="None"
       id="g433"
       transform="matrix(0.74303005,0,0,0.74303005,-129.81316,-32.912709)">
      <path
         d="m 524,54 c -10.48,7.19 -26.72,18.45 -38,6 -16.77,1.33 -26,11.94 -30,26 -0.47,1.64 -0.49,3.33 -1,5 -1.48,4.85 -6.04,14.59 -7.03,18.97 -0.98,4.39 -11.36,11.64 -8.97,14.03 0.63,0.27 6.27,-1.67 7,-2 5.53,-4.19 11.66,-8.35 13.03,-15.97 1.36,-7.63 8.9,-10.48 14.22,-14.78 5.33,-4.3 13.25,-6.76 19.75,-8.25 6.9,-2.61 14.49,-5.76 21,-10 3.88,-2.53 7.44,-3.76 12,-5 6.98,-1.89 3.24,-2.59 5.99,-9.01 2.76,-6.42 5.29,0.28 5.01,5.01 -0.34,5.69 -5,9.13 -2,14 1.33,1.81 5.29,4.96 7,6 7.67,3.07 15.46,5.72 23,9 0.16,-6.37 -1.78,-11.9 0,-18 1.55,-5.32 5.75,-4.5 8,-9 -1.33,-0.99 -3.57,-1.05 -4,-3 -9.49,-4.85 -16.36,-6.76 -27,-9 -3.71,-0.78 -7.07,-2.19 -11,-2 -2.51,0.56 -4.58,1.27 -7,2 z"
         id="path433" />
    </g>
    <g
       fill="#e8955b"
       fill-opacity="1"
       stroke="None"
       id="g437"
       transform="matrix(0.74303005,0,0,0.74303005,-129.81316,-32.912709)">
      <path
         d="m 569,106 c 6.5,2.47 14.96,0.48 21,-3 2.78,-1.69 5.52,-4.17 9,-4 0.14,-3.03 -1.78,-5.4 -3,-8 -1.04,-2.22 -1.49,-3.61 -2,-6 -2.99,-2.46 0.79,-6.18 1,-9 -4.75,-5.65 -19.88,-9.71 -20.01,0.99 -0.13,10.7 -7.43,18.99 -5.99,29.01 z"
         id="path437" />
    </g>
    <g
       fill="#eb955a"
       fill-opacity="1"
       stroke="None"
       id="g442"
       transform="matrix(0.74303005,0,0,0.74303005,-129.81316,-32.912709)">
      <path
         d="m 520,82 c -2.68,8.46 -8.93,14 -18,14 -0.64,0 -7.27,0.18 -4,1 3.29,3.66 5.39,9.36 7,14 0.41,1.17 0.81,1.76 1,3 1.11,7.21 -1.27,11.31 -5,4 -3.9,-7.63 -9.23,-5.85 -17,-7 -7.77,-1.15 -12.21,-1.79 -18,4 -5.08,6.83 -10.29,15.85 -20,15 -0.7,2.44 6.08,6.33 9,6 2.91,-0.33 9.71,-1.78 13,-2 10,-2.55 17.98,-0.25 26,7 1.49,-2.4 2.05,-5.81 5,-7 0.35,-0.68 0.59,-1.33 1,-2 8.95,-14.71 13.78,10.05 20,13 0.37,-6.58 5.25,-12.93 12,-14 7.3,-2.69 10.98,-3.09 13,-11 2.26,-8.87 5.7,-16.92 16,-19 0.55,-1.82 -1.75,-2.47 -2,-4 -6.11,-3.18 -13.17,-4.68 -19,-8 -6.34,-3.61 -10.71,-12.38 -19,-12 0.72,1.89 -0.6,3.74 -1,5 z"
         id="path442" />
    </g>
    <g
       fill="#e9945b"
       fill-opacity="1"
       stroke="None"
       id="g446"
       transform="matrix(0.74303005,0,0,0.74303005,-129.81316,-32.912709)">
      <path
         d="m 418,97 c -12.75,7.41 -26.12,13.49 -40,18 -2.87,3.29 -4.32,10.4 -8.25,13.75 -3.94,3.34 -6.12,9.1 -8.75,13.25 4.16,0 8.56,0.51 12,1 6.41,0.24 12.2,0.88 16.25,-4.75 4.05,-5.63 6.82,-6.93 11.75,-10.25 5.78,-3.88 14.1,-8.12 19.7,-12.3 5.59,-4.19 14.3,-8.06 17.3,-14.7 0.55,-3.83 4.49,-13.22 2,-17 -7.39,4.27 -14.61,8.7 -22,13 z"
         id="path446" />
    </g>
    <g
       fill="#ef9659"
       fill-opacity="1"
       stroke="None"
       id="g456"
       transform="matrix(0.74303005,0,0,0.74303005,-129.81316,-32.912709)">
      <path
         d="m 587,113 c -8.12,0.71 -15.3,0.27 -23,2 -15.37,3.46 -6.77,22.26 -22.98,25.02 -16.2,2.76 -15.56,14.84 -18.02,28.98 -0.1,8.92 8.55,14.1 13,21 1.71,2.65 3.15,4.99 4,8 0.53,1.86 1.66,4.49 1,7 -2.7,0.6 -4.83,-1.97 -6,-4 -3.83,-6.74 -7.73,-13.65 -13.7,-19.3 -5.96,-5.65 -1.8,-21.58 -13.07,-19.47 -11.27,2.11 -6.35,13.77 -18.21,14.79 -11.85,1.03 -11.12,9.13 -7.35,18.31 3.77,9.18 -1.41,19.02 -4.67,26.67 4.86,6.25 14.26,7.54 19,13 6.45,-5.83 15.65,-1.96 23,-1 -1.16,-6.38 -5.2,-12.43 -3,-19 6.46,-1.2 10.99,4.78 13,10 4.55,5.92 4.07,14.41 4,22 22.91,-2.9 34.48,19.45 55,24 6.08,0.62 13.18,0.17 19,-1 0.96,-0.19 2.49,-0.83 4,-1 9.78,-1.13 19.62,-4.45 30,-3 4.2,1.2 8.14,2.79 12,5 0.85,-2.05 2.22,-4.22 3,-6 3.5,-8.02 5.9,-12.69 16,-12 2.71,0.18 5.03,1.64 8,1 4.88,-1.83 1.36,-9.46 4,-12 0.18,-2.99 2.05,-2.84 4,-4 2.97,-1.77 11,-3.95 13.22,-6.78 2.22,-2.83 -3.41,-10.96 -4.22,-14.22 -2.09,-8.44 4.96,-21.63 0.74,-28.74 -4.22,-7.11 -14.35,-8.55 -18.74,-16.26 -1.06,-1.86 -2.29,-3.71 -3,-6 -1.67,-5.35 -0.8,-13.03 -3,-18 -1.43,-1.83 -4.48,-2.75 -6,-4 -2.78,1.58 -0.78,12.7 -5.77,5.77 -4.99,-6.93 -0.86,-8.41 -3.23,-13.77 -2.23,-1.67 -4.69,-4.03 -7,-6 -3.53,-3.02 -6.61,-7.05 -10,-10 -6.75,-5.02 -12.94,0.09 -9.77,6.77 3.17,6.69 6.59,9.29 11,15 4.41,5.71 8.23,8.57 14.77,11.23 4.21,1.71 7.95,6.09 1.99,5.99 -5.96,-0.1 -7.54,-2.89 -12.99,-3.99 -1.41,0.41 -1.93,1.72 -1,3 5.39,2.82 9.61,4.61 14,9 3.47,3.47 8.82,6.57 12,10 4.46,4.8 -2.05,6.78 -6.08,4.08 -4.02,-2.71 -6.07,-6.68 -8.92,-10.08 -5.6,-4.79 -13.27,-5.64 -18.3,-10.7 -5.03,-5.06 -8.63,-8.79 -14.7,-13.3 -6.86,-5.1 -4.45,-7.66 2,-3 1.99,0.76 3.67,2.44 6,2 1.44,-9.26 -5.74,-13.69 -10.75,-20.25 -5.01,-6.56 -9.1,-9.25 -15,-16 C 600.34,103 594.3,112.36 587,113 m -22,8 c 4.49,2.94 -2.18,10.29 -6.22,7.22 -4.05,-3.07 2.35,-9.75 6.22,-7.22 m 115,82 c -1.02,-0.29 -1.96,-0.73 -3,-1 -2.28,-0.59 -4.7,-0.39 -7,-1 0.32,-7.07 7.63,-5.58 13.68,-3.68 6.04,1.9 3.63,10.1 -3.68,5.68 m -49,31 c 2.36,1.33 0.31,7.05 -3.08,5.06 -3.39,-1.98 -0.68,-7.19 3.08,-5.06 m -17,2 c 2.28,1.14 -0.1,5.32 -2.68,3.66 -2.58,-1.65 0.28,-4.86 2.68,-3.66 m 56,11 c -9.07,1.65 -14.6,13.42 -25.08,14.92 -10.47,1.51 -25.08,2.61 -35.92,4.08 6.08,-8.9 19.05,-7.84 28.08,-13.92 9.02,-6.09 22.3,-10.11 32.92,-5.08 z"
         id="path456" />
    </g>
    <g
       fill="#d78f5f"
       fill-opacity="1"
       stroke="None"
       id="g462"
       transform="matrix(0.74303005,0,0,0.74303005,-129.81316,-32.912709)">
      <path
         d="m 403,143 c 3.6,4.2 6.88,9.68 12,13 1.42,-3.95 0.03,-10.69 3,-14 -6.44,1.36 -14.92,-5.68 -8.75,-10.75 6.17,-5.07 11.16,-6.15 15.75,-12.25 -10.34,5.36 -31.07,9.5 -22,24 z"
         id="path462" />
    </g>
    <g
       fill="#e7935a"
       fill-opacity="1"
       stroke="None"
       id="g463"
       transform="matrix(0.74303005,0,0,0.74303005,-129.81316,-32.912709)">
      <path
         d="m 323,146 c -2.76,4.85 -3.17,12.98 -10.25,15.75 -7.08,2.78 1.6,-10.1 4.25,-12.75 -20.2,8.55 -36.36,22.66 -43,44 11.51,2.79 15.67,-1.83 21,-10 1.69,-3.69 2.78,-8.09 4,-12 0.11,-0.35 0.71,-0.77 1,-1 5.91,-14.16 8.71,-2.41 8,8 -0.2,2.9 -1.93,14.65 2.75,11.75 4.68,-2.9 4.58,-7.5 6.25,-11.75 1.93,-4.91 1.96,-6.8 7,-6 6.36,1.01 13.08,7.46 19.98,3.98 6.89,-3.49 14.73,-2.27 21.02,1.02 1.04,0.55 3.37,2.14 4,3 -2.93,-10.37 -8.88,-6.18 -17,-10 -1,0 -2,0 -3,0 2.39,-9.15 18.2,-7.14 21,-17 -6.28,-0.34 -12.64,-1.71 -18,-5 -3.51,-2.15 -2.9,-2.88 -3,-6 -0.1,-3.23 1.34,-8.96 5.75,-11.25 4.42,-2.28 5.68,-8.13 8.25,-10.75 -14.71,6.35 -26.62,17.63 -40,26 z"
         id="path463" />
    </g>
    <g
       fill="#ed965a"
       fill-opacity="1"
       stroke="None"
       id="g472"
       transform="matrix(0.74303005,0,0,0.74303005,-129.81316,-32.912709)">
      <path
         d="m 459,160 c -4.59,6.42 -12.48,14.66 -19,19 -5.64,3.75 -11.78,4.21 -18,6 -5.35,1.96 -11.33,7.58 -14,13 15.1,5.91 17.56,21.75 26,33 4.36,2.99 8.38,-10.95 14,-8 0,1.33 0,2.67 0,4 0,0 0.23,0.84 0,1 4.29,-0.46 4.82,-6.27 9,-6 0.12,10.79 -14.4,16.22 -22,18 -1.62,5.54 -10.43,11.86 -4.75,17.75 5.67,5.9 3.64,15.01 2.75,22.25 6.18,1.83 10.91,4.11 16.75,7.25 5.84,3.14 2.53,12.2 9.17,13.83 6.65,1.62 9.17,6.25 12.15,11.85 2.99,5.59 -2.59,13.14 -2.07,19.07 2.83,-0.37 5.28,-1.33 8,-2 2.53,-0.63 5.8,-1.49 9,-1 5.72,0.87 15.65,6.14 20.97,7.03 5.33,0.88 13.06,16.64 12.03,1.97 -0.33,-1.69 -4.38,-6.91 -6,-8 -5.83,-2.72 -14.06,-4.17 -19.3,-7.7 -5.24,-3.53 -14.57,-9.3 -4.7,-12.3 3.3,-1 5.81,-0.7 9,0 0.91,0 2.12,-0.19 3,0 0.6,0.13 1.43,0.74 2,1 -0.26,-1.63 -10.2,-5.91 -0.99,-6.99 9.21,-1.08 17.08,8.82 25.02,10.96 7.93,2.15 7.29,5.24 12.97,1.03 4.72,-8.59 24.07,-7.13 21.98,-19.98 -2.1,-12.84 -4.6,-20.1 -9.73,-31.27 -5.13,-11.16 -18.08,-8.27 -23.25,-17.75 -3.74,-3.6 -14.8,-5.44 -21,-6 -5.33,-0.48 -15.73,-0.42 -19,-5 -0.48,-0.09 -1,0 -1,0 -3.71,-0.82 -8.67,-3.79 -9,-8 -2.01,-0.82 -1.47,1.82 -3,2 0.08,2.04 0.53,4.07 1,6 1.5,4.33 5.65,8.67 5,14 -1.83,0.23 -3.47,-0.07 -5,-1 -3.8,-1.57 -5.05,-5.59 -6,-9 -1.7,-3.98 -3.68,-6.9 -3,-12 1,-7.5 6.1,-14.68 8,-22 0.5,-3.74 -0.04,-8.5 -1,-12 -3.46,-12.6 -12.13,-5.08 -20,0 -2.44,1.57 -4.71,3.26 -7,5 -0.88,0.66 -2,1.32 -3,2 -1.47,1 -2.57,3.49 -5,3 -0.53,-1.28 0.97,-1.86 1,-3 0.2,-0.42 0.73,-1.71 1,-2 -8.23,0.61 -17.08,8.66 -25,3 4.17,-2.64 10.97,-2.55 15.33,-4.67 4.35,-2.13 11.18,-1.73 13.9,-6.1 2.72,-4.37 4.3,-8 7.52,-11.48 3.22,-3.48 5.25,-8.82 8,-12 2.74,-3.19 6.67,-10.31 6.25,-13.75 -0.42,-3.44 2.3,-14.82 2,-15 -16,1.68 -4.15,11.4 -11,21 z"
         id="path472" />
    </g>
    <g
       fill="#e2905a"
       fill-opacity="1"
       stroke="None"
       id="g474"
       transform="matrix(0.74303005,0,0,0.74303005,-129.81316,-32.912709)">
      <path
         d="m 435,171 c 1.92,-0.24 8.25,-7.37 10,-9 3.17,-4.28 12.34,-7.56 7,-14 -7.83,1.6 -12.73,-4.5 -19,-7 0.11,5.04 0.28,12.53 -1.02,16.98 -1.3,4.45 -3.18,13.07 3.02,13.02 z"
         id="path474" />
    </g>
    <g
       fill="#eb955a"
       fill-opacity="1"
       stroke="None"
       id="g483"
       transform="matrix(0.74303005,0,0,0.74303005,-129.81316,-32.912709)">
      <path
         d="m 374,160 c -2.58,6.28 0.08,19.56 1,26 0.57,3.97 -0.86,7.71 -1,11 1,3.22 1.99,6.33 3.68,9.32 1.68,2.99 0.05,7.76 1.32,10.68 0.77,1.25 11.47,-6.89 13,-8 12.99,-9.83 12.58,-27.72 17,-42 -7.27,-1.46 -14.8,-2.3 -22,-4 -2.66,-0.63 -8.17,-4.96 -10,-5 -2.11,0.24 -1.61,1 -3,2 z"
         id="path483" />
    </g>
    <g
       fill="#330f03"
       fill-opacity="1"
       stroke="None"
       id="g493"
       transform="matrix(0.74303005,0,0,0.74303005,-129.81316,-32.912709)">
      <path
         d="m 422,185 c 6.22,-1.79 12.36,-2.25 18,-6 3.24,-2.53 6.03,-7.03 9,-10 -8.98,7.68 -19.37,11.71 -27,16 z"
         id="path493" />
    </g>
    <g
       fill="#ec965a"
       fill-opacity="1"
       stroke="None"
       id="g501"
       transform="matrix(0.74303005,0,0,0.74303005,-129.81316,-32.912709)">
      <path
         d="m 331,192 c 0,3.59 0.67,8.25 0,12 -0.81,11.96 -10.03,17.55 -18.75,24.25 -8.73,6.69 -16,11.95 -20.48,21.52 -4.48,9.57 -6.37,20.57 -13.52,28.48 -7.15,7.91 -6.51,20.46 5.75,23.75 10.74,0.88 26.48,-8.19 33,5 5.64,11.4 3.85,24.46 3,37 -0.25,3.66 -0.76,5.43 -3,8 -5.89,6.76 -12.04,10.25 -15.7,19.3 -3.66,9.06 -7.55,11.96 -14.05,19.95 -6.49,8 -5.22,16.13 5,19.5 10.22,3.36 10.97,13.35 12.75,21.25 0.89,3.93 2.85,7.76 7,9 0.95,0.05 2.07,-0.18 3,0 1.51,0.29 5.83,2.16 7,3 -0.3,-1.13 0.97,-1.42 0,-3 -3.08,-2.29 -6.26,-3.41 -10,-4 8.81,-12.29 18.84,5.5 23,10 -2.57,-10.68 12.46,-14.59 19,-11 0,0 0.56,-0.16 1,0 2.25,0.81 4.17,2.55 6,4 2.32,1.83 6.64,8.21 9,9 11.35,3 16.19,-17.93 20,-25 2.75,-5.1 7.85,-10.58 10,-16 0.61,-3.44 -1.7,-6.62 -2,-10 -0.43,-4.91 3.65,-4.81 6,0 0.2,0.4 0,1 0,1 1.63,2.59 2.26,5.03 2.99,7.99 0.73,2.96 -3.29,5.92 -1.99,9.01 1.08,1.65 7.33,1.43 9,1 0.95,-0.59 0.8,-0.57 2,-1 6.06,-2.17 15.18,-3.29 20.08,-7.92 4.89,-4.64 6.76,-11.22 12.67,-16.33 5.92,-5.1 -10.93,-10.73 -13.75,-12.75 -4.72,-3.48 -6.89,-7.78 -3.98,-13.97 2.91,-6.2 -6.42,-7.1 -11.02,-5.03 0.31,3.36 3.06,5.85 4,9 0.73,2.46 1.02,3.57 0,6 -1.05,2.5 -4.02,4.29 -6,6 -5.7,4.92 -11.34,-0.41 -12.99,-7.01 -1.65,-6.59 7.91,2.4 6.99,2.01 13.91,-1.22 1.48,-16.32 -8,-17 -3.28,0.63 -9.37,5.77 -15,4 -5.63,-1.77 -11.88,3.97 -17.22,2.78 -5.35,-1.19 -13.07,5.31 -16.08,-1.48 -3.01,-6.79 0.65,-8.8 -3.47,-16.53 -4.12,-7.73 -11.46,-14.15 -17.98,-21.02 -6.52,-6.86 -17.5,-13.34 -14.25,-25.75 7.74,8.42 15.12,19.49 27,24 7.53,-3.81 9.75,-7.44 17.75,-11.25 8.01,-3.8 7.93,-12.38 8.92,-20.08 0.99,-7.7 -6.56,-12.78 -9.92,-18.42 -3.36,-5.64 -22.59,-5.83 -15.05,2.05 7.53,7.89 -1.93,12.09 -5.45,2.45 -3.51,-9.65 -11.37,-0.19 -16.25,2.25 -8.83,5.53 -18,2.21 -28,5 -1.72,0.48 -4.19,2.36 -6,2 -0.96,-0.19 -2.03,0.15 -3,0 -1.66,-6.26 5.21,-8.74 10,-9 1.23,-0.35 2.21,-0.9 4,-1 3.3,-0.19 6.72,0.37 10,0 2.1,-0.15 3.73,-1.59 6,-1 0.09,-5.85 -10.43,-4.62 -10.64,-10.3 -0.21,-5.69 7.8,-2.1 11.41,1.53 3.61,3.63 11.22,3.68 13.23,-2.23 0.09,-3.61 -5.4,-8.04 -6,-12 -1.24,-8.11 5.93,-0.68 8,3 6.13,10.88 14.3,8.26 24,2 4.21,-3.9 9.02,-9.5 12,-14 0.58,-1.71 2.06,-3.11 2,-5 -8.75,1.2 -11.83,13.88 -20,16 -0.89,0.23 -2.47,1.8 -4,1 -0.3,-1.57 0.25,-3.61 2,-4 4.92,-9.93 15.64,-17.56 17.67,-29.33 C 371.7,212.9 366.79,198.74 355,194 c -4.51,-1.12 -9.89,0.25 -14,-1 -4.62,0.87 -5.79,-5.83 -10,-6 -0.13,1.65 0.17,3.35 0,5 m -4,47 c 3.71,2.42 -0.58,9.6 -4.67,6.67 -4.09,-2.93 0.73,-9.24 4.67,-6.67 m -3,92 c -0.71,-2.23 1.03,-5 4,-5 6.19,0 7.28,9.85 10.78,14.22 3.49,4.38 2.76,15.42 5.22,20.78 2.46,5.36 0.84,15.05 8.23,17.77 7.39,2.72 10.2,2.64 19.45,5.55 9.24,2.91 4,10.12 -4.68,6.68 -8.68,-3.43 -12.43,-1.97 -19.69,-6.31 -7.27,-4.33 -5.68,-11.59 -6.64,-18.36 -0.96,-6.77 -4.69,-13.47 -5.99,-20.01 -1.3,-6.54 -8.84,-9.55 -10.68,-15.32 m 20,60 c -1.98,6.37 -11.97,3.6 -18.02,5.98 -6.06,2.37 -15.41,1.23 -21.98,2.02 -6.57,0.79 -11.33,-6.45 -12,-12 15.58,11.93 34.12,3.75 52,4 m -7,32 c -0.19,-0.27 -0.83,-0.67 -1,-1 -2.69,-5.16 -13.56,-22.84 -2.31,-18.69 11.26,4.14 8.12,19.44 6.31,26.69 -2.5,-1.22 -2.7,-4.51 -3,-7 z"
         id="path501" />
    </g>
    <g
       fill="#e7945c"
       fill-opacity="1"
       stroke="None"
       id="g512"
       transform="matrix(0.74303005,0,0,0.74303005,-129.81316,-32.912709)">
      <path
         d="m 270,230 c -0.76,1.75 -2.52,7.79 -4,3 -2.37,-2.28 -0.5,-6.74 0,-9 0,-1 0,-2 0,-3 -3.52,15.88 -9.65,33.27 -5,51 -7.81,-2.85 -6.2,-12.81 -7,-21 -0.8,-8.19 1.66,-18.77 2,-27 -0.6,1.6 -2.22,4.47 -3,6 -0.86,3.35 -2.18,7.02 -3,10 -1.07,9.57 -4.16,18.91 -7,28 -0.81,2.61 -1.18,5.36 -2,8 -2.09,6.71 -4.71,13.08 -6,20 -0.5,2.69 -0.81,5.23 -1,8 0.26,6.83 -1.75,13.06 -1,20 4.09,-3.34 5.18,-9.3 7,-14 0.85,-4.63 0.67,-9.22 1,-14 -1.22,-10.09 7.99,-35.27 15,-15 9.61,-3.69 19.12,-11.18 19.02,-22.98 -0.09,-11.79 7.35,-18.53 16.9,-24.1 9.55,-5.57 18.67,-10.44 18.07,-23.91 C 309.4,196.53 295.21,199.7 285.68,204.68 276.15,209.66 274.1,220.6 270,230 Z"
         id="path512" />
    </g>
    <g
       fill="#ec955b"
       fill-opacity="1"
       stroke="None"
       id="g519"
       transform="matrix(0.74303005,0,0,0.74303005,-129.81316,-32.912709)">
      <path
         d="m 398,213 c -5.27,1.24 -13.03,6.04 -13.07,11.93 -0.05,5.88 -4.54,15.57 2.82,19.32 7.36,3.74 7.98,6.96 7.25,14.75 -0.45,4.83 -0.47,8.86 -2,13 -2.12,5.74 -8.94,9.88 -11.67,15.33 -2.73,5.45 7.14,15.11 1.97,19.97 -5.17,4.87 0.45,13.92 3.7,17.7 4.01,1.26 7.1,4.47 11,6 -2.34,-3.59 -6.58,-3.77 -9,-7 5.32,-0.02 11.21,6.25 16.08,6.92 4.86,0.68 12.07,9.13 5.92,9.08 0.2,0.4 0,1 0,1 0.17,1.29 1.7,1.75 2,3 6.84,-2.74 12.68,-9.4 21,-8 1.3,0.22 2.69,-0.17 4,0 0.74,4.6 -4.93,5.05 -8,6 -3.17,2.12 -7.11,3.12 -9,7 16.82,-6.34 18.52,13.54 31,17 1.62,-2.4 3.94,-4.2 5,-7 0.65,-2.82 -0.32,-6.12 0,-9 1.66,-14.82 12,-26.55 -2,-39 -3.77,-2.17 -5.91,-1.82 -8,-6 -0.87,-1.74 -1.05,-4.34 -2,-6 -1.81,-2.49 -6.44,-5.24 -9,-7 -0.21,1.5 -3.19,6.25 -2,10 1.19,3.75 -0.27,9 -1,12 -0.55,2.25 -0.4,3.32 -2,5 -0.71,0.74 -0.6,3.1 -3,2 0,-4 0,-8 0,-12 0,-6.09 -0.89,-13.98 -1.07,-19.93 -0.19,-5.94 -4.97,-7.96 -6.93,-13.07 -1.67,-3 -2.84,-5.47 -4,-9 -1.51,-2.35 -1.23,-7.03 -5,-7 -1.48,2.06 -1.71,6.13 -5,6 -4.81,-8.7 0.47,-16.17 10,-16 3.74,-1.95 -1.39,-7.69 -2,-12 -0.61,-4.31 -0.48,-11.72 -2,-16 -2.39,-5.05 -8.77,-10.23 -14,-9 m -5,9 c 7.53,2.87 1.86,11.48 8.25,17.75 6.4,6.27 1.12,13.49 -3.55,4.55 -4.67,-8.94 -4.64,-12.51 -4.7,-22.3 z"
         id="path519" />
    </g>
    <g
       fill="#e9955c"
       fill-opacity="1"
       stroke="None"
       id="g521"
       transform="matrix(0.74303005,0,0,0.74303005,-129.81316,-32.912709)">
      <path
         d="m 720,243 c 5.22,5.06 -0.08,5.38 -5,3 -9.29,-11.43 -30.91,2.4 -21.75,14.75 9.15,12.36 -10.07,5.03 -13.25,6.25 -1.02,2.87 1.66,2.72 3,4 9.01,6.08 17.16,8 12,21 -3.1,7.8 -9.21,10.06 -16.78,13.22 -7.56,3.16 -14.61,4.57 -10.19,14.75 4.42,10.19 11.77,-1.04 18.97,0.03 -2.2,-1.94 -5.06,-5.03 -5,-8 16.31,5.53 33.51,22.15 36,40 -7.56,-3.74 -9.27,-16.54 -18,-21 -1.27,-0.36 -4.32,1.41 -5.97,-0.02 -1.66,-1.44 -3.17,-1.44 -5.03,-1.98 -1.53,2.08 -4.26,4.91 -7,5 1.56,0.81 3.3,1.28 5,2 3.73,1.58 8.61,5.79 9,10 0,0 0,0.5 0,1 2.13,2.88 0.62,7.2 0,10 0,0.98 0.08,2.02 0,3 -0.2,2.36 -1.9,5.55 -1,8 5.05,5.06 17.9,-16.46 23,-2 6,-2.36 11.39,-6.49 17,-10 4.8,-3 11.44,-5.3 17.02,-3.02 5.59,2.27 8.97,8.47 14.98,6.02 3.17,-1.58 7.16,-7.57 10,-10 4.95,-4.23 10,-8.72 17,-8 0.06,2.12 0.23,4.23 -1,6 -2.96,11.01 -9.16,20.3 -10,32 -0.84,11.7 -3.31,24.34 -7,35 -2.39,6.9 -7.21,11.61 -12,17 -11.5,13.44 -24.86,26.71 -29,44 5.78,-3.67 12.77,-7.16 18,-12 9.57,-8.85 27.79,-24.52 29,-37 0,-9.07 2.1,-17.81 4,-26 0.47,-2.02 0.53,-3.97 1,-6 3.98,-17.17 10.32,-34.66 12,-52 0.25,-2.54 0.58,-6.52 0,-9 -1.92,-5 -6.77,-9.65 -9,-15 -1.39,-3.34 -1.98,-6.58 -3,-10 -2.67,-6.38 -3.19,-13.39 -5,-20 -5.42,1.3 -3.81,7.13 -3,11 0.96,4.56 3.01,8.47 4,13 -2.16,0.53 -4.24,-1.12 -5,-3 -2.59,-2.97 -3.83,-6.91 -4,-11 -4.3,-14.97 -20.23,5.51 -24,11 -2.42,3.52 -6.62,9.79 -5.93,13.93 0.69,4.13 6.87,12.71 0.93,13.07 -7.91,0.48 -6.58,-18.29 -5,-22 0,-0.5 -0.02,-1.5 0,-2 0.15,-3.74 1.88,-7.22 4,-10 0.7,-0.92 1.04,-1.26 2,-2 3.62,-5.07 4.15,-8.17 10,-11 5.2,-4.07 12.88,-3.61 19,-6 -0.68,-14.01 -16.51,-14.64 -23.25,-6.25 -6.73,8.4 -15.32,15.82 -25.75,16.25 -3.75,0.16 -7.64,-1.86 -4,-5 3.48,-3 9.64,-2.98 13.77,-5.23 4.13,-2.25 6.53,-6.49 9.23,-9.77 -0.73,0.03 -2.07,-0.9 -3,-1 -2.22,-0.48 -4.01,0.72 -6,1 3.4,-8.72 11.96,-13.62 22,-13 10.03,0.62 15.62,8.34 27,7 11.38,-1.34 5.42,18.74 6,26 0.35,1.17 2.87,2.65 3,3 0.44,-3.8 0.92,-7.06 1,-11 0.09,-4.56 0.98,-10.56 0,-15 -5.41,-14.66 -25.48,-22.69 -37,-31 -3.36,-2.42 -7.51,-5.27 -11,-7 -6.43,-3.18 -14.12,-5.52 -19.75,-10.25 -5.64,-4.72 -15.26,-6.77 -18.25,2.25 -2.99,9.02 5.98,14.13 11,19 m 22,15 c -1.91,-1.63 -6.4,-0.15 -6,-4 2.83,-0.52 6.95,0.12 6,4 m -35,57 c -6.54,-2.33 -9.33,-12.79 -6.07,-20.07 3.26,-7.28 -3.04,-14.6 -5.93,-20.93 16.79,8.51 5.12,27.47 12,41 m 16,19 c 0.32,1.76 3.22,10.4 -1,11 -3.71,0.53 -3.84,-9.81 -5.93,-12.07 -2.08,-2.27 -6.24,-12 -0.39,-10.59 5.85,1.41 7,7 7.32,11.66 m 40,-7 c 3.62,4.72 5.09,11.32 6,17 -8.42,2.14 -8.22,-8.57 -10,-14 -0.74,-4.02 -0.03,-8.27 4,-3 z"
         id="path521" />
    </g>
    <g
       fill="#db8e5d"
       fill-opacity="1"
       stroke="None"
       id="g556"
       transform="matrix(0.74303005,0,0,0.74303005,-129.81316,-32.912709)">
      <path
         d="m 565,271 c 1.21,4.65 15.71,19.16 19.74,13.75 C 588.77,279.33 569.76,269.38 565,271 Z"
         id="path556" />
    </g>
    <g
       fill="#d49065"
       fill-opacity="1"
       stroke="None"
       id="g563"
       transform="matrix(0.74303005,0,0,0.74303005,-129.81316,-32.912709)">
      <path
         d="m 618,284 c 10.32,5.01 23.16,1.9 33,-2 -3.45,-1.31 -7.22,-1 -11,-1 -6.93,0 -17.87,-1.96 -22,3 z"
         id="path563" />
    </g>
    <g
       fill="#e4925c"
       fill-opacity="1"
       stroke="None"
       id="g565"
       transform="matrix(0.74303005,0,0,0.74303005,-129.81316,-32.912709)">
      <path
         d="m 663,303 c 5.58,-0.44 19.2,-5.34 22,-11 2.07,-6.14 -13.41,-10.34 -18.77,-7.77 -5.36,2.57 -15.23,7.58 -18.23,12.77 5.53,2.09 8.93,5.34 15,6 z"
         id="path565" />
    </g>
    <g
       fill="#eb955a"
       fill-opacity="1"
       stroke="None"
       id="g570"
       transform="matrix(0.74303005,0,0,0.74303005,-129.81316,-32.912709)">
      <path
         d="m 608,327 c 4.26,1.86 9.71,5.41 12.25,8.75 2.55,3.33 11.39,-3.93 14.75,-4.75 2.93,-1.84 6.66,-0.68 10,-1 -0.83,-5.45 -5.83,-9.31 -8,-14 -4.18,-3.98 -11.62,-9.07 -7,-16 -4.89,-3.39 -12.83,-3.05 -17.78,-8.22 -4.95,-5.17 -13.35,5.58 -18.55,4.89 -5.2,-0.69 -15.92,3.56 -15.59,10.25 0.32,6.7 6.32,11.26 12.23,12.77 5.9,1.52 12.31,4.96 17.69,7.31 z"
         id="path570" />
    </g>
    <g
       fill="#e8965d"
       fill-opacity="1"
       stroke="None"
       id="g580"
       transform="matrix(0.74303005,0,0,0.74303005,-129.81316,-32.912709)">
      <path
         d="m 256,311 c -0.37,5.92 1.66,15.9 -2.31,21.69 -3.96,5.8 -8.35,8.66 -11.69,14.31 -2.48,-5.66 2.23,-10.09 4.92,-15.08 2.7,-4.98 3.47,-12.47 6.08,-16.92 -2.17,-3.65 -0.07,-9.5 -4,-12 -3.9,17.95 -18.84,31.53 -21,50 2.38,-0.14 3.78,2.31 5,4 3.61,5.01 4.11,11.9 6,18 0.53,1.71 1.52,3.29 2,5 0.46,1.62 1.91,6.34 1,8 -1.41,2.57 -8,-5.36 -9,-7 -0.37,-0.61 -0.63,-1.45 -1,-2 -2.04,-1.88 -2.89,-5.87 -6,-6 -4.67,11.73 -3.07,32.3 10.98,36.02 14.04,3.73 24.31,9.21 38.02,12.98 3.48,0.96 8.9,3.64 12,4 1.67,0 3.33,0 5,0 -0.94,-2.17 -3.26,-3.52 -5,-5 -4.62,-3.95 -9.11,-10.83 -14,-14 -1.15,-0.63 -2.91,-1.42 -4,-2 -2.04,-1.08 -3.6,-0.77 -5,-3 0,0 -0.56,0.16 -1,0 -2.54,-0.92 -4.6,-2.72 -6,-5 -3.92,-6.39 -7.61,-19.54 -8,-27 -0.19,-3.7 0.06,-4.06 2,-6 6.64,-2.86 14.53,8.86 13,15 -0.68,2.73 -2.31,5.27 -3,8 -0.5,7.92 2.87,12.01 11,14 1.6,-0.56 5.49,-9.02 7,-11 11.49,-21.29 8.39,-45.61 2,-68 -1.56,-2.72 -4.72,-4.93 -6,-8 -3.03,0.98 -1.7,4.64 -2,7 -1.02,8.22 -5.06,14.85 -9,22 -2.1,3.81 -5.47,8.23 -10,9 -1.56,0.27 -4.46,0.36 -6,0 0.36,1.96 -0.87,4.76 -2,6 -1.17,-1.65 -2.42,-9.07 1,-7 -0.99,-6.49 8.59,-4.66 11.75,-8.25 3.16,-3.59 3.99,-9.87 4.25,-14.75 0.28,-5.25 0.2,-10.74 0,-16 -0.08,-3.45 0.39,-9.53 -4,-10 -1.25,2.98 -1.58,6.07 -3,9 m 21,109 c -14.93,-3.48 -39.51,-10.84 -34,-31 4.32,5.95 5.79,15.71 14.03,17.97 8.23,2.27 16.01,5.51 19.97,13.03 z"
         id="path580" />
    </g>
    <g
       fill="#e49562"
       fill-opacity="1"
       stroke="None"
       id="g582"
       transform="matrix(0.74303005,0,0,0.74303005,-129.81316,-32.912709)">
      <path
         d="m 654,328 c 0.38,-9.89 4.56,-24.79 -10,-25 1.9,8.14 -1.22,24.77 10,25 z"
         id="path582" />
    </g>
    <g
       fill="#ef965a"
       fill-opacity="1"
       stroke="None"
       id="g593"
       transform="matrix(0.74303005,0,0,0.74303005,-129.81316,-32.912709)">
      <path
         d="m 563,313 c -3.64,2.23 -6.6,3.73 -11,5 0,0 0.22,0.62 0,1 -2.36,4.13 -0.69,10.07 -4,14 -1.2,-0.67 -2.58,-1.64 -3,-3 -3.71,9.45 -18.18,15.05 -7.25,24.25 10.93,9.2 12.8,12.05 21.25,21.75 -6.49,-11.52 -16.7,-20.2 -23,-31 13.37,0.66 21.48,11.96 27.31,22.7 5.82,10.73 18.01,18.94 17.69,32.3 -1,0 -2,0 -3,0 -1.24,0.45 -2.91,-0.14 -4,1 0.62,1.57 1.81,5.15 3,6 1.93,0.95 8.15,0.64 10,1 8.66,0.69 15.99,5.66 23,10 7.4,4.58 19.95,10.3 28,12 14.6,1.08 23.82,-8.14 24,-21 0.18,-12.86 1.79,-25.9 9,-36 3.04,-4.25 5.17,-7.24 10.25,-9.75 5.07,-2.52 3.36,-10.83 5.75,-14.25 -10.43,-7.32 -19.01,-8.06 -30,-5 -4.74,2.58 -4.97,3.38 -10,1 -3.87,-1.83 -9.54,-6.84 -13.92,-3.92 -4.37,2.92 -7.71,6.21 -13.08,2.92 -2.63,-1.61 -4.45,-4.03 -5,-7 -6.54,-6.61 -24.22,-3.3 -31.25,-8.75 C 576.73,322.79 574.42,306 563,313 Z"
         id="path593" />
    </g>
    <g
       fill="#e9965c"
       fill-opacity="1"
       stroke="None"
       id="g600"
       transform="matrix(0.74303005,0,0,0.74303005,-129.81316,-32.912709)">
      <path
         d="m 362,324 c -2.67,1.72 -5.14,3.56 -8,5 2.46,7.72 13.36,6.38 10,18 -3.36,11.62 7.6,9.83 14,12 0,0 -0.07,-0.51 0,-1 -4,-2.15 -0.97,-3.7 1,-5 5.94,-3.67 14.42,-2.07 19,-8 -6.23,-2.13 -8.77,-8.28 -14.25,-11.75 -5.48,-3.47 -3.83,-13.31 -8.75,-16.25 -3.06,-0.91 -10.5,5.39 -13,7 z"
         id="path600" />
    </g>
    <g
       fill="#e9955c"
       fill-opacity="1"
       stroke="None"
       id="g621"
       transform="matrix(0.74303005,0,0,0.74303005,-129.81316,-32.912709)">
      <path
         d="m 475,362 c 0,3.92 -0.84,8.08 3,10 5.21,1.88 13.52,1.93 15.69,8.31 2.18,6.37 2.07,14.22 4.34,19.67 2.26,5.44 3,14.81 9.97,12.02 4.43,-2.2 6.54,-6.52 12,-8 5.85,-1.3 11.99,-1.43 18,-2 -2.76,-12.59 -10.7,-23.43 -15,-36 -2.95,-8.61 -5.96,-5 -13,-8 -0.5,0 -1.51,0.06 -2,0 -2.78,-0.35 -4.78,-2.09 -7,-3 -4.35,-1.16 -6.64,-1.62 -11,-1 -1.52,0.8 -2.06,3.33 -4,4 1.1,9.53 20.36,0.23 27,4 -9.04,9.47 -36,12.94 -34,-7 2.19,-0.08 2.62,2.73 5,3 -6.88,-3.7 4.49,-9.9 7,-11 6.63,-2.9 7.54,0.51 14,2 1.45,-0.26 2.9,-2.53 3,-4 -1.18,-3.73 -0.38,-2.76 -4,-4 -0.99,-0.11 -4.56,2.27 -6.78,-0.22 -2.21,-2.5 -6.43,-2.05 -9.22,-1.78 -13.8,3.58 -13,9.48 -13,23 z"
         id="path621" />
    </g>
    <g
       fill="#e29862"
       fill-opacity="1"
       stroke="None"
       id="g650"
       transform="matrix(0.74303005,0,0,0.74303005,-129.81316,-32.912709)">
      <path
         d="m 726,392 c -1.28,-2.25 -2.58,-5.85 -4,-8 -1.45,-0.32 -1.05,-2.13 -2,-3 -6.63,4.73 -12.27,10.93 -20,14 -3.29,1.31 -7.55,2.49 -11,4 -5,2.18 -10.04,7.3 -13.75,11.25 -3.7,3.95 -4.79,15.77 -0.25,18.75 0.34,-1.04 0.96,-2.41 1,-3 0.15,-2.29 -0.54,-3.88 -1,-6 6.71,-5.36 18.69,-9.7 25.75,-13.25 7.05,-3.56 16.58,-18.2 22.55,-11.05 5.98,7.14 -16.65,12.98 -17.3,17.3 6.77,-2.06 13.16,-5.31 20,-7 5.58,-1.38 17.98,3.06 23,-1 0,0 -0.16,-0.56 0,-1 -0.96,0.52 -1.8,1.19 -3,1 2.08,-7.73 0.21,-16.44 3,-24 0.48,-1.62 3.96,-5.34 0,-6 -6.53,7.12 -15.95,14.67 -16,25 -4.22,0.46 -5.73,-4.99 -7,-8 z"
         id="path650" />
    </g>
    <g
       fill="#350e03"
       fill-opacity="1"
       stroke="None"
       id="g659"
       transform="matrix(0.74303005,0,0,0.74303005,-129.81316,-32.912709)">
      <path
         d="m 461,392 c 1.97,1.94 8.01,-2.67 10.26,-4.74 2.25,-2.07 9.08,-0.08 10.74,0.74 -7.68,-5 -14.51,-1.71 -21,4 z"
         id="path659" />
    </g>
    <g
       fill="#ea945a"
       fill-opacity="1"
       stroke="None"
       id="g665"
       transform="matrix(0.74303005,0,0,0.74303005,-129.81316,-32.912709)">
      <path
         d="m 467,396 c -3.97,4.01 -3.43,4.32 -3,10 1.02,3.76 0.61,3.2 0,7 0,10.25 11.22,33.91 25,31 3.99,-1.45 2.56,-11.57 6.25,-13.75 3.69,-2.18 11.03,-7.83 6.75,-12.25 -3.82,-1.74 -8.09,-1.68 -8.22,-6.78 -0.14,-5.09 -4.06,-5.24 -6.78,-8.22 -6.65,-5.41 -11.49,-12.27 -20,-7 z"
         id="path665" />
    </g>
    <g
       fill="#ee975b"
       fill-opacity="1"
       stroke="None"
       id="g687"
       transform="matrix(0.74303005,0,0,0.74303005,-129.81316,-32.912709)">
      <path
         d="m 549,484 c 0.99,-1.16 -0.74,-4.63 0,-6 6.3,-0.66 5,6.93 5,11 1.38,4.56 7.38,8.31 3.31,13.31 -4.07,4.99 0.67,10.97 1.69,15.69 1.58,7.3 -6.92,2.71 -8,-2 -1.46,-6.4 3.79,-17.49 -3.77,-20.23 -7.56,-2.74 -6.81,-8.65 -12.48,-12.52 -5.68,-3.86 -11.58,-3.77 -13.75,-11.25 -16.13,4.67 -23.76,27.27 -42,28 1.69,-5.17 9.53,-5.74 13.25,-10.75 3.72,-5.02 8.68,-6.5 12.5,-11.5 3.83,-5 9.51,-8.14 15.25,-9.75 -1.64,-8.95 -12.67,-14.24 -21,-15 1.37,8.07 -3.85,12.14 -4,20 -0.16,7.86 -6.46,12.47 -5.33,2.67 1.13,-9.8 -0.16,-13.34 0.33,-22.67 -9.53,-2.08 -17.38,3.85 -26,5 -7.11,0.95 -11.14,-1.54 -4,-5 3.01,-1.46 9.74,-3.23 11,-6 0.05,-0.42 -4.5,-7.26 -5,-8 -5.14,-4.94 -7.72,-2.9 -12.75,-2.25 -5.03,0.65 -6.49,-10.72 -7.25,-12.75 -4.65,-6.58 -12.16,-4.82 -18,-1 -1.29,0.17 -1.75,1.7 -3,2 0.28,2.44 1.47,4.67 2,7 0.8,3.48 1.52,7.64 0,11 -2.26,3.21 -5.46,7.22 -10,6 7.11,-10.03 -3.29,-22.79 -15,-17 -3.5,2.48 -1.82,9.73 -4,13 -4.65,6.98 -10.99,9.59 -4.77,16.77 6.22,7.18 9.02,8.79 15.52,13.48 6.5,4.69 8.68,12.02 10.25,18.75 0.42,1.81 1.74,4.53 1,7 3.83,0.63 8.99,-1.28 12,1 1.7,0.18 2.45,0.41 4,1 4.58,1.74 8.46,5.75 12,9 1.06,0.97 1.89,2.19 3,3 1.34,0.98 2.51,1.46 4,2 3.25,0.7 7.19,0.31 10,1 5.48,0.11 10.07,4.95 14,8 0.87,0.67 2.15,1.22 3,2 0,-5.33 10.28,-8.34 14.25,-11.75 3.96,-3.42 16.11,-2.62 21.42,0.08 5.32,2.69 12.62,4.81 18.56,7.44 5.94,2.63 14.49,4.06 20.77,6.23 -3.41,8.13 -13.67,16.86 -23,13 1.74,1.6 5.1,4.85 6,7 6.21,2.77 11.55,-4.2 16,-8 3.42,-3.42 7.39,-8.23 10,-12 4.85,-6.99 5.92,-15.14 13,-20 8.42,-5.77 17.29,-9.29 25,-17 -8.48,4.93 -21.79,10.89 -32,10 9.76,-11.3 18.89,-21.99 29.75,-32.25 10.86,-10.26 25.77,-17.94 30.25,-32.75 -0.25,-0.25 -0.83,-0.73 -1,-1 -3.66,-2.41 -8.16,-0.54 -8,4 0,0 -0.23,0.65 0,1 3.9,6.09 -5.33,13.88 -10,7 -4.29,-6.32 -1.37,-15.48 -7,-21 -3.71,-2.37 -10.13,-2.19 -14,-4 -1.52,-0.71 -3.57,-1.19 -5,-2 -3.35,-1.91 -5.87,-3.97 -10,-4 -0.96,1.57 -2.32,3.25 -4,4 -1.77,2.48 -2.87,5.54 -6,7 -10.04,4.7 -16.35,-8.59 -23,-14 -2.91,-1.31 -4.81,-2.29 -8,-3 -4.26,-0.44 -9.76,-0.57 -14,0 -8.35,2.16 -9.8,8.67 -14.25,14.75 -4.44,6.09 -9.55,13.89 -1.44,16.95 8.1,3.05 12.54,5.94 15.77,12.22 3.22,6.29 5.04,15.64 12.84,16.16 7.8,0.51 6.96,16.01 14.08,11.92 m -9,-52 c -4.23,8.21 -14.97,11.64 -21,18 -6.21,-5.12 1.28,-7.92 6.08,-9.92 4.79,-2.01 9.26,-8.31 14.92,-8.08 z"
         id="path687" />
    </g>
    <g
       fill="#d98e5d"
       fill-opacity="1"
       stroke="None"
       id="g691"
       transform="matrix(0.74303005,0,0,0.74303005,-129.81316,-32.912709)">
      <path
         d="m 240,435 c 3.22,6.89 5.65,14.26 9,21 0.54,1.08 1.41,2.79 2,4 1.4,2.86 3.93,5.73 5,9 0.27,-0.98 2.74,-0.58 3,-1 -0.47,-1.37 -0.6,-2.61 -1,-4 -4.59,-16.69 -7.25,-41.07 -26,-48 2.36,6.46 5.06,12.72 8,19 z"
         id="path691" />
    </g>
    <g
       fill="#e6935b"
       fill-opacity="1"
       stroke="None"
       id="g701"
       transform="matrix(0.74303005,0,0,0.74303005,-129.81316,-32.912709)">
      <path
         d="m 292,486 c -0.78,-8.6 1.86,-18.25 -2,-26 -0.63,-1.27 -1.47,-2.44 -2,-4 -3.56,-7.28 -3.93,-10.36 -2,-18 -0.53,-1.93 1.05,-3.24 1,-5 -4.37,-0.85 -8.7,-2 -13,-3 -2.83,-0.66 -5.27,-0.93 -8,-2 -2.55,-1.36 -5.2,-2.48 -8,-3 4.28,6.99 5.66,15.13 11.75,21.25 6.08,6.13 4.39,18.79 3.93,25.07 -0.46,6.28 13.29,17.81 18.32,14.68 z"
         id="path701" />
    </g>
    <g
       fill="#db9561"
       fill-opacity="1"
       stroke="None"
       id="g709"
       transform="matrix(0.74303005,0,0,0.74303005,-129.81316,-32.912709)">
      <path
         d="m 639,442 c 8.7,4.5 3.56,11.8 0,19 1.93,-2.18 4.03,-4.69 6,-7 4.77,-5.58 9.23,-11.27 15,-16 0.54,-0.44 3.95,-2.55 4,-3 0.62,-5.28 -10.86,-3.13 -13.25,-0.25 -2.38,2.88 -7.68,7.48 -11.75,7.25 z"
         id="path709" />
    </g>
    <g
       fill="#ba8765"
       fill-opacity="1"
       stroke="None"
       id="g724"
       transform="matrix(0.74303005,0,0,0.74303005,-129.81316,-32.912709)">
      <path
         d="m 696,451 c 0.07,-0.49 0.23,-1.66 0,-2 -8.85,3.51 -14.96,14.3 -18,23 5.92,-6.25 14.66,-13.12 18,-21 z"
         id="path724" />
    </g>
    <g
       fill="#d48c5f"
       fill-opacity="1"
       stroke="None"
       id="g727"
       transform="matrix(0.74303005,0,0,0.74303005,-129.81316,-32.912709)">
      <path
         d="m 662,474 c -0.64,1.93 -5.56,19.12 1,14 4.43,-5.26 6.93,-16.79 9,-23 0.49,-1.47 3.32,-7.71 3,-9 -4.06,-6.45 -11.72,14.17 -13,18 z"
         id="path727" />
    </g>
    <g
       fill="#ea955b"
       fill-opacity="1"
       stroke="None"
       id="g729"
       transform="matrix(0.74303005,0,0,0.74303005,-129.81316,-32.912709)">
      <path
         d="m 386,520 c 3.91,-0.6 8.07,0.45 12,0 -0.12,-6.64 -10.1,-8.3 -9.97,-15.03 0.12,-6.72 4.22,-15.11 0.97,-21.97 -6.22,-15.08 -21.56,-18.38 -35,-24 -0.22,9.27 4.77,17.48 7.01,25.99 2.23,8.51 5.83,13.96 10.07,21.93 4.24,7.97 6.03,14.44 14.92,13.08 z"
         id="path729" />
    </g>
    <g
       fill="#ed955b"
       fill-opacity="1"
       stroke="None"
       id="g732"
       transform="matrix(0.74303005,0,0,0.74303005,-129.81316,-32.912709)">
      <path
         d="m 678,496 c -0.75,3.12 -1.78,5.34 -3,8 -0.22,1.27 -0.6,1.85 -1,3 0.18,2.37 4.24,2.44 6,3 5.22,0.65 8.56,6.1 14,6 -0.08,-2.33 0.11,-4.67 0,-7 -0.09,-2 -1.63,-3.77 -1,-6 2.16,-0.53 4.24,1.11 5,3 2.21,3.09 1.93,6.28 2,10 0.33,2.69 0.31,10.05 3,11 4.63,-0.41 13.01,-3.21 16.25,-6.75 3.24,-3.55 5.92,-9.01 8.82,-13.18 2.91,-4.16 -2.56,-12.53 -3.07,-17.07 -0.65,-5.83 2.1,-14.58 0,-20 -2.61,-4.48 -13.83,-11.83 -18.77,-7.77 -4.94,4.06 -12.3,8.24 -18.48,12.52 -6.18,4.28 -8.1,14.4 -9.75,21.25 z"
         id="path732" />
    </g>
    <g
       fill="#e1925c"
       fill-opacity="1"
       stroke="None"
       id="g733"
       transform="matrix(0.74303005,0,0,0.74303005,-129.81316,-32.912709)">
      <path
         d="m 300,466 c -0.43,3.36 1.4,9.69 1,14 -0.6,6.35 2.88,15.02 9.75,17.25 6.87,2.23 10.17,13.15 17.25,11.75 -2.19,-2.91 -0.96,-9.28 -3.32,-12.68 -2.36,-3.4 -3.04,-8.53 -4.68,-12.32 -2.23,-5.16 -5.98,-9.77 -8.23,-14.77 -2.25,-5 -9.83,-11.97 -11.77,-3.23 z"
         id="path733" />
    </g>
    <g
       fill="#db905e"
       fill-opacity="1"
       stroke="None"
       id="g740"
       transform="matrix(0.74303005,0,0,0.74303005,-129.81316,-32.912709)">
      <path
         d="m 643,484 c 0.33,-1.09 0.61,-7.11 0,-8 -6.22,-2.79 -10.41,4.49 -15.25,7.75 -4.84,3.26 -10.84,8.6 -9.75,15.25 7.64,-4.58 19.94,-6.99 25,-15 z"
         id="path740" />
    </g>
    <g
       fill="#e4935d"
       fill-opacity="1"
       stroke="None"
       id="g742"
       transform="matrix(0.74303005,0,0,0.74303005,-129.81316,-32.912709)">
      <path
         d="m 754,481 c -3.66,4.28 -8.27,7.96 -12,12 -2.09,2.65 -3.17,4.78 -4,8 -0.95,7.16 0.39,14.78 0,22 -0.53,9.86 -3.6,18.34 -7,27 -1.63,4.16 -2.38,7.41 -5,11 -5.47,12.36 -11.89,-13.04 -19.97,-9.97 -8.08,3.06 -12.13,14.17 -16.03,20.97 1.33,0 2.67,0 4,0 2.68,-0.29 5.67,-5.31 9.22,-2.22 3.55,3.09 -0.45,4.93 -3.22,6.22 -9.4,4.4 -21.28,10.24 -22.02,21.98 -0.75,11.73 -8.73,20.49 -17.73,26.27 -9.01,5.77 -16.68,11.34 -23.25,19.75 -5.49,7.03 -7.73,11.77 -16,16 -4.3,2.2 -7,2.9 -12,3 -5.07,0.61 -11.29,0.78 -17,1 -2.14,0.08 -8.33,1.91 -10,1 -4.38,-2.4 4.76,-4.59 6,-5 5.28,-1.76 10.65,-3.4 16,-5 3.15,-0.94 8.6,-1.8 11.22,-3.78 2.63,-1.98 9.51,-1.8 10.78,-5.22 2.68,-13.2 -13.7,-9.43 -21,-8 -7.3,1.43 -13.92,9.65 -20.25,14.75 -6.33,5.1 -15.05,13.77 -2.75,17.25 4.35,0.66 9.6,0.17 14,0 3.57,-0.14 6.58,-0.55 10,-1 5.4,-1.38 11.02,-3.79 16,-7 15.89,-10.25 30.13,-24.24 46.93,-33.07 16.8,-8.84 28.28,-22.97 41.07,-37.93 4.29,-5.02 9.41,-9.41 14,-14 7.52,-8.8 11.26,-19.35 15,-30 1.93,-5.49 3.27,-11.37 5,-17 3.46,-11.23 6.31,-22.61 9,-34 0.61,-2.57 1.69,-6.59 1.93,-9.07 0.23,-2.49 3.16,-6.33 3.07,-7.93 -0.93,-3.41 -2.57,0.33 -4,2 m -31,86 c -2.2,5.51 -8.4,9.89 -14,11 0.93,-6.32 8.57,-10.97 14,-11 z"
         id="path742" />
    </g>
    <g
       fill="#e4935c"
       fill-opacity="1"
       stroke="None"
       id="g746"
       transform="matrix(0.74303005,0,0,0.74303005,-129.81316,-32.912709)">
      <path
         d="m 268,498 c 1.65,4.37 4.05,9.47 6,14 2.85,6.6 6.54,12.73 10,19 1.1,1.99 1.91,4.02 3,6 2.59,4.7 5.29,9.34 8,14 1.26,2.16 2.66,4.68 4,7 7.98,13.88 18.81,25.86 32.3,34.7 13.5,8.84 23.13,20.07 35,31 11.88,10.92 23.61,20.29 34.95,32.05 11.33,11.76 22.37,23.63 38.06,27.95 15.68,4.31 26.18,21.85 42.69,23.3 3.49,0.31 7.5,0.28 11,0 12.05,-0.96 26.95,-5.29 38,-10 2.67,-1.14 5.4,-1.89 8,-3 5.1,-2.18 10.45,-5.15 16,-7 7.18,-2.39 15.57,-5.65 23,-7 0.97,-0.18 2.03,0.16 3,0 -0.81,0.01 -4.22,-1.38 -5,-2 -6.76,0 -14.31,-0.96 -21,0 -3.62,0.52 -8.49,2.96 -12,5 -3.28,1.91 -6.81,4.94 -11,5 0,-1.67 0,-3.33 0,-5 -0.38,-5.7 1.32,-8.33 0,-13 -4.24,-3.11 -14.15,-4.93 -19,-4 1.3,2.42 3.57,4.04 6,5 0.25,3.42 -4.43,5.19 -6,2 -1.35,-0.67 -2.66,-1.27 -4,-2 -3.34,-1.24 -7.3,-1.33 -11,-1 -10.2,0.9 -24.07,7.75 -30,17 0.05,3.49 1.96,6.48 2,10 -2.66,0.65 -6.11,-0.98 -6,-4 -5.44,-8.61 -16.16,-10.54 -22.75,-18.25 -6.58,-7.72 -12.28,-15.54 -22.25,-17.75 -3.9,-0.4 -7.69,0 -11,-1 -3.84,-1.17 -5.38,-2.81 -8,-6 -3.34,-4.06 -6.38,-8.76 -10,-13 -4.13,-4.13 -8.68,-9.23 -13,-13 -4.82,-4.2 -10.24,-8.9 -15,-13 -13.16,-11.36 -33.42,-20.11 -42,-36 -3.55,-4.32 -6.76,-8.46 -10,-13 C 299.63,550.9 289.71,537.94 287.32,522.68 284.94,507.41 272.05,496.34 265,483 c -0.34,-0.23 -1.73,0.25 -2,0 2.07,4.8 3.91,9.9 5,15 z"
         id="path746" />
    </g>
    <g
       fill="#c58868"
       fill-opacity="1"
       stroke="None"
       id="g750"
       transform="matrix(0.74303005,0,0,0.74303005,-129.81316,-32.912709)">
      <path
         d="m 663,505 c 5.01,-1 7.65,-9.08 5,-13 -3.68,2.91 -4.12,8.48 -5,13 z"
         id="path750" />
    </g>
    <g
       fill="#e2935d"
       fill-opacity="1"
       stroke="None"
       id="g751"
       transform="matrix(0.74303005,0,0,0.74303005,-129.81316,-32.912709)">
      <path
         d="m 298,514 c 0.83,3.25 2.04,7.4 3,11 4.96,7.25 1.32,13.06 10.31,18.69 8.99,5.64 10.32,-8.43 5.44,-14.44 -4.88,-6.01 -6.69,-12.11 -10.83,-18.17 -4.14,-6.06 -5.42,-12.82 -11.92,-17.08 0.7,7.01 3.2,12.99 4,20 z"
         id="path751" />
    </g>
    <g
       fill="#eb955b"
       fill-opacity="1"
       stroke="None"
       id="g753"
       transform="matrix(0.74303005,0,0,0.74303005,-129.81316,-32.912709)">
      <path
         d="m 406,512 c -0.26,6.75 0.04,9.91 4,15 0.32,0.2 0.73,0.79 1,1 7.24,5.64 14.15,12.03 21,18 6.72,4.21 30.88,7.86 25,-5 -1.97,-4.31 -4.48,-8.69 -7,-13 -6.06,-6.06 -18.07,-13.32 -26,-16 -13.07,2.22 -9.21,-13.4 -17,-16 0.47,5.59 -0.79,10.59 -1,16 z"
         id="path753" />
    </g>
    <g
       fill="#e1945e"
       fill-opacity="1"
       stroke="None"
       id="g754"
       transform="matrix(0.74303005,0,0,0.74303005,-129.81316,-32.912709)">
      <path
         d="m 637,513 c -0.33,4.82 4.21,8.04 9.22,7.22 5.01,-0.82 7.64,-5.3 8.78,-10.22 0.23,-2.05 6,-13.77 -1,-14 -7,-0.23 -14.79,10.6 -17,17 z"
         id="path754" />
    </g>
    <g
       fill="#e6935b"
       fill-opacity="1"
       stroke="None"
       id="g764"
       transform="matrix(0.74303005,0,0,0.74303005,-129.81316,-32.912709)">
      <path
         d="m 379,536 c -7.32,-12.5 -24.26,-14.87 -35.26,-22.74 -10.99,-7.87 -6.39,9.83 -2.04,13.04 4.34,3.22 5.15,16.37 13.3,13.7 8.14,-2.67 15.71,-2.45 24,-4 z"
         id="path764" />
    </g>
    <g
       fill="#ee975a"
       fill-opacity="1"
       stroke="None"
       id="g774"
       transform="matrix(0.74303005,0,0,0.74303005,-129.81316,-32.912709)">
      <path
         d="m 672,520 c -7.67,3.83 -15.11,9.52 -24,10 -8.76,1.42 -14,-1.22 -20.25,-6.75 -6.25,-5.54 -15.92,8.66 -17.75,11.75 -6.4,15.73 -17.58,24.48 -34,28 -0.57,0.21 -4.59,1.7 -5,2 -4.84,4.88 2.85,10.48 5,14 0.37,0.61 0.92,1.27 1,2 9.27,8.46 15.17,15.9 27.07,21.93 11.91,6.03 28.24,0.3 40,-3.86 11.76,-4.15 12.96,5.03 4.93,4.93 -8.04,-0.1 -12.13,4.44 -19.02,5.98 -6.9,1.53 -16.16,2.15 -22.2,-0.76 -6.05,-2.91 -12.74,-3.24 -17.78,-7.22 5.78,4.84 9.75,13.94 14,20 5.01,5.64 10.12,3.01 16,1 12.29,-4.2 19.47,-11.81 32.78,-14.22 13.31,-2.42 16.4,-16.49 17.44,-28.56 1.05,-12.06 10.31,-19.79 16.78,-29.22 3.3,-4.82 7.63,-10.8 7,-17 -1.65,-5.79 -11.19,-16.78 -18,-16 1.23,7.05 -7.92,8.81 -12.1,13.9 -4.18,5.09 -16.11,5.92 -21.9,2.1 12.77,1.87 21.03,-6.31 30,-14 m -85,51 c 5.33,0.86 16.05,7 21.02,4.02 4.98,-2.97 20.73,-5.43 18.2,0.2 -2.53,5.64 -15.94,4.9 -21.22,5.78 -5.29,0.87 -15.82,-5.65 -18,-10 z"
         id="path774" />
    </g>
    <g
       fill="#e6945d"
       fill-opacity="1"
       stroke="None"
       id="g791"
       transform="matrix(0.74303005,0,0,0.74303005,-129.81316,-32.912709)">
      <path
         d="m 352,585 c 6.83,-17.18 -5.9,-40.62 -24,-43 1.58,16.34 10.44,34.07 24,43 z"
         id="path791" />
    </g>
    <g
       fill="#ed975b"
       fill-opacity="1"
       stroke="None"
       id="g794"
       transform="matrix(0.74303005,0,0,0.74303005,-129.81316,-32.912709)">
      <path
         d="m 390,604 c 0.17,0.43 -0.15,1.55 0,2 3.46,10.04 19.89,12.53 27.92,18.08 8.03,5.54 16.61,15.64 21.78,24.23 5.16,8.58 8.68,21.83 17.3,27.69 2.09,0.97 4.59,1.45 7,1 4.36,-1.17 7.96,-8.65 12,-11 1.89,-1.1 3.95,-1.4 6,-2 1.91,-1.93 18.45,-2.23 17.92,-6.92 -0.54,-4.68 -13.29,-7.25 -9.92,-15.08 -1.4,-0.2 -2.71,-0.58 -4,-1 1.53,3.56 -7.66,6.56 -10,4 -6.77,1.95 -2.11,-5.32 0,-7 1.64,-2.18 4.55,-2.89 7,-4 -5.26,-11.97 -18.6,-19.45 -31,-21 -0.51,2.66 -0.58,5.64 -2,8 -4.88,8.13 -5.72,-2.63 -5,-8 0.72,-5.37 -1.95,-13.15 0,-19 1.79,-5.36 4.35,-4.2 9,-6 3.52,-2 5.7,-7.35 6,-11 -0.76,-11.3 -13.43,-13.68 -23,-18 -0.71,7.54 -3.38,14.7 -5,22 -0.11,0.48 -0.15,1.55 0,2 2.39,2.23 4.58,5.18 6,8 0.87,1.73 3.09,5.1 3,7 -0.07,1.33 0.05,2.67 0,4 -1.78,-0.25 -5.36,1.03 -5,-2 -11.28,-10.18 -10.91,-34.61 -28.93,-32.93 -18.01,1.68 -26.21,-15.86 -44.07,-18.07 4.66,11.18 13.62,20.5 15.01,32.99 1.39,12.49 12.16,18.19 22.76,24.24 10.6,6.05 25.85,8.54 38.23,6.77 -0.78,9.7 2.46,18.39 2,28 -9.02,-4.58 -12.51,-17.55 -22.77,-21.23 C 407.97,616.09 398.69,611 390,604 Z"
         id="path794" />
    </g>
    <g
       fill="#e6945d"
       fill-opacity="1"
       stroke="None"
       id="g799"
       transform="matrix(0.74303005,0,0,0.74303005,-129.81316,-32.912709)">
      <path
         d="m 498,579 c 1.84,3.65 5.39,6.24 10.03,7.97 4.63,1.74 15.1,-4.8 15.97,2.03 -9.27,0.66 -21.49,8.94 -27,-3 -0.23,2.96 6.17,20.14 13.75,15.75 7.58,-4.38 11.27,-11.01 21.25,-6.75 7.56,1.84 9.74,-9.02 6,-15 -3.47,-2.43 -6.91,-4.81 -11,-6 -0.73,4.28 1.32,7.85 1,12 -6.9,-2.24 -8.82,-12.16 -13.23,-17.77 -4.41,-5.61 -9.76,-15.07 -18.52,-9.98 -8.76,5.09 1.44,13.84 1.75,20.75 z"
         id="path799" />
    </g>
    <g
       fill="#ea955b"
       fill-opacity="1"
       stroke="None"
       id="g803"
       transform="matrix(0.74303005,0,0,0.74303005,-129.81316,-32.912709)">
      <path
         d="m 476,574 c -4.44,3.51 -10.67,4.16 -11.08,10.92 -0.41,6.76 -7.02,8.12 -10.92,11.08 -1.59,1.62 -2.36,3.68 -2,6 3.02,0.54 5.84,1.87 9,2 9.08,2.42 11.75,12.86 20.31,15.7 8.55,2.83 10.24,16.2 16.69,18.3 3.45,-0.11 4.84,-6.78 9.08,-6.92 4.23,-0.14 9.18,-4.21 13.92,-3.08 1.23,10.41 -12.66,6.06 -18,11 -10.78,5.88 0.35,9.93 7,12 5.06,0.89 10.21,-0.94 15,1 1.67,0.44 2.34,2.46 4,3 0.23,-5.54 1.51,-10.81 3,-16 1.25,-4.34 2.64,-8.66 4,-13 0.11,-0.35 0.68,-0.81 1,-1 1.98,-7.35 15.99,-12.31 15,-19 -1.35,-0.66 -1.84,-2.59 -2,-4 -3.01,-0.56 -5.36,1.26 -8,2 -5.01,1.4 -9.02,-0.96 -14,0 -9.16,4.8 -15.92,12.53 -25.75,4.75 -9.83,-7.78 -9.42,-19.01 -9.32,-27.68 0.09,-8.67 -13.61,-19.48 -19.93,-18.07 -8.87,9.45 12.05,2.53 11,13 -3.85,-0.31 -4.37,-2.87 -8,-2 z"
         id="path803" />
    </g>
    <g
       fill="#e8965d"
       fill-opacity="1"
       stroke="None"
       id="g827"
       transform="matrix(0.74303005,0,0,0.74303005,-129.81316,-32.912709)">
      <path
         d="m 564,622 c 0.2,0.96 -0.16,2.03 0,3 -2.52,-0.56 -6.3,1.19 -8,-1 -10.17,0 -8.21,3.34 -12,11 3.66,-3.37 12.17,-7.31 18,-9 2.12,7.5 -6.6,10.3 -11.69,12.31 -5.1,2 -9.18,12.3 -13.31,7.69 -2.05,3.29 -0.33,10.06 -6,11 2.72,8.39 10.29,0.11 16.98,5.02 6.69,4.92 10.51,-4.04 12.02,-9.02 1.93,-6.36 8,-8.72 10,-14 0,0 -0.53,0.12 -1,0 -2.33,-0.61 -4.2,-4.47 -1.74,-5.74 2.46,-1.28 3.95,3.8 5.74,3.74 1.29,-0.17 1.75,-1.7 3,-2 -0.73,-3.22 -2.67,-6.12 -4,-9 -1.47,-2.24 -3.83,-4.13 -6,-6 -1.97,0.08 -1.51,0.54 -2,2 z"
         id="path827" />
    </g>
  </g>
  <rect
     style="opacity:0.99;fill:#ffffff;stroke-width:5;stroke-linecap:round;stroke-linejoin:round;stroke-miterlimit:20"
     id="rect1"
     width="1"
     height="1"
     x="0"
     y="3.368207e-06" />
  <rect
     style="opacity:0.99;fill:#ffffff;stroke-width:5;stroke-linecap:round;stroke-linejoin:round;stroke-miterlimit:20"
     id="rect2"
     width="1"
     height="1"
     x="499"
     y="499" />
</svg>
