<?xml version="1.0" encoding="UTF-8" standalone="no"?>
<svg
   width="500"
   height="500.00006"
   version="1.1"
   id="svg86"
   sodipodi:docname="974dafae-3d56-4336-99f1-56e696ed64a2.svg"
   inkscape:export-filename="..\..\..\xampp\htdocs\rpg\icons\alchemy.svg"
   inkscape:export-xdpi="96"
   inkscape:export-ydpi="96"
   xmlns:inkscape="http://www.inkscape.org/namespaces/inkscape"
   xmlns:sodipodi="http://sodipodi.sourceforge.net/DTD/sodipodi-0.dtd"
   xmlns="http://www.w3.org/2000/svg"
   xmlns:svg="http://www.w3.org/2000/svg">
  <defs
     id="defs86" />
  <sodipodi:namedview
     id="namedview86"
     pagecolor="#505050"
     bordercolor="#eeeeee"
     borderopacity="1"
     inkscape:showpageshadow="0"
     inkscape:pageopacity="0"
     inkscape:pagecheckerboard="0"
     inkscape:deskcolor="#505050" />
  <rect
     style="fill:#ffffff;stroke-width:4.2;stroke-linecap:round;stroke-linejoin:round;stroke-miterlimit:20"
     id="rect86"
     width="1"
     height="1"
     x="0"
     y="1.91936e-05"
     rx="0.5" />
  <rect
     style="fill:#ffffff;stroke-width:4.2;stroke-linecap:round;stroke-linejoin:round;stroke-miterlimit:20"
     id="rect87"
     width="1"
     height="1"
     x="499"
     y="499.00003"
     rx="0.5" />
  <g
     id="g123"
     transform="matrix(1.1606029,0,0,1,-40.151431,3.83872e-5)">
    <path
       id="path110"
       style="fill:#ffffff;stroke-width:4.2;stroke-linecap:round;stroke-linejoin:round;stroke-miterlimit:20"
       d="m 124.46484,221.34961 v 2.84375 c -0.14773,1.8116 -0.29691,3.58393 -0.54687,5.33984 -0.12498,0.87796 -0.27502,1.75242 -0.46289,2.625 -0.18787,0.87258 -0.41385,1.74429 -0.68946,2.61719 -0.24495,0.77577 -0.52728,1.56552 -0.84374,2.36914 -0.3165,0.80362 -0.6672,1.62112 -1.04688,2.44922 -0.75937,1.65621 -1.63548,3.35705 -2.59961,5.08789 -0.96412,1.73085 -2.01494,3.49213 -3.11914,5.26758 -1.1042,1.77544 -2.26181,3.56546 -3.44141,5.35547 -2.35913,3.57996 -4.80546,7.15919 -7.07812,10.61719 -1.13633,1.729 -2.22846,3.42856 -3.2461,5.08203 -1.01766,1.65341 -1.960582,3.26071 -2.794917,4.80859 -0.759268,1.40847 -1.490535,2.82492 -2.195312,4.25 -0.70478,1.42508 -1.383084,2.85879 -2.033203,4.29883 -0.650118,1.44003 -1.273723,2.88814 -1.869141,4.34179 -0.595422,1.45369 -1.162672,2.91298 -1.703125,4.37891 -0.540456,1.46593 -1.053719,2.93728 -1.539063,4.41406 -0.48534,1.47682 -0.942768,2.95915 -1.373047,4.44532 -0.430274,1.48613 -0.83395,2.97671 -1.208984,4.4707 -0.375031,1.49399 -0.72143,2.99144 -1.041016,4.49219 -0.319581,1.50073 -0.610995,3.00406 -0.875,4.50976 -0.264001,1.5057 -0.500605,3.01379 -0.708984,4.52344 -0.208378,1.50965 -0.388271,3.02077 -0.541016,4.5332 -0.152741,1.51243 -0.278341,3.02617 -0.375,4.53907 -0.09666,1.51285 -0.164801,3.0249 -0.205078,4.53711 -0.04028,1.51221 -0.05268,3.02468 -0.03711,4.53515 0.01557,1.51047 0.05941,3.02033 0.130859,4.52735 0.07145,1.50702 0.170508,3.01127 0.298828,4.51367 0.128325,1.50238 0.285838,3.00169 0.470704,4.49804 0.184862,1.49638 0.397087,2.98988 0.638672,4.47852 0.241586,1.48864 0.512033,2.97339 0.810546,4.45312 0.298516,1.47977 0.625106,2.9546 0.980469,4.42383 0.355363,1.46924 0.739946,2.93343 1.152344,4.39063 0.412395,1.45719 0.852616,2.9074 1.322265,4.35156 0.469654,1.44416 0.967145,2.8809 1.494141,4.31055 0.526999,1.42964 1.083511,2.8522 1.667969,4.26562 0.584454,1.41343 1.197524,2.81724 1.839844,4.21289 0.642316,1.39565 1.313899,2.78314 2.013672,4.16016 0.699774,1.37702 1.428166,2.74489 2.185546,4.10156 0.757384,1.35667 1.543766,2.70215 2.359377,4.03711 0.81561,1.33496 1.65955,2.659 2.5332,3.9707 0.87366,1.31174 1.77703,2.61121 2.70899,3.89844 0.93195,1.28723 1.89412,2.56289 2.88476,3.82422 0.99065,1.26133 2.00978,2.50835 3.0586,3.74219 1.6038,1.88661 3.24873,3.71912 4.93164,5.50781 1.68291,1.78869 3.40312,3.53443 5.15625,5.24609 1.75312,1.71172 3.53903,3.38924 5.35351,5.04493 1.81449,1.65563 3.65839,3.28956 5.52539,4.91015 0.27507,-0.1181 0.47099,-0.27002 0.62891,-0.43359 0.15792,-0.16358 0.27808,-0.33902 0.40234,-0.50781 0.12426,-0.1688 0.2517,-0.33109 0.42578,-0.46485 0.17409,-0.13376 0.39379,-0.2384 0.70118,-0.29687 1.15143,0.91522 2.31714,1.81609 3.49804,2.70312 1.18091,0.88704 2.37703,1.76025 3.58594,2.61914 1.20892,0.85889 2.43201,1.70308 3.66797,2.53321 1.23595,0.83009 2.48478,1.6462 3.74609,2.44726 0.27792,0.1765 0.57053,0.33469 0.84961,0.50977 l -5.65234,-7.86719 33.56836,19.94336 61.20312,13.75586 67.1836,-5.38281 37.28125,-17.74219 21.92968,-11.96289 21.13282,-24.1211 15.15039,-20.13671 8.37304,-30.30274 1.39649,-43.0625 -9.96875,-33.29297 -20.5332,-34.28906 L 374,229.66406 l -4.51953,-6.61523 -36.08789,7.85937 -37.49805,3.66407 -66.67773,1.62109 -54.90821,-5.28516 -40.31836,-7.18945 -0.76757,0.47461 z m 15.95899,17.39062 c 0.96831,0.25468 1.92427,0.51215 2.83594,0.86915 0.45583,0.17849 0.90027,0.38303 1.33007,0.62304 0.42981,0.24001 0.84437,0.51633 1.24024,0.8418 0.44011,0.36201 0.80933,0.74848 1.11328,1.1543 0.30395,0.40581 0.54405,0.82978 0.72656,1.26953 0.18251,0.43974 0.30701,0.89556 0.38281,1.35937 0.0758,0.46381 0.10214,0.93606 0.0859,1.41406 -0.0162,0.47801 -0.0745,0.96104 -0.16797,1.44336 -0.0935,0.48233 -0.22287,0.96463 -0.3789,1.44141 -0.31208,0.95355 -0.73307,1.88568 -1.20703,2.75781 -1.6304,3.00074 -3.60937,5.81106 -5.23438,8.81641 -1.89777,3.50923 -3.75034,7.06005 -5.53516,10.65039 -1.78478,3.59034 -3.50243,7.22042 -5.125,10.88867 -1.62253,3.66825 -3.15148,7.37423 -4.5625,11.11719 -1.41098,3.74296 -2.70333,7.52342 -3.85351,11.33789 -0.57509,1.90723 -1.11459,3.82353 -1.61524,5.74805 -0.50064,1.92448 -0.96278,3.85747 -1.38281,5.79882 -0.42003,1.94139 -0.7976,3.89178 -1.13086,5.84961 -0.33326,1.95787 -0.621,3.92255 -0.86133,5.89649 -0.24032,1.97394 -0.43299,3.95569 -0.57421,5.94531 -0.14123,1.98962 -0.23158,3.98729 -0.26758,5.99219 -0.036,2.00489 -0.0188,4.01734 0.0566,6.03711 0.0755,2.01977 0.20931,4.04778 0.40234,6.08203 0.13901,1.50139 0.29796,2.99931 0.47852,4.49609 0.18056,1.49729 0.38141,2.99132 0.60351,4.48242 0.2216,1.49165 0.46394,2.98038 0.72657,4.46485 0.26314,1.48498 0.54789,2.96659 0.85156,4.44336 0.30366,1.47677 0.62651,2.94796 0.9707,4.41601 0.34419,1.46805 0.70956,2.93091 1.09375,4.38867 0.38471,1.4578 0.78817,2.9104 1.21289,4.35743 0.42421,1.4465 0.86926,2.88755 1.33399,4.32226 0.46422,1.43471 0.94746,2.86235 1.45117,4.28321 0.50371,1.42134 1.02762,2.83517 1.57031,4.24218 0.5427,1.4065 1.10438,2.80616 1.68555,4.19727 0.58117,1.39162 1.18165,2.77374 1.80078,4.14844 0.61964,1.37466 1.25698,2.74091 1.91406,4.09765 0.65709,1.35725 1.33335,2.70616 2.02735,4.04492 0.694,1.33828 1.40576,2.66559 2.13671,3.98438 0.73095,1.31878 1.4812,2.62752 2.24805,3.92578 0.97851,1.66502 2.01481,3.36849 3.11328,5.0625 1.09847,1.69401 2.25783,3.37922 3.48438,5.00977 1.22655,1.63051 2.52005,3.20701 3.88281,4.68164 0.68138,0.73731 1.3807,1.4479 2.09766,2.1289 0.71692,0.681 1.45152,1.33218 2.20507,1.94532 1.43247,1.16544 2.97197,2.26134 4.58204,3.29687 0.90956,0.585 1.87882,1.10719 2.82617,1.6543 l -17.72657,-9.33203 c -0.87595,-1.55654 -1.85638,-3.06138 -2.89453,-4.53711 -1.03815,-1.47574 -2.1353,-2.92304 -3.24023,-4.36719 -1.10494,-1.44415 -2.21859,-2.88587 -3.29492,-4.34766 -1.07634,-1.46178 -2.11406,-2.94401 -3.06641,-4.47265 -1.09873,-1.7639 -2.08947,-3.59342 -3.03711,-5.44532 -0.94764,-1.85186 -1.85294,-3.72542 -2.78125,-5.58203 -1.08546,-2.17079 -2.12827,-4.35301 -3.12695,-6.54687 -0.99868,-2.19387 -1.95358,-4.39985 -2.86133,-6.61914 -0.90775,-2.21929 -1.7674,-4.45213 -2.58008,-6.69922 -0.81268,-2.24709 -1.57755,-4.50789 -2.29101,-6.78516 -0.71347,-2.27726 -1.37622,-4.57104 -1.98633,-6.88086 -0.61011,-2.30979 -1.16732,-4.63571 -1.66992,-6.98047 -0.50261,-2.34472 -0.95084,-4.70778 -1.3418,-7.08984 -0.39096,-2.38206 -0.72484,-4.78333 -1,-7.20508 -0.25107,-2.20996 -0.43866,-4.42074 -0.5625,-6.6289 -0.12389,-2.20819 -0.18344,-4.41457 -0.18359,-6.61719 -1.6e-4,-2.20262 0.0597,-4.40049 0.17968,-6.59375 0.12,-2.19326 0.29854,-4.38239 0.53516,-6.5625 0.23661,-2.18011 0.53117,-4.35245 0.88086,-6.51563 0.34969,-2.16314 0.75561,-4.31654 1.21484,-6.45898 0.45923,-2.14244 0.97188,-4.27271 1.53711,-6.39063 0.56523,-2.11788 1.18192,-4.2229 1.84961,-6.3125 0.66769,-2.08956 1.38574,-4.16516 2.15234,-6.22265 0.7666,-2.05749 1.58332,-4.09755 2.44532,-6.11914 0.86199,-2.02159 1.77077,-4.02396 2.72461,-6.00586 0.95384,-1.9819 1.95199,-3.94244 2.99414,-5.88086 1.04215,-1.93842 2.12699,-3.85495 3.2539,-5.7461 1.12692,-1.89111 2.29576,-3.75757 3.50391,-5.59765 1.20815,-1.84008 2.45635,-3.65426 3.74219,-5.43945 1.28584,-1.78523 2.60875,-3.54101 3.96875,-5.26758 0.43943,-0.55783 0.81213,-1.11536 1.125,-1.67383 0.31286,-0.55847 0.56744,-1.11912 0.77148,-1.68164 0.20405,-0.56252 0.35776,-1.1273 0.4707,-1.69727 0.11298,-0.56996 0.18501,-1.14379 0.22461,-1.72461 0.0793,-1.16163 0.0294,-2.34878 -0.0781,-3.57421 -0.10752,-1.22543 -0.27344,-2.49017 -0.42578,-3.80665 z m 173.5625,187.47461 c 1.8496,-0.0349 3.68207,0.18151 5.41211,0.94727 2.16668,0.9587 3.9272,2.58532 4.70508,4.85742 0.78249,2.28441 0.25379,4.79396 -0.82032,6.89063 -5.32822,10.39639 -19.48038,14.95729 -29.86523,18.27734 -1.74889,0.53629 -3.49685,0.82753 -5.29883,1.11914 9.56465,-3.54549 25.69769,-10.26259 30.34961,-19.79492 0.9687,-1.98511 1.4011,-4.20523 0.58398,-6.32422 -1.25107,-3.24618 -3.99648,-4.49259 -6.91796,-5.86523 0.61726,-0.056 1.23502,-0.0958 1.85156,-0.10743 z" />
    <path
       fill="#fefefe"
       d="m 387.32505,481.17998 0.51936,0.10156 c 1.9651,1.31264 5.34824,10.40949 6.44235,12.88241 l -4.88812,3.75015 -0.40318,-0.12234 c -2.23594,-2.33442 -4.8712,-9.60544 -6.19076,-12.75391 1.40804,-1.43112 2.93226,-2.63372 4.52035,-3.85787 z"
       id="path16"
       style="fill:#ffffff;stroke-width:0.76942" />
    <path
       fill="#fefefe"
       d="m 124.44034,481.50391 5.84221,5.02585 Q 127.16563,493.29142 123.93483,500 c -1.93817,-0.93408 -3.84864,-2.64912 -5.60599,-3.91866 2.1536,-4.80041 4.08792,-9.72008 6.1115,-14.57743 z"
       id="path20"
       style="fill:#ffffff;stroke-width:0.76942" />
    <path
       fill="#fefefe"
       d="m 135.2353,438.35944 c 4.53727,3.01844 8.36283,9.84704 11.52746,14.29352 0.13618,1.20029 -0.24545,1.59193 -0.79481,2.6445 -1.41651,1.03256 -2.38982,1.34417 -4.13641,1.39342 -1.29878,0.0369 -2.46522,-0.33932 -3.3816,-1.28878 -3.6132,-3.74554 -3.27003,-12.11529 -3.21464,-17.04266 z"
       id="path21"
       style="fill:#ffffff;stroke-width:0.76942" />
    <path
       fill="#fefefe"
       d="m 373.62167,437.29841 c 0.10003,0.0908 0.2039,0.17774 0.29931,0.27238 1.14259,1.13874 1.48421,6.51006 1.5473,8.22971 0.1208,3.28235 -0.0892,6.69011 -2.57217,9.14687 -1.58347,1.56731 -3.75708,1.72196 -5.85067,1.77274 -0.95793,-0.9056 -1.65041,-2.00203 -2.39674,-3.08075 1.55653,-4.24182 5.30977,-13.95575 8.97297,-16.34095 z"
       id="path23"
       style="fill:#ffffff;stroke-width:0.76942" />
    <path
       fill="#fefefe"
       d="m 134.40587,457.20177 c 2.6645,2.00357 5.1705,4.03869 7.13406,6.75859 -3.59011,5.18743 -6.23999,11.10812 -9.05146,16.74258 -0.27237,0.31931 -0.54475,0.37856 -0.92638,0.53398 -1.95663,-0.4278 -3.6332,-1.58501 -5.33593,-2.59372 2.4483,-7.23101 5.63908,-14.22427 8.17971,-21.44143 z"
       id="path27"
       style="fill:#ffffff;stroke-width:0.76942" />
    <path
       fill="#fefefe"
       d="m 377.14254,456.48082 c 1.33341,0.86252 8.20048,18.82464 9.14148,21.58147 -1.80737,1.13028 -3.65244,2.04281 -5.58676,2.93534 -3.35082,-4.28644 -7.36335,-13.01628 -9.64314,-18.13293 1.81506,-2.31056 3.99868,-4.32414 6.08842,-6.38388 z"
       id="path28"
       style="fill:#ffffff;stroke-width:0.76942" />
    <path
       fill="#fefefe"
       d="m 179.09764,103.40545 c 0.52705,0.0377 0.97562,0.0823 1.48883,0.21621 8.70753,2.26902 34.40693,20.61969 38.81263,28.30928 7.00711,12.23147 0.49089,26.27877 -9.00914,34.97091 -5.7568,5.26668 -12.69928,8.97683 -17.76668,15.04986 -3.51856,4.21642 -5.45673,9.09993 -6.90093,14.3443 l -7.94504,-0.67632 c -0.2239,-0.6063 -0.40933,-1.20876 -0.56167,-1.8366 -1.68503,-6.93864 0.0377,-12.38228 3.58703,-18.29451 -1.54653,0.88253 -3.02151,1.51114 -4.77117,1.86046 -4.48495,0.89561 -9.26767,0.96024 -13.82879,1.42343 q -11.30124,1.14028 -22.53708,2.80992 c 3.76092,-7.68728 9.58466,-13.6449 15.64923,-19.54019 -2.96919,-1.55885 -5.81912,-2.94458 -7.835,-5.73449 -2.28595,-3.16386 -2.19978,-6.70473 -1.61271,-10.37794 1.13874,-2.88071 2.89841,-5.18051 5.53213,-6.85323 2.36982,-1.50575 4.99277,-2.01588 7.7496,-1.38495 0.0192,0.29161 -5.24206,4.02329 -6.11997,5.57445 -0.971,1.71503 -1.27185,3.87403 -0.74479,5.77834 q 0.0885,0.31777 0.20928,0.624 0.12003,0.307 0.27006,0.60092 0.15081,0.29315 0.33009,0.56937 0.1785,0.27699 0.38471,0.53475 0.2062,0.25698 0.43703,0.49242 0.23082,0.23545 0.48396,0.44627 0.25314,0.21082 0.52629,0.39548 0.27314,0.18466 0.56321,0.34085 c 2.57448,1.38881 6.0815,1.06026 8.79755,0.25314 5.24129,-1.5573 10.12788,-5.44288 12.70851,-10.27483 2.0382,-3.81479 2.6999,-8.24588 1.39727,-12.41383 -1.22722,-3.92789 -3.9402,-6.58854 -7.5457,-8.42361 l -0.44627,-0.22467 -0.06,-0.4732 -0.29931,0.3147 -0.31392,-0.34086 c 1.09796,-0.49242 3.07614,-0.0123 4.22104,0.33701 4.2295,1.29109 7.07636,4.16564 9.08531,8.00428 6.76167,12.9201 -7.18176,20.2419 -9.697,29.5188 -0.31315,1.1549 -0.13619,1.69657 0.4832,2.68605 1.23338,0.7271 2.41444,0.80327 3.82709,0.68401 8.48132,-0.71479 22.47092,-7.3872 27.83301,-13.93189 3.47162,-4.23719 5.65447,-9.69546 5.03739,-15.2299 -1.28801,-11.55746 -10.61954,-15.44149 -19.16395,-21.02594 -4.26874,-2.78992 -8.27434,-5.92223 -12.25532,-9.10225 z"
       id="path61"
       style="fill:#ffffff;stroke-width:0.76942" />
    <path
       id="path69"
       d="m 316.9432,180.65295 c -1.47073,0.008 -2.85231,0.10387 -4.06049,0.33662 0.12464,0.11926 0.24266,0.24382 0.37269,0.35615 2.94533,2.54755 55.81814,1.54623 60.88939,8.60488 0.0362,0.62708 0.22585,0.86336 -0.24195,1.34348 -1.53269,1.57346 -6.48587,2.21692 -8.70256,2.68396 -15.1368,3.18616 -30.96193,4.43063 -46.37109,5.72556 -25.27338,2.2026 -50.59394,3.43519 -75.96222,3.69833 -10.71493,0.0816 -21.53069,-0.66242 -32.21946,-1.31643 -13.64489,-0.83481 -77.67182,-5.16321 -84.58813,-11.14006 -0.0262,-0.59861 -0.1603,-0.66863 0.26749,-1.15413 3.66937,-4.16256 30.87595,-6.12986 37.19365,-6.64076 3.60704,-0.29161 8.28904,-0.0909 11.73066,-1.0865 0.51474,-0.14927 0.66208,-0.0444 0.72133,-0.61764 -4.96045,-1.23954 -42.55557,2.61594 -49.60807,3.81855 -4.37954,0.7471 -8.85392,1.73102 -12.94339,3.50146 -2.70681,1.74581 -4.70584,3.55276 -5.38293,6.87819 -1.04872,5.14819 0.72921,10.94164 3.59914,15.20808 7.44028,11.0627 20.55605,13.63737 32.75596,15.92639 27.39517,5.14049 55.44496,9.14093 83.30025,10.47434 13.08474,0.6263 26.11497,0.46426 39.20587,0.21189 6.87322,-0.13311 13.75029,-0.0148 20.61505,-0.44032 14.08499,-0.87406 28.17257,-2.73881 42.17985,-4.43769 12.84468,-1.55808 36.90233,-4.55365 47.63342,-11.917 6.13997,-4.21256 13.24206,-11.525 14.63701,-19.14533 0.58322,-3.18771 0.16922,-6.48054 -1.79281,-9.14889 -4.28412,-5.82835 -14.28932,-6.91294 -21.01328,-7.77085 -12.84854,-1.63962 -25.91147,-2.16297 -38.83618,-2.97548 -3.75208,-0.23544 -8.967,-1.00126 -13.3792,-0.9768 z m 70.56125,15.13443 0.38471,0.1097 c 0.61553,0.5055 0.86111,0.99113 1.02038,1.75824 0.72248,3.47624 -1.32009,8.37037 -3.31212,11.13105 -2.90918,4.03252 -8.06858,8.71153 -12.48504,10.89361 -7.1556,3.53548 -26.31294,6.75249 -34.73962,8.14052 -12.66773,2.08667 -25.61047,3.31263 -38.39437,4.47677 -9.9055,0.90176 -19.81919,1.88738 -29.76394,2.21208 -17.14112,0.55937 -34.39403,-0.19808 -51.51208,-1.17217 -24.8707,-1.41496 -49.59758,-3.41408 -73.96201,-8.90544 -5.31746,-1.19798 -10.8804,-2.28126 -15.93241,-4.36255 -2.6268,-1.08257 -4.88423,-2.50241 -7.18326,-4.15667 -3.0292,-2.33442 -6.1418,-5.39355 -8.06688,-8.7236 -1.48191,-2.56217 -2.50494,-6.11616 -1.51931,-9.03918 0.49012,-1.45267 1.61339,-0.90129 2.7606,-0.5966 10.61721,2.81992 21.23369,3.94829 32.12329,5.17706 23.52192,2.65372 47.01029,3.60465 70.6484,4.52334 18.12906,0.85816 36.26688,1.22519 54.41544,1.10003 8.38975,-0.0808 16.75781,-0.53611 25.1414,-0.80849 14.01959,-0.4555 28.2533,-0.63106 42.21441,-1.98216 5.52444,-0.53397 10.99772,-1.54668 16.49445,-2.30225 10.61645,-1.45882 22.03328,-2.49284 31.66796,-7.47329 z"
       style="fill:#ffffff;stroke-width:0.76942" />
    <path
       id="path84"
       d="M 224.15444,1.6128e-6 C 207.87046,19.625177 182.35002,4.4468051 162.25819,39.649184 c -4.82501,8.453064 -7.17218,17.650468 -6.29812,27.403079 0.89714,9.993672 5.94115,18.81896 13.63917,25.178972 6.48083,5.355164 14.3327,7.982985 21.80375,11.563845 16.15778,7.7442 34.36835,20.34027 36.45579,39.69577 0.92021,8.53516 -2.56908,16.1267 -7.88806,22.61675 -8.25125,10.0663 -26.67339,19.35888 -31.83927,30.06148 10.84034,1.23107 21.90523,1.2181 32.80405,1.53433 27.07686,0.66991 54.14877,0.51006 81.21591,-0.47788 -7.33179,-9.04221 -19.37755,-22.76565 -18.06184,-35.19947 0.80635,-7.61955 5.58316,-13.81428 11.40304,-18.43001 2.95302,-2.34212 6.0698,-4.31446 9.39985,-6.07872 -7.11559,6.90938 -13.44824,11.95833 -16.59363,21.86535 6.45081,-8.87061 15.12457,-16.21731 24.00982,-22.62425 8.86909,-6.39541 25.90779,-16.43872 31.74459,-25.35781 1.19568,-1.8266 1.60184,-4.56938 2.44051,-6.64526 l 0.37419,0.0315 c 0.80635,3.8748 -0.30036,7.33353 -2.45704,10.57202 -4.59035,6.89476 -12.74087,11.12175 -19.58715,15.46204 -13.40404,8.49823 -37.25399,22.47857 -33.62155,41.2316 1.94969,10.06477 8.22488,16.92651 13.7624,25.06927 3.34157,-0.14619 6.67318,-0.28668 10.00246,-0.62215 -5.54752,-10.28713 -11.40911,-22.01519 -7.88055,-33.96118 2.6945,-9.11992 10.61709,-16.02118 18.72907,-20.40917 11.69285,-6.32463 25.25296,-5.69872 29.88716,-20.95167 2.06051,-6.78165 0.76837,-13.83799 -2.58477,-19.97487 -6.17612,-11.306615 -15.21681,-13.703451 -25.5201,-19.393297 -4.0456,-2.233627 -7.90881,-5.163916 -12.4099,-6.413838 -3.26696,-0.907066 -6.82381,-0.816401 -9.81763,0.906173 -2.04435,1.176983 -3.51101,3.007049 -4.065,5.31531 -0.63323,2.633725 -0.0234,5.526737 1.48775,7.758825 1.4642,2.163594 3.70939,3.690254 6.31465,4.066501 1.21645,0.176197 2.96945,0.179182 3.99738,-0.540995 -3.08921,-0.690939 -5.18827,-1.318501 -6.92178,-4.212275 -0.93407,-1.559615 -1.53892,-3.52199 -1.11806,-5.339361 0.26545,-1.150267 0.98903,-2.08409 2.00621,-2.671927 1.77119,-1.024098 3.9966,-0.968869 5.88936,-0.345639 5.1405,1.691955 9.33858,7.176421 11.53679,11.892951 2.0859,4.474948 2.64499,9.344212 0.87763,14.026892 -3.12616,8.2851 -17.23986,14.81492 -24.80478,19.18291 2.03434,-4.49186 2.97073,-8.64561 1.18568,-13.41677 -2.39596,-6.40464 -8.56669,-10.83354 -14.58892,-13.524958 -8.47592,-3.789395 -19.02589,-5.319102 -28.2266,-6.472447 11.90905,7.050951 28.64957,11.431035 32.65977,26.620125 0.99486,3.76862 1.17232,9.55269 -0.94975,12.97044 -1.16721,1.8797 -3.72292,3.40573 -5.52719,4.63757 -9.93166,6.78165 -15.2882,12.74347 -22.54612,22.20348 1.96817,-4.82887 4.9336,-9.16477 7.33804,-13.77743 4.59575,-8.816 6.1092,-19.34324 2.14747,-28.6609 -2.61526,-6.15073 -6.86025,-12.10706 -11.56986,-16.853613 -9.14531,-9.219931 -19.15439,-13.720361 -24.50723,-26.614121 -1.80814,-4.354601 -2.36782,-8.629243 -0.62816,-13.101181 2.37058,-6.094564 7.55008,-10.766183 13.47537,-13.314575 5.07893,-2.18461 10.62038,-3.051518 16.02708,-4.036451 13.7572,-2.506303 24.33169,-4.752877 36.08611,-12.935876 3.30697,-2.302793 7.13342,-5.451859 8.71458,-9.263097 0.64631,-1.55638 1.35704,-3.440186 1.3555,-5.137983 l -0.37269,-0.565044 c -2.84914,0.676089 -8.01509,5.978397 -10.70576,7.861009 -2.28362,1.604905 -4.68089,3.016673 -7.19227,4.234817 -3.4988,1.635219 -7.06696,3.101431 -10.70425,4.398619 -3.63731,1.297189 -7.32845,2.420151 -11.07244,3.367716 -13.49022,3.402599 -22.96099,3.644569 -33.02346,14.591933 2.96843,-7.249231 7.16244,-11.54611 14.43114,-14.614475 17.54814,-7.407347 37.57162,-4.866144 46.4838,-26.1482628 1.06333,-2.5395742 1.73005,-5.2167926 2.38791,-7.8835435872 H 243.96551 C 242.17122,3.9563445 240.46285,8.0012603 238.33311,11.789262 c -3.69091,1.312705 -7.71159,1.958343 -11.49021,3.06115 -13.25169,3.868175 -24.42561,13.997386 -30.92257,26.035555 -4.14949,7.688493 -5.96117,16.543164 -3.34668,25.076786 4.88811,15.958513 31.55763,24.555145 44.98553,31.840769 9.4346,5.118168 15.62165,10.816698 18.65393,21.312338 4.74808,16.43325 -1.39332,38.38052 -9.39835,52.95023 -4.86041,8.84678 -13.9729,19.35521 -24.09998,22.1028 -1.11873,0.30315 -1.83119,0.42439 -2.82221,-0.14727 0.0531,-0.81097 13.55471,-14.89129 15.58827,-17.9882 8.53286,-12.98855 16.9441,-30.76141 13.5956,-46.61605 -4.1187,-19.50475 -21.02001,-28.59133 -37.62945,-36.240887 -5.38441,-2.479841 -11.04201,-4.702481 -15.99553,-7.991752 -6.08302,-4.04021 -10.23118,-9.382253 -11.5969,-16.667263 -3.64321,-19.425974 8.78307,-34.969342 22.91729,-46.417676 C 215.32702,15.170254 224.77464,9.2520297 231.07772,1.6128e-6 Z M 231.1769,28.094357 l 0.90317,0.148774 c -1.24031,2.037269 -4.52123,3.972297 -6.34321,5.632397 -1.53269,1.396419 -2.91444,3.014464 -4.20476,4.634554 -5.85605,7.355572 -10.12719,17.665781 -8.78071,27.194193 0.35624,2.518464 1.69076,4.806405 1.97314,7.229845 l -0.62064,-0.404246 c -1.86277,-2.871165 -3.43189,-5.759388 -4.38059,-9.067737 -2.06665,-7.20569 -0.74627,-14.175099 2.85076,-20.646609 4.20489,-7.564085 10.33312,-12.37398 18.60284,-14.721171 z"
       style="fill:#ffffff;stroke-width:0.76942" />
    <path
       style="fill:#ffffff;stroke-width:4.2;stroke-linecap:round;stroke-linejoin:round;stroke-miterlimit:20"
       d="m 143.27113,434.81549 17.90357,9.4993"
       id="path89" />
    <path
       id="path106"
       style="fill:#ffffff;stroke-width:4.2;stroke-linecap:round;stroke-linejoin:round;stroke-miterlimit:20"
       d="m 375.86133,221.60156 -10.22656,2.28516 6.22656,14.97656 c -0.29438,-0.92823 -0.53466,-1.82662 -0.71289,-2.68555 -0.17823,-0.8589 -0.29375,-1.679 -0.33985,-2.45507 -0.046,-0.77608 -0.022,-1.50782 0.0801,-2.1875 0.12946,-0.86195 0.33236,-1.61469 0.60547,-2.28907 0.27311,-0.67437 0.61486,-1.27085 1.02539,-1.82031 0.41054,-0.54946 0.88991,-1.05185 1.43164,-1.53906 0.54173,-0.48721 1.1458,-0.95769 1.8125,-1.44531 z m -0.0977,2.83985 c 0.0144,1.00356 0.0686,1.98871 0.1582,2.95703 0.0896,0.96832 0.21607,1.91932 0.375,2.85547 z m 0,0 c -0.6667,0.48762 -1.27077,0.9581 -1.8125,1.44531 -0.54173,0.48721 -1.0211,0.9896 -1.43164,1.53906 -0.41053,0.54946 -0.75228,1.14594 -1.02539,1.82031 -0.27311,0.67438 -0.47601,1.42712 -0.60547,2.28907 -0.10204,0.67968 -0.12613,1.41142 -0.0801,2.1875 0.0461,0.77607 0.16162,1.59617 0.33985,2.45507 0.17823,0.85893 0.41851,1.75732 0.71289,2.68555 l 4.43554,-8.60937 c -0.15893,-0.93615 -0.28537,-1.88715 -0.375,-2.85547 -0.0896,-0.96832 -0.14382,-1.95347 -0.1582,-2.95703 z m 0.5332,5.8125 -4.43554,8.60937 c 0.29437,0.92823 0.64258,1.88711 1.03711,2.87109 0.78905,1.96801 1.76178,4.03467 2.85547,6.14454 1.09368,2.10984 2.30776,4.26284 3.57812,6.40625 1.27036,2.14339 2.59889,4.27705 3.91797,6.3457 1.31908,2.06865 2.62931,4.07145 3.86914,5.95703 2.47967,3.77117 4.6734,7.06798 6.06836,9.45703 0.9251,1.55526 1.81334,3.13171 2.66406,4.72656 0.85072,1.59488 1.66311,3.20927 2.43946,4.84375 0.77658,1.63451 1.51413,3.2841 2.21289,4.95118 0.69876,1.66705 1.35957,3.35113 1.98046,5.05078 0.76721,2.0857 1.46434,4.19366 2.09375,6.32031 0.62944,2.12665 1.19199,4.2715 1.6875,6.43164 0.49554,2.16014 0.92359,4.33533 1.28907,6.52148 0.36548,2.18618 0.66696,4.38315 0.90625,6.5879 0.23929,2.20472 0.41624,4.41694 0.5332,6.63281 0.11696,2.21586 0.17534,4.43672 0.17383,6.65625 -0.002,2.21953 -0.0616,4.43858 -0.17774,6.65429 -0.11612,2.21574 -0.28874,4.42833 -0.51562,6.63282 -0.22365,2.24824 -0.50438,4.48828 -0.83984,6.72265 -0.33547,2.23388 -0.72562,4.45893 -1.17188,6.67383 -0.44627,2.21439 -0.94736,4.41571 -1.50391,6.60547 -0.55654,2.18977 -1.16725,4.36445 -1.83203,6.52344 -0.66529,2.15898 -1.38477,4.30023 -2.15625,6.42383 -0.77198,2.12306 -1.59603,4.22603 -2.47265,6.30859 -0.87714,2.08205 -1.80543,4.14187 -2.78516,6.17773 -0.97973,2.03537 -2.00814,4.04471 -3.08789,6.0293 -1.00313,1.82612 -2.11677,3.67903 -3.32422,5.53906 -1.20744,1.86006 -2.50955,3.72694 -3.89258,5.58203 -1.38302,1.85512 -2.84708,3.69849 -4.37695,5.50977 -1.52987,1.81128 -3.12546,3.59174 -4.77344,5.32031 -1.64797,1.72858 -3.34859,3.40474 -5.08594,5.01172 -1.73732,1.60698 -3.51256,3.14334 -5.31054,4.58985 -1.79798,1.44648 -3.61739,2.80363 -5.44727,4.05078 -1.82988,1.24714 -3.6689,2.38563 -5.50195,3.39453 0.16004,-1.23569 0.36383,-2.47264 0.40625,-3.69727 0.0212,-0.61231 0.002,-1.22091 -0.084,-1.82617 -0.0859,-0.60526 -0.23755,-1.20739 -0.48242,-1.80273 l -0.5664,-0.15625 c -0.35471,0.43433 -0.67091,0.8982 -0.96289,1.38086 -0.29199,0.48265 -0.56008,0.9848 -0.81836,1.49218 -0.51657,1.01477 -0.99487,2.05519 -1.55078,3.02735 -0.3447,0.60284 -0.78275,1.19467 -1.2793,1.77148 -0.49655,0.57681 -1.05192,1.13823 -1.63086,1.67774 -1.15788,1.07899 -2.41177,2.07146 -3.48242,2.93359 -0.84405,0.68248 -1.70879,1.33655 -2.59375,1.96094 -0.88496,0.62438 -1.78898,1.22081 -2.71485,1.78711 -0.92587,0.56655 -1.8693,1.0998 -2.82812,1.60351 -0.95883,0.50371 -1.934,0.97709 -2.92578,1.41797 -2.028,0.89686 -4.31872,1.7843 -6.8086,2.6543 -2.48985,0.87 -5.17963,1.72216 -8.00586,2.54883 -2.8262,0.82664 -5.78914,1.62769 -8.82617,2.39453 -3.03701,0.76684 -6.14722,1.49892 -9.26953,2.18945 -3.1223,0.69053 -6.25585,1.33976 -9.33789,1.9375 -3.08204,0.59774 -6.11305,1.14436 -9.0293,1.63281 -2.91622,0.48846 -5.7169,0.91856 -8.34179,1.28125 -2.62491,0.36269 -5.07323,0.65847 -7.28125,0.87891 -1.71888,0.17158 -3.42664,0.29297 -5.12891,0.375 -1.70227,0.082 -3.40022,0.12548 -5.09766,0.14062 -3.39485,0.0303 -6.79205,-0.0512 -10.23828,-0.15234 -3.12555,-0.0919 -6.24194,-0.24921 -9.34961,-0.47266 -3.10765,-0.22344 -6.20503,-0.51238 -9.29101,-0.87109 -3.08599,-0.35871 -6.16019,-0.78742 -9.22071,-1.28516 -3.06049,-0.49773 -6.10739,-1.06458 -9.13867,-1.70507 -3.03125,-0.64052 -6.04863,-1.35357 -9.04687,-2.14063 -2.99825,-0.78706 -5.97802,-1.64857 -8.93946,-2.58594 -2.96141,-0.93736 -5.90339,-1.95154 -8.82421,-3.04297 -2.92085,-1.0914 -5.82079,-2.26051 -8.69727,-3.50976 -1.68791,-0.73326 -3.4204,-1.50675 -5.1582,-2.32617 l -4.35352,4.02148 c 0.25125,0.12807 0.49222,0.27146 0.74414,0.39844 2.70178,1.36181 5.44267,2.66128 8.21875,3.89844 2.77611,1.23715 5.58746,2.41197 8.42774,3.52148 2.84025,1.10951 5.70924,2.15394 8.60351,3.13281 2.89429,0.97887 5.81381,1.8911 8.75196,2.73633 2.93812,0.84523 5.89536,1.62343 8.86718,2.33203 2.97185,0.7086 5.95774,1.349 8.95313,1.91797 2.99539,0.56897 6.00101,1.06584 9.00976,1.49219 3.00877,0.42634 6.02121,0.78178 9.03321,1.0625 3.01197,0.28072 6.02228,0.48703 9.02734,0.61914 3.00506,0.13211 6.00422,0.18943 8.99219,0.16992 2.98797,-0.0195 5.96506,-0.11495 8.92578,-0.28906 2.96072,-0.17411 5.90483,-0.4261 8.82812,-0.75781 3.58858,-0.40741 7.14304,-0.96825 10.69141,-1.54493 3.54837,-0.57668 7.09082,-1.16977 10.66016,-1.64257 0.81174,0.89406 1.60693,1.81385 2.46484,2.66406 1.0089,-0.58418 1.99339,-1.12952 2.97656,-1.63477 0.98318,-0.50524 1.96419,-0.97084 2.96289,-1.39258 0.99871,-0.42171 2.01482,-0.8011 3.07032,-1.13476 1.0555,-0.33366 2.15113,-0.62226 3.30468,-0.86328 l 0.22071,0.52734 c 0.53032,1.27993 0.98773,2.84656 1.43164,4.53711 0.4439,1.69055 0.87474,3.50429 1.35351,5.27734 0.23939,0.88654 0.49078,1.76365 0.76172,2.60938 0.27095,0.84573 0.56145,1.66006 0.87891,2.42383 0.31746,0.76376 0.66178,1.47633 1.04101,2.11719 0.37924,0.64083 0.79188,1.21055 1.24805,1.6875 l 0.91797,0.36718 c 0.23698,-0.18197 0.42314,-0.43196 0.57031,-0.72265 0.14718,-0.2907 0.25608,-0.62114 0.33985,-0.9668 0.16754,-0.69132 0.23431,-1.43874 0.30664,-2.02734 0.20889,-1.70504 0.34428,-3.59258 0.52343,-5.53711 0.17916,-1.94455 0.40272,-3.9472 0.78907,-5.88282 0.19317,-0.96779 0.4274,-1.91889 0.71679,-2.83789 0.2894,-0.91899 0.6336,-1.80541 1.04883,-2.64453 0.41524,-0.83912 0.90197,-1.63118 1.47266,-2.35937 0.57069,-0.72819 1.2247,-1.39232 1.98047,-1.97852 0.76422,-0.59284 1.65383,-1.12175 2.61132,-1.60742 0.95752,-0.48567 1.98353,-0.92883 3.02539,-1.34961 2.08378,-0.84155 4.22836,-1.59605 5.9961,-2.43164 2.92354,-1.37521 5.81577,-2.80772 8.67773,-4.30078 2.86199,-1.49306 5.69373,-3.04534 8.49414,-4.65625 2.0456,-1.1776 4.06111,-2.40867 6.04493,-3.69141 1.98379,-1.28274 3.93497,-2.6183 5.85156,-4.00195 1.91658,-1.38365 3.79867,-2.81654 5.64258,-4.29688 1.84388,-1.48031 3.65023,-3.0073 5.41601,-4.58007 1.76579,-1.5728 3.49162,-3.19054 5.17383,-4.85157 1.68221,-1.661 3.32087,-3.36632 4.91406,-5.11132 1.5932,-1.74503 3.13997,-3.53067 4.63867,-5.35547 1.49873,-1.8248 2.94884,-3.68757 4.34766,-5.58789 1.39882,-1.90035 2.74756,-3.83693 4.04102,-5.8086 1.29343,-1.97166 2.53219,-3.97882 3.71484,-6.01758 1.18265,-2.03873 2.3086,-4.10934 3.375,-6.21093 1.0664,-2.10162 2.07288,-4.23431 3.01758,-6.39453 0.94469,-2.16025 1.82698,-4.34787 2.64453,-6.5625 0.81754,-2.21466 1.57091,-4.45588 2.25586,-6.72071 0.68495,-2.26483 1.3027,-4.55445 1.84961,-6.86523 0.5469,-2.31078 1.02236,-4.6436 1.42578,-6.9961 0.36624,-2.13588 0.6768,-4.25535 0.93164,-6.35937 0.25484,-2.10402 0.45387,-4.19195 0.59961,-6.26563 0.14574,-2.07365 0.23839,-4.13285 0.27734,-6.17773 0.039,-2.04488 0.0245,-4.07613 -0.041,-6.09375 -0.0655,-2.01762 -0.18191,-4.02175 -0.34961,-6.01367 -0.1677,-1.99192 -0.38673,-3.97169 -0.6543,-5.93946 -0.26757,-1.96774 -0.58409,-3.92398 -0.94922,-5.86914 -0.36512,-1.94513 -0.7779,-3.87864 -1.23828,-5.80273 -0.46038,-1.92409 -0.96816,-3.83762 -1.52148,-5.74219 -0.55332,-1.90457 -1.15292,-3.8009 -1.79688,-5.6875 -0.64396,-1.8866 -1.33216,-3.76458 -2.06445,-5.63476 -0.73229,-1.87018 -1.50982,-3.73261 -2.32813,-5.58789 -0.8183,-1.85531 -1.67807,-3.70295 -2.58007,-5.54493 -0.90203,-1.84195 -1.8447,-3.67762 -2.82813,-5.50781 -0.98343,-1.83019 -2.00779,-3.65466 -3.07031,-5.47461 -1.06253,-1.81995 -2.16342,-3.636 -3.30274,-5.44726 -2.03394,-3.23329 -4.20087,-6.36644 -6.30859,-9.5 -1.05386,-1.56679 -2.09244,-3.13418 -3.09375,-4.71289 -1.00131,-1.57874 -1.96381,-3.16991 -2.86523,-4.78516 -0.90145,-1.61525 -1.74184,-3.25529 -2.4961,-4.93164 -0.75426,-1.67635 -1.42267,-3.38836 -1.98242,-5.15039 -0.27987,-0.88102 -0.53158,-1.7746 -0.75391,-2.68164 -0.22232,-0.90704 -0.41526,-1.82753 -0.57422,-2.76367 z m -212.2832,221.79687 4.35352,-4.02148 c -1.73781,-0.81942 -3.4815,-1.68529 -5.19336,-2.60547 -0.74479,-0.40035 -1.44619,-0.85404 -2.17578,-1.27539 l -17.72657,-9.33203 6.64258,9.24414 c 2.25419,1.41408 4.53239,2.79911 6.86133,4.11914 2.37324,1.34513 4.79499,2.62573 7.23828,3.87109 z" />
    <path
       style="fill:#ffffff;stroke:none;stroke-width:4.2;stroke-linecap:round;stroke-linejoin:round;stroke-miterlimit:20"
       d="m 143.5894,435.93912 1.69457,0.44856 c 0,0 5.16113,8.0052 5.10733,7.9716 -0.0538,-0.0336 -1.58135,-0.97045 -1.58135,-0.97045 z"
       id="path117" />
  </g>
</svg>
