<?xml version="1.0" encoding="UTF-8" standalone="no"?>
<svg
   viewBox="0 0 500 500"
   width="500"
   height="500"
   version="1.1"
   id="svg46"
   sodipodi:docname="5421a4de-d730-47da-af7b-7f3321969421.svg"
   xmlns:inkscape="http://www.inkscape.org/namespaces/inkscape"
   xmlns:sodipodi="http://sodipodi.sourceforge.net/DTD/sodipodi-0.dtd"
   xmlns="http://www.w3.org/2000/svg"
   xmlns:svg="http://www.w3.org/2000/svg">
  <defs
     id="defs46" />
  <sodipodi:namedview
     id="namedview46"
     pagecolor="#505050"
     bordercolor="#eeeeee"
     borderopacity="1"
     inkscape:showpageshadow="0"
     inkscape:pageopacity="0"
     inkscape:pagecheckerboard="0"
     inkscape:deskcolor="#505050" />
  <g
     id="g48"
     transform="translate(45.145154,72.188369)"
     style="fill:#ffffff">
    <g
       fill="#232627"
       fill-opacity="1"
       stroke="None"
       id="g28"
       transform="matrix(0.70621469,0,0,0.70621469,-157.43329,-128.88462)"
       style="fill:#ffffff">
      <path
         d="m 867,193 c -47.03,-2.61 -97.68,3.91 -144,-1 -46.31,-4.92 -91.35,-3 -139,-3 -47.65,0 -96.42,0.06 -144,0 -47.58,-0.06 -92.84,-2.05 -139,3 -46.16,5.05 -95.69,-2.54 -142,2 7.36,21.32 21.52,36.41 38.25,51.75 16.73,15.34 34.47,24.5 54.68,35.32 20.21,10.83 40.95,16.07 61.99,28.01 21.05,11.94 51.71,9.55 76.08,12.92 24.36,3.38 36.31,22.68 46.07,43.93 9.77,21.24 13.27,52.4 7.25,75.39 -6.01,22.99 -24.75,34.91 -35.4,54.6 -10.65,19.69 -26.84,32.28 -44.92,44.08 -1.24,19.72 -2.27,40.61 -2,60 23.88,-1.1 53.44,-7.29 77,-7 23.55,0.29 29.82,26.32 43.75,40.25 13.94,13.93 24.06,32.13 37.25,46.75 15.54,-14.15 24.46,-33 38.75,-48.25 14.29,-15.25 23.17,-40.8 48.25,-38.75 25.08,2.05 53.79,4.21 79,7 0.29,-15.3 -0.35,-36.92 -2,-52 -1.65,-15.08 -17.77,-17.53 -27.25,-27.75 -9.48,-10.23 -17.82,-19.6 -24.83,-31.17 -7,-11.58 -18.23,-16.84 -25.62,-29.38 -7.39,-12.54 -13.31,-27.35 -13.3,-42.7 0.01,-15.35 3.58,-32.58 8.69,-46.31 5.12,-13.72 9.75,-25.12 20.41,-35.59 10.66,-10.47 24.75,-14.71 39.89,-15.11 15.14,-0.4 34.17,-1.35 46.99,-9.01 12.81,-7.67 25.38,-10.3 37.94,-17.06 12.57,-6.76 25.63,-11.48 37.85,-18.15 12.22,-6.67 23.01,-12.84 33.98,-21.02 10.98,-8.17 19.65,-17.24 28.5,-27.5 C 855.1,216.99 863.26,205.94 867,193 m -188,1 c 2.45,9.45 4.29,19.08 5,29 -56.5,-8.01 -112.27,3.61 -169,3 -56.73,-0.61 -112.35,-10.57 -169,-3 0.89,-9.86 2.24,-19.61 5,-29 109.37,2.72 218.73,3.6 328,0 m -352,3 c -5.9,37.4 7.92,74.39 8,111 -1.82,-9.19 -5.23,-16.05 -15.02,-15.98 -9.8,0.08 -17.39,-4.2 -26.05,-5.95 -8.67,-1.74 -15.42,-4.78 -23.15,-7.85 -7.74,-3.06 -15.1,-6.33 -22.47,-9.53 -7.38,-3.19 -13.24,-7.13 -20.06,-10.94 -6.81,-3.82 -13.56,-7.6 -19.25,-12.75 37.61,18.38 77.67,32.28 119,40 -0.41,-8.56 -2.94,-16.58 -4,-25 -42.87,-2.67 -87.34,-6.08 -124,-28 40.24,9.82 81.65,15.34 123,21 -1.92,-11.32 -1.81,-19.89 -2,-32 -0.19,-12.11 -17.09,-5.63 -27,-6 -9.91,-0.37 -24.52,0.04 -35,0 -10.48,-0.04 -22.97,0.12 -33.07,-0.93 -10.1,-1.05 -22.4,-0.55 -31.6,-3.4 -9.2,-2.84 -18.2,-3.6 -23.33,-11.67 52,-0.25 104.84,3.62 156,-2 m 530,4 c -7.85,5.95 -15.67,6.49 -25,9 -9.33,2.5 -19.98,2.9 -30,4 -10.02,1.1 -22.73,0.75 -33,1 -10.27,0.25 -24.46,-1 -34,0 -9.54,1 -26.12,-6.3 -27,5 -0.87,11.3 0.54,22.2 -2,33 40.82,-5.01 81.05,-12.48 121,-21 -7.37,5.5 -15.1,7.72 -24.07,10.93 -8.98,3.2 -17.77,6.34 -27.6,8.4 -9.83,2.05 -19.7,4.87 -30.4,5.6 -10.71,0.72 -21.73,2.54 -32.95,3.05 -11.23,0.5 -9.44,15.15 -10.98,25.02 40.41,-8.95 80.11,-21.99 117,-41 -34.96,25.96 -76.58,43.85 -120,49 -1.16,4.7 -2.4,9.4 -4,14 -0.93,-36.05 14.97,-72.82 8,-110 16.61,2.28 33.24,1.86 50.22,2.78 16.98,0.92 36.8,-0.04 53.78,0.22 16.98,0.26 35.4,-3.89 51,1 M 408,545 c 6.76,-0.63 15.29,-2.27 22,0 -14.2,2.69 -28.08,7.74 -41,14 -1.32,11.49 -3.74,22.72 -6,34 -2.94,-7.24 -2.43,-18.54 -0.01,-28.01 2.43,-9.46 -6.7,-13.41 -9.99,-20.99 31.98,-8.49 53.49,-32.88 73.25,-60.75 C 466.02,455.39 473.1,408.14 467,374 c -6.09,-34.14 -23.14,-62.91 -44,-90 37.76,34.25 57.38,86.98 53,137 -4.38,50.02 -35.38,87.78 -68,124 M 612,285 c -22.15,26.39 -36.36,59.45 -40.99,94.01 -4.64,34.55 4.48,80.38 25.76,107.22 21.28,26.83 45.07,49.34 77.23,58.77 -5.62,6.09 -12.52,11 -11,20 1.52,9 3.02,21.25 0,28 -1.67,-11.41 -5.43,-22.29 -6,-34 -13.52,-5.94 -27.3,-11.56 -42,-14 6.7,-3.04 14.61,1.13 22,0 C 603.27,509.86 570.55,475.44 564.01,425.99 557.46,376.54 573.57,318.65 612,285 m -88,14 c 24.42,5.06 13.52,45.68 -10.67,37.67 C 489.14,328.66 499.27,293.88 524,299 m -4,194 c 6.79,10.38 16.69,13.62 23.75,24.25 7.07,10.63 6.2,25.58 11.24,37.76 5.04,12.18 4.06,26.29 -4.76,36.22 -8.82,9.93 -11.21,20.16 -18.15,30.85 C 525.13,632.76 523.47,646.73 519,658 516.63,642.97 507.55,628.19 501.75,614.25 495.94,600.32 480.57,590.01 479,575 c -1.57,-15.01 8.31,-35.08 11.78,-49.22 3.47,-14.15 19.45,-23.16 29.22,-32.78 z"
         id="path28"
         style="fill:#ffffff" />
    </g>
    <g
       fill="#232627"
       fill-opacity="1"
       stroke="None"
       id="g43"
       transform="matrix(0.70621469,0,0,0.70621469,-157.43329,-128.88462)"
       style="fill:#ffffff">
      <path
         d="m 552,580 c 3.05,-14.71 -4.63,-29.94 -7.07,-43.93 C 542.48,522.09 534.36,513.78 522,507 c 2.65,13.91 -4.76,37.82 2.75,49.25 7.51,11.43 17.91,15.45 27.25,23.75 z"
         id="path43"
         style="fill:#ffffff" />
    </g>
    <g
       fill="#232627"
       fill-opacity="1"
       stroke="None"
       id="g44"
       transform="matrix(0.70621469,0,0,0.70621469,-157.43329,-128.88462)"
       style="fill:#ffffff">
      <path
         d="m 516,508 c -27.75,11.48 -27.96,46 -31,72 8.8,-2.66 12.02,-9.54 19.75,-15.25 7.73,-5.71 12.98,-12.21 11.25,-22.75 -1.73,-10.54 1.3,-23.26 0,-34 z"
         id="path44"
         style="fill:#ffffff" />
    </g>
  </g>
  <rect
     style="fill:#ffffff;stroke-width:4.2;stroke-linecap:round;stroke-linejoin:round;stroke-miterlimit:20"
     id="rect48"
     width="1"
     height="1"
     x="2.9e-07"
     y="0" />
  <rect
     style="fill:#ffffff;stroke-width:4.2;stroke-linecap:round;stroke-linejoin:round;stroke-miterlimit:20"
     id="rect49"
     width="1"
     height="1"
     x="499"
     y="499" />
</svg>
