<?xml version="1.0" encoding="UTF-8" standalone="no"?>
<svg
   width="500"
   height="500"
   version="1.1"
   id="svg21"
   sodipodi:docname="86b065f3-73df-40a1-b42f-6bca9547b0f8.svg"
   xmlns:inkscape="http://www.inkscape.org/namespaces/inkscape"
   xmlns:sodipodi="http://sodipodi.sourceforge.net/DTD/sodipodi-0.dtd"
   xmlns="http://www.w3.org/2000/svg"
   xmlns:svg="http://www.w3.org/2000/svg">
  <defs
     id="defs21" />
  <sodipodi:namedview
     id="namedview21"
     pagecolor="#505050"
     bordercolor="#eeeeee"
     borderopacity="1"
     inkscape:showpageshadow="0"
     inkscape:pageopacity="0"
     inkscape:pagecheckerboard="0"
     inkscape:deskcolor="#505050" />
  <g
     id="g21"
     transform="translate(-8.6832703,3.8790257)">
    <path
       fill="#fefefe"
       d="m 107.52973,364.82849 c 4.08414,-0.61498 11.97909,-1.07053 15.81881,0.2926 l 0.0421,0.63339 q -5.06619,0.72799 -10.17969,0.5046 c -1.81605,-0.0955 -4.39951,-0.0184 -5.68117,-1.43059 z"
       id="path2"
       style="stroke-width:0.876048" />
    <path
       fill="#fefefe"
       d="m 118.61087,368.26085 c 6.20329,-0.26807 13.18014,-0.01 19.2678,1.20544 -2.82963,0.38897 -5.66891,0.47219 -8.51869,0.58608 -5.66803,0.39159 -11.56121,0.75778 -17.23362,0.45992 2.09287,-1.17653 4.12794,-1.8616 6.48451,-2.25144 z"
       id="path3"
       style="stroke-width:0.876048" />
    <path
       fill="#fefefe"
       d="m 349.75361,356.98523 c 8.31019,-0.69032 17.31948,-0.55366 25.46235,1.35437 -5.52875,0.95928 -11.43944,0.62375 -17.04615,0.62813 -8.02461,0.0245 -16.07987,0.25931 -24.05542,-0.7534 5.19059,-0.76216 10.40658,-0.96628 15.63922,-1.2291 z"
       id="path4"
       style="stroke-width:0.876048" />
    <path
       fill="#fefefe"
       d="m 135.01049,397.24053 q 11.98522,-0.17521 23.90999,1.0425 c -4.74468,0.87692 -9.52527,1.16952 -14.32952,1.51206 -6.29353,0.72975 -15.59016,1.49191 -21.67432,-0.42664 l -0.20149,-0.51161 c 3.60319,-1.71618 8.37064,-1.51031 12.29534,-1.61631 z"
       id="path5"
       style="stroke-width:0.876048" />
    <path
       fill="#fefefe"
       d="m 307.73132,379.13962 c 8.95497,-0.1901 22.47152,2.40037 31.63148,3.56639 -2.84541,0.36707 -5.74863,0.36093 -8.61419,0.44504 -5.98165,0.10074 -24.553,1.24924 -29.03399,-0.85503 l -0.22953,-0.65966 c 1.6496,-1.74597 3.99654,-2.04032 6.24623,-2.49674 z"
       id="path6"
       style="stroke-width:0.876048" />
    <path
       fill="#fefefe"
       d="m 251.86308,414.31033 c 3.53311,1.31671 7.725,5.56729 10.20071,8.3286 7.40524,8.25675 12.26643,18.37424 11.62166,29.58152 l -0.44328,-0.38371 c -1.38854,-5.4972 -3.29394,-11.01017 -6.31894,-15.82318 -3.66976,-5.83711 -12.0737,-12.92697 -14.46706,-18.23057 -0.49672,-1.10119 -0.54578,-2.28386 -0.59309,-3.47266 z"
       id="path7"
       style="stroke-width:0.876048" />
    <path
       fill="#fefefe"
       d="m 151.97254,135.93632 0.3364,0.51862 c -0.55804,2.6921 -1.42708,5.65402 -1.5655,8.39167 -0.25317,5.01187 1.66012,10.81219 0.21814,15.69002 -0.33903,1.14587 -0.97504,2.13231 -2.08762,2.64742 -1.19756,0.55454 -2.25583,0.1866 -3.43762,-0.20675 -1.69865,-1.72669 -2.40475,-3.54186 -2.59047,-5.94398 -0.58257,-7.52614 4.46434,-15.63221 9.12667,-21.097 z"
       id="path8"
       style="stroke-width:0.876048" />
    <path
       fill="#fefefe"
       d="m 215.47203,61.439789 c 0.36356,3.13275 -2.6956,9.30451 -3.30796,12.88229 -1.20894,7.06884 1.88176,15.8118 -1.12046,22.40844 -0.53176,1.1669 -1.38766,2.2716 -2.68159,2.61588 -1.74246,0.46256 -3.32635,-0.34341 -4.76833,-1.22121 -1.68902,-1.98074 -2.52214,-4.2865 -2.70173,-6.85858 -0.75428,-10.82533 7.79683,-22.15088 14.58007,-29.82682 z"
       id="path9"
       style="stroke-width:0.876048" />
    <path
       fill="#fefefe"
       d="m 326.67149,372.70592 c 19.38519,-0.41963 39.57636,1.97899 58.46046,6.31193 -15.82932,0.0657 -31.74449,-0.84626 -47.59396,-0.99432 -19.78731,-0.18572 -39.50102,1.57864 -59.2673,0.35393 13.15562,-4.27599 34.30693,-5.3036 48.4008,-5.67154 z"
       id="path10"
       style="stroke-width:0.876048" />
    <path
       fill="#fefefe"
       d="m 132.89659,375.76683 c 22.37603,-1.10294 57.16566,2.98645 78.03226,10.86038 -9.28875,0.90408 -19.19948,-0.19011 -28.53816,-0.622 l -50.12048,-4.09465 c -9.97644,-0.77618 -20.04574,-1.0828 -29.98626,-2.17786 10.19983,-2.49586 20.13159,-3.58566 30.61264,-3.96587 z"
       id="path11"
       style="stroke-width:0.876048" />
    <path
       fill="#fefefe"
       d="m 327.81648,440.13537 c 5.08371,-0.30837 9.81174,1.18003 13.87398,4.25233 q 0.43364,0.32414 0.85152,0.67018 0.417,0.34516 0.81648,0.71135 0.39947,0.36532 0.78055,0.75078 0.38109,0.38546 0.74202,0.78932 0.36181,0.40385 0.70171,0.82523 0.34078,0.42051 0.66054,0.85853 0.31888,0.43803 0.61674,0.89094 0.29698,0.45292 0.57118,0.91985 0.27421,0.46694 0.52476,0.94789 0.25055,0.48007 0.47744,0.97241 0.22602,0.49234 0.42839,0.99519 0.20149,0.50285 0.37758,1.01447 0.17696,0.51248 0.32764,1.03286 0.15068,0.52037 0.27508,1.04775 0.12527,0.52738 0.22339,1.06002 0.0981,0.53264 0.16996,1.06965 c 0.93123,7.32815 -2.07974,13.00582 -6.42494,18.62655 0.49146,-4.71314 1.08192,-9.64267 -0.43102,-14.23754 -1.12572,-3.4201 -3.37454,-6.33646 -6.69914,-7.85903 -5.42887,-2.4871 -12.21912,-1.02761 -17.57266,0.89882 -4.2208,1.69603 -8.1122,3.965 -10.62384,7.88181 -3.19845,4.98647 -2.9111,10.07105 -1.75998,15.63221 -1.59178,-0.61236 -2.92249,-1.33335 -4.25058,-2.40125 -2.63165,-2.11566 -4.45471,-4.93128 -4.73767,-8.36714 -0.43277,-5.25541 2.38372,-10.19107 5.58831,-14.1219 6.09204,-7.47444 14.72112,-13.82054 24.49256,-14.86128 z"
       id="path12"
       style="stroke-width:0.876048" />
    <path
       fill="#fefefe"
       d="m 456.82074,412.06064 c 6.02108,-0.71222 12.12626,-0.38283 17.67953,2.22079 q 0.56768,0.26369 1.12135,0.55541 0.55366,0.2926 1.09243,0.61148 0.53877,0.31976 1.06002,0.6658 0.52124,0.34604 1.02497,0.71836 0.50373,0.37144 0.98819,0.76829 0.48445,0.39685 0.94788,0.81736 0.46343,0.4205 0.90583,0.86378 0.44153,0.44328 0.86116,0.90846 0.41875,0.46518 0.81385,0.95051 0.3951,0.48621 0.76566,0.99081 0.37057,0.50461 0.71486,1.02761 0.34429,0.523 0.66229,1.06177 0.31713,0.53965 0.60798,1.09418 0.28997,0.55454 0.55191,1.12397 0.26194,0.56856 0.49497,1.14938 0.23303,0.58082 0.43627,1.17303 c 1.99827,5.76352 2.01666,12.76227 -0.72186,18.2989 -1.75736,3.55237 -4.61765,6.23834 -8.36013,7.53927 0.80508,-0.8594 1.56287,-1.81955 2.18574,-2.82175 q 0.26544,-0.43102 0.50898,-0.8743 0.24354,-0.44328 0.46518,-0.89795 0.22252,-0.45379 0.42138,-0.91897 0.19974,-0.46518 0.3767,-0.93913 0.17609,-0.47394 0.3294,-0.95576 0.15331,-0.48271 0.28296,-0.97154 0.12966,-0.48884 0.23566,-0.9838 0.10512,-0.4941 0.1866,-0.99344 0.0815,-0.49935 0.13841,-1.0022 0.057,-0.50285 0.0894,-1.00746 0.0333,-0.5046 0.0403,-1.01008 0.008,-0.50636 -0.009,-1.01184 -0.0166,-0.50548 -0.0578,-1.01008 -0.0421,-0.50373 -0.10776,-1.00571 -0.0657,-0.5011 -0.15593,-0.99869 -0.0902,-0.4976 -0.205,-0.99081 c -1.42708,-5.9107 -5.56028,-10.11748 -10.60807,-13.19329 0.69208,6.76835 0.98205,13.2441 0.0771,20.02296 -0.84714,5.85376 -2.57996,10.42235 -5.92822,15.28354 3.35615,-12.20861 2.04908,-23.19338 -0.70259,-35.29599 -7.11877,2.86994 -13.84857,6.87085 -21.4991,8.21296 -5.98341,1.0495 -11.16524,0.45992 -16.19551,-3.04778 l 0.14455,-0.25668 c 0.58783,-1.03286 1.13448,-2.10251 1.82393,-3.07405 5.53488,-7.80647 17.56477,-11.43769 26.51536,-12.79732 z"
       id="path13"
       style="stroke-width:0.876048" />
    <path
       fill="#fefefe"
       d="m 52.045204,412.11934 c 6.90502,-0.0578 13.76185,1.22121 19.8425,4.594 6.7298,3.73196 10.50557,8.77537 12.64926,16.0676 -7.94926,-3.94572 -15.99051,-6.72455 -24.84473,-3.84936 -5.87128,1.90716 -9.64004,5.79156 -12.38382,11.19503 -2.05433,6.27163 -1.9203,10.90855 0.10162,17.15828 -3.69429,-1.20019 -7.13191,-2.70086 -10.15603,-5.19146 -4.84104,-3.98778 -8.21996,-10.01236 -8.77275,-16.28837 -0.49847,-5.66103 1.07404,-11.43506 4.8209,-15.76975 4.87784,-5.64087 11.57961,-7.44466 18.74305,-7.91597 z"
       id="path14"
       style="stroke-width:0.876048" />
    <path
       id="path15"
       d="m 120.13768,427.20353 c -0.78327,0.0343 -1.55931,0.10406 -2.32016,0.20875 -11.8135,1.57338 -24.393216,5.6802 -31.917586,15.48142 -3.90279,5.08458 -6.19254,11.36843 -5.26656,17.81527 0.94876,6.60189 5.21659,12.25679 10.52457,16.09739 5.79592,4.19363 12.660156,5.8924 19.622096,6.96732 -4.97769,-3.94659 -6.94115,-8.07346 -7.6928,-14.35385 -1.1082,-9.26245 1.09804,-19.76879 5.16903,-28.14819 7.8196,-0.66842 15.21723,1.28169 21.26984,6.42322 5.20285,4.41965 8.10267,10.09257 9.77855,16.62438 1.53484,7.14942 0.90365,12.20356 -0.9308,19.22858 2.49499,-4.74205 4.86575,-10.16128 5.61389,-15.51392 0.47044,-3.37016 -0.9328,-10.70442 1.16008,-13.17837 1.1634,0.49497 1.73805,1.79254 2.19183,2.91388 1.69779,4.19013 1.8725,9.04725 1.1156,13.45727 -0.63601,3.70305 -2.68276,7.53966 -4.40419,10.86163 10.38729,-3.72583 17.93699,-9.76347 22.74474,-19.89759 1.02615,-2.18311 1.99099,-4.39341 2.89507,-6.63025 -2.99345,2.20589 -9.14696,7.7497 -13.06202,7.03748 -0.89707,-0.16382 -1.60117,-0.99231 -2.09088,-1.72644 -2.35219,-3.52959 -3.20171,-8.13165 -4.82854,-12.03881 -3.8984,-9.36671 -12.42396,-18.61157 -22.56508,-20.99266 -2.24313,-0.52628 -4.65688,-0.73937 -7.00668,-0.63651 z m -22.414516,15.32401 0.68783,0.12661 c 0.69909,2.58347 -0.68755,8.23504 -0.95475,11.08921 -0.70785,7.54189 -1.14602,15.3378 0.69982,22.74303 -1.88176,-1.37452 -3.59137,-2.86595 -5.31105,-4.4367 -1.29305,-1.5252 -2.47361,-3.08412 -3.44602,-4.83709 -2.3224,-4.18225 -2.97725,-9.06334 -1.58784,-13.66259 1.61456,-5.34214 5.15069,-8.45565 9.91201,-11.02247 z"
       style="opacity:1;fill:#ffffff;stroke-width:0.876048" />
    <path
       fill="#fefefe"
       d="m 229.67891,413.41414 q 7.49635,0.23916 14.98218,0.71573 c 0.57819,7.18622 2.1542,13.79601 5.6838,20.13772 7.48759,13.45611 28.13692,26.15092 27.81016,42.64692 -0.12966,6.58 -3.72934,11.26685 -8.31896,15.59629 1.47965,-4.19715 2.59749,-8.52746 2.13406,-13.01546 -0.44766,-4.32767 -2.37234,-8.31194 -5.8047,-11.04872 -6.48626,-5.17306 -15.45349,-4.02894 -23.11629,-3.2002 3.52172,6.78587 6.5178,13.37025 4.92777,21.21351 -0.88393,4.36097 -3.09332,7.25718 -6.78236,9.66106 2.56945,-5.67154 3.53573,-10.61858 2.89358,-16.81312 -0.79983,-4.59838 -2.76568,-9.04082 -5.11437,-13.04524 -0.82699,0.17083 -1.65398,0.33553 -2.47571,0.53176 -7.30449,1.74422 -18.22181,6.43546 -22.15264,13.32207 -1.11696,1.95622 -1.59791,4.29176 -0.88831,6.47575 1.46651,4.5134 6.1227,6.45298 9.99659,8.44423 -2.47922,-0.14717 -5.02063,-0.3364 -7.4359,-0.93562 -4.71664,-1.16865 -9.27998,-3.4525 -11.83716,-7.76091 -7.25544,-12.22175 6.12708,-30.84742 11.28525,-42.05558 1.74947,-3.80117 2.93213,-7.54365 3.94397,-11.58224 -4.30753,3.84936 -8.15426,8.10608 -12.11575,12.30235 4.52216,-18.08426 15.2082,-18.44432 22.38479,-31.5903 z"
       id="path17"
       style="stroke-width:0.876048" />
    <path
       id="path18"
       style="fill:#ffffff;stroke-width:0.876048"
       d="m 255.03886,-3.8790097 c 2.4582,33.6061587 30.67312,61.4567487 3.13462,93.3316687 -10.04212,11.622501 -23.5121,20.111191 -35.52445,29.505031 -24.64141,19.27039 -40.90738,44.29341 -38.64195,76.71413 1.02761,14.70792 8.71088,37.56614 -1.91293,49.81327 -2.86555,3.30268 -6.77988,4.8532 -11.09091,5.07834 -4.22779,0.22077 -8.22491,-1.38868 -11.32874,-4.22796 -6.0377,-5.52521 -8.53182,-14.24656 -8.83406,-22.18353 -0.67718,-17.796 9.37774,-33.75778 8.04527,-51.46442 -4.73852,15.30101 -13.46966,26.51826 -21.00805,40.3256 -16.13501,29.55517 -14.85287,63.9733 0.71008,93.49079 6.98033,13.2388 17.01603,25.81443 28.23203,35.70411 8.66496,0.18923 17.30774,0.85913 25.96833,1.14297 -9.00049,-14.11486 -13.0949,-30.08522 -9.42779,-46.68894 1.82919,-8.28213 5.56706,-16.44745 11.10632,-22.90215 -6.54584,23.89151 -9.46339,40.17047 3.55552,62.88898 1.44811,2.52737 3.09636,4.94769 4.69165,7.3831 4.78144,0.65178 9.75524,0.81337 14.58312,0.93251 -8.16737,-14.1236 -13.93308,-29.43697 -9.47227,-45.95831 2.48359,-9.19586 8.05958,-17.07696 13.07058,-25.03583 11.44815,-18.18496 16.729,-33.90539 16.71849,-55.49903 -0.003,-5.48144 -0.42866,-10.94467 -0.49962,-16.41907 8.91377,13.71011 13.65601,29.56906 10.13958,45.92924 -5.37631,25.01198 -27.27965,41.32845 -28.45618,68.22569 -0.45029,10.29792 1.90555,20.18429 6.1272,29.52557 15.09867,1.28251 30.61257,3.36566 45.74103,3.65476 14.31983,-16.57478 20.60629,-35.23457 18.98561,-57.20494 -0.28034,-3.64258 -0.7091,-7.26833 -1.2867,-10.87531 7.96676,13.61026 13.89462,26.99154 9.616,43.09063 -3.12484,11.75566 -10.51172,19.46949 -20.33219,26.05559 29.38171,2.55544 57.8996,2.74155 87.21472,-0.78365 14.73509,-1.77137 29.31777,-4.45052 44.09843,-5.97834 4.89358,-0.50548 10.32119,-1.35871 15.23845,-0.98727 1.68114,0.127 4.17151,0.4968 5.30249,1.85818 1.37277,1.6531 1.43576,5.25916 1.427,7.32664 -0.0359,9.00049 -1.72374,18.39575 -2.53233,27.39362 -0.61937,6.89535 -0.52856,14.24445 -1.66654,21.0303 -0.0359,0.21463 -0.077,0.43042 -0.11464,0.64506 -6.84104,-0.0824 -13.71751,-0.97285 -20.53752,-1.55191 -9.31353,-0.75806 -18.63689,-1.37698 -27.96853,-1.85647 -24.45919,-1.25097 -48.97905,-1.21888 -73.44262,-2.43309 -6.47867,-0.29376 -12.94497,-0.75685 -19.39969,-1.38936 -4.94614,-0.47394 -10.02656,-1.25803 -14.99548,-1.16692 8.03684,2.27072 16.01497,4.23015 24.27783,5.48728 12.11395,1.84233 45.17364,3.90548 54.67261,9.12323 1.74947,0.961 2.95978,2.28225 3.92168,4.00894 0.63864,1.14763 1.1348,2.34095 1.59297,3.57093 -1.0898,4.94964 -4.25787,14.26432 -8.67664,17.20785 -1.36488,0.90846 -2.94509,0.34626 -4.42473,-0.0462 -11.4061,-3.02409 -26.0449,-11.15128 -37.34327,-15.76716 -40.8395,-16.68604 -71.8941,-19.5136 -115.55797,-14.61564 -19.28002,2.16297 -38.36743,5.55758 -57.53003,8.5449 -8.09817,1.26239 -21.51093,4.01476 -29.33051,3.62054 -2.721006,-0.13754 -5.073456,-0.62786 -6.486526,-3.15001 -2.89884,-5.17569 -9.82004,-42.89995 -10.60498,-50.70814 -0.25755,-2.55981 -0.50553,-5.46824 0.2943,-7.95972 0.49935,-1.55586 1.47537,-2.79314 2.98918,-3.45628 6.85855,-3.00485 78.690546,6.2428 92.371776,7.33348 13.89699,0.96948 27.8087,1.62105 41.73549,1.9557 13.17922,0.41175 26.36141,0.65962 39.54708,0.7443 13.0189,0.13141 26.30854,0.38199 39.28016,-0.80418 -5.73371,-1.53221 -12.23749,-1.59397 -18.14378,-2.13537 -11.95161,-1.1266 -23.91009,-2.15299 -35.87864,-3.07985 -20.9769,-1.80204 -153.014226,-14.53727 -163.562666,-8.79129 -2.36271,1.28779 -3.88354,3.70483 -4.52569,6.27778 -0.25318,1.01096 -0.38683,2.06415 -0.52699,3.09525 -4.67547,0.0377 -11.61273,-0.68624 -15.30177,2.82321 -2.7648,2.63075 -3.30151,7.9552 -3.22529,11.54262 0.15506,7.22212 0.89988,31.78685 5.87055,36.23452 4.95843,4.43631 15.25058,5.85786 21.55901,7.49432 3.22908,4.80513 5.64809,7.96126 11.67265,9.13692 8.469636,1.65222 20.332996,-1.35211 25.555976,-0.20362 4.86116,1.06966 9.81181,3.25565 14.52495,4.88157 11.66015,4.02282 23.95667,8.38913 36.12844,10.50917 l 0.31483,0.0513 c -11.64178,-6.93915 -24.04179,-12.16375 -36.04973,-18.36793 59.18652,-11.85551 96.3121,-22.34405 155.38737,1.37225 14.13063,5.67327 35.55483,18.6172 49.37183,20.79418 2.96803,-1.23173 4.76654,-2.53451 6.90059,-4.92435 4.99258,17.97381 15.14937,40.11797 32.12976,49.67125 9.23528,5.19585 20.12216,5.35238 30.14325,2.49298 9.44816,-2.6956 19.13164,-8.70888 23.88943,-17.55519 0.1904,-0.34633 0.37295,-0.69832 0.54582,-1.05399 0.17346,-0.35568 0.3363,-0.71411 0.49107,-1.07795 0.15476,-0.36385 0.30136,-0.7322 0.43802,-1.10362 0.13667,-0.37086 0.26359,-0.74515 0.38157,-1.12244 0.11795,-0.37785 0.22639,-0.757 0.32509,-1.13955 0.0993,-0.38312 0.1892,-0.76944 0.26863,-1.15665 0.0795,-0.38779 0.14972,-0.77621 0.21045,-1.16693 0.0602,-0.39071 0.11028,-0.78355 0.15058,-1.17719 0.0409,-0.39305 0.0703,-0.78751 0.0907,-1.18232 0.021,-0.39539 0.033,-0.79035 0.0343,-1.18575 8.8e-4,-0.39537 -0.009,-0.79093 -0.0273,-1.18574 -0.0187,-0.39539 -0.0459,-0.78869 -0.0838,-1.18232 -0.0385,-0.39364 -0.0876,-0.78647 -0.14543,-1.17719 -0.0578,-0.39131 -0.12422,-0.78084 -0.2019,-1.16863 -0.0777,-0.3878 -0.16543,-0.77296 -0.26179,-1.15667 -0.0969,-0.38312 -0.20261,-0.76451 -0.31825,-1.14296 -3.1748,-10.29792 -11.4118,-17.07029 -20.64532,-21.88239 -9.82486,-5.1196 -20.69025,-8.35933 -30.89268,-12.66335 -6.65794,-2.80859 -13.0693,-6.65596 -19.80349,-9.17284 -3.25099,1.17916 -5.65473,2.79047 -8.29336,4.99107 -0.60272,-3.39641 -1.24934,-6.4153 -2.77016,-9.52702 7.23963,0.74873 14.47253,1.56376 21.69759,2.44507 8.84103,1.15287 45.78999,7.97494 52.02393,2.79924 4.36535,-3.62331 4.92992,-9.39274 5.31275,-14.68408 0.57002,-8.9088 1.08326,-17.82135 1.53822,-26.73658 0.32326,-6.16122 1.13175,-12.89072 0.26008,-18.99588 -0.38108,-2.66581 -1.29488,-5.71976 -3.10039,-7.77322 -2.53703,-2.88743 -5.83576,-3.57744 -9.47399,-3.70096 -8.80951,-0.30049 -17.75561,0.73641 -26.5073,1.69393 -22.6046,2.47305 -44.97774,6.78378 -67.61828,8.88367 -7.329,0.67981 -14.7733,1.47393 -22.13733,1.29696 10.63169,-13.36494 16.70302,-23.4324 18.93257,-40.78073 2.99608,10.05525 1.54574,19.43538 -3.44773,28.60845 -1.68112,3.08807 -3.48294,6.11336 -5.19298,9.18654 4.5195,-0.69296 9.13437,-0.80119 13.6968,-1.0386 3.15641,-2.35395 5.88779,-5.49888 8.62019,-8.32589 16.07981,-16.63873 28.18664,-37.72051 31.51036,-60.83061 4.03944,-28.08425 -5.83682,-56.09051 -20.89341,-79.51337 5.08018,19.00319 8.43691,39.65128 -1.95913,57.65665 -3.17743,5.50331 -7.97743,11.67391 -14.41373,13.40936 -1.87387,0.50461 -4.00926,0.8405 -5.74907,-0.23441 -1.11959,-0.69208 -1.86084,-1.75903 -2.03955,-3.0696 -0.3697,-2.6991 0.74033,-6.37838 1.16521,-9.09413 0.16061,-1.03957 0.29192,-2.08289 0.39354,-3.12947 0.10103,-1.04659 0.17241,-2.09534 0.21388,-3.14659 0.0414,-1.05068 0.0523,-2.10159 0.0343,-3.15344 -0.0187,-1.05126 -0.0666,-2.10109 -0.14544,-3.15 -0.0782,-1.04893 -0.18668,-2.09557 -0.32509,-3.13804 -0.13842,-1.04249 -0.30736,-2.08093 -0.50476,-3.11408 -0.1974,-1.03257 -0.42288,-2.05784 -0.67928,-3.07814 -0.2558,-1.01972 -0.54131,-2.03143 -0.85551,-3.03538 -5.89843,-19.39916 -23.28712,-34.29513 -22.44874,-55.61196 0.86116,-21.87047 20.06694,-29.39978 19.30215,-50.50111 -0.23215,-6.41265 -2.28699,-12.74579 -5.27169,-18.39017 -0.48183,-0.90409 -0.97377,-1.80247 -1.47662,-2.69488 3.38154,11.71975 5.77848,23.61931 -0.36787,34.96323 -8.30842,15.33518 -22.62403,17.15149 -27.52024,38.35791 -0.42693,1.91271 -0.74017,3.84408 -0.94107,5.79356 -0.2009,1.9495 -0.28811,3.90257 -0.26007,5.862 0.12965,7.15553 3.63129,22.93282 -5.4428,25.74932 -2.41526,0.74902 -4.77649,0.35989 -6.96048,-0.86921 -6.95843,-3.91766 -11.5074,-13.76048 -13.48465,-21.11926 -4.1612,-15.48936 -0.34144,-32.15647 7.62094,-45.76498 3.87301,-6.6194 8.57207,-12.72812 12.45118,-19.34664 10.97949,-18.73074 14.92564,-39.593151 9.43635,-60.808371 -5.27644,-20.39347 -16.80996,-33.77226 -27.32689,-51.26251 -2.69473,-4.4809897 -6.69016,-13.24646675 -9.35422,-16.8280047 z M 69.458624,360.25769 c 2.69352,0.0212 5.32894,0.38376 8.0333,0.84697 2.5668,9.60759 3.25856,20.07104 5.01504,29.90028 0.39597,2.21816 2.85125,9.79324 2.09259,11.53921 l -0.98556,0.0684 c -4.49062,-0.84013 -11.22986,-1.06976 -14.79187,-4.0483 -2.81822,-4.80338 -3.66863,-25.72635 -3.69754,-32.21874 -0.0105,-2.39246 -0.13255,-4.21733 1.61692,-5.98519 0.91547,-0.0778 1.8193,-0.10973 2.71712,-0.10266 z M 410.08232,435.2933 c 3.63035,0.11914 6.74179,0.61228 10.08654,2.11996 0.35801,0.16587 0.711,0.33907 1.06084,0.52187 0.34925,0.18339 0.69469,0.37629 1.03517,0.57662 0.33991,0.20032 0.67499,0.40897 1.00438,0.62623 0.32997,0.21726 0.65357,0.44112 0.97186,0.67415 0.31831,0.23303 0.63104,0.47497 0.93766,0.72376 0.30661,0.2488 0.60681,0.50486 0.9,0.76826 0.29376,0.26398 0.58031,0.53474 0.86064,0.81274 0.28034,0.278 0.55327,0.56237 0.81959,0.85381 0.26573,0.29143 0.52396,0.58888 0.77509,0.89315 0.25114,0.30428 0.49467,0.61597 0.73062,0.93251 0.23594,0.31656 0.46481,0.63851 0.68441,0.96674 0.21959,0.32764 0.43155,0.66051 0.63479,0.99924 0.20325,0.33815 0.39716,0.68196 0.58346,1.03005 0.18572,0.34808 0.36335,0.70057 0.53214,1.05741 0.16878,0.35685 0.3284,0.71807 0.47908,1.08309 0.1501,0.36444 0.29176,0.73159 0.42434,1.10361 1.76786,4.85418 1.69486,9.68932 -0.53555,14.37267 -4.41704,9.27647 -13.45733,13.61953 -22.69,16.80747 -1.6093,0.46781 -3.31294,0.86861 -4.97568,1.07623 -4.33381,0.54228 -8.73583,0.0735 -12.26981,-2.69829 -4.03946,-3.16866 -5.74923,-8.37367 -6.28976,-13.3067 -0.0596,-0.50285 -0.10643,-1.00624 -0.1403,-1.51084 -0.0339,-0.50518 -0.0562,-1.01192 -0.065,-1.51768 -0.009,-0.50636 -0.004,-1.01192 0.0137,-1.51769 0.0169,-0.50577 0.0452,-1.01024 0.0873,-1.51427 0.0421,-0.5046 0.0971,-1.00744 0.16426,-1.50912 0.0677,-0.5011 0.14727,-1.00127 0.23955,-1.49887 0.0923,-0.49759 0.19743,-0.99283 0.31482,-1.48517 0.11739,-0.49234 0.24649,-0.98044 0.38841,-1.46636 0.14134,-0.48591 0.29553,-0.96808 0.46198,-1.44582 0.16586,-0.47832 0.34404,-0.95289 0.53384,-1.42187 0.18981,-0.46897 0.39082,-0.93202 0.604,-1.39107 0.21317,-0.45905 0.43878,-0.91231 0.67415,-1.36026 0.23594,-0.44796 0.48272,-0.88924 0.74087,-1.32434 0.25815,-0.43569 0.52672,-0.86503 0.80589,-1.2867 0.27975,-0.42167 0.56902,-0.83627 0.86921,-1.24392 0.3002,-0.40707 0.61017,-0.80584 0.9308,-1.19772 4.68598,-5.66102 10.35698,-8.58715 17.61678,-9.30288 z m -38.61286,0.61939 c 0.17957,0.005 0.35733,0.0191 0.53385,0.0427 1.58828,0.21288 2.97937,1.35854 3.87206,2.6367 3.4341,4.91638 2.53164,12.98923 2.78043,18.72382 0.12528,2.89885 0.65868,6.25455 0.15057,9.10782 l -0.58517,-0.23954 c -3.93607,-6.67724 -9.17119,-15.09248 -10.19091,-22.85425 -0.37933,-2.88045 0.0202,-5.02331 1.82225,-7.3352 0.52957,-0.0466 1.07824,-0.0989 1.61692,-0.0821 z" />
  </g>
  <rect
     style="opacity:1;fill:#ffffff;stroke-width:4.01283;stroke-linecap:round;stroke-linejoin:round;stroke-miterlimit:20"
     id="rect21"
     width="1"
     height="1"
     x="0"
     y="7.9000001e-06"
     rx="0.47771797"
     ry="0" />
  <rect
     style="opacity:1;fill:#ffffff;stroke-width:4.01283;stroke-linecap:round;stroke-linejoin:round;stroke-miterlimit:20"
     id="rect22"
     width="1"
     height="1"
     x="499"
     y="499"
     rx="0.47771797"
     ry="0.017621145" />
</svg>
