<?xml version="1.0" encoding="UTF-8" standalone="no"?>
<svg
   viewBox="0 0 500 500"
   width="500"
   height="500"
   version="1.1"
   id="svg198"
   sodipodi:docname="b02ed7cf-e714-4e2e-ae22-32e6c451371f.svg"
   inkscape:export-filename="..\..\..\xampp\htdocs\rpg\icons\enchant.svg"
   inkscape:export-xdpi="96"
   inkscape:export-ydpi="96"
   xmlns:inkscape="http://www.inkscape.org/namespaces/inkscape"
   xmlns:sodipodi="http://sodipodi.sourceforge.net/DTD/sodipodi-0.dtd"
   xmlns="http://www.w3.org/2000/svg"
   xmlns:svg="http://www.w3.org/2000/svg">
  <defs
     id="defs198" />
  <sodipodi:namedview
     id="namedview198"
     pagecolor="#505050"
     bordercolor="#eeeeee"
     borderopacity="1"
     inkscape:showpageshadow="0"
     inkscape:pageopacity="0"
     inkscape:pagecheckerboard="0"
     inkscape:deskcolor="#505050" />
  <g
     id="g459"
     transform="translate(-1.6328887,-29.449217)">
    <path
       id="rect366"
       style="fill:#ffffff;stroke-width:4.2;stroke-linecap:round;stroke-linejoin:round;stroke-miterlimit:20"
       d="M 500,59.396484 V 221.83008 h 0.002 V 59.396484 Z M 256.52734,69.876953 c 0.22205,6.063968 -4.92075,9.690817 -8.32617,15.474609 -1.01522,1.724183 -1.32018,3.588875 -1.26367,5.53125 -0.005,-0.880478 0.0522,-1.747787 0.24023,-2.58789 0.20061,-0.896518 0.52794,-1.767241 1.02149,-2.605469 0.9871,-1.676446 2.12292,-3.169432 3.23242,-4.59375 1.10948,-1.424306 2.19298,-2.780538 3.07617,-4.177734 0.44161,-0.69862 0.8327,-1.406597 1.15235,-2.140625 0.31963,-0.73403 0.56855,-1.493448 0.72265,-2.291016 0.15417,-0.797578 0.21516,-1.634179 0.16016,-2.523437 -0.002,-0.02688 -0.0138,-0.05896 -0.0156,-0.08594 z m -7.28515,35.759767 c -0.0256,0.93554 -0.12888,1.86108 -0.36914,2.76758 -1.998,7.57679 -5.0765,11.26119 -11.04688,16.92773 -3.03776,2.88323 -4.16038,6.86506 -4.30664,11.07813 0.0473,-0.99213 0.14536,-1.97168 0.31836,-2.92383 0.17993,-0.99029 0.43333,-1.95309 0.77539,-2.875 0.34206,-0.92191 0.77188,-1.80293 1.30274,-2.63086 0.53085,-0.82794 1.16382,-1.60219 1.91015,-2.31055 1.49264,-1.41671 2.80358,-2.70997 3.96289,-3.9707 1.15933,-1.26073 2.16613,-2.48913 3.04883,-3.77734 0.8827,-1.28832 1.64193,-2.63734 2.30469,-4.13672 0.66278,-1.49951 1.22896,-3.15065 1.72851,-5.04493 0.25077,-0.94602 0.36627,-1.91121 0.38477,-2.88867 10e-4,-0.0709 -0.014,-0.14385 -0.0137,-0.21484 z m 4.8789,1.70312 c -2e-4,0.0593 -0.0202,0.11843 -0.0195,0.17774 0.0103,0.94714 0.12904,1.89661 0.32617,2.84375 0.19714,0.94714 0.47404,1.89179 0.80469,2.83594 0.33065,0.94402 0.71413,1.88619 1.125,2.82421 0.82175,1.87629 1.75134,3.73794 2.57422,5.57227 0.82288,1.83433 1.53986,3.64177 1.9375,5.41016 0.19782,0.88519 0.46189,1.71188 0.78125,2.49218 0.31937,0.78031 0.69317,1.51483 1.10742,2.21875 0.8285,1.40785 1.8211,2.69151 2.86914,3.96485 1.04805,1.27334 2.15286,2.53546 3.20703,3.90234 1.05429,1.36688 2.05707,2.83889 2.9043,4.52735 0.42262,0.84511 0.67391,1.74189 0.79688,2.67773 0.10962,0.83408 0.0893,1.70714 0.0293,2.59375 0.17375,-2.00862 0.0237,-3.91358 -0.82422,-5.60938 -3.3888,-6.75355 -9.28853,-10.02421 -10.87109,-17.10546 -1.38067,-6.14016 -6.59465,-12.74874 -6.74805,-19.32618 z m -18.71093,44.21485 c 0.0679,6.55095 -4.28541,13.00408 -7.18946,18.52148 -1.70109,3.23208 -2.711,7.29071 -2.70312,11.32617 0.0113,-0.93686 0.0669,-1.87459 0.18359,-2.80078 0.12406,-0.98432 0.30609,-1.95483 0.53906,-2.90234 0.46595,-1.89503 1.13929,-3.69256 1.97852,-5.28711 0.83924,-1.59455 1.79992,-3.26591 2.74219,-4.99609 0.94227,-1.73029 1.86519,-3.51987 2.625,-5.34571 0.3799,-0.91292 0.71924,-1.83441 1,-2.76367 0.28076,-0.92926 0.50252,-1.86606 0.64844,-2.80664 0.14579,-0.94058 0.216,-1.88516 0.1914,-2.83203 -9.8e-4,-0.0377 -0.0144,-0.0755 -0.0156,-0.11328 z m 35.14843,10.39453 c -10e-4,0.0633 -0.017,0.13025 -0.0176,0.19336 -0.009,1.00483 0.0827,1.98395 0.32031,2.92578 0.23761,0.94183 0.62179,1.84599 1.19726,2.69922 0.57448,0.85422 1.07889,1.72379 1.51563,2.60742 0.43674,0.88363 0.80463,1.78153 1.10742,2.68945 0.30279,0.90793 0.54028,1.82682 0.71289,2.75391 0.17008,0.91348 0.27492,1.83459 0.32227,2.76172 -0.13599,-3.8679 -1.29836,-7.64435 -3.65625,-11.15039 -1.12249,-1.66431 -1.50021,-3.52535 -1.50196,-5.48047 z m -48.28125,15.45508 c -0.002,0.0192 -0.0114,0.0374 -0.0137,0.0566 -0.1364,1.178 -0.0644,2.39031 0.16016,3.62695 0.006,-0.002 0.0118,-0.004 0.0176,-0.006 -0.26556,-1.26006 -0.27761,-2.47912 -0.16407,-3.67773 z m 0.16407,7.67382 c -10.3263,0.27974 -5.92169,9.75858 2.39843,7.99219 -0.43161,-2.80514 -1.60715,-5.33061 -2.39843,-7.99219 z m 55.94921,0 c 0.31172,3.15712 -1.05609,5.88167 -1.5996,8.79102 2.6215,-1.58256 8.85695,-1.15114 9.74414,-4.5957 0.89519,-3.44487 -5.8826,-3.8916 -8.14454,-4.19532 z m 22.28126,3.90235 c -1.0463,-0.0302 -2.08865,-0.008 -3.09961,0.0937 h -3.9961 c 2.15803,3.98007 2.19078,8.83914 -1.59765,11.98828 8.51195,2.82143 3.92369,13.00549 -2.39844,15.1875 9.18354,1.88629 8.56756,12.34852 0.0156,14.40234 -8.54392,2.06213 -15.40217,3.46858 -24.25781,4.51563 -8.85563,1.04704 -18.8633,-0.0956 -27.71094,-0.53516 -8.84765,-0.4396 -16.20893,-1.71898 -24.71289,-4.06054 -8.51194,-2.33388 -8.83971,-11.24689 -0.86328,-15.12305 -6.466,-1.72643 -9.17596,-11.08573 -2.39844,-14.38672 -2.42967,-3.70863 -3.46073,-8.35958 0,-11.98828 -14.28258,0.60745 -29.42099,0.76831 -43.42382,2.13476 -14.00277,1.36676 -29.01349,1.06155 -42.72071,2.83594 -13.70711,1.77439 -27.000892,3.05416 -40.404294,5.15625 -13.403384,2.10209 -26.008517,3.05349 -38.900391,6.65821 -12.883874,3.60442 -22.220042,2.74843 -34.3046875,10.45312 -12.0926248,7.69668 5.1233265,15.55583 15.8652345,18.37695 10.733898,2.82943 24.658096,6.44206 36.80664,8.75196 12.140586,2.31758 26.367695,3.75605 39.179688,1.58203 12.81185,-2.17402 26.95344,-3.37267 39.16602,-3.9961 -13.1875,5.78673 -28.66211,4.34027 -42.361332,7.19336 104.357972,14.75427 215.686772,13.29853 319.708982,-1.59961 -1.5107,-2.17371 -5.62676,0.52842 -7.19336,-1.59765 13.89109,-1.22289 25.93602,-3.62136 39.96289,-6.39453 14.02689,-2.77348 23.21964,-1.69385 36.70313,-9.6543 13.48308,-7.95246 -1.09507,-15.97869 -13.34766,-18.49609 -12.24459,-2.51771 -24.59496,-6.96234 -37.72656,-8.63282 -13.12369,-1.67847 -27.0646,-4.16305 -40.76367,-5.59375 -13.691,-1.4307 -28.19871,-2.94105 -42.36133,-3.99609 -14.15482,-1.06304 -29.34042,-2.38281 -43.97461,-2.38281 -2.56567,-0.24578 -5.75185,-0.80191 -8.89062,-0.89258 z m -88.6211,4.08984 c 2.60563,9.03147 14.56176,9.03985 23.17774,10.39063 8.61585,1.35077 23.20499,1.43844 31.79687,-0.17578 8.58388,-1.61454 20.59622,-1.28728 23.35352,-10.21485 -23.88946,9.9906 -54.25484,9.63892 -78.32813,0 z m -59.6543,3.01758 c 3.45045,0.0356 7.0575,0.88341 10.09961,1.77734 -4.1481,3.69265 -11.27872,0.68757 -15.98632,-0.79882 1.80124,-0.72834 3.81656,-0.99988 5.88671,-0.97852 z m 20.21485,1.67188 c 2.63533,-0.0191 5.57341,1.43281 8.26758,0.90429 -3.11703,1.8703 -7.70463,0.44759 -11.18946,0 0.90593,-0.66539 1.89061,-0.89682 2.92188,-0.90429 z m 154.71484,0.043 c 11.44755,-0.12138 23.05786,3.59103 34.18945,4.0586 -6.58585,1.25486 -12.98083,3.42905 -19.98242,3.19726 -4.31596,0 -9.02453,0.43117 -12.78906,0.79883 -2.79746,0 -6.64897,0.64786 -8.79102,-0.79883 1.82234,-1.30265 16.57739,-0.74305 13.49219,-3.91601 -3.08507,-3.17311 -13.30013,-0.83051 -17.48828,-1.67774 3.75655,-1.15495 7.55336,-1.62164 11.36914,-1.66211 z m -114.47656,5.65821 c 21.25985,11.66907 54.32766,10.7175 76.73047,0.79883 -23.68964,4.85927 -52.33759,5.82683 -76.73047,-0.79883 z m -2.39844,2.39844 c 1.07103,8.72776 14.42796,9.66283 23.17969,11.18945 8.75173,1.52661 25.57763,1.33485 34.36133,-0.008 8.79188,-1.33478 22.27449,-2.07023 23.18554,-11.18164 -10.36626,8.7917 -27.07059,8.48728 -40.76171,8.79101 -13.69104,0.30372 -29.53464,-0.81457 -39.96485,-8.79101 z m 221.71485,0.60546 c 0.42488,-0.007 0.85309,0.0465 1.2832,0.19336 -0.78328,2.42179 -3.70751,1.35788 -5.59375,1.59766 0,0 -0.19182,-0.63898 0,-0.79883 1.32375,-0.15611 2.79315,-0.96551 4.31055,-0.99219 z m -336.562504,1.64258 c 2.247904,0.017 4.414014,0.21593 6.148434,0.94727 -9.119465,-0.17584 -20.167394,4.37353 -28.775388,0.80078 1.966178,-1.83034 5.244707,-1.65551 7.994141,-1.59961 2.661514,-0.0559 5.330652,0 7.992188,0 2.062066,0 4.392729,-0.16542 6.640625,-0.14844 z m 317.919924,0.91602 c 2.14347,0.0274 4.26602,0.28478 6.33789,0.83203 -9.12758,2.58165 -20.04555,4.41127 -28.77344,4.79492 6.85609,-2.90361 14.78048,-5.72476 22.43555,-5.62695 z m 40.70703,8.82422 c -6.51395,5.68264 -17.0157,6.8177 -26.375,7.19336 -9.35936,0.37565 -20.08695,4.85904 -29.31836,0.54296 -9.23141,-4.32387 -20.14157,0.16021 -29.0293,-0.54296 13.05194,-9.38328 26.72881,-0.78435 40.76367,-1.59961 14.03504,-0.81526 30.25165,-2.69258 43.95899,-5.59375 z m -234.61914,2.125 c -2.13458,0.12129 -4.11057,1.01294 -5.96289,3.4707 6.52194,3.90845 12.20561,4.57867 19.98242,5.59375 7.77662,1.01508 16.32934,0.90469 24.77734,0.80078 8.44801,-0.1039 13.43553,-2.05413 22.3711,-3.20508 8.94355,-1.14296 6.8102,-8.6571 -1.58985,-5.58789 -8.40005,3.0772 -14.93949,1.42333 -23.17968,2.39844 -8.24032,0.97511 -16.881,-0.69652 -24.24219,-1.33594 -4.60062,-0.39963 -8.59894,-2.33692 -12.15625,-2.13476 z m -158.890627,0.29882 c 13.138184,-0.12713 26.057162,1.50084 39.431637,1.57227 19.45384,0.10391 40.21206,-3.15757 59.14649,0.79883 -15.76143,0.71135 -32.12378,1.66289 -47.95703,3.19726 -2.78935,-0.27175 -5.91364,-0.40763 -8.79102,0 -19.533787,0.74332 -39.995921,-4.90726 -59.945311,-3.99609 6.126778,-1.094 12.143336,-1.51448 18.115234,-1.57227 z m 293.089847,6.33985 c 0.43248,-0.007 0.86894,4.1e-4 1.31054,0.0273 -4.64363,5.17929 -13.97191,4.65994 -19.98242,3.19727 6.65393,0.59196 12.18481,-3.11452 18.67188,-3.22461 z m -286.408206,3.8789 c 2.169476,0.0231 4.308924,0.3059 6.375,0.94532 -7.728826,3.29278 -17.785381,3.86066 -25.578125,3.19726 5.910498,-1.94822 12.694677,-4.21189 19.203125,-4.14258 z m 98.308596,0.10547 c 4.26875,-0.002 8.53538,0.031 12.76953,0.041 -15.96124,4.21992 -33.2894,2.75615 -50.35352,2.39648 11.95888,-2.12184 24.77775,-2.43188 37.58399,-2.4375 z m 330.88086,1.63868 c -7.11331,4.77935 -14.0123,14.49195 -23.17969,11.99023 4.44369,-0.47157 8.68935,-2.79056 11.99023,-5.5957 -15.01768,0.04 -26.91277,13.39606 -40.76367,13.58789 4.68351,-1.7584 9.75151,-2.79011 13.58789,-6.39453 -18.93418,0.99079 -40.07593,8.24945 -59.94531,8.79296 -19.86928,0.5435 -35.34455,8.71992 -51.95313,18.38282 20.49274,-3.05323 45.88689,-3.12581 67.13868,-6.39453 21.25208,-3.26902 40.26131,-8.2008 60.74609,-13.5879 -7.20138,5.43506 -15.72987,6.55495 -24.60156,8.96876 -8.86378,2.41349 -17.50512,4.73174 -26.81641,6.7539 -9.31119,2.02216 -20.14204,2.80428 -30.05273,3.51563 -9.90269,0.71136 -20.51707,2.02389 -30.42774,3.14257 -9.91068,1.11898 -19.44792,3.71618 -29.5664,4.00391 -10.11849,0.28774 -21.10117,2.42867 -31.17969,2.38867 -10.07853,-0.04 -22.33071,1.95866 -30.37109,-0.79883 31.99385,-3.76427 66.4511,-1.42317 93.51367,-20.78125 -14.54626,-3.58843 -30.61217,0.93471 -46.35742,0.79883 -15.74518,-0.13587 -32.03583,2.61424 -47.95704,2.39844 -15.9209,-0.21575 -33.61691,0.65667 -49.49804,-0.0547 -15.87306,-0.71135 -32.05086,-2.44765 -48.01172,-2.34375 -15.96117,0.10391 -32.65937,-1.43794 -47.95703,-0.79883 -15.29758,0.63942 -26.712826,-6.92081 -41.027346,-8.52734 C 69.587802,250.0751 55.328672,248.81899 41.861328,244.9668 28.401976,241.10631 16.2849,239.70078 4.2402344,233.03516 c -1.9581572,1.65418 -0.4395852,5.43496 0,7.19336 4.004242,16.16068 25.8878546,19.14108 40.7539066,23.98437 14.874,4.8356 36.184921,7.70556 53.560547,10.38281 17.375592,2.67757 39.300002,3.38966 57.810542,6.13086 18.51066,2.7415 39.42114,3.41404 58.88282,5.06055 19.46168,1.6465 43.06557,0.79883 63.14257,0.79883 2.73351,0 5.79419,-0.58303 7.99219,-0.79883 19.69347,-1.71844 42.73857,-1.54423 61.8086,-4.5332 19.07004,-2.98928 39.74743,-4.6674 58.07421,-7.46485 18.3348,-2.79715 38.45393,-5.93036 54.98243,-11.35742 16.52847,-5.43475 36.79045,-10.01654 35.34375,-30.19726 z M 24.222656,252.2168 c 33.041294,10.86991 65.842987,15.76163 101.505864,17.58398 35.66285,1.82234 72.07165,9.22344 107.90234,11.18945 -7.06545,3.13315 -17.31144,0.048 -26.375,0 -9.06355,-0.048 -19.6319,-1.10406 -28.77539,-1.59961 -9.14356,-0.49535 -17.57506,-2.54148 -26.55078,-3.82031 -8.97563,-1.27085 -19.46217,-1.46191 -28.59766,-1.77343 -9.13549,-0.31172 -18.47189,-1.16756 -27.17578,-2.39844 -8.711902,-1.22289 -17.847014,-2.30955 -26.111328,-4.25977 -8.264324,-1.95023 -16.538044,-3.53253 -24.298828,-6.07422 -7.768784,-2.53349 -15.888668,-3.93232 -21.523438,-8.84765 z m 466.650394,2.41211 c -0.55786,-0.10416 -1.09696,0.10178 -1.47461,0.78515 -2.90121,3.74859 -2.61348,7.24235 -4.85938,11.92578 -2.246,4.68374 -7.09773,-0.49562 -9.52734,1.66211 -0.7113,-6.05018 2.18179,-3.34885 3.99609,-7.19336 1.8703,1.11899 -0.11284,4.12339 1.59766,5.59375 3.60451,-1.7501 4.52555,-5.87322 3.99805,-9.58984 -12.7399,2.12607 -15.67525,19.4454 -29.57422,19.18164 -0.6154,-3.70063 0.60672,-8.48125 4.79492,-8.79297 0,0 0.52908,0.18383 0.80078,0 0.1279,1.83033 -1.71151,2.99851 -1.59961,4.79688 4.43571,-1.85432 10.69395,-5.07547 11.18945,-10.39063 -1.99008,0.8792 -4.41049,0.85434 -6.39257,1.59766 -1.3907,0.51953 -2.77544,1.91888 -3.99805,2.39844 -9.98269,0.17584 -4.75478,7.96935 -13.04297,12.5332 -8.28809,4.55555 -3.71755,-11.93248 -1.34375,-3.74024 3.55661,0.41562 5.204,-3.62105 5.5957,-6.39453 -7.42499,-0.16785 -11.10115,4.27484 -14.58593,10.18946 -3.48461,5.91431 -11.65475,3.95747 -16.58594,4.19726 -2.0222,-3.54047 1.24622,-7.89778 4.79492,-8.79297 -9.51099,-4.052 -7.64129,14.38806 -17.58398,11.99024 0.2639,-2.89337 -1.90912,-4.08497 0.20898,-6.98633 2.10981,-2.90136 3.07729,1.98963 4.58789,2.18945 1.3428,-2.56536 3.67592,-4.47583 4.79492,-7.19336 -9.12739,0.23979 -12.06846,5.81941 -15.18554,12.78907 -2.4537,-2.48574 1.19842,-5.87594 0.79882,-8.79297 -5.47469,0.57547 -2.77382,8.20984 -7.4414,10.94336 -4.65961,2.7332 -10.08658,-0.84731 -10.14258,-6.14649 -2.3339,2.5257 -4.05981,5.77135 -7.81641,6.57031 -3.75648,0.79927 -5.97913,-3.05285 -9.76757,-0.17578 1.86219,-7.2491 9.70332,-1.07937 10.39062,-6.39453 3.41271,1.63051 3.39659,2.46114 3.99609,-2.39844 -14.45823,-4.13993 -19.57429,12.34933 -31.9707,13.58789 1.46267,-7.0253 9.18401,-7.75258 13.58789,-11.18945 -9.08743,-4.64347 -12.60544,9.33558 -19.98242,10.39063 0.94315,-3.60473 4.00515,-6.21088 5.5957,-9.5918 -9.64691,-0.97511 -20.31041,2.78247 -23.17968,12.78906 -5.01125,-4.40369 1.69544,-8.6562 5.5957,-10.39062 -2.62143,-1.87829 -6.17909,2.10134 -9.5918,0.79883 0.55949,5.89833 -3.40412,10.87827 -9.5664,11.16601 -6.17019,0.29573 -9.37625,-9.03134 -0.82422,-8.76758 1.01508,3.29301 -5.52359,2.93972 -2.39844,6.39258 4.45964,0.1199 12.41274,-6.66525 6.39453,-8.79101 -6.01841,-2.12606 -11.07777,2.14134 -13.78711,6.19335 -2.70154,4.05231 -9.93474,8.02517 -11.78906,1.79883 -2.34967,-0.73533 -3.27793,2.31895 -5.5957,1.59961 1.26273,-4.1719 14.2669,-7.65779 10.39062,-1.59961 2.78927,-1.51862 4.38081,-4.44386 5.5957,-7.19336 -7.49687,-0.82325 -15.82515,0.98406 -20.98047,6.19532 -5.155,5.21095 -13.09297,7.62443 -19.71875,5.73047 -6.61767,-1.90227 0.49655,-6.78629 0.73633,-8.72852 0.27175,-2.19001 -4.21421,-2.25306 -7.19531,-1.59766 h -2.39648 c 12.00465,10.15046 -6.7776,14.87302 -13.78711,8.19141 -7.00144,-6.68161 -15.03468,-11.74892 -25.37696,-9.79102 0.33569,2.59764 4.84281,3.26169 4.79493,6.39453 2.33376,-2.34156 7.52923,-3.11774 10.39062,1.59766 -3.94041,-1.5346 -7.46512,4.2458 -11.78906,1.40039 -4.33187,-2.84541 -3.54971,-7.1151 -8.19336,-8.59375 1.5346,3.14913 1.09482,8.31341 -3.19727,8.79297 0.67139,-1.03905 0.78478,-1.9584 0.80078,-3.19727 0.024,-1.68616 0.77378,-2.89265 -0.80078,-4.79492 -2.03815,-2.72522 -10.51025,-4.19581 -11.18164,-0.008 -0.67139,4.18819 6.27544,5.7139 8.78516,4.80273 1.04686,6.66594 -7.50596,4.14 -10.45508,0.86329 -2.94932,-3.27702 -2.17468,-11.26128 -8.72852,-8.85547 2.45376,2.50941 7.09753,6.75424 3.19727,10.39062 -2.54169,-6.8095 -8.03343,-13.62874 -16.78516,-11.99023 -0.024,2.5337 3.12508,3.4057 3.9961,5.5957 6.06636,-6.40186 8.96919,7.34444 1.40039,4.19531 -7.569,-3.14883 -3.846,-11.82072 -12.58985,-10.58984 1.17493,3.46085 3.60571,6.44266 5.59571,9.5918 -7.3771,1.17493 -9.35286,-15.71392 -19.1836,-9.5918 5.41907,1.07902 10.62392,5.41901 11.19141,11.18945 -8.27217,-0.80726 -11.18299,-12.71668 -19.18359,-13.58789 0.60744,5.09137 5.40372,8.20106 9.59179,9.5918 -4.96336,2.31789 -7.88049,-1.92524 -10.58984,-6.19336 -2.70953,-4.27608 -9.70389,-3.64577 -14.1875,-4.19727 0.19982,2.0861 1.62118,3.70143 2.39648,5.59571 1.73442,-4.97947 12.17386,0.47048 6.45118,3.25195 -5.7226,2.78946 -10.22303,-1.31789 -11.2461,-6.44922 -1.5346,5.19527 -7.89706,10.29422 -12.54883,6.1543 -4.64346,-4.14823 -2.53301,-13.26906 -9.830074,-10.95117 4.292084,0.44759 4.347774,5.42004 3.996094,8.79297 -4.675671,-0.016 -2.85269,-6.67446 -4.794922,-9.5918 -2.877296,0.15985 -5.052897,-2.09321 -7.994141,-1.59766 0.711338,3.11716 3.709057,7.18489 6.394531,3.9961 4.379992,6.74556 -5.044176,7.40981 -5.771484,2.57421 -0.72734,-4.83529 -4.364064,-10.44691 -7.017578,-5.77148 3.332872,0.86322 3.652992,7.9611 -0.798828,6.39453 1.390696,-10.88579 -11.365407,-10.11993 -18.382813,-11.99023 0.695338,3.16481 2.733276,5.81169 3.996094,8.79297 2.245876,-0.22379 4.388415,0.15971 6.394531,0.79882 2.253886,-3.89215 -2.573006,-2.64621 -4.794922,-2.39843 0.13588,-9.19932 14.122706,0.22452 8.847656,4.05273 -5.267018,3.83651 -13.716144,1.27937 -15.30664,-4.78711 -1.582528,-6.07417 -8.279948,-9.50288 -14.322266,-8.85547 -2.261886,7.28937 12.211518,11.99696 5.59375,3.19727 7.129296,-0.77529 4.843624,10.15801 -0.615234,8.60742 -5.45887,-1.55059 -7.057275,-6.96909 -7.376953,-11.80469 -5.48286,-2.06181 -10.638929,-5.5717 -16.785157,-5.5957 -0.024,4.404 12.077883,13.14745 8.792969,3.99609 7.848614,0.20781 5.362734,12.07822 0.183594,8.60938 -5.18712,-3.46885 -8.44952,-4.51765 -11.558594,-8.42578 -3.109074,-3.90845 -5.753939,-10.50122 -12.603515,-8.97461 -0.53549,3.68434 0.303161,8.67112 4.794921,8.79101 -1.862256,-2.71722 -0.902876,-7.12005 3.197266,-5.59375 6.593786,8.64814 -8.895656,11.02058 -8.847656,3.25196 0.04,-7.76894 -9.1987838,-14.56997 -7.136719,-5.65039 2.022096,-8.18456 7.439462,6.93742 -0.8007812,3.99609 14.2026412,12.44437 32.1794542,14.85058 51.0976562,19.23828 18.910212,4.396 38.934126,8.15393 59.203125,10.33594 20.26894,2.18202 43.03305,4.91392 63.94141,6.39258 20.90836,1.47865 44.37688,3.57443 65.54101,3.99804 5.01125,0.60745 10.94116,0.48756 15.98438,0 14.26659,-0.19982 29.12738,-1.70306 43.16211,-2.39843 14.03481,-0.69537 28.70865,-2.00629 42.34375,-3.21289 13.62717,-1.2069 26.68918,-4.58898 39.98046,-5.58008 13.29159,-0.9911 26.73587,-3.99477 39.16407,-6.39258 12.42839,-2.39782 25.4968,-4.65268 36.75,-8.80859 11.24549,-4.15622 24.18686,-4.77169 29.58984,-15.16993 -4.91538,3.78057 -4.01246,-2.86218 -3.19726,-5.5957 2.51758,-0.52752 0.85583,2.63777 2.39843,3.19727 1.79835,-1.36676 -0.0491,-4.46879 -1.72265,-4.78125 z m 2.52148,12.77343 c -49.27365,23.25822 -100.25412,25.92971 -155.05859,32.77149 -54.80442,6.84147 -121.87415,5.32933 -176.63867,-0.80078 -54.76445,-6.13043 -106.242069,-8.92678 -155.8593794,-31.16993 11.6370364,14.65036 30.4213034,15.84956 48.7480474,20.78907 18.326762,4.9392 38.582301,7.41541 58.347652,10.38867 19.76541,2.97329 41.55315,5.66693 62.34961,7.18555 20.79646,1.51831 44.92014,2.39843 66.33985,2.39843 6.48199,0.62344 14.24339,0.63143 20.78125,0 14.4744,-0.048 30.67706,0.18446 44.75195,-0.80664 14.07469,-0.9911 27.93515,-2.68546 41.57031,-3.98828 13.63529,-1.30281 27.7585,-2.63848 40.7461,-4.8125 12.97977,-2.18201 26.74527,-3.69963 39.00586,-6.55273 12.26037,-2.8534 25.46423,-5.10033 36.76562,-8.79297 11.30139,-3.70063 24.92139,-4.96429 28.15039,-16.60938 z m -56.74805,3.9961 c -3.64448,0.18383 -6.93791,1.5672 -10.39062,2.39844 0.8872,2.52539 5.65106,3.50102 3.19726,7.19335 4.42,-0.91886 5.04348,-6.37103 7.19336,-9.59179 z m -11.58203,5.64648 c -0.7782,0.17184 -1.59223,1.03791 -2.00586,3.14649 5.00043,0.4446 4.32482,-2.59547 2.75586,-3.10743 -0.23534,-0.0768 -0.4906,-0.0963 -0.75,-0.0391 z m -30.17383,1.23633 c -4.30561,-0.0226 -9.05589,4.60096 -5.14648,8.04883 4.47571,3.94011 7.4011,-4.80526 6.9375,-7.73828 -0.57049,-0.20981 -1.17589,-0.30732 -1.79102,-0.31055 z m -282.45117,0.36133 c -1.15969,-0.0515 -2.3891,0.18252 -3.49609,0.75 -1.45468,4.32376 3.10307,11.5096 6.94726,6.14648 2.88937,-4.01604 0.0279,-6.74212 -3.45117,-6.89648 z M 500,282.49023 v 217.01172 l 0.002,-0.002 V 282.49023 Z m -157.01562,3.20508 c 0.29207,-0.008 0.60707,0.0193 0.94726,0.0899 -1.6545,5.84254 -8.24033,12.58982 -14.38672,7.99414 0.69537,-4.38801 4.40264,-1.584 7.24805,-3.14258 2.58588,-1.41246 3.36694,-4.8654 6.19141,-4.94141 z m -70.83008,3.86328 c -5.37992,0.40801 -10.30017,2.82201 -12.14649,8.2168 7.11334,1.103 13.48391,-2.43724 17.58399,-7.99219 -1.79818,-0.27375 -3.64413,-0.36061 -5.4375,-0.22461 z m -29.27539,0.0879 c -2.82624,-0.1019 -6.07138,0.50838 -8.44922,0.13672 3.34085,4.24414 4.30838,6.74497 10.65429,8.52735 6.34604,1.78238 4.18872,-4.43596 -1.0625,-6.92969 1.92625,0.008 2.97259,1.95884 4.79493,2.39844 -0.70336,-3.21707 -3.11119,-4.03091 -5.9375,-4.13282 z m 151.06836,14.75977 c -4.15981,0.24334 -8.26188,1.40984 -10.85157,2.96094 5.97841,1.72643 16.35189,5.34576 19.98047,-1.59961 -1.49865,-0.67539 -3.2094,-1.08515 -5.0039,-1.27735 -1.34596,-0.14415 -2.73846,-0.16507 -4.125,-0.084 z m -290.17969,0.20898 c -2.83781,0.0886 -5.331884,0.80373 -6.812502,2.75196 6.497782,4.04401 14.347112,2.1802 20.781252,-0.80078 -3.55177,-0.50953 -9.23888,-2.09885 -13.96875,-1.95118 z m -11.607424,17.13868 c -6.114248,3.44456 -6.251229,13.96239 -1.599609,19.18164 0.655388,-5.74677 -2.092903,-13.13145 1.599609,-19.18164 z m 6.394532,0 c -5.77057,8.11231 -1.806597,20.86783 7.992192,23.17773 9.79878,2.3099 21.56353,-5.76159 19.00585,-16.60742 -2.56554,-10.83783 -19.31732,-1.68706 -26.998042,-6.57031 z m 30.371092,0 c 1.61453,6.76953 1.40672,13.25059 0,19.98047 8.83165,-1.79837 8.38406,-18.02256 0,-19.98047 z m 241.38086,0 c -7.88053,1.75809 -7.96907,14.62579 -2.39844,19.18164 1.14296,-5.491 -1.86968,-13.68295 2.39844,-19.18164 z m 31.9707,0 c -8.00839,4.09996 -24.96955,-3.36482 -27.71093,7.45703 -2.74132,10.82184 9.32826,18.19988 18.85547,15.6582 9.53499,-2.5337 13.30746,-14.90701 8.85546,-23.11523 z m 6.39454,0 c -0.3757,5.45073 -0.3277,13.69064 0,19.18164 5.07528,-5.50699 4.49978,-13.53109 0,-19.18164 z m -179.83594,0.79882 c 3.00515,5.77875 12.18857,6.27465 18.38281,6.39454 3.81234,0.46358 8.11192,0.5515 11.98828,0 5.03523,-0.42362 13.43559,-0.34404 14.38672,-6.39454 -14.77025,1.97421 -30.13953,3.76458 -44.75781,0 z m -2.39844,11.98829 c 3.13296,6.51376 11.11018,6.23574 17.58398,7.99414 6.47392,1.75809 17.66492,-1.35948 23.44336,-2.13477 5.77056,-0.77529 15.69599,-9.19932 2.3086,-4.08398 -13.37933,5.12303 -30.16442,2.78815 -43.33594,-1.77539 z m 3.99609,11.99023 c 3.1891,6.22603 13.69201,6.16274 20.78125,6.39453 7.08936,0.23179 16.44087,-0.83235 21.58008,-5.5957 -13.53126,0.04 -28.51024,1.88673 -42.36133,-0.79883 z m -3.99609,7.99219 c -14.51448,13.35524 8.49567,18.38281 19.18164,18.38281 3.21288,0.31172 7.12179,0.31971 10.39063,0 7.68869,0 14.06091,-1.99656 20.98242,-3.79492 6.92958,-1.79037 4.95447,-14.65868 -1.78321,-13.77149 -6.72957,0.89519 -14.08285,3.17969 -21.5957,3.17969 -3.72462,0 -7.46514,0.0719 -11.18945,0 -5.85067,0.52752 -10.82333,-2.22969 -15.98633,-3.99609 z m 151.05469,1.32422 c -1.12853,-0.13385 -2.01597,0.22454 -2.39063,1.87304 7.44111,3.82851 18.96832,5.30732 25.57813,-0.79882 -2.05401,-1.49464 -5.34866,-0.14387 -7.99414,0 -2.86921,0.15955 -5.92162,0.15156 -8.79102,0 -1.96819,0.73903 -4.52115,-0.85115 -6.40234,-1.07422 z m -276.98047,0.30273 c -0.700321,0.0237 -1.359584,0.23198 -1.957032,0.77149 6.497792,5.52267 19.094182,5.6026 25.576172,0 -2.31789,-1.37475 -5.83585,-0.1119 -8.79297,0 -2.63761,0.1036 -5.35459,0.1036 -7.99219,0 -2.26582,0.74302 -4.73345,-0.84267 -6.83398,-0.77149 z m 273.76367,10.74609 c -0.36938,-0.0205 -0.80491,0.18532 -1.31445,0.67188 -4.06815,3.89246 -1.54355,14.39503 -3.50977,19.66992 -1.9742,5.26721 -2.29391,14.1308 -2.34179,20.03711 -0.048,5.90632 1.55883,12.75576 7.19335,15.18555 -2.26178,-5.76276 -2.41272,-14.24999 -1.59765,-19.98047 0.8153,-5.73078 0.58221,-15.7385 2.13281,-20.24609 1.35668,-3.94441 2.02298,-15.19442 -0.5625,-15.3379 z M 96.955078,367.3125 c -1.350748,11.24546 -5.595703,22.02717 -5.595703,33.56836 -0.25577,2.65359 -0.743298,5.17271 0,7.99414 -0.23978,1.68646 0.08863,4.3238 2.398437,3.99609 -0.255738,-7.66471 3.452947,-15.47506 3.373047,-23.0039 -0.0799,-7.52885 3.253081,-16.86417 -0.175781,-22.55469 z m 23.978512,0 c -5.5946,1.36676 -11.69365,0.61499 -17.58398,0.79883 0.18383,8.71176 0.28659,22.04302 -1.33594,29.83594 -1.62252,7.7926 -6.385879,19.99123 3.54883,22.28515 9.93465,2.3019 8.75232,-14.14785 9.77539,-20.15039 1.81435,7.72066 1.04826,17.45601 -2.39648,24.77735 11.3972,-2.10209 11.56511,-14.55496 11.18945,-24.77735 -0.37566,-10.2224 -2.67775,-22.37929 -3.19727,-32.76953 z m 276.54883,0 c -5.01138,1.55858 -10.66313,0.48711 -15.98633,0.79883 0.9511,17.92707 -12.03662,37.66984 0,53.55078 -0.7833,-10.03057 -1.54248,-23.36346 0,-34.36914 2.6296,7.60077 2.22932,17.97682 4.01172,27.16015 1.7823,9.17566 13.64481,10.79707 15.97071,0.81446 0.5355,-2.3099 -0.08,-5.11525 0,-7.19336 0.08,-1.17494 -0.42455,-3.70081 1.59765,-3.19727 0.3517,4.06031 0.63204,8.58534 2.39844,11.99024 8.66379,-15.13792 -1.60667,-33.49791 -3.19727,-49.55469 -6.32189,6.0342 0.48685,19.3672 -2.39843,27.17578 -1.99801,-8.76771 -0.84589,-18.30416 -2.39649,-27.17578 z m -273.01758,0.6582 c -1.76601,0.19857 -2.5288,7.53066 -1.07812,12.07422 1.94205,6.05849 2.3418,12.70853 2.3418,19.23828 v 10.39063 c 0.51154,4.52358 -1.06215,8.54297 -1.59766,12.78711 5.45073,-2.27793 8.69512,-7.00823 8.79102,-13.58594 0.0958,-6.57771 -0.73382,-13.15712 -2.4043,-19.97461 -1.6623,-6.81749 -0.92084,-10.83799 -3.99805,-18.38281 -0.76729,-1.88628 -1.46598,-2.61307 -2.05469,-2.54688 z m 67.60352,4.93555 c -5.57892,1.00709 -10.95004,3.94937 -14.38672,8.79297 4.91534,-2.40582 10.04667,-5.5639 14.38672,-8.79297 z m 120.12109,1.21875 c -0.61866,0.0268 -1.22985,0.14807 -1.82812,0.38086 5.22694,1.02307 8.42459,6.14631 13.58789,7.19336 -2.76249,-3.31499 -7.42918,-7.76185 -11.75977,-7.57422 z m -106.18164,0.6582 c -4.42885,-0.25476 -9.23869,0.86588 -13.12304,2.13672 -7.76874,2.54968 -14.62706,6.3856 -21.03711,11.73242 -6.41798,5.33915 -19.12784,1.47073 -23.93946,8.83204 -4.8115,7.36899 -11.30949,11.941 -11.78906,20.98046 9.25528,-2.26163 12.82898,-17.21525 23.97852,-15.98437 11.14955,1.23089 19.334,-5.63559 28.18164,-10.98242 8.83965,-5.35513 20.82175,-2.73312 28.5664,-10.59766 -2.36173,-4.23215 -6.4091,-5.86242 -10.83789,-6.11719 z m 91.77149,0.008 c -5.52736,-0.27046 -10.83122,1.26334 -12.99414,6.9082 7.91269,6.84146 19.65262,4.92315 28.2207,10.15039 8.55991,5.21895 16.20979,12.27692 26.92773,11.42969 10.70995,-0.84723 14.8196,11.05361 23.17969,15.18554 -0.89519,-8.68778 -6.53116,-14.25934 -11.39062,-21.38086 -4.85939,-7.12121 -17.34399,-2.98785 -23.57813,-8.39062 -6.23421,-5.3951 -13.2038,-9.40114 -20.80469,-11.9668 -2.84729,-0.96212 -6.24413,-1.77327 -9.56054,-1.93554 z m -64.94727,9.30664 c -1.95023,1.23887 -0.15986,3.92327 0,5.59375 1.17493,-1.22289 2.66957,-4.76251 0,-5.59375 z m 37.58985,1.30273 c -1.08659,-0.28443 -2.35158,1.69882 0.77539,3.49219 0.46458,-2.33487 -0.12355,-3.32153 -0.77539,-3.49219 z m -19.07422,1.55664 c -7.83959,0.13456 -9.72935,14.43357 -10.52344,21.11719 -0.84723,7.1292 5.60362,17.85638 9.5918,23.97851 7.52085,-3.14084 13.35459,-14.15513 12.7871,-21.58007 -0.56736,-7.42524 -0.98177,-21.37151 -10.20507,-23.34571 -0.57697,-0.12338 -1.12774,-0.17889 -1.65039,-0.16992 z m 157.30078,47.47461 c -3.44987,-0.15779 -8.57505,3.03496 -11.9668,3.2168 -2.6376,0.14387 -5.35459,0.0559 -7.99219,0 -5.69859,-0.1119 -8.52065,-1.5109 -13.85156,-2.9336 -5.33108,-1.4224 -3.55674,6.5935 1.04688,7.74414 4.59568,1.15895 8.84803,2.42264 13.60351,3.18164 4.75551,0.75931 10.54269,-2.29399 14.3711,-2.42187 3.82038,-0.11989 9.46329,-7.0737 6.15429,-8.49609 -0.41463,-0.17784 -0.87236,-0.26848 -1.36523,-0.29102 z m -320.484378,0.0195 c -1.254796,9.18333 13.019108,10.7022 19.980468,11.18945 6.96136,0.48755 22.57899,-1.99013 18.38281,-11.18945 -12.04462,4.52388 -26.3745,4.24413 -38.363278,0 z m 322.906248,13.58789 c -4.24398,6.05849 -19.05488,6.60267 -15.92187,15.92188 3.13298,9.32721 13.1081,10.17337 20.71679,10.45312 -1.89408,-7.32903 -9.35226,-10.749 -12.78906,-16.7832 6.68171,2.84541 10.77402,8.64794 14.38672,14.38672 3.42871,-7.71268 -7.01737,-11.99751 -11.18945,-16.78516 10.45419,2.70155 18.367,14.79429 14.38672,25.57617 15.54537,-8.26417 2.82254,-28.27762 -9.58985,-32.76953 z m -39.16601,0.79883 c -3.46066,16.83207 14.19672,32.0992 29.57422,34.36914 -12.8038,-9.81476 -11.33527,-31.53172 -29.57422,-34.36914 z M 87.443359,449.0625 c -5.08903,-0.50901 -11.033013,7.46133 -14.466797,10.96484 2.205926,1.59855 1.56761,5.83521 1.59961,9.5918 5.490828,-4.62748 9.5831,-13.75529 18.382812,-14.38672 -5.139148,4.32407 -12.916532,7.41693 -13.58789,15.18555 6.090278,-2.22198 9.63986,-11.30845 16.785156,-12.78711 -3.292924,6.09015 -11.757603,9.47815 -13.587891,16.7832 7.960504,-0.18384 16.96149,-1.14309 20.837891,-9.53515 3.88428,-8.38438 -8.38489,-11.38834 -13.84375,-15.04102 -0.682348,-0.45658 -1.392121,-0.70267 -2.119141,-0.77539 z m 36.117191,1.10742 c -1.42489,0.0681 -3.32199,0.8762 -5.75977,2.72852 -9.75882,7.40095 -10.27074,23.26774 -22.443358,29.50976 6.353908,1.35876 12.500958,-2.76718 18.183598,-6.5957 5.6907,-3.82052 8.77433,-7.82391 11.93945,-14.43359 2.37965,-4.95149 2.35519,-11.41318 -1.91992,-11.20899 z m -50.583988,11.45703 c -2.149954,0.5515 -3.021425,4.99536 -3.197265,7.19336 -0.15986,4.79564 1.415211,11.19656 6.394531,12.78711 -1.790316,-4.3797 -4.683022,-8.74429 -4.794922,-13.58789 -0.19182,-2.33388 0.686518,-4.37841 1.597656,-6.39258 z" />
    <path
       d="m 254.97472,76.05078 c -0.16092,0.2872 -0.2879,0.58418 -0.46679,0.86719 -0.88319,1.39722 -1.96669,2.75341 -3.07617,4.17774 -1.10949,1.42432 -2.24533,2.91728 -3.23243,4.59375 -0.49355,0.83824 -0.82086,1.70894 -1.02148,2.60547 -0.20061,0.89652 -0.27315,1.8197 -0.25586,2.76171 0.0173,0.94202 0.12498,1.90226 0.28516,2.87696 0.16018,0.97471 0.37157,1.96438 0.59961,2.95898 0.45608,1.98918 0.97458,4.00416 1.25195,5.99609 0.13869,0.99597 0.21579,1.98545 0.19726,2.96289 -0.0185,0.97746 -0.13399,1.94254 -0.38476,2.88868 -0.49954,1.89427 -1.06575,3.54541 -1.72852,5.04492 -0.66277,1.4995 -1.42199,2.8484 -2.30468,4.13672 -0.8827,1.28832 -1.88951,2.51661 -3.04883,3.77734 -1.15932,1.26073 -2.47026,2.55399 -3.96289,3.9707 -0.74632,0.70836 -1.3793,1.48261 -1.91016,2.31055 -0.53086,0.82793 -0.96067,1.70895 -1.30273,2.63086 -0.34206,0.92191 -0.59547,1.88471 -0.77539,2.875 -0.17993,0.99028 -0.28562,2.00796 -0.33008,3.04101 -0.0889,2.06612 0.0664,4.1918 0.35937,6.2754 0.29298,2.0836 0.72397,4.12521 1.18555,6.02148 0.23079,0.94813 0.34846,1.89688 0.37305,2.84375 0.0246,0.94687 -0.0455,1.89145 -0.19141,2.83203 -0.14592,0.94058 -0.36768,1.87738 -0.64844,2.80664 -0.28076,0.92926 -0.6201,1.85076 -1,2.76367 -0.75981,1.82584 -1.68273,3.61542 -2.625,5.34571 -0.94227,1.7303 -1.90295,3.40154 -2.74219,4.99609 -0.83922,1.59455 -1.51256,3.39208 -1.97851,5.28711 -0.23297,0.94751 -0.415,1.91803 -0.53906,2.90234 -0.12406,0.98432 -0.19058,1.98098 -0.19532,2.97657 -0.005,0.9956 0.0528,1.99133 0.17774,2.97265 0.12497,0.98133 0.31696,1.94911 0.58203,2.89063 0.26508,0.94151 0.60395,1.85625 1.01953,2.73242 0.41557,0.87617 0.90791,1.71277 1.48438,2.49805 0.57648,0.78529 1.26566,1.43974 2.04492,1.98437 0.77926,0.54463 1.64842,0.98095 2.58594,1.32813 0.93751,0.34719 1.94288,0.60588 2.99414,0.79882 1.05125,0.19295 2.14905,0.31847 3.26953,0.40039 2.24095,0.16385 4.57547,0.14989 6.82617,0.12891 2.2507,-0.021 4.418,-0.0481 6.32226,0.0918 1.90427,0.13987 3.93251,0.22249 5.95704,0.14843 2.02452,-0.074 4.04386,-0.305 5.93164,-0.78906 0.94389,-0.24203 1.85528,-0.54644 2.71679,-0.92773 0.86151,-0.3813 1.67488,-0.8397 2.42188,-1.38477 0.74701,-0.54507 1.42696,-1.1768 2.02734,-1.91015 0.60037,-0.73334 1.11941,-1.56753 1.54102,-2.51367 0.84323,-1.89227 1.46885,-3.80318 1.85937,-5.71094 0.19526,-0.95389 0.3318,-1.90734 0.40821,-2.85742 0.0764,-0.95007 0.0931,-1.89674 0.0469,-2.83789 -0.0462,-0.94114 -0.15551,-1.87565 -0.32812,-2.80274 -0.17261,-0.92709 -0.41011,-1.84598 -0.71289,-2.7539 -0.30279,-0.90792 -0.67069,-1.80583 -1.10743,-2.68946 -0.43674,-0.88363 -0.94114,-1.7532 -1.51562,-2.60742 -0.57547,-0.85323 -0.95966,-1.75739 -1.19727,-2.69922 -0.23761,-0.94183 -0.32949,-1.92095 -0.32031,-2.92578 0.009,-1.00484 0.12027,-2.03589 0.28516,-3.07812 0.1649,-1.04224 0.38374,-2.09636 0.61328,-3.1504 0.45909,-2.10807 0.95768,-4.21511 1.1289,-6.21679 0.0856,-1.00083 0.0898,-1.97433 -0.0332,-2.91016 -0.12297,-0.93584 -0.37425,-1.8325 -0.79687,-2.67773 -0.84723,-1.68846 -1.85001,-3.16047 -2.9043,-4.52735 -1.05429,-1.36688 -2.15898,-2.629 -3.20703,-3.90234 -1.04804,-1.27334 -2.04064,-2.557 -2.86914,-3.96485 -0.41425,-0.70391 -0.78806,-1.43844 -1.10742,-2.21875 -0.31936,-0.78029 -0.58344,-1.60699 -0.78125,-2.49218 -0.39764,-1.76839 -1.11463,-3.57583 -1.9375,-5.41016 -0.82288,-1.83433 -1.75247,-3.69598 -2.57422,-5.57226 -0.41087,-0.93814 -0.79435,-1.88008 -1.125,-2.82422 -0.33065,-0.94415 -0.60755,-1.8888 -0.80469,-2.83594 -0.19713,-0.94714 -0.31585,-1.89661 -0.32617,-2.84375 -0.0103,-0.94714 0.0866,-1.89375 0.3164,-2.83789 0.45958,-1.88828 0.75163,-3.86233 0.93946,-5.85351 0.18783,-1.99119 0.2724,-3.99886 0.31836,-5.95508 0.0919,-3.91244 0.0303,-7.61719 0.33398,-10.5625 z"
       style="fill:#ffffff;stroke-width:4.2;stroke-linecap:round;stroke-linejoin:round;stroke-miterlimit:20"
       id="path455" />
  </g>
  <rect
     style="fill:#ffffff;stroke-width:4.2;stroke-linecap:round;stroke-linejoin:round;stroke-miterlimit:20"
     id="rect459"
     width="1"
     height="1"
     x="0"
     y="0"
     rx="0"
     ry="0" />
  <rect
     style="fill:#ffffff;stroke-width:4.2;stroke-linecap:round;stroke-linejoin:round;stroke-miterlimit:20"
     id="rect460"
     width="1"
     height="1"
     x="499"
     y="499"
     rx="0"
     ry="0" />
</svg>
