<?xml version="1.0" encoding="UTF-8" standalone="no"?>
<!-- Created with Inkscape (http://www.inkscape.org/) -->

<svg
   width="500"
   height="500"
   viewBox="0 0 132.29166 132.29167"
   version="1.1"
   id="svg1"
   inkscape:export-filename="logout.svg"
   inkscape:export-xdpi="96"
   inkscape:export-ydpi="96"
   xmlns:inkscape="http://www.inkscape.org/namespaces/inkscape"
   xmlns:sodipodi="http://sodipodi.sourceforge.net/DTD/sodipodi-0.dtd"
   xmlns="http://www.w3.org/2000/svg"
   xmlns:svg="http://www.w3.org/2000/svg">
  <sodipodi:namedview
     id="namedview1"
     pagecolor="#505050"
     bordercolor="#eeeeee"
     borderopacity="1"
     inkscape:showpageshadow="0"
     inkscape:pageopacity="0"
     inkscape:pagecheckerboard="0"
     inkscape:deskcolor="#505050"
     inkscape:document-units="px"
     showguides="true" />
  <defs
     id="defs1">
    <linearGradient
       id="swatch2"
       inkscape:swatch="solid">
      <stop
         style="stop-color:#ffffff;stop-opacity:1;"
         offset="0"
         id="stop2" />
    </linearGradient>
  </defs>
  <g
     inkscape:label="Warstwa 1"
     inkscape:groupmode="layer"
     id="layer1">
    <rect
       style="fill:#0000ff;fill-opacity:1;stroke-width:5.29201;stroke-linecap:round;stroke-linejoin:round;stroke-miterlimit:20"
       id="rect1"
       width="0.26458332"
       height="0.26458332"
       x="0"
       y="0" />
    <rect
       style="fill:#1d212a;fill-opacity:1;stroke-width:5.29201;stroke-linecap:round;stroke-linejoin:round;stroke-miterlimit:20"
       id="rect1-4"
       width="0.26458332"
       height="0.26458332"
       x="132.02708"
       y="132.02708" />
    <g
       id="g33"
       transform="translate(-3.997159e-6,0.41142925)">
      <path
         id="path30"
         style="opacity:1;fill:#ffffff;fill-opacity:1;stroke:none;stroke-width:0.264583;stroke-linecap:round;stroke-linejoin:round;stroke-miterlimit:20;stroke-dasharray:none;stroke-opacity:1"
         d="M 82.505561,65.262004 A 19.84375,19.84375 0 0 1 66.145836,73.931242 19.84375,19.84375 0 0 1 49.806782,65.289909 46.302082,21.394321 0 0 0 19.843754,85.272152 46.302082,21.394321 0 0 0 66.145836,106.66671 46.302082,21.394321 0 0 0 112.44792,85.272152 46.302082,21.394321 0 0 0 82.505561,65.262004 Z" />
      <circle
         style="opacity:1;fill:#ffffff;fill-opacity:1;stroke:none;stroke-width:0.198437;stroke-linecap:round;stroke-linejoin:round;stroke-miterlimit:20;stroke-dasharray:none;stroke-opacity:1"
         id="circle31"
         cx="66.145828"
         cy="45.584652"
         r="19.84375" />
    </g>
    <path
       id="path31"
       style="display:none;opacity:1;fill:#ffffff;fill-opacity:1;stroke:none;stroke-width:0.264583;stroke-linecap:round;stroke-linejoin:round;stroke-miterlimit:20;stroke-dasharray:none;stroke-opacity:1"
       d="M 82.505554,67.066056 A 19.84375,19.84375 0 0 1 66.145829,75.735294 19.84375,19.84375 0 0 1 49.806775,67.093961 46.302082,21.394321 0 0 0 19.843747,87.076204 46.302082,21.394321 0 0 0 66.145829,108.47076 46.302082,21.394321 0 0 0 112.44792,87.076204 46.302082,21.394321 0 0 0 82.505554,67.066056 Z" />
  </g>
</svg>
