<?xml version="1.0" encoding="UTF-8" standalone="no"?>
<!-- Created with Inkscape (http://www.inkscape.org/) -->

<svg
   width="500"
   height="500"
   viewBox="0 0 132.29166 132.29167"
   version="1.1"
   id="svg1"
   inkscape:export-filename="logout.svg"
   inkscape:export-xdpi="96"
   inkscape:export-ydpi="96"
   xmlns:inkscape="http://www.inkscape.org/namespaces/inkscape"
   xmlns:sodipodi="http://sodipodi.sourceforge.net/DTD/sodipodi-0.dtd"
   xmlns="http://www.w3.org/2000/svg"
   xmlns:svg="http://www.w3.org/2000/svg">
  <sodipodi:namedview
     id="namedview1"
     pagecolor="#505050"
     bordercolor="#eeeeee"
     borderopacity="1"
     inkscape:showpageshadow="0"
     inkscape:pageopacity="0"
     inkscape:pagecheckerboard="0"
     inkscape:deskcolor="#505050"
     inkscape:document-units="px"
     showguides="true" />
  <defs
     id="defs1">
    <linearGradient
       id="swatch2"
       inkscape:swatch="solid">
      <stop
         style="stop-color:#ffffff;stop-opacity:1;"
         offset="0"
         id="stop2" />
    </linearGradient>
  </defs>
  <g
     inkscape:label="Warstwa 1"
     inkscape:groupmode="layer"
     id="layer1">
    <g
       id="g48"
       inkscape:label="rogi">
      <rect
         style="fill:#0000ff;fill-opacity:1;stroke-width:5.29201;stroke-linecap:round;stroke-linejoin:round;stroke-miterlimit:20"
         id="rect1"
         width="0.26458332"
         height="0.26458332"
         x="0"
         y="0" />
      <rect
         style="fill:#1d212a;fill-opacity:1;stroke-width:5.29201;stroke-linecap:round;stroke-linejoin:round;stroke-miterlimit:20"
         id="rect1-4"
         width="0.26458332"
         height="0.26458332"
         x="132.02708"
         y="132.02708" />
    </g>
    <path
       id="path120"
       style="opacity:1;fill:#ffffff;fill-opacity:1;stroke:none;stroke-width:0.264583;stroke-linecap:round;stroke-linejoin:round;stroke-miterlimit:20;stroke-dasharray:none;stroke-opacity:1"
       d="m 51.496774,19.84375 a 31.75,31.75 0 0 0 -31.749999,31.749999 31.75,31.75 0 0 0 31.749999,31.75 31.75,31.75 0 0 0 31.75,-31.75 31.75,31.75 0 0 0 -31.75,-31.749999 z m 0,7.272941 A 24.476891,24.476891 0 0 1 75.973833,51.593749 24.476891,24.476891 0 0 1 51.496774,76.070808 24.476891,24.476891 0 0 1 27.019716,51.593749 24.476891,24.476891 0 0 1 51.496774,27.116691 Z" />
    <g
       id="g125"
       transform="matrix(0.95546224,-0.9627404,0.95580937,0.9613865,-72.512557,104.734)">
      <path
         id="path123"
         style="opacity:1;fill:#ffffff;stroke-width:0.260676;stroke-linecap:round;stroke-linejoin:round;stroke-miterlimit:20"
         d="M 87.66855,63.691719 V 90.150052 H 97.722717 V 63.691719 a 31.652389,30.914346 0 0 1 -5.027084,0.429198 31.652389,30.914346 0 0 1 -5.027083,-0.429198 z" />
      <circle
         style="opacity:1;fill:#ffffff;fill-opacity:1;stroke:none;stroke-width:0.264583;stroke-linecap:round;stroke-linejoin:round;stroke-miterlimit:20;stroke-dasharray:none;stroke-opacity:1"
         id="path125"
         cx="92.695633"
         cy="89.523354"
         r="5.0270834" />
    </g>
  </g>
</svg>
