<?xml version="1.0" encoding="UTF-8" standalone="no"?>
<!-- Created with Inkscape (http://www.inkscape.org/) -->

<svg
   width="500"
   height="500"
   viewBox="0 0 132.29167 132.29167"
   version="1.1"
   id="svg1"
   xml:space="preserve"
   inkscape:export-filename="fishing.svg"
   inkscape:export-xdpi="96"
   inkscape:export-ydpi="96"
   xmlns:inkscape="http://www.inkscape.org/namespaces/inkscape"
   xmlns:sodipodi="http://sodipodi.sourceforge.net/DTD/sodipodi-0.dtd"
   xmlns="http://www.w3.org/2000/svg"
   xmlns:svg="http://www.w3.org/2000/svg"><sodipodi:namedview
     id="namedview1"
     pagecolor="#505050"
     bordercolor="#eeeeee"
     borderopacity="1"
     inkscape:showpageshadow="0"
     inkscape:pageopacity="0"
     inkscape:pagecheckerboard="0"
     inkscape:deskcolor="#505050"
     inkscape:document-units="px"
     showgrid="false"
     showguides="true"><inkscape:grid
       id="grid86"
       units="px"
       originx="0"
       originy="0"
       spacingx="0.26458334"
       spacingy="0.26458334"
       empcolor="#0099e5"
       empopacity="0.30196078"
       color="#0099e5"
       opacity="0.14901961"
       empspacing="5"
       dotted="false"
       gridanglex="30"
       gridanglez="30"
       visible="false" /></sodipodi:namedview><defs
     id="defs1" /><g
     inkscape:label="Warstwa 1"
     inkscape:groupmode="layer"
     id="layer1"><path
       id="rect156"
       style="fill:#ffffff;stroke-width:1.11125;stroke-linecap:round;stroke-linejoin:round;stroke-miterlimit:20"
       d="m 110.26728,8.7888794 c -0.66205,0 -1.32413,0.253903 -1.83142,0.761194 L 35.560205,82.42573 a 9.1122856,9.1122856 0 0 0 -4.979541,-1.077454 9.1122856,9.1122856 0 0 0 -5.793445,2.645834 9.1122856,9.1122856 0 0 0 -2.509925,8.038269 c -0.0049,0.0048 -0.01167,0.006 -0.01654,0.01085 L 2.4604159,111.84357 c -0.6346498,0.63465 -0.6346498,1.65667 0,2.29133 l 5.0725587,5.07256 c 0.6346488,0.63465 1.6566843,0.63465 2.291333,0 L 29.62465,99.407127 c 0.0049,-0.005 0.0061,-0.0116 0.01085,-0.0165 a 9.1122856,9.1122856 0 0 0 6.967017,-1.740463 l 3.017903,3.017906 -1.756998,1.757 c -0.556548,0.55655 -0.556548,1.45262 0,2.00917 l 0.752408,0.75189 c 0.556548,0.55655 1.452639,0.55655 2.00918,0 l 5.354195,-5.354703 c 0.556548,-0.55655 0.556548,-1.45263 0,-2.009181 l -0.751892,-0.751892 c -0.55654,-0.55654 -1.452639,-0.55654 -2.009179,0 l -1.756999,1.757003 -2.937805,-2.937809 a 9.1122856,9.1122856 0 0 0 0.709517,-9.77253 l 0.811837,-0.811837 a 13.017551,16.922817 45 0 0 0.237711,0.17725 13.017551,16.922817 45 0 0 2.830319,1.0604 13.017551,16.922817 45 0 0 3.170866,0.319361 13.017551,16.922817 45 0 0 3.35225,-0.436666 13.017551,16.922817 45 0 0 3.365686,-1.172022 13.017551,16.922817 45 0 0 3.21014,-1.848982 13.017551,16.922817 45 0 0 2.893364,-2.431893 13.017551,16.922817 45 0 0 2.431893,-2.893364 13.017551,16.922817 45 0 0 1.848466,-3.21014 13.017551,16.922817 45 0 0 1.172538,-3.365686 13.017551,16.922817 45 0 0 0.436666,-3.35225 13.017551,16.922817 45 0 0 -0.319877,-3.170866 13.017551,16.922817 45 0 0 -1.059884,-2.830319 13.017551,16.922817 45 0 0 -0.17725,-0.237711 l 0.539502,-0.539502 a 13.017551,16.922817 45 0 0 0.237711,0.17725 13.017551,16.922817 45 0 0 2.830319,1.0604 13.017551,16.922817 45 0 0 3.170866,0.319361 13.017551,16.922817 45 0 0 3.35225,-0.436666 13.017551,16.922817 45 0 0 3.365686,-1.172538 13.017551,16.922817 45 0 0 3.21014,-1.848466 13.017551,16.922817 45 0 0 2.893363,-2.431893 13.017551,16.922817 45 0 0 2.431893,-2.893364 13.017551,16.922817 45 0 0 1.848466,-3.21014 13.017551,16.922817 45 0 0 1.172539,-3.365686 13.017551,16.922817 45 0 0 0.436666,-3.35225 13.017551,16.922817 45 0 0 -0.319361,-3.170866 13.017551,16.922817 45 0 0 -1.0604,-2.830319 13.017551,16.922817 45 0 0 -0.17725,-0.237711 l 0.0956,-0.0956 a 13.017551,16.922817 45 0 0 0.237712,0.177251 13.017551,16.922817 45 0 0 2.830318,1.0604 13.017551,16.922817 45 0 0 3.170866,0.31936 13.017551,16.922817 45 0 0 3.35225,-0.436665 13.017551,16.922817 45 0 0 3.365692,-1.172022 13.017551,16.922817 45 0 0 3.21014,-1.848983 13.017551,16.922817 45 0 0 2.89336,-2.431893 13.017551,16.922817 45 0 0 2.43189,-2.893363 13.017551,16.922817 45 0 0 1.48312,-2.575554 l 12.83953,47.918524 -2.8789,0.771529 c -0.95032,0.254638 -1.56538,1.020094 -1.37873,1.716691 0.18666,0.696597 1.10227,1.052522 2.05259,0.797884 l 2.8789,-0.771529 3.20807,11.972913 c 0,0 0.0689,0.207867 0.0842,0.315743 0.0361,0.254045 0.10859,0.530554 0.015,0.769462 -0.0577,0.146491 -0.18179,0.280848 -0.32763,0.340548 -0.16561,0.06779 -0.36047,0.01484 -0.53692,-0.01499 -0.16237,-0.02742 -0.32129,-0.08028 -0.47077,-0.149344 -1.03192,-0.476835 -2.89181,-1.807642 -2.89181,-1.807642 -0.21098,-0.131906 -0.65084,-0.06001 -0.38861,0.310058 0.73288,1.034304 2.11019,2.672229 3.38119,3.790984 0.23131,0.203593 0.48005,0.398595 0.76223,0.522448 0.12713,0.05581 0.26839,0.07618 0.40617,0.09353 0.47167,0.05939 0.9527,0.08143 1.42575,0.03462 0.17487,-0.01731 0.34632,-0.06367 0.51419,-0.115755 0.17609,-0.05412 0.35265,-0.113952 0.51418,-0.202572 0.27998,-0.153537 0.53875,-0.348072 0.77514,-0.562756 0.14132,-0.128377 0.278,-0.267086 0.37931,-0.428915 0.0749,-0.11964 0.12528,-0.25515 0.16278,-0.39119 0.13197,-0.478488 0.16152,-0.980212 0.21342,-1.473812 0.0258,-0.245082 0.0632,-0.491413 0.0486,-0.737423 -0.0134,-0.226312 -0.0739,-0.447568 -0.12403,-0.668693 -0.032,-0.140891 -0.11265,-0.418579 -0.11265,-0.418579 l -3.26595,-12.189437 2.49235,-0.66766 c 0.95033,-0.254637 1.56487,-1.020092 1.37821,-1.716691 -0.18665,-0.696597 -1.10174,-1.052522 -2.05207,-0.797884 l -2.49235,0.66766 -14.69575,-54.84575 a 13.017551,16.922817 45 0 0 -0.26096,-2.585372 13.017551,16.922817 45 0 0 -1.05989,-2.830318 13.017551,16.922817 45 0 0 -0.17725,-0.237712 l 1.25936,-1.259354 c 1.01458,-1.014576 1.01458,-2.64825 0,-3.6628256 l -0.0191,-0.01912 c -0.50729,-0.507291 -1.16943,-0.761194 -1.83141,-0.761194 z m -3.10783,9.4014936 a 9.1122858,11.845971 45 0 1 0.63718,2.123901 9.1122858,11.845971 45 0 1 0.003,2.66547 9.1122858,11.845971 45 0 1 -0.71056,2.759005 9.1122858,11.845971 45 0 1 -1.37717,2.66392 9.1122858,11.845971 45 0 1 -1.94769,2.387452 9.1122858,11.845971 45 0 1 -2.38745,1.948201 9.1122858,11.845971 45 0 1 -2.664436,1.37666 9.1122858,11.845971 45 0 1 -2.758488,0.711068 9.1122858,11.845971 45 0 1 -2.66547,-0.0031 9.1122858,11.845971 45 0 1 -2.123902,-0.637688 z M 83.693185,41.656641 a 9.1122858,11.845971 45 0 1 0.214458,0.51108 9.1122858,11.845971 45 0 1 0.239262,0.798918 9.1122858,11.845971 45 0 1 0.161747,0.836124 9.1122858,11.845971 45 0 1 0.08113,0.866614 9.1122858,11.845971 45 0 1 0.0015,0.890902 9.1122858,11.845971 45 0 1 -0.07958,0.907955 9.1122858,11.845971 45 0 1 -0.159163,0.919324 9.1122858,11.845971 45 0 1 -0.237712,0.92139 9.1122858,11.845971 45 0 1 -0.314192,0.918291 9.1122858,11.845971 45 0 1 -0.388607,0.907955 9.1122858,11.845971 45 0 1 -0.45992,0.889868 9.1122858,11.845971 45 0 1 -0.528134,0.866097 9.1122858,11.845971 45 0 1 -0.591178,0.835091 9.1122858,11.845971 45 0 1 -0.65164,0.797884 9.1122858,11.845971 45 0 1 -0.705383,0.754476 9.1122858,11.845971 45 0 1 -2.387451,1.948202 9.1122858,11.845971 45 0 1 -2.66392,1.37666 9.1122858,11.845971 45 0 1 -2.759005,0.711067 9.1122858,11.845971 45 0 1 -2.665471,-0.0031 9.1122858,11.845971 45 0 1 -2.123901,-0.637687 z M 59.631088,65.718739 a 9.1122858,11.845971 45 0 1 0.21394,0.511597 9.1122858,11.845971 45 0 1 0.239779,0.798917 9.1122858,11.845971 45 0 1 0.16123,0.835608 9.1122858,11.845971 45 0 1 0.08113,0.866614 9.1122858,11.845971 45 0 1 0.0016,0.891418 9.1122858,11.845971 45 0 1 -0.07906,0.907439 9.1122858,11.845971 45 0 1 -0.159164,0.919323 9.1122858,11.845971 45 0 1 -0.237711,0.921391 9.1122858,11.845971 45 0 1 -0.314193,0.91829 9.1122858,11.845971 45 0 1 -0.388607,0.907955 9.1122858,11.845971 45 0 1 -0.45992,0.889869 9.1122858,11.845971 45 0 1 -0.528133,0.866097 9.1122858,11.845971 45 0 1 -0.591696,0.835607 9.1122858,11.845971 45 0 1 -0.651123,0.797885 9.1122858,11.845971 45 0 1 -0.705383,0.754476 9.1122858,11.845971 45 0 1 -2.387451,1.947684 9.1122858,11.845971 45 0 1 -2.66392,1.377177 9.1122858,11.845971 45 0 1 -2.759005,0.710551 9.1122858,11.845971 45 0 1 -2.665471,-0.0031 9.1122858,11.845971 45 0 1 -2.123901,-0.637688 z M 0.66155919,128.57743 v 0.0284 c 0,0.98385 0.79227241,1.77612 1.77611901,1.77612 h 0.028422 c -0.9998307,0 -1.80454111,-0.8047 -1.80454111,-1.80454 z" /><rect
       style="fill:#ffffff;stroke-width:1.11125;stroke-linecap:round;stroke-linejoin:round;stroke-miterlimit:20"
       id="rect157"
       width="0.26458335"
       height="0.26458335"
       x="0"
       y="0"
       ry="0"
       rx="0.13229167" /><rect
       style="fill:#ffffff;stroke-width:1.11125;stroke-linecap:round;stroke-linejoin:round;stroke-miterlimit:20"
       id="rect158"
       width="0.26458335"
       height="0.26458335"
       x="132.02708"
       y="132.02708"
       ry="0"
       rx="0.13229167" /></g></svg>
