<?xml version="1.0" encoding="UTF-8" standalone="no"?>
<!-- Created with Inkscape (http://www.inkscape.org/) -->

<svg
   width="500"
   height="500"
   viewBox="0 0 132.29167 132.29167"
   version="1.1"
   id="svg1"
   xml:space="preserve"
   inkscape:export-filename="fishing.png"
   inkscape:export-xdpi="96"
   inkscape:export-ydpi="96"
   sodipodi:docname="fishing.svg"
   xmlns:inkscape="http://www.inkscape.org/namespaces/inkscape"
   xmlns:sodipodi="http://sodipodi.sourceforge.net/DTD/sodipodi-0.dtd"
   xmlns="http://www.w3.org/2000/svg"
   xmlns:svg="http://www.w3.org/2000/svg"><sodipodi:namedview
     id="namedview1"
     pagecolor="#505050"
     bordercolor="#eeeeee"
     borderopacity="1"
     inkscape:showpageshadow="0"
     inkscape:pageopacity="0"
     inkscape:pagecheckerboard="0"
     inkscape:deskcolor="#505050"
     inkscape:document-units="px"
     showgrid="false"
     showguides="true"><inkscape:grid
       id="grid86"
       units="px"
       originx="0"
       originy="0"
       spacingx="0.26458334"
       spacingy="0.26458334"
       empcolor="#0099e5"
       empopacity="0.30196078"
       color="#0099e5"
       opacity="0.14901961"
       empspacing="5"
       dotted="false"
       gridanglex="30"
       gridanglez="30"
       visible="false" /></sodipodi:namedview><defs
     id="defs1" /><g
     inkscape:label="Warstwa 1"
     inkscape:groupmode="layer"
     id="layer1"><path
       id="rect156"
       style="fill:#ffffff;stroke-width:0.561238;stroke-linecap:round;stroke-linejoin:round;stroke-miterlimit:20"
       d="m 61.971093,66.145835 c -0.334369,0 -0.668754,0.128234 -0.924961,0.384442 L 24.240189,103.33622 a 4.6021715,4.6021715 0 0 0 -2.514924,-0.54417 4.6021715,4.6021715 0 0 0 -2.925986,1.33628 4.6021715,4.6021715 0 0 0 -1.267641,4.05974 c -0.0025,0.002 -0.0059,0.003 -0.0084,0.005 L 7.5230984,118.19374 c -0.3205307,0.32053 -0.3205307,0.8367 0,1.15724 l 2.5619026,2.5619 c 0.32053,0.32053 0.83671,0.32053 1.15724,0 L 21.242429,111.9127 c 0.0025,-0.002 0.0031,-0.006 0.0055,-0.008 a 4.6021715,4.6021715 0 0 0 3.518701,-0.87903 l 1.524196,1.5242 -0.887374,0.88738 c -0.281086,0.28108 -0.281086,0.73364 0,1.01473 l 0.380004,0.37974 c 0.281086,0.28109 0.733657,0.28109 1.014739,0 l 2.704143,-2.7044 c 0.281085,-0.28108 0.281085,-0.73365 0,-1.01474 l -0.379764,-0.37977 c -0.281081,-0.28108 -0.733657,-0.28108 -1.014738,0 l -0.887375,0.88737 -1.483742,-1.48374 a 4.6021715,4.6021715 0 0 0 0.358342,-4.93563 l 0.41002,-0.41002 a 6.5745308,8.5468904 45 0 0 0.120056,0.0895 6.5745308,8.5468904 45 0 0 1.429456,0.53556 6.5745308,8.5468904 45 0 0 1.60145,0.16129 6.5745308,8.5468904 45 0 0 1.693058,-0.22054 6.5745308,8.5468904 45 0 0 1.699844,-0.59193 6.5745308,8.5468904 45 0 0 1.621286,-0.93383 6.5745308,8.5468904 45 0 0 1.461297,-1.22823 6.5745308,8.5468904 45 0 0 1.228231,-1.4613 6.5745308,8.5468904 45 0 0 0.93357,-1.621283 6.5745308,8.5468904 45 0 0 0.592192,-1.699844 6.5745308,8.5468904 45 0 0 0.220538,-1.693058 6.5745308,8.5468904 45 0 0 -0.161554,-1.60145 6.5745308,8.5468904 45 0 0 -0.535296,-1.429456 6.5745308,8.5468904 45 0 0 -0.08952,-0.120056 l 0.272476,-0.272477 a 6.5745308,8.5468904 45 0 0 0.120056,0.08952 6.5745308,8.5468904 45 0 0 1.429456,0.535556 6.5745308,8.5468904 45 0 0 1.60145,0.161294 6.5745308,8.5468904 45 0 0 1.693059,-0.220539 6.5745308,8.5468904 45 0 0 1.699844,-0.592192 6.5745308,8.5468904 45 0 0 1.621285,-0.93357 6.5745308,8.5468904 45 0 0 1.461297,-1.22823 6.5745308,8.5468904 45 0 0 1.22823,-1.461298 6.5745308,8.5468904 45 0 0 0.93357,-1.621285 6.5745308,8.5468904 45 0 0 0.592193,-1.699844 6.5745308,8.5468904 45 0 0 0.220538,-1.693058 6.5745308,8.5468904 45 0 0 -0.161293,-1.60145 6.5745308,8.5468904 45 0 0 -0.535557,-1.429457 6.5745308,8.5468904 45 0 0 -0.08952,-0.120057 l 0.04828,-0.04828 a 6.5745308,8.5468904 45 0 0 0.120057,0.08952 6.5745308,8.5468904 45 0 0 1.429455,0.535557 6.5745308,8.5468904 45 0 0 1.60145,0.161293 6.5745308,8.5468904 45 0 0 1.693059,-0.220538 6.5745308,8.5468904 45 0 0 1.699847,-0.591932 6.5745308,8.5468904 45 0 0 1.621285,-0.93383 6.5745308,8.5468904 45 0 0 1.461295,-1.22823 6.5745308,8.5468904 45 0 0 1.228229,-1.461297 6.5745308,8.5468904 45 0 0 0.749052,-1.300787 l 6.484621,24.201308 -1.453992,0.38967 c -0.47996,0.1286 -0.790597,0.5152 -0.69633,0.86701 0.09427,0.35182 0.556703,0.53158 1.036664,0.40298 l 1.453992,-0.38967 1.62024,6.04694 c 0,0 0.0348,0.10498 0.04252,0.15947 0.01823,0.1283 0.05484,0.26795 0.0076,0.38861 -0.02914,0.074 -0.09181,0.14185 -0.16547,0.172 -0.08364,0.0342 -0.182056,0.007 -0.271172,-0.008 -0.08201,-0.0139 -0.162268,-0.0406 -0.237763,-0.0754 -0.521173,-0.24083 -1.460513,-0.91295 -1.460513,-0.91295 -0.106555,-0.0666 -0.328707,-0.0303 -0.196268,0.15659 0.370142,0.52238 1.065755,1.34961 1.707675,1.91464 0.116823,0.10283 0.24245,0.20131 0.384965,0.26386 0.06421,0.0282 0.135551,0.0385 0.205137,0.0472 0.238217,0.03 0.481162,0.0411 0.720077,0.0175 0.08832,-0.009 0.174909,-0.0322 0.259692,-0.0585 0.08893,-0.0273 0.178106,-0.0575 0.259687,-0.1023 0.141404,-0.0775 0.272096,-0.1758 0.391486,-0.28423 0.07137,-0.0648 0.140404,-0.13489 0.191571,-0.21662 0.03783,-0.0604 0.06327,-0.12886 0.08221,-0.19757 0.06665,-0.24166 0.08158,-0.49506 0.107788,-0.74435 0.01303,-0.12378 0.03192,-0.24819 0.02454,-0.37244 -0.0068,-0.1143 -0.03732,-0.22604 -0.06264,-0.33772 -0.01616,-0.0712 -0.05689,-0.21141 -0.05689,-0.21141 l -1.649472,-6.15629 1.258764,-0.3372 c 0.479966,-0.1286 0.79034,-0.515198 0.696067,-0.867016 -0.09427,-0.351817 -0.556435,-0.531578 -1.036401,-0.402972 L 70.448389,99.581076 63.026281,71.88116 a 6.5745308,8.5468904 45 0 0 -0.131798,-1.305745 6.5745308,8.5468904 45 0 0 -0.535299,-1.429456 6.5745308,8.5468904 45 0 0 -0.08952,-0.120057 l 0.636041,-0.636038 c 0.512415,-0.512413 0.512415,-1.337502 0,-1.849915 l -0.0096,-0.0097 c -0.256208,-0.256167 -0.590622,-0.384401 -0.924956,-0.384401 z m -1.569614,4.748236 a 4.6021716,5.9828228 45 0 1 0.321809,1.072679 4.6021716,5.9828228 45 0 1 0.0015,1.346199 4.6021716,5.9828228 45 0 1 -0.358869,1.393439 4.6021716,5.9828228 45 0 1 -0.695542,1.345416 4.6021716,5.9828228 45 0 1 -0.983683,1.205786 4.6021716,5.9828228 45 0 1 -1.205785,0.983941 4.6021716,5.9828228 45 0 1 -1.345676,0.695284 4.6021716,5.9828228 45 0 1 -1.393178,0.359126 4.6021716,5.9828228 45 0 1 -1.346199,-0.0016 4.6021716,5.9828228 45 0 1 -1.07268,-0.322065 z M 48.549812,82.74574 a 4.6021716,5.9828228 45 0 1 0.108312,0.258121 4.6021716,5.9828228 45 0 1 0.12084,0.403495 4.6021716,5.9828228 45 0 1 0.08169,0.422285 4.6021716,5.9828228 45 0 1 0.04097,0.437685 4.6021716,5.9828228 45 0 1 7.58e-4,0.449951 4.6021716,5.9828228 45 0 1 -0.04019,0.458564 4.6021716,5.9828228 45 0 1 -0.08039,0.464306 4.6021716,5.9828228 45 0 1 -0.120056,0.465349 4.6021716,5.9828228 45 0 1 -0.158683,0.463784 4.6021716,5.9828228 45 0 1 -0.196267,0.458564 4.6021716,5.9828228 45 0 1 -0.232283,0.449429 4.6021716,5.9828228 45 0 1 -0.266735,0.437423 4.6021716,5.9828228 45 0 1 -0.298575,0.421764 4.6021716,5.9828228 45 0 1 -0.329112,0.402972 4.6021716,5.9828228 45 0 1 -0.356254,0.381049 4.6021716,5.9828228 45 0 1 -1.205785,0.983942 4.6021716,5.9828228 45 0 1 -1.345417,0.695284 4.6021716,5.9828228 45 0 1 -1.393439,0.359125 4.6021716,5.9828228 45 0 1 -1.346199,-0.0016 4.6021716,5.9828228 45 0 1 -1.072679,-0.322065 z M 36.397219,94.898333 a 4.6021716,5.9828228 45 0 1 0.108051,0.258383 4.6021716,5.9828228 45 0 1 0.121101,0.403494 4.6021716,5.9828228 45 0 1 0.08143,0.422025 4.6021716,5.9828228 45 0 1 0.04097,0.437684 4.6021716,5.9828228 45 0 1 8.08e-4,0.450212 4.6021716,5.9828228 45 0 1 -0.03993,0.458303 4.6021716,5.9828228 45 0 1 -0.08039,0.464306 4.6021716,5.9828228 45 0 1 -0.120057,0.465349 4.6021716,5.9828228 45 0 1 -0.158683,0.463784 4.6021716,5.9828228 45 0 1 -0.196267,0.458564 4.6021716,5.9828228 45 0 1 -0.232283,0.449429 4.6021716,5.9828228 45 0 1 -0.266734,0.437424 4.6021716,5.9828228 45 0 1 -0.298837,0.42202 4.6021716,5.9828228 45 0 1 -0.32885,0.40298 4.6021716,5.9828228 45 0 1 -0.356255,0.38105 4.6021716,5.9828228 45 0 1 -1.205785,0.98368 4.6021716,5.9828228 45 0 1 -1.345416,0.69554 4.6021716,5.9828228 45 0 1 -1.393439,0.35887 4.6021716,5.9828228 45 0 1 -1.3462,-0.002 4.6021716,5.9828228 45 0 1 -1.072679,-0.32207 z M 6.6145835,126.6452 v 0.0143 c 0,0.49689 0.4001382,0.89703 0.8970312,0.89703 h 0.014355 c -0.5049658,0 -0.9113858,-0.40641 -0.9113858,-0.91139 z" /><rect
       style="fill:#ffffff;stroke-width:1.11125;stroke-linecap:round;stroke-linejoin:round;stroke-miterlimit:20"
       id="rect157"
       width="0.26458335"
       height="0.26458335"
       x="0"
       y="0"
       ry="0"
       rx="0.13229167" /><rect
       style="fill:#ffffff;stroke-width:1.11125;stroke-linecap:round;stroke-linejoin:round;stroke-miterlimit:20"
       id="rect158"
       width="0.26458335"
       height="0.26458335"
       x="132.02708"
       y="132.02708"
       ry="0"
       rx="0.13229167" /><path
       id="rect4"
       style="opacity:0.99;fill:#ffffff;stroke-width:1.32292;stroke-linecap:round;stroke-linejoin:round;stroke-miterlimit:20"
       d="M 107.6818,6.6145835 87.047919,42.353488 H 98.300463 V 79.877814 H 117.06314 V 42.353488 h 11.25254 z" /></g></svg>
