<?xml version="1.0" encoding="UTF-8" standalone="no"?>
<svg
   viewBox="0 0 421.06061 500"
   width="421.06061"
   height="500"
   version="1.1"
   id="svg16"
   sodipodi:docname="30898739-e22b-41ee-b575-6574876ab02a.svg"
   xmlns:inkscape="http://www.inkscape.org/namespaces/inkscape"
   xmlns:sodipodi="http://sodipodi.sourceforge.net/DTD/sodipodi-0.dtd"
   xmlns="http://www.w3.org/2000/svg"
   xmlns:svg="http://www.w3.org/2000/svg">
  <defs
     id="defs16" />
  <sodipodi:namedview
     id="namedview16"
     pagecolor="#505050"
     bordercolor="#eeeeee"
     borderopacity="1"
     inkscape:showpageshadow="0"
     inkscape:pageopacity="0"
     inkscape:pagecheckerboard="0"
     inkscape:deskcolor="#505050" />
  <g
     id="g18"
     transform="matrix(0.7822109,0,0,0.7822109,707.53411,-166.61065)"
     style="fill:#ffffff;stroke:#ffffff;stroke-width:6.3017;stroke-dasharray:none;stroke-opacity:1">
    <g
       id="g17"
       transform="translate(-1150.3084,148.86344)"
       style="fill:#ffffff;stroke:#ffffff;stroke-width:6.3017;stroke-dasharray:none;stroke-opacity:1">
      <g
         fill="None"
         fill-opacity="0"
         stroke="#e6ebee"
         stroke-opacity="1"
         stroke-width="0.3"
         id="g2"
         style="fill:#ffffff;stroke:#ffffff;stroke-width:6.3017;stroke-dasharray:none;stroke-opacity:1">
        <path
           d="m 672,463 c 6.43,-13 17.74,-23.35 26.7,-35.3 8.96,-11.96 21.75,-26.25 16.63,-42.03 -5.13,-15.77 -10.53,-30.98 -15.4,-46.6 -4.88,-15.62 -10.06,-31.25 -15.61,-46.39 -5.55,-15.14 -11.26,-29.82 -17.54,-44.46 -6.29,-14.64 -12.56,-28.93 -18.47,-43.53 -5.92,-14.59 -11.52,-29.58 -18.39,-43.61 -6.87,-14.03 -17.54,-22.37 -28.67,-33.33 -11.14,-10.96 -21.29,-18.49 -33.5,-28.5 -12.22,-10 -24.38,-13.72 -37.05,-24.95 -12.68,-11.23 -28.48,-7.91 -41,2.4 -12.52,10.3 -25.42,14.77 -37.45,24.55 -12.03,9.77 -22.41,17.77 -33.5,28.5 -11.08,10.73 -21.65,19.6 -28.44,33.56 -6.8,13.95 -12.24,29.07 -18.54,43.46 -6.3,14.39 -12.25,28.91 -18.46,43.54 -6.21,14.62 -12.24,29.29 -17.53,44.47 -5.3,15.17 -10.88,31.43 -14.85,47.15 -3.98,15.71 -11.65,32.3 -13.6,48.4 -1.95,16.1 12.39,28.54 20.92,40.42 8.53,11.89 19.63,21.14 27.75,33.25 -8.66,6.67 -16.8,13.73 -25.3,20.7 -8.51,6.96 -17.33,12.04 -25.95,19.05 -8.63,7 -18.75,10.27 -27.5,17.5 -8.76,7.22 -19.54,8.85 -26.95,19.05 -7.41,10.21 14.58,13.82 23.68,16.72 9.1,2.91 22.52,8.21 31.94,13.06 9.42,4.84 21.23,9.94 30.85,15.15 9.62,5.21 19.31,10.85 29.15,15.85 9.84,5.01 19.38,10.76 29.39,15.62 10,4.85 21.23,9.74 31,15 9.76,5.25 20.47,9.4 29.44,15.55 8.98,6.14 17.28,11.97 24.48,20.52 7.2,8.55 12,18.98 15.77,29.23 6.58,-8.28 1.11,-24.11 -0.02,-34.98 -1.14,-10.86 -4.95,-22.36 -6.99,-33.01 -2.04,-10.66 -5.39,-21.46 -8.21,-31.79 -2.82,-10.33 -6.76,-21 -10,-31 -3.25,-9.99 -7.91,-18.65 -11.86,-28.14 -3.94,-9.5 -8.51,-17.79 -13,-27 -4.48,-9.22 -9.02,-18.25 -13.61,-27.39 -4.6,-9.13 -8.85,-17.75 -13,-27 -4.16,-9.24 -8.03,-19.11 -11.31,-28.69 -3.01,19.47 8.94,38.9 16.69,56.31 7.76,17.4 17.08,33.22 24.31,50.69 -31.49,-46.22 -82.4,-88.87 -85,-147 -11.87,25.74 6.14,52.94 20.7,73.3 14.55,20.37 28.6,37.79 44.38,57.62 15.79,19.82 32.3,38.43 38.14,63.86 5.85,25.42 19,54.04 18.78,80.22 C 458.32,628.61 415.76,618.62 378.23,597.77 340.7,576.92 298.5,553.82 256,547 c 36.93,-23.32 74.05,-46.11 107,-76 34.81,37.36 70.29,74.7 100,115 -3.89,-10.28 -9.94,-20.68 -16.25,-29.75 -6.3,-9.07 -13.21,-17.38 -20,-26 -6.78,-8.62 -14.07,-16.55 -21,-25 -6.93,-8.45 -15.57,-15 -22.45,-23.55 -6.87,-8.55 -14.13,-16.22 -21.05,-24.95 -6.91,-8.74 -13.28,-16.56 -20.48,-25.52 -7.2,-8.96 -13.04,-16.05 -20,-26 -6.96,-9.95 -2.07,-25.09 1.3,-36.16 3.37,-11.06 7.5,-23.95 10.61,-35.39 3.1,-11.45 7.35,-23.48 11.34,-34.66 4,-11.17 7.93,-22.53 12.67,-33.33 4.75,-10.79 8.88,-21.76 13.53,-32.47 4.66,-10.7 9.46,-21.47 13.85,-32.15 4.4,-10.68 8.78,-22.12 13.63,-32.38 4.84,-10.25 11.41,-17.45 19.55,-25.44 8.13,-7.99 15.75,-14.05 24.5,-21.5 8.75,-7.44 17.17,-12.18 26.17,-19.83 9,-7.65 18.33,-9.91 27.83,-18.17 9.51,-8.26 19.6,-8.79 29.17,-0.67 9.57,8.13 18.36,11.12 27.38,18.62 9.03,7.49 17.58,12.26 26,20 8.43,7.73 16.73,12.9 24.45,21.55 7.72,8.65 15.12,14.85 19.48,25.52 4.36,10.67 8.76,22.15 12.99,33.01 4.24,10.85 9.25,21.38 13.8,32.2 4.56,10.81 8.87,21.55 13.66,32.34 4.78,10.8 8.47,22.34 12.54,33.46 4.07,11.11 8.4,22.89 11.8,34.2 3.41,11.3 7.18,24.08 11.05,34.95 3.88,10.87 10.01,24.61 3.85,34.99 -6.15,10.39 -12.74,17.18 -19.67,26.33 -6.93,9.15 -13.42,16.82 -20.48,25.52 -7.06,8.7 -12.93,17.27 -20.52,25.48 -7.59,8.21 -15.45,15.21 -22.33,23.67 -6.88,8.46 -14.25,16.33 -21.15,24.85 -6.9,8.52 -13.29,17.52 -19.52,26.48 -6.22,8.97 -12.73,18.58 -16.25,28.75 30.98,-40.15 65.74,-79.09 102,-116 33,30.85 71.5,53.95 109,78 -43.02,7.4 -85.74,30.39 -123.77,51.23 C 612.2,619.06 568.51,628.76 541,663 c -0.64,-26.45 11.98,-56.75 17.68,-82.32 5.7,-25.58 22.65,-42.99 38.02,-62.98 15.36,-19.99 29.24,-37.07 43.55,-57.45 14.3,-20.38 31.45,-46.86 20.75,-72.25 -4.88,58.87 -54.19,101.21 -86,148 3.07,-9.15 8.06,-18.3 12.08,-26.92 4.01,-8.63 8.56,-16.76 12.61,-25.39 4.06,-8.62 8.3,-17.62 11.53,-26.47 3.24,-8.85 9.28,-21.59 4.78,-29.22 -2.44,9.05 -6.5,17.9 -10.69,26.31 -4.2,8.4 -7.03,17.22 -11.54,25.46 -4.51,8.24 -8.49,16.11 -12.46,24.54 -3.98,8.42 -7.69,15.89 -11.54,24.46 -3.85,8.57 -7.85,16.94 -10.99,26.01 -3.15,9.06 -6.93,18.05 -9.46,27.54 -2.52,9.5 -5.45,19.39 -7.99,29.01 -2.54,9.61 -4.14,19.83 -6.4,29.6 -2.27,9.76 -3.6,21.72 -5.6,31.4 -2,9.68 -1.74,29.39 3.75,18.75 5.48,-10.65 6.99,-15.41 13.67,-23.33 6.69,-7.92 11.68,-11.17 19.17,-16.83 7.48,-5.66 15.38,-9.05 23.39,-13.61 8,-4.57 16.75,-8.18 25,-12 8.24,-3.83 16.49,-7.38 24.61,-11.39 8.12,-4.02 16.47,-8.08 24.39,-12.61 7.91,-4.54 16.43,-8.33 24.44,-12.56 8.02,-4.22 15.88,-9.29 24.17,-12.83 8.29,-3.54 15.96,-8.84 24.4,-11.6 8.44,-2.76 18.43,-8.79 27,-10 8.57,-1.21 23.17,-6.74 15.43,-15.07 -7.74,-8.33 -13.85,-9.42 -21.67,-15.33 -7.82,-5.91 -14.45,-8.7 -22,-14 -7.54,-5.3 -14.9,-9.41 -22,-15 -7.1,-5.59 -13.87,-10.67 -20.85,-16.15 C 685.25,473.29 679.38,467.74 672,463 Z"
           id="path2"
           style="fill:#ffffff;stroke:#ffffff;stroke-width:6.3017;stroke-dasharray:none;stroke-opacity:1" />
      </g>
      <g
         fill="None"
         fill-opacity="0"
         stroke="#e6ebee"
         stroke-opacity="1"
         stroke-width="0.3"
         id="g3"
         style="fill:#ffffff;stroke:#ffffff;stroke-width:6.3017;stroke-dasharray:none;stroke-opacity:1">
        <path
           d="m 513,91 c -8.55,5.23 -17.77,10.04 -25,17 6.86,-2.15 13.21,-5.59 20,-8 -0.54,44.79 1.28,90.95 3,136 -15.89,15.6 -40.55,17.88 -61.33,12.33 -20.78,-5.55 -42,6.08 -53.67,22.67 11.99,-9.42 23.75,-18.56 40,-18 16.25,0.56 33,10.97 50,6 -6.63,-1.81 -15.05,-0.92 -22,-3 16.61,-0.33 34.12,-3.13 47,-15 -0.62,3.6 1.62,6.42 1,10 3.16,-1.92 2.26,-6.75 3,-10 12.47,12.81 31.6,15.42 48,14 -7.72,3.45 -17.2,2.15 -25,4 16.16,4.79 32.48,-4.81 48,-5 15.52,-0.19 26.41,9.44 38,17 -7.5,-10.46 -15.35,-15.28 -27.33,-20.67 -11.98,-5.39 -29.87,0.94 -42.67,0.67 -12.8,-0.27 -26.36,-2 -35.25,-12.75 -8.89,-10.75 -1.1,-28.93 -2.75,-43.25 -1.65,-14.32 1.31,-32.07 1,-47 -0.31,-14.93 -1.23,-31.76 -1,-47 7.5,1.26 13.95,5.38 21,8 -5.85,-7.4 -17.11,-11.01 -24,-18 z"
           id="path3"
           style="fill:#ffffff;stroke:#ffffff;stroke-width:6.3017;stroke-dasharray:none;stroke-opacity:1" />
      </g>
      <g
         fill="None"
         fill-opacity="0"
         stroke="#e6ebee"
         stroke-opacity="1"
         stroke-width="0.3"
         id="g4"
         style="fill:#ffffff;stroke:#ffffff;stroke-width:6.3017;stroke-dasharray:none;stroke-opacity:1">
        <path
           d="m 571,155 c -0.48,12.34 6.35,26.8 7,40 0.66,13.2 1.41,28.85 13.75,35.25 12.35,6.39 16.52,15.34 29.25,19.75 -24.99,-27.57 -28.51,-65.51 -50,-95 z"
           id="path4"
           style="fill:#ffffff;stroke:#ffffff;stroke-width:6.3017;stroke-dasharray:none;stroke-opacity:1" />
      </g>
      <g
         fill="None"
         fill-opacity="0"
         stroke="#e6ebee"
         stroke-opacity="1"
         stroke-width="0.3"
         id="g5"
         style="fill:#ffffff;stroke:#ffffff;stroke-width:6.3017;stroke-dasharray:none;stroke-opacity:1">
        <path
           d="m 444,156 c -12.94,12.87 -18.75,30.96 -24.07,47.93 C 414.61,220.9 403.12,235 394,250 c 12.4,-4.91 16.31,-13.04 28.25,-19.75 11.93,-6.71 12.75,-21.1 13.77,-34.23 1.03,-13.12 5.79,-27.06 7.98,-40.02 z"
           id="path5"
           style="fill:#ffffff;stroke:#ffffff;stroke-width:6.3017;stroke-dasharray:none;stroke-opacity:1" />
      </g>
      <g
         fill="None"
         fill-opacity="0"
         stroke="#e6ebee"
         stroke-opacity="1"
         stroke-width="0.3"
         id="g6"
         style="fill:#ffffff;stroke:#ffffff;stroke-width:6.3017;stroke-dasharray:none;stroke-opacity:1">
        <path
           d="m 676,386 c 4.9,-9.99 -2.73,-25.27 -7.08,-35.92 -4.34,-10.66 -9.82,-21.16 -16.17,-30.83 -6.34,-9.68 -12.33,-17.78 -20.5,-26.5 C 624.07,284.04 615.43,276.8 603,275 c -12.43,-1.8 -26.04,4.38 -36.77,10.23 -10.73,5.85 -22.86,9.21 -35.01,11.99 -12.15,2.78 -29.09,3.77 -41.15,-0.29 -12.06,-4.07 -23.63,-6.75 -34.84,-12.16 -11.22,-5.41 -23,-12.25 -35.56,-10.1 -12.56,2.15 -21.42,8.12 -29.92,17.08 -8.5,8.96 -13.53,17.09 -20,27 -6.46,9.92 -12.18,19.44 -16.44,30.56 -4.27,11.11 -10.53,24.64 -7.31,36.69 7.99,-21.32 21.07,-44.92 33.08,-63.92 12.01,-18.99 32.68,-45.81 57.84,-35 25.17,10.8 45.82,22.41 74.08,22.92 28.26,0.51 49.64,-11.87 74.33,-22.67 24.68,-10.8 45.31,16.39 57.42,34.92 12.1,18.54 25.79,42.48 33.25,63.75 z"
           id="path6"
           style="fill:#ffffff;stroke:#ffffff;stroke-width:6.3017;stroke-dasharray:none;stroke-opacity:1" />
      </g>
      <g
         fill="None"
         fill-opacity="0"
         stroke="#e6ebee"
         stroke-opacity="1"
         stroke-width="0.3"
         id="g7"
         style="fill:#ffffff;stroke:#ffffff;stroke-width:6.3017;stroke-dasharray:none;stroke-opacity:1">
        <path
           d="m 454,607 c -30.49,-30.3 -69.66,-53.3 -99,-86 15.02,42.88 60.65,68.24 99,86 z"
           id="path7"
           style="fill:#ffffff;stroke:#ffffff;stroke-width:6.3017;stroke-dasharray:none;stroke-opacity:1" />
      </g>
      <g
         fill="None"
         fill-opacity="0"
         stroke="#e6ebee"
         stroke-opacity="1"
         stroke-width="0.3"
         id="g8"
         style="fill:#ffffff;stroke:#ffffff;stroke-width:6.3017;stroke-dasharray:none;stroke-opacity:1">
        <path
           d="m 673,521 c -15.52,13.72 -32.05,30.25 -48.77,44.23 -16.72,13.98 -37.46,24.45 -50.23,41.77 37.91,-18.46 84.07,-42.93 99,-86 z"
           id="path8"
           style="fill:#ffffff;stroke:#ffffff;stroke-width:6.3017;stroke-dasharray:none;stroke-opacity:1" />
      </g>
      <g
         fill="#E6EBEE"
         fill-opacity="1"
         stroke="None"
         id="g10"
         style="fill:#ffffff;stroke:#ffffff;stroke-width:6.3017;stroke-dasharray:none;stroke-opacity:1">
        <path
           d="m 672,463 c 6.43,-13 17.74,-23.35 26.7,-35.3 8.96,-11.96 21.75,-26.25 16.63,-42.03 -5.13,-15.77 -10.53,-30.98 -15.4,-46.6 -4.88,-15.62 -10.06,-31.25 -15.61,-46.39 -5.55,-15.14 -11.26,-29.82 -17.54,-44.46 -6.29,-14.64 -12.56,-28.93 -18.47,-43.53 -5.92,-14.59 -11.52,-29.58 -18.39,-43.61 -6.87,-14.03 -17.54,-22.37 -28.67,-33.33 -11.14,-10.96 -21.29,-18.49 -33.5,-28.5 -12.22,-10 -24.38,-13.72 -37.05,-24.95 -12.68,-11.23 -28.48,-7.91 -41,2.4 -12.52,10.3 -25.42,14.77 -37.45,24.55 -12.03,9.77 -22.41,17.77 -33.5,28.5 -11.08,10.73 -21.65,19.6 -28.44,33.56 -6.8,13.95 -12.24,29.07 -18.54,43.46 -6.3,14.39 -12.25,28.91 -18.46,43.54 -6.21,14.62 -12.24,29.29 -17.53,44.47 -5.3,15.17 -10.88,31.43 -14.85,47.15 -3.98,15.71 -11.65,32.3 -13.6,48.4 -1.95,16.1 12.39,28.54 20.92,40.42 8.53,11.89 19.63,21.14 27.75,33.25 -8.66,6.67 -16.8,13.73 -25.3,20.7 -8.51,6.96 -17.33,12.04 -25.95,19.05 -8.63,7 -18.75,10.27 -27.5,17.5 -8.76,7.22 -19.54,8.85 -26.95,19.05 -7.41,10.21 14.58,13.82 23.68,16.72 9.1,2.91 22.52,8.21 31.94,13.06 9.42,4.84 21.23,9.94 30.85,15.15 9.62,5.21 19.31,10.85 29.15,15.85 9.84,5.01 19.38,10.76 29.39,15.62 10,4.85 21.23,9.74 31,15 9.76,5.25 20.47,9.4 29.44,15.55 8.98,6.14 17.28,11.97 24.48,20.52 7.2,8.55 12,18.98 15.77,29.23 6.58,-8.28 1.11,-24.11 -0.02,-34.98 -1.14,-10.86 -4.95,-22.36 -6.99,-33.01 -2.04,-10.66 -5.39,-21.46 -8.21,-31.79 -2.82,-10.33 -6.76,-21 -10,-31 -3.25,-9.99 -7.91,-18.65 -11.86,-28.14 -3.94,-9.5 -8.51,-17.79 -13,-27 -4.48,-9.22 -9.02,-18.25 -13.61,-27.39 -4.6,-9.13 -8.85,-17.75 -13,-27 -4.16,-9.24 -8.03,-19.11 -11.31,-28.69 -3.01,19.47 8.94,38.9 16.69,56.31 7.76,17.4 17.08,33.22 24.31,50.69 -31.49,-46.22 -82.4,-88.87 -85,-147 -11.87,25.74 6.14,52.94 20.7,73.3 14.55,20.37 28.6,37.79 44.38,57.62 15.79,19.82 32.3,38.43 38.14,63.86 5.85,25.42 19,54.04 18.78,80.22 C 458.32,628.61 415.76,618.62 378.23,597.77 340.7,576.92 298.5,553.82 256,547 c 36.93,-23.32 74.05,-46.11 107,-76 34.81,37.36 70.29,74.7 100,115 -3.89,-10.28 -9.94,-20.68 -16.25,-29.75 -6.3,-9.07 -13.21,-17.38 -20,-26 -6.78,-8.62 -14.07,-16.55 -21,-25 -6.93,-8.45 -15.57,-15 -22.45,-23.55 -6.87,-8.55 -14.13,-16.22 -21.05,-24.95 -6.91,-8.74 -13.28,-16.56 -20.48,-25.52 -7.2,-8.96 -13.04,-16.05 -20,-26 -6.96,-9.95 -2.07,-25.09 1.3,-36.16 3.37,-11.06 7.5,-23.95 10.61,-35.39 3.1,-11.45 7.35,-23.48 11.34,-34.66 4,-11.17 7.93,-22.53 12.67,-33.33 4.75,-10.79 8.88,-21.76 13.53,-32.47 4.66,-10.7 9.46,-21.47 13.85,-32.15 4.4,-10.68 8.78,-22.12 13.63,-32.38 4.84,-10.25 11.41,-17.45 19.55,-25.44 8.13,-7.99 15.75,-14.05 24.5,-21.5 8.75,-7.44 17.17,-12.18 26.17,-19.83 9,-7.65 18.33,-9.91 27.83,-18.17 9.51,-8.26 19.6,-8.79 29.17,-0.67 9.57,8.13 18.36,11.12 27.38,18.62 9.03,7.49 17.58,12.26 26,20 8.43,7.73 16.73,12.9 24.45,21.55 7.72,8.65 15.12,14.85 19.48,25.52 4.36,10.67 8.76,22.15 12.99,33.01 4.24,10.85 9.25,21.38 13.8,32.2 4.56,10.81 8.87,21.55 13.66,32.34 4.78,10.8 8.47,22.34 12.54,33.46 4.07,11.11 8.4,22.89 11.8,34.2 3.41,11.3 7.18,24.08 11.05,34.95 3.88,10.87 10.01,24.61 3.85,34.99 -6.15,10.39 -12.74,17.18 -19.67,26.33 -6.93,9.15 -13.42,16.82 -20.48,25.52 -7.06,8.7 -12.93,17.27 -20.52,25.48 -7.59,8.21 -15.45,15.21 -22.33,23.67 -6.88,8.46 -14.25,16.33 -21.15,24.85 -6.9,8.52 -13.29,17.52 -19.52,26.48 -6.22,8.97 -12.73,18.58 -16.25,28.75 30.98,-40.15 65.74,-79.09 102,-116 33,30.85 71.5,53.95 109,78 -43.02,7.4 -85.74,30.39 -123.77,51.23 C 612.2,619.06 568.51,628.76 541,663 c -0.64,-26.45 11.98,-56.75 17.68,-82.32 5.7,-25.58 22.65,-42.99 38.02,-62.98 15.36,-19.99 29.24,-37.07 43.55,-57.45 14.3,-20.38 31.45,-46.86 20.75,-72.25 -4.88,58.87 -54.19,101.21 -86,148 3.07,-9.15 8.06,-18.3 12.08,-26.92 4.01,-8.63 8.56,-16.76 12.61,-25.39 4.06,-8.62 8.3,-17.62 11.53,-26.47 3.24,-8.85 9.28,-21.59 4.78,-29.22 -2.44,9.05 -6.5,17.9 -10.69,26.31 -4.2,8.4 -7.03,17.22 -11.54,25.46 -4.51,8.24 -8.49,16.11 -12.46,24.54 -3.98,8.42 -7.69,15.89 -11.54,24.46 -3.85,8.57 -7.85,16.94 -10.99,26.01 -3.15,9.06 -6.93,18.05 -9.46,27.54 -2.52,9.5 -5.45,19.39 -7.99,29.01 -2.54,9.61 -4.14,19.83 -6.4,29.6 -2.27,9.76 -3.6,21.72 -5.6,31.4 -2,9.68 -1.74,29.39 3.75,18.75 5.48,-10.65 6.99,-15.41 13.67,-23.33 6.69,-7.92 11.68,-11.17 19.17,-16.83 7.48,-5.66 15.38,-9.05 23.39,-13.61 8,-4.57 16.75,-8.18 25,-12 8.24,-3.83 16.49,-7.38 24.61,-11.39 8.12,-4.02 16.47,-8.08 24.39,-12.61 7.91,-4.54 16.43,-8.33 24.44,-12.56 8.02,-4.22 15.88,-9.29 24.17,-12.83 8.29,-3.54 15.96,-8.84 24.4,-11.6 8.44,-2.76 18.43,-8.79 27,-10 8.57,-1.21 23.17,-6.74 15.43,-15.07 -7.74,-8.33 -13.85,-9.42 -21.67,-15.33 -7.82,-5.91 -14.45,-8.7 -22,-14 -7.54,-5.3 -14.9,-9.41 -22,-15 -7.1,-5.59 -13.87,-10.67 -20.85,-16.15 C 685.25,473.29 679.38,467.74 672,463 Z"
           id="path10"
           style="fill:#ffffff;stroke:#ffffff;stroke-width:6.3017;stroke-dasharray:none;stroke-opacity:1" />
      </g>
      <g
         fill="#E6EBEE"
         fill-opacity="1"
         stroke="None"
         id="g11"
         style="fill:#ffffff;stroke:#ffffff;stroke-width:6.3017;stroke-dasharray:none;stroke-opacity:1">
        <path
           d="m 513,91 c -8.55,5.23 -17.77,10.04 -25,17 6.86,-2.15 13.21,-5.59 20,-8 -0.54,44.79 1.28,90.95 3,136 -15.89,15.6 -40.55,17.88 -61.33,12.33 -20.78,-5.55 -42,6.08 -53.67,22.67 11.99,-9.42 23.75,-18.56 40,-18 16.25,0.56 33,10.97 50,6 -6.63,-1.81 -15.05,-0.92 -22,-3 16.61,-0.33 34.12,-3.13 47,-15 -0.62,3.6 1.62,6.42 1,10 3.16,-1.92 2.26,-6.75 3,-10 12.47,12.81 31.6,15.42 48,14 -7.72,3.45 -17.2,2.15 -25,4 16.16,4.79 32.48,-4.81 48,-5 15.52,-0.19 26.41,9.44 38,17 -7.5,-10.46 -15.35,-15.28 -27.33,-20.67 -11.98,-5.39 -29.87,0.94 -42.67,0.67 -12.8,-0.27 -26.36,-2 -35.25,-12.75 -8.89,-10.75 -1.1,-28.93 -2.75,-43.25 -1.65,-14.32 1.31,-32.07 1,-47 -0.31,-14.93 -1.23,-31.76 -1,-47 7.5,1.26 13.95,5.38 21,8 -5.85,-7.4 -17.11,-11.01 -24,-18 z"
           id="path11"
           style="fill:#ffffff;stroke:#ffffff;stroke-width:6.3017;stroke-dasharray:none;stroke-opacity:1" />
      </g>
      <g
         fill="#E6EBEE"
         fill-opacity="1"
         stroke="None"
         id="g12"
         style="fill:#ffffff;stroke:#ffffff;stroke-width:6.3017;stroke-dasharray:none;stroke-opacity:1">
        <path
           d="m 571,155 c -0.48,12.34 6.35,26.8 7,40 0.66,13.2 1.41,28.85 13.75,35.25 12.35,6.39 16.52,15.34 29.25,19.75 -24.99,-27.57 -28.51,-65.51 -50,-95 z"
           id="path12"
           style="fill:#ffffff;stroke:#ffffff;stroke-width:6.3017;stroke-dasharray:none;stroke-opacity:1" />
      </g>
      <g
         fill="#E6EBEE"
         fill-opacity="1"
         stroke="None"
         id="g13"
         style="fill:#ffffff;stroke:#ffffff;stroke-width:6.3017;stroke-dasharray:none;stroke-opacity:1">
        <path
           d="m 444,156 c -12.94,12.87 -18.75,30.96 -24.07,47.93 C 414.61,220.9 403.12,235 394,250 c 12.4,-4.91 16.31,-13.04 28.25,-19.75 11.93,-6.71 12.75,-21.1 13.77,-34.23 1.03,-13.12 5.79,-27.06 7.98,-40.02 z"
           id="path13"
           style="fill:#ffffff;stroke:#ffffff;stroke-width:6.3017;stroke-dasharray:none;stroke-opacity:1" />
      </g>
      <g
         fill="#E6EBEE"
         fill-opacity="1"
         stroke="None"
         id="g14"
         style="fill:#ffffff;stroke:#ffffff;stroke-width:6.3017;stroke-dasharray:none;stroke-opacity:1">
        <path
           d="m 676,386 c 4.9,-9.99 -2.73,-25.27 -7.08,-35.92 -4.34,-10.66 -9.82,-21.16 -16.17,-30.83 -6.34,-9.68 -12.33,-17.78 -20.5,-26.5 C 624.07,284.04 615.43,276.8 603,275 c -12.43,-1.8 -26.04,4.38 -36.77,10.23 -10.73,5.85 -22.86,9.21 -35.01,11.99 -12.15,2.78 -29.09,3.77 -41.15,-0.29 -12.06,-4.07 -23.63,-6.75 -34.84,-12.16 -11.22,-5.41 -23,-12.25 -35.56,-10.1 -12.56,2.15 -21.42,8.12 -29.92,17.08 -8.5,8.96 -13.53,17.09 -20,27 -6.46,9.92 -12.18,19.44 -16.44,30.56 -4.27,11.11 -10.53,24.64 -7.31,36.69 7.99,-21.32 21.07,-44.92 33.08,-63.92 12.01,-18.99 32.68,-45.81 57.84,-35 25.17,10.8 45.82,22.41 74.08,22.92 28.26,0.51 49.64,-11.87 74.33,-22.67 24.68,-10.8 45.31,16.39 57.42,34.92 12.1,18.54 25.79,42.48 33.25,63.75 z"
           id="path14"
           style="fill:#ffffff;stroke:#ffffff;stroke-width:6.3017;stroke-dasharray:none;stroke-opacity:1" />
      </g>
      <g
         fill="#E6EBEE"
         fill-opacity="1"
         stroke="None"
         id="g15"
         style="fill:#ffffff;stroke:#ffffff;stroke-width:6.3017;stroke-dasharray:none;stroke-opacity:1">
        <path
           d="m 454,607 c -30.49,-30.3 -69.66,-53.3 -99,-86 15.02,42.88 60.65,68.24 99,86 z"
           id="path15"
           style="fill:#ffffff;stroke:#ffffff;stroke-width:6.3017;stroke-dasharray:none;stroke-opacity:1" />
      </g>
      <g
         fill="#E6EBEE"
         fill-opacity="1"
         stroke="None"
         id="g16"
         style="fill:#ffffff;stroke:#ffffff;stroke-width:6.3017;stroke-dasharray:none;stroke-opacity:1">
        <path
           d="m 673,521 c -15.52,13.72 -32.05,30.25 -48.77,44.23 -16.72,13.98 -37.46,24.45 -50.23,41.77 37.91,-18.46 84.07,-42.93 99,-86 z"
           id="path16"
           style="fill:#ffffff;stroke:#ffffff;stroke-width:6.3017;stroke-dasharray:none;stroke-opacity:1" />
      </g>
    </g>
  </g>
</svg>
