<?xml version="1.0" encoding="UTF-8" standalone="no"?>
<svg
   width="500"
   height="500"
   version="1.1"
   id="svg26"
   sodipodi:docname="9c7a283f-3779-472b-a2cd-dac54c9ab872.svg"
   inkscape:export-filename="..\..\..\xampp\htdocs\rpg\icons\market.svg"
   inkscape:export-xdpi="96"
   inkscape:export-ydpi="96"
   xmlns:inkscape="http://www.inkscape.org/namespaces/inkscape"
   xmlns:sodipodi="http://sodipodi.sourceforge.net/DTD/sodipodi-0.dtd"
   xmlns="http://www.w3.org/2000/svg"
   xmlns:svg="http://www.w3.org/2000/svg">
  <defs
     id="defs26" />
  <sodipodi:namedview
     id="namedview26"
     pagecolor="#505050"
     bordercolor="#eeeeee"
     borderopacity="1"
     inkscape:showpageshadow="0"
     inkscape:pageopacity="0"
     inkscape:pagecheckerboard="0"
     inkscape:deskcolor="#505050" />
  <path
     id="path2"
     style="fill:#ffffff;stroke-width:0.938695"
     d="M 65.541944,55.157229 C 43.844531,86.147542 23.460385,118.06229 1.9384281,149.1709 c 0.055385,11.70154 -0.663005,23.71431 -0.00781,35.36328 4.3667073,5.70327 8.7424749,11.81823 15.2089839,15.29492 l -0.07226,233.16797 c -5.616094,0.0169 -11.3315947,0.24929 -16.9335939,-0.10742 L 9.2810194e-4,444.77832 442.27437,444.73535 c 19.01655,0.0376 38.04658,-0.1648 57.06055,0.10742 0.83145,-2.06771 0.89708,-8.681 0.11914,-10.77148 -0.16052,-0.42991 -0.26579,-0.56493 -0.51172,-0.98828 l -23.63477,-0.22461 0.0781,-149.94141 c 0.008,-26.44795 -0.55039,-53.05699 0.30664,-79.48242 6.228,-1.50097 19.17775,-12.14852 21.86523,-18.02734 0.0695,-0.15206 0.0758,-0.32589 0.11328,-0.48828 1.0964,-2.83675 1.61178,-32.91406 0.38867,-35.31055 -0.10233,-0.19901 -0.22025,-0.38991 -0.33007,-0.58398 -0.0385,-0.50876 -0.0458,-0.91519 -0.28516,-1.37891 -1.27663,-2.48003 -3.52608,-4.93886 -5.14063,-7.24805 -3.94729,-5.68325 -7.86022,-11.3909 -11.73828,-17.12109 -10.29036,-15.1697 -20.49921,-30.394848 -30.625,-45.673828 -4.9786,-7.44737 -10.27711,-14.757489 -15.06445,-22.322266 l -254.94336,-0.07031 -75.87109,-0.0078 c -12.796056,9.4e-4 -25.738573,0.396241 -38.519536,-0.04492 z m 216.343756,11.126953 46.55468,0.154297 c 5.9654,17.860112 11.03702,36.103711 16.37891,54.162111 3.00664,10.16209 7.00211,20.81723 8.9668,31.19336 0.65239,3.44666 0.74112,6.88248 0.78711,10.3789 0.14644,11.00222 -1.07419,17.71349 -9.01368,25.88086 -0.64435,0.61078 -1.3138,1.1943 -2.00781,1.75 -0.69338,0.55508 -1.40929,1.08117 -2.14648,1.57617 -0.73718,0.49564 -1.49354,0.9582 -2.26953,1.39063 -0.77599,0.43242 -1.56912,0.83312 -2.37891,1.19922 -0.80915,0.36608 -1.63143,0.69689 -2.46875,0.99414 -0.83669,0.29725 -1.68571,0.55994 -2.54492,0.78711 -0.85859,0.22653 -1.72475,0.41636 -2.59961,0.57031 -0.87487,0.15457 -1.7538,0.27278 -2.63867,0.35352 -8.58415,0.85775 -17.22354,-1.44725 -23.90235,-6.99024 -4.41728,-3.66654 -8.41787,-9.08513 -9.96484,-14.67578 -1.8098,-6.54061 -0.12692,-16.87685 -0.87109,-24.13086 -2.89588,-28.23248 -7.18891,-56.333109 -9.88086,-84.593748 z m 107.53515,0.08789 39.91211,0.158203 c 10.36673,15.744326 21.16887,31.216245 31.61914,46.908205 8.7184,13.09251 17.06268,26.75044 26.8418,39.07812 -0.046,6.70791 0.51257,13.57155 0.0234,20.25391 -0.55476,7.55816 -4.54976,12.43987 -10.0625,17.26758 -4.53485,3.18572 -8.88109,5.28575 -14.44922,5.97851 -8.45744,1.05322 -17.41146,-1.18207 -24.0957,-6.54297 -10.50003,-8.42082 -10.13745,-16.89242 -9.9375,-29.08398 0.0505,-3.08738 0.15291,-6.18256 -0.72852,-9.17773 -1.94872,-6.62625 -6.56778,-13.7813 -9.72461,-19.97461 -8.13075,-15.99078 -16.41899,-31.90066 -24.86328,-47.72852 -2.01914,-3.78764 -7.76216,-12.85989 -8.16016,-16.382812 1.02318,-0.824173 2.3709,-0.704156 3.625,-0.753907 z m -188.16992,0.02539 c 7.91203,0.01971 15.82461,0.08462 23.73633,0.197266 -2.06512,13.671863 -3.2876,27.674123 -4.87305,41.425782 -1.70655,14.80652 -3.76603,29.61667 -5.27734,44.4375 -0.77723,7.62479 0.79656,15.90318 -1.53516,23.27734 -2.55607,8.08193 -9.06069,14.04791 -16.36914,17.89844 -6.60162,2.41057 -13.93087,3.59706 -20.90234,2.10547 -8.17767,-1.74972 -15.32906,-7.05186 -19.80078,-14.04492 -5.14592,-8.04743 -5.17235,-19.22295 -3.94922,-28.44727 0.98093,-7.39575 3.96376,-14.89304 6.08593,-22.06445 l 12.1211,-40.601559 c 2.40212,-7.95638 5.24844,-15.984971 7.02539,-24.103521 7.91235,-0.07322 15.82625,-0.09979 23.73828,-0.08008 z m -130.343751,0.144531 45.636721,0.0098 c -4.64842,9.532207 -9.99544,18.785038 -14.99024,28.144528 -5.902883,11.190259 -11.711696,22.429609 -17.423825,33.718749 -3.688038,7.14885 -8.740902,14.9459 -11.322266,22.53125 -2.657375,7.80971 0.835665,16.72552 -1.6875,24.78516 -2.40111,7.66983 -8.98734,14.07887 -15.93164,17.72265 -1.093869,0.46559 -2.207976,0.87416 -3.34375,1.22461 -1.135797,0.35044 -2.286687,0.64018 -3.453125,0.8711 -1.165836,0.23154 -2.341407,0.4022 -3.525391,0.51171 -1.183357,0.1089 -2.369603,0.15768 -3.558594,0.14454 -8.183353,-0.0498 -16.08624,-2.99023 -21.851562,-8.89649 -9.439304,-9.66833 -6.987891,-22.42872 -6.785157,-34.79297 3.600763,-4.52428 6.689301,-9.45322 9.951172,-14.22461 L 43.038038,107.95801 C 52.270829,94.216681 62.509802,80.785591 70.907179,66.543948 Z M 147.7646,188.54785 c 1.16117,0.90491 2.13295,2.48155 3.12891,3.59766 2.70813,3.03386 5.46642,5.50373 8.89453,7.72656 10.73678,6.96134 21.40757,8.15449 33.76172,5.47266 -0.18117,2.64146 -0.17138,5.25718 -0.13477,7.90429 -11.98335,0.4731 -24.10513,0.13049 -36.10351,0.1211 l -64.253911,-0.11719 c -9.96204,0.12328 -19.922725,0.11766 -29.884765,-0.0156 l 0.01563,-12.00782 c 5.685666,-3.47972 10.237115,-6.93416 14.226562,-12.32226 1.815432,2.24724 3.650007,4.40363 5.794922,6.34765 8.660385,7.84561 19.756932,11.99544 31.451182,11.34961 14.19866,-0.78287 23.89305,-7.8446 33.10351,-18.05664 z m 210.02344,4.22461 c 1.51036,5.43035 0.49761,28.84309 0.46289,36.06055 4.19971,1.33295 7.64364,3.12625 10.62305,6.44922 0.22591,0.25157 0.44543,0.50928 0.6582,0.77148 0.21277,0.26221 0.41951,0.52856 0.61914,0.80078 0.19963,0.27222 0.39226,0.5498 0.57813,0.83203 0.18523,0.28224 0.36368,0.56839 0.53515,0.85938 0.17147,0.29099 0.33512,0.58759 0.49219,0.88672 0.15645,0.29975 0.30583,0.60155 0.44727,0.9082 0.14205,0.30663 0.27655,0.61679 0.40234,0.92969 0.12641,0.31352 0.24533,0.63006 0.35547,0.94922 0.11014,0.31915 0.21215,0.642 0.30664,0.96679 0.0945,0.32416 0.1802,0.64997 0.25781,0.97852 0.0782,0.32854 0.14766,0.65793 0.20899,0.99023 0.0619,0.3323 0.1157,0.66716 0.16015,1.00196 0.0451,0.33417 0.0812,0.66918 0.10938,1.00586 0.0281,0.33668 0.0473,0.67378 0.0586,1.01172 0.0113,0.3373 0.015,0.67573 0.01,1.01367 -0.005,0.3373 -0.0188,0.67441 -0.041,1.01172 -0.0156,0.31415 -0.0404,0.62718 -0.0723,0.93945 -0.0313,0.3129 -0.0702,0.6232 -0.11719,0.93359 -0.0469,0.31102 -0.10149,0.6218 -0.16407,0.92969 -0.0624,0.30789 -0.13335,0.6132 -0.21093,0.91797 -0.0782,0.30413 -0.16324,0.60782 -0.25586,0.9082 -0.0932,0.30038 -0.19314,0.59721 -0.30078,0.89258 -0.10764,0.29475 -0.22305,0.58721 -0.34571,0.87695 -0.12203,0.28912 -0.25162,0.57589 -0.38867,0.85938 -0.13642,0.28286 -0.28082,0.56191 -0.43164,0.83789 -0.15019,0.27535 -0.30612,0.54794 -0.4707,0.81641 -0.16397,0.26784 -0.33595,0.52998 -0.51367,0.78906 -0.17711,0.2597 -0.3607,0.5153 -0.55078,0.76562 -0.19025,0.25032 -0.38576,0.49602 -0.5879,0.73633 -0.20212,0.2403 -0.41034,0.47478 -0.625,0.70508 -0.21402,0.22967 -0.43487,0.45479 -0.66015,0.67383 -0.22529,0.21902 -0.45548,0.43286 -0.69141,0.64062 -4.59193,4.05235 -9.74136,5.27231 -15.72461,4.92969 -2.39555,-0.36891 -4.78361,-1.08533 -6.92383,-2.23242 -0.29538,-0.1577 -0.58776,-0.32205 -0.875,-0.49414 -0.28724,-0.1721 -0.56918,-0.3521 -0.84765,-0.53906 -0.27785,-0.1865 -0.55184,-0.37983 -0.82031,-0.58008 -0.26847,-0.20026 -0.53124,-0.40708 -0.78907,-0.6211 -0.25845,-0.21339 -0.51124,-0.43361 -0.75781,-0.66015 -0.24656,-0.22654 -0.48736,-0.45821 -0.72266,-0.69727 -0.23467,-0.23843 -0.46276,-0.48406 -0.68554,-0.73437 -0.22278,-0.25032 -0.43879,-0.50467 -0.64844,-0.76563 -0.20964,-0.26095 -0.41288,-0.52723 -0.60938,-0.79883 -0.19634,-0.2716 -0.38624,-0.54925 -0.56835,-0.83007 -0.1821,-0.28098 -0.35721,-0.56573 -0.52539,-0.85547 -0.16772,-0.28975 -0.32777,-0.58299 -0.48047,-0.88086 -0.15332,-0.29851 -0.29983,-0.60086 -0.4375,-0.90625 -0.13768,-0.30476 -0.26665,-0.61352 -0.38868,-0.92578 -0.12266,-0.31166 -0.23603,-0.62742 -0.34179,-0.94532 -0.10639,-0.31728 -0.20481,-0.63607 -0.29492,-0.95898 -1.44277,-5.11588 -0.8763,-10.54249 1.80273,-15.1543 3.24601,-5.58696 7.76849,-8.32336 13.86719,-9.92383 -0.0281,-10.41655 0.59366,-20.94778 0.0371,-31.34179 2.31373,-1.5451 4.58653,-3.15549 6.87695,-4.73438 z m 81.625,8.72266 c 8.09235,4.49057 15.53141,5.54721 24.6582,4.97461 l -0.125,154.88867 c 0.10138,23.86386 0.0426,47.72737 -0.17382,71.58984 -7.76207,0.93775 -16.62648,-0.0509 -24.47852,-0.19922 0.7397,-27.37287 0.15504,-54.86975 0.125,-82.2539 z m -411.253908,3.68554 c 8.559954,1.49722 15.449765,2.23191 23.984375,0.0156 l -0.138672,222.70313 c 0.01971,1.68963 -0.04034,3.16482 -0.386719,4.83007 -2.165568,1.07575 -19.857911,0.3015 -23.52539,0.29493 -0.6186,-41.1655 -0.125739,-82.39637 -0.0957,-123.57032 0.02535,-34.73732 -0.524075,-69.54644 0.16211,-104.27344 z m 224.921878,0.92188 c 2.37677,0.22528 4.68977,0.1304 7.07031,0.0215 0.76033,7.51707 0.45163,15.15853 0.14844,22.69532 1.92996,0.42617 3.75132,0.88159 5.52734,1.77148 0.2935,0.14518 0.58183,0.29683 0.86719,0.45703 0.28537,0.15958 0.56848,0.32736 0.8457,0.50196 0.27723,0.17397 0.5499,0.35522 0.81836,0.54296 0.26785,0.18837 0.52929,0.38311 0.78711,0.58399 0.25845,0.20151 0.51195,0.4077 0.75977,0.62109 0.24781,0.21402 0.49001,0.43557 0.72656,0.66211 0.23655,0.22591 0.46675,0.45751 0.69141,0.69531 0.22528,0.23781 0.44543,0.48141 0.6582,0.73047 0.21215,0.24908 0.41693,0.50265 0.61719,0.76172 0.19962,0.25908 0.39378,0.52388 0.58007,0.79297 0.1865,0.26909 0.36635,0.54183 0.53907,0.82031 0.17272,0.27786 0.33777,0.56105 0.49609,0.84766 0.15833,0.28662 0.30982,0.57565 0.45313,0.86914 0.14392,0.29413 0.27928,0.59157 0.4082,0.89258 0.12829,0.301 0.24938,0.60484 0.36328,0.91211 0.11326,0.30727 0.21877,0.61742 0.31641,0.92969 0.10325,0.32459 0.19879,0.65129 0.28515,0.98046 0.0864,0.32918 0.16428,0.6606 0.23438,0.99414 0.0695,0.33356 0.13041,0.66981 0.18359,1.00586 0.0532,0.33668 0.0985,0.67317 0.13477,1.01172 0.0357,0.33856 0.0632,0.67777 0.082,1.01758 0.0194,0.34043 0.0294,0.68124 0.0312,1.02148 0.002,0.34044 -0.004,0.68106 -0.0195,1.02149 -0.015,0.33981 -0.0397,0.67839 -0.0723,1.01758 -0.0319,0.33918 -0.0716,0.67699 -0.12109,1.01367 -0.0495,0.3373 -0.10752,0.67426 -0.17383,1.00781 -0.0663,0.33417 -0.142,0.66568 -0.22461,0.9961 -0.0832,0.33042 -0.17393,0.65895 -0.27344,0.98437 -0.0989,0.32603 -0.20649,0.64834 -0.32226,0.96875 -0.11578,0.32041 -0.23968,0.63765 -0.3711,0.95117 -0.13204,0.31416 -0.2711,0.62438 -0.41796,0.93164 -0.14706,0.30726 -0.30214,0.61102 -0.46485,0.91016 -2.7776,5.16543 -6.99649,8.1374 -12.54492,9.75195 -4.29077,0.9922 -8.75445,0.71085 -12.81055,-1.05859 -0.30163,-0.13267 -0.6004,-0.27418 -0.89453,-0.42188 -0.29412,-0.14768 -0.58447,-0.30275 -0.87109,-0.46484 -0.28662,-0.16208 -0.56918,-0.33134 -0.84766,-0.50781 -0.27786,-0.17585 -0.55122,-0.35858 -0.82031,-0.54883 -0.26909,-0.18961 -0.53389,-0.38513 -0.79297,-0.58789 -0.25908,-0.20338 -0.51265,-0.413 -0.76172,-0.62891 -0.24845,-0.21589 -0.49071,-0.43822 -0.72851,-0.66601 -0.2378,-0.2278 -0.4694,-0.46169 -0.69532,-0.70117 -0.22591,-0.23906 -0.44613,-0.48343 -0.66015,-0.73438 -0.2134,-0.25032 -0.42022,-0.50662 -0.6211,-0.76758 -0.20088,-0.26095 -0.39624,-0.52653 -0.58398,-0.79687 -0.18773,-0.27035 -0.369,-0.5445 -0.54297,-0.82422 -0.17397,-0.27973 -0.33979,-0.5637 -0.5,-0.85156 -0.15958,-0.28787 -0.31184,-0.57962 -0.45703,-0.875 -0.14518,-0.29538 -0.2839,-0.59556 -0.41406,-0.89844 -0.13017,-0.30226 -0.25205,-0.6075 -0.36719,-0.91602 -0.1164,-0.31728 -0.22542,-0.63759 -0.32617,-0.96093 -0.10076,-0.32291 -0.19287,-0.64732 -0.27735,-0.97461 -0.0845,-0.3273 -0.16225,-0.65661 -0.23047,-0.98829 -0.0682,-0.33104 -0.12774,-0.66519 -0.17968,-1 -0.0513,-0.33417 -0.0938,-0.6698 -0.12891,-1.00586 -0.035,-0.33648 -0.0619,-0.67378 -0.0801,-1.01171 -0.0187,-0.33793 -0.028,-0.67574 -0.0293,-1.01368 -0.002,-0.33855 0.004,-0.67573 0.0195,-1.01367 0.015,-0.33792 0.0384,-0.67504 0.0703,-1.01172 0.0319,-0.33668 0.0722,-0.67301 0.12109,-1.00781 0.0488,-0.33481 0.10678,-0.66833 0.17188,-1 0.0651,-0.3323 0.13737,-0.66231 0.21875,-0.99023 0.082,-0.32854 0.1719,-0.65435 0.26953,-0.97852 0.0976,-0.32353 0.20447,-0.64436 0.31836,-0.96289 0.11327,-0.31853 0.23374,-0.63437 0.36328,-0.94727 0.12953,-0.31208 0.26755,-0.62172 0.41211,-0.92773 2.9644,-6.15201 7.93954,-9.037 14.1582,-11.18359 -0.15582,-7.48828 -0.19681,-14.97746 -0.12109,-22.4668 z M 89.690382,226.18457 c 7.032911,0.0215 14.067428,0.0837 21.087888,0.0781 l 82.43555,0.0254 c 0.34732,25.04426 0.0478,50.12978 0.0469,75.17968 l -0.11719,131.59766 c -3.90935,0.0281 -7.81979,-0.0108 -11.72852,-0.11719 0.65897,-60.56156 0.066,-121.18968 0.0293,-181.75781 l -0.0684,-12.40039 c -18.04539,0.98094 -36.54593,0.21998 -54.62891,0.22656 -15.14202,0.005 -30.717245,0.905 -45.808591,-0.14258 l -0.02734,193.98633 c -4.051392,0.008 -8.109702,0.18243 -12.160156,0.29883 -0.567911,-21.96258 -0.08021,-44.06937 -0.08398,-66.04883 l -0.05664,-140.76562 c 7.015781,-0.16287 14.047166,-0.18162 21.080078,-0.16016 z m 305.999998,11.26758 c 2.96736,0.0194 6.12453,1.17467 8.26563,3.22851 6.30695,6.0527 4.15583,24.57371 4.12109,33.24805 l -9.8789,0.10156 -15.26172,0.041 c -9.4e-4,-7.64458 -1.65845,-23.83132 1.84179,-30.15234 2.11676,-3.82143 5.14155,-5.22822 9.13086,-6.38282 0.39613,-0.0313 0.79402,-0.056 1.19141,-0.0723 0.19578,-0.009 0.39202,-0.013 0.58984,-0.0117 z m -82.65429,0.13086 c 3.29741,0.0312 6.37641,0.96766 8.79297,3.36133 6.10228,6.0469 3.89889,24.55774 3.91015,33.02929 l -11.02148,0.0937 -13.96485,-0.084 c 0.27222,-7.92805 -2.00606,-25.43844 2.51563,-31.63477 2.36552,-3.24114 5.34599,-4.20312 9.10547,-4.75976 0.22165,-0.006 0.44227,-0.008 0.66211,-0.006 z m -82.17383,13.37305 c 1.18558,1.91475 1.50119,5.25247 2.16016,7.51171 2.71451,9.30154 8.38555,9.70301 14.9121,14.97266 0.0882,0.0714 0.17442,0.14646 0.26172,0.21875 -4.80499,1.39021 -12.39852,0.39132 -17.5039,0.33594 -0.005,-7.67552 -0.11262,-15.3673 0.16992,-23.03906 z m 47.51758,11.875 c 0.78944,3.56122 0.50076,7.56101 0.51953,11.19921 l -13.83008,0.10938 -0.29687,-0.81836 c 0.56773,-0.45246 1.03576,-0.83103 1.72851,-1.07227 0.34826,-0.12204 0.70533,-0.22187 1.05078,-0.34765 4.00447,-1.45592 8.94698,-5.2547 10.82813,-9.07031 z m 76.07617,27.6621 c 3.45369,0.0303 6.69282,0.78211 9.35156,3.3086 1.79197,1.7028 2.99284,3.89126 3.58985,6.2793 1.54497,6.18306 0.40999,22.18764 0.40624,29.4746 l -9.33007,-0.043 -15.7168,0.0801 c -0.3248,-7.03352 -1.67301,-25.57262 1.00977,-31.46093 1.90637,-4.18377 5.0934,-6.12632 9.19726,-7.61133 0.50103,-0.0221 0.9988,-0.0316 1.49219,-0.0274 z m -78.44141,0.004 c 3.48463,-0.01 6.67926,0.92333 9.24805,3.46485 0.4487,0.45298 0.86436,0.93465 1.24609,1.44531 0.38174,0.51002 0.72531,1.04469 1.03321,1.60351 0.30789,0.55822 0.57689,1.13676 0.80468,1.73242 0.22716,0.59514 0.41138,1.20281 0.55469,1.82422 1.58828,6.61405 0.43424,21.62071 0.35352,29.11328 l -9.87891,-0.0937 -15.67187,-0.10352 c 0.0338,-7.91404 -1.75496,-25.91312 1.82617,-32.375 2.03415,-3.67029 5.25157,-5.4862 9.18554,-6.57227 l 0.59766,-0.0254 c 0.23479,-0.009 0.46886,-0.013 0.70117,-0.0137 z m 117.55664,0.0274 c 4.0026,-0.0413 7.59673,0.91001 10.47852,3.9082 1.73564,1.80605 2.92371,4.17425 3.50195,6.60547 1.59953,6.71529 0.38081,21.03749 0.42774,28.57226 l -9.49414,-0.0527 -16.23633,0.0996 c -0.008,-7.66432 -1.63942,-25.47264 1.27148,-31.78711 1.7854,-3.87117 4.88773,-5.89558 8.76172,-7.27735 0.43368,-0.0367 0.85257,-0.0638 1.28906,-0.0684 z m -157.26758,0.0312 c 3.68448,0 7.1454,0.93764 9.8418,3.66211 6.32493,6.38877 3.9891,26.33045 3.83985,35.36719 l -9.37891,0.0274 -15.89258,0.0645 c 0.0808,-7.75822 -1.58959,-25.78659 1.4668,-32.08984 1.90085,-3.91812 4.95574,-5.73456 8.91601,-6.99805 0.15582,-0.007 0.31004,-0.0158 0.4668,-0.0215 0.24746,-0.008 0.49468,-0.0117 0.74023,-0.0117 z m 79.13477,0.11329 c 3.69565,0.17366 7.11484,0.99121 9.81641,3.72656 1.70654,1.7272 2.79066,3.93575 3.31445,6.28906 1.41273,6.34829 0.3064,21.6538 0.25195,28.94922 l -12.35351,-0.0488 -13.00196,-0.0625 c 0.13424,-8.2069 -2.08703,-27.91934 2.58204,-34.15039 2.50621,-3.34645 5.47344,-4.24597 9.39062,-4.70312 z m -148.33008,28.04101 c 1.82262,-0.0256 3.65981,0.0508 5.47266,0.0762 l -0.0469,30.80664 -6.69726,0.0566 c -3.12492,-0.86079 -4.52141,-2.77186 -6.48047,-5.17774 -0.0357,-6.33522 -1.38099,-14.58876 0.625,-20.61328 0.92274,-2.77384 2.87932,-3.8346 5.31055,-5.08398 0.60287,-0.0371 1.20886,-0.0559 1.8164,-0.0645 z m 76.75196,28.02344 c 3.45759,-0.0255 6.66495,0.19056 8.39062,1.00781 1.15273,0.54538 1.31731,1.07908 1.6543,2.24024 -0.24595,1.44458 -0.71878,2.23768 -1.61524,3.38476 -4.88301,0.0826 -16.152,1.26036 -20.2832,-0.61328 -1.1255,-0.51065 -1.41139,-1.02391 -1.85352,-2.125 0.14174,-1.5939 0.68695,-2.19655 1.73829,-3.36523 2.66218,-0.0655 7.52318,-0.49657 11.96875,-0.5293 z m 40.79687,0.0527 c 3.58897,-0.0355 6.93389,0.14532 8.84766,0.86524 1.24753,0.46935 1.5659,0.97228 2.13476,2.125 -0.0169,1.54603 -0.4839,2.33497 -1.34375,3.59375 -5.71846,0.11453 -14.43273,1.1818 -19.75976,-0.0742 -1.60705,-0.37923 -2.27109,-0.74445 -3.13282,-2.15625 -0.26659,-1.5892 0.0702,-2.38667 0.71875,-3.83789 2.90144,-0.0671 7.92083,-0.47003 12.53516,-0.51563 z m 114.03516,0.002 c 3.53183,-0.0375 6.79262,0.16488 8.51172,1.0039 1.0954,0.53411 1.28568,1.06817 1.61328,2.17578 -0.20276,1.46812 -0.67302,2.34111 -1.5,3.5586 -5.78519,-0.14831 -13.94143,1.00481 -19.36328,-0.25586 -1.59859,-0.37172 -2.14334,-0.81945 -2.96094,-2.17774 -0.0525,-1.50937 0.70328,-2.55841 1.43359,-3.8125 2.73618,0.002 7.72464,-0.44395 12.26563,-0.49218 z m -177.66407,19.80273 c 15.53194,-0.12216 31.13387,0.22123 46.61524,0.22266 l 130.14062,-0.0508 30.06446,0.0566 -0.0312,66.19726 c -63.77371,-0.68056 -127.59275,0.33882 -191.37305,-0.0254 -10.31621,-0.0813 -20.63301,-0.0616 -30.94922,0.0586 -0.12829,-22.05048 -0.11831,-44.10187 0.0312,-66.15235 5.15508,-0.17413 10.32467,-0.26592 15.50195,-0.30664 z" />
  <rect
     style="fill:#ffffff;stroke-width:4.2;stroke-linecap:round;stroke-linejoin:round;stroke-miterlimit:20"
     id="rect26"
     width="1"
     height="1"
     x="0"
     y="0"
     rx="0.5" />
  <rect
     style="fill:#ffffff;stroke-width:4.2;stroke-linecap:round;stroke-linejoin:round;stroke-miterlimit:20"
     id="rect27"
     width="1"
     height="1"
     x="499"
     y="499"
     rx="0.5" />
</svg>
