<?xml version="1.0" encoding="UTF-8" standalone="no"?>
<!-- Created with Inkscape (http://www.inkscape.org/) -->

<svg
   width="500"
   height="500"
   viewBox="0 0 132.29167 132.29167"
   version="1.1"
   id="svg1"
   xml:space="preserve"
   inkscape:export-filename="market.svg"
   inkscape:export-xdpi="96"
   inkscape:export-ydpi="96"
   sodipodi:docname="merchant.svg"
   xmlns:inkscape="http://www.inkscape.org/namespaces/inkscape"
   xmlns:sodipodi="http://sodipodi.sourceforge.net/DTD/sodipodi-0.dtd"
   xmlns="http://www.w3.org/2000/svg"
   xmlns:svg="http://www.w3.org/2000/svg"><sodipodi:namedview
     id="namedview1"
     pagecolor="#505050"
     bordercolor="#eeeeee"
     borderopacity="1"
     inkscape:showpageshadow="0"
     inkscape:pageopacity="0"
     inkscape:pagecheckerboard="0"
     inkscape:deskcolor="#505050"
     inkscape:document-units="px"
     showgrid="false"
     showguides="true"><inkscape:grid
       id="grid86"
       units="px"
       originx="-57.927224"
       originy="-1.9921874"
       spacingx="0.26458334"
       spacingy="0.26458334"
       empcolor="#0099e5"
       empopacity="0.30196078"
       color="#0099e5"
       opacity="0.14901961"
       empspacing="5"
       dotted="false"
       gridanglex="30"
       gridanglez="30"
       visible="false" /></sodipodi:namedview><defs
     id="defs1" /><g
     inkscape:label="Warstwa 1"
     inkscape:groupmode="layer"
     id="layer1"
     transform="translate(-15.326578,-0.52709961)"><path
       id="rect95"
       style="fill:#ffffff;stroke-width:1.11125;stroke-linecap:round;stroke-linejoin:round;stroke-miterlimit:20"
       d="m 81.472448,1.0541994 c 0,0 -1.177298,0.026929 -1.765267,0.056327 -0.96653,0.048326 -1.940231,0.048108 -2.896464,0.1968872 -1.12737,0.1754063 -2.265216,0.3909637 -3.323828,0.8164876 -1.304735,0.5244562 -2.537914,1.2533945 -3.653524,2.109432 -1.107686,0.8499577 -2.962093,2.9615764 -2.962093,2.9615764 l -0.05116,-0.053743 c -0.01572,-0.016663 -0.03167,-0.033068 -0.04754,-0.049609 l -0.07286,-0.076481 0.0047,0.00775 C 66.234669,6.5442067 65.707585,6.1143946 65.178869,5.7086958 63.4889,4.4119364 61.678816,3.1447479 59.644323,2.5135419 57.860213,1.9600177 55.879431,1.6636701 54.057584,2.0763593 52.562408,2.41505 51.007629,3.1597059 50.074364,4.3759606 c -0.866226,1.1288882 -1.104842,2.7003302 -1.104842,4.1232626 0,1.7311298 0.681629,3.4173928 1.344104,5.0167478 2.296078,5.54322 8.999968,15.588196 8.999968,15.588196 h -1.102259 c -2.137697,0 -3.858679,1.720982 -3.858679,3.85868 v 0.220141 c 0,2.137698 1.720982,3.85868 3.858679,3.85868 h 45.199315 c 2.13769,0 3.85867,-1.720982 3.85867,-3.85868 v -0.220141 c 0,-2.056768 -1.5979,-3.711338 -3.62251,-3.834908 0.047,-0.0705 6.6965,-10.041829 8.98446,-15.565459 0.66248,-1.599349 1.34411,-3.285107 1.34411,-5.0162312 0,-1.4229284 -0.23862,-2.9943782 -1.10485,-4.1232626 -0.93325,-1.2162511 -2.48804,-1.960912 -3.98322,-2.2996013 -0.68319,-0.1547582 -1.38837,-0.2099468 -2.09754,-0.1891358 -1.18196,0.034685 -2.37413,0.2803666 -3.4892,0.6263184 -2.03448,0.6312042 -3.844579,1.8983984 -5.534542,3.1951539 -0.563756,0.4325837 -1.119203,0.8979547 -1.611271,1.4154175 L 96.245187,7.0150761 96.073622,7.19491 c 0,0 -1.854409,-2.1116195 -2.962094,-2.9615764 C 91.995926,3.377297 90.762738,2.6483573 89.458008,2.1239016 88.399397,1.6983781 87.261548,1.4828201 86.134179,1.307414 85.177947,1.1586345 84.204244,1.1588527 83.237715,1.1105268 82.64975,1.0811288 81.472448,1.0541994 81.472448,1.0541994 Z m 0,3.4959108 c 0,0 2.707062,-0.03092 4.03903,0.1736328 1.059253,0.1626707 2.115142,0.422397 3.105237,0.8325073 0.813316,0.3368869 1.58879,0.7844238 2.287199,1.3203329 1.285326,0.9862645 3.437,3.4369998 3.437,3.4369998 l 0.07441,-0.129191 c -0.766818,2.021584 -1.332735,4.371309 -1.332735,4.371309 l -1.924431,7.871871 -1.419035,6.676595 H 73.215588 l -1.428854,-6.723104 -1.92443,-7.872388 c 0,0 -0.53647,-2.236499 -1.274858,-4.223514 l 0.01654,0.02842 c 0,0 2.151675,-2.4507343 3.436999,-3.4369998 0.69841,-0.5359077 1.473879,-0.9834437 2.287196,-1.3203309 0.990096,-0.4101108 2.045983,-0.6698364 3.105237,-0.8325073 1.331973,-0.2045532 4.03903,-0.1736328 4.03903,-0.1736328 z M 55.22237,4.7826541 c 0.942342,-0.034274 1.985639,0.2555843 2.87166,0.4929932 1.507321,0.4038858 2.816509,1.3904564 4.054533,2.3404257 0.848104,0.6507731 1.733055,1.3422873 2.267562,2.2680787 3.316367,5.7441193 5.150073,19.2200153 5.150073,19.2200153 h -5.770191 c 0,0 -7.263922,-10.884541 -9.751859,-16.890959 -0.545119,-1.316031 -1.105876,-2.7034497 -1.105876,-4.127913 0,-0.969712 -0.0164,-2.2193243 0.752926,-2.8096477 0.436634,-0.3350418 0.965768,-0.4724284 1.531172,-0.4929932 z m 52.50016,0.047026 c 0.5654,0.020565 1.09453,0.1574355 1.53117,0.4924764 0.76932,0.5903216 0.75293,1.840455 0.75293,2.8101645 0,1.4244586 -0.56077,2.811884 -1.10588,4.127914 -2.47159,5.966957 -9.626594,16.702598 -9.720855,16.843933 H 93.385417 C 93.421507,28.84075 95.245409,15.61761 98.528772,9.9306604 99.063274,9.0048722 99.948233,8.31387 100.79633,7.6630985 c 1.23803,-0.9499661 2.54722,-1.9370578 4.05454,-2.3409424 0.88602,-0.2374083 1.92932,-0.526751 2.87166,-0.492476 z M 59.644323,37.63698 v 6.746875 l 8.546248,-3.373437 z m 42.942087,0 -8.546253,3.373438 8.546253,3.373437 z m -44.375075,7.342188 c -2.137695,0 -3.858679,1.720983 -3.858679,3.858679 v 0.220142 c 0,2.137695 1.720984,3.858679 3.858679,3.858679 h 1.916162 c 0,0 -12.764875,7.833113 -17.445964,13.505119 -5.211954,6.315267 -9.181192,13.959599 -11.079427,21.924761 -1.194753,5.013282 -1.333873,10.482995 0,15.461072 1.436124,5.35963 4.832274,10.10305 8.323007,14.41617 2.652006,3.27686 5.734465,6.37479 9.393742,8.4677 4.655804,2.66297 10.064533,3.90374 15.345833,4.8395 3.34002,0.5918 8.570397,0.73123 12.354802,0.76068 h 8.905917 c 3.784393,-0.0294 9.014801,-0.16888 12.354801,-0.76068 5.281292,-0.93576 10.690042,-2.17653 15.345832,-4.8395 3.6593,-2.09288 6.74172,-5.19084 9.39375,-8.4677 3.49076,-4.31309 6.88688,-9.05657 8.32301,-14.41617 1.33377,-4.978062 1.19465,-10.447805 0,-15.461072 C 129.44455,80.38141 125.47527,72.737036 120.26337,66.421787 115.58225,60.749799 102.8174,52.916668 102.8174,52.916668 h 0.59325 c 2.13769,0 3.85867,-1.720984 3.85867,-3.858679 v -0.220142 c 0,-2.137696 -1.72098,-3.858679 -3.85867,-3.858679 z m 10.413835,7.9375 h 5.04207 c 0,0 -2.398561,4.857125 -4.036963,6.992338 -1.65384,2.15532 -4.405107,3.410206 -5.763473,5.762956 -0.1259,0.218065 -0.16247,0.480034 -0.195337,0.729671 -0.02915,0.221423 -0.0578,0.45452 0,0.670244 0.06972,0.260207 0.213618,0.509208 0.40411,0.699699 0.176309,0.176299 0.407189,0.309604 0.648022,0.374137 0.324005,0.08682 0.69624,0.128365 1.006141,0 0.320271,-0.132664 0.490232,-0.490224 0.735355,-0.735356 1.830017,-1.830017 3.914603,-3.436876 5.490105,-5.490104 2.109634,-2.749337 5.198132,-9.003585 5.198132,-9.003585 h 8.638233 c 0,0 3.088491,6.254251 5.198132,9.003585 1.575501,2.053226 3.660089,3.660089 5.490104,5.490104 0.245132,0.245132 0.415076,0.602692 0.735356,0.735356 0.309901,0.128365 0.682145,0.08682 1.00614,0 0.240842,-0.06453 0.471714,-0.197839 0.648023,-0.374137 0.190492,-0.190491 0.334389,-0.439493 0.404109,-0.699699 0.0578,-0.215724 0.02915,-0.448821 0,-0.670244 -0.03287,-0.249636 -0.06945,-0.511606 -0.195336,-0.729671 -1.358365,-2.352748 -4.109644,-3.607638 -5.763473,-5.762956 -1.6384,-2.135211 -4.036963,-6.992338 -4.036963,-6.992338 h 5.04207 c 0,0 14.842653,8.948852 20.404963,15.405778 4.80269,5.575238 8.52216,12.318961 10.54664,19.393649 1.12549,3.933136 1.66671,8.269717 0.72761,12.251449 -1.23003,5.214616 -4.58071,9.821926 -8.02277,13.927836 -2.18154,2.60215 -4.82524,4.918 -7.80418,6.54792 -3.82989,2.09551 -8.2093,3.10261 -12.499496,3.91087 -5.319257,1.00213 -16.200046,1.12241 -16.200046,1.12241 0,0 -10.880773,-0.12028 -16.200045,-1.12241 -4.290221,-0.80826 -8.66959,-1.81536 -12.499496,-3.91087 -2.978945,-1.62992 -5.622657,-3.94574 -7.804175,-6.54792 C 41.5267,109.78947 38.175988,105.18219 36.945966,99.967544 36.006767,95.9858 36.548083,91.649243 37.67357,87.716095 39.698025,80.641386 43.417447,73.897699 48.220214,68.322446 53.782508,61.865499 68.62517,52.916668 68.62517,52.916668 Z" /><rect
       style="fill:#ffffff;stroke-width:1.11125;stroke-linecap:round;stroke-linejoin:round;stroke-miterlimit:20"
       id="rect1"
       width="0.26458335"
       height="0.26458335"
       x="15.326578"
       y="0.52709961"
       rx="0.13229167"
       ry="6.2500016e-10" /><rect
       style="fill:#ffffff;stroke-width:1.11125;stroke-linecap:round;stroke-linejoin:round;stroke-miterlimit:20"
       id="rect2"
       width="0.26458335"
       height="0.26458335"
       x="147.35367"
       y="132.55418"
       rx="0.13229167"
       ry="6.2500016e-10" /></g></svg>
