<?xml version="1.0" encoding="UTF-8" standalone="no"?>
<svg
   viewBox="0 0 500 500"
   width="500"
   height="500"
   version="1.1"
   id="svg20"
   sodipodi:docname="pickaxe.svg"
   xmlns:inkscape="http://www.inkscape.org/namespaces/inkscape"
   xmlns:sodipodi="http://sodipodi.sourceforge.net/DTD/sodipodi-0.dtd"
   xmlns="http://www.w3.org/2000/svg"
   xmlns:svg="http://www.w3.org/2000/svg">
  <defs
     id="defs20" />
  <sodipodi:namedview
     id="namedview20"
     pagecolor="#505050"
     bordercolor="#eeeeee"
     borderopacity="1"
     inkscape:showpageshadow="0"
     inkscape:pageopacity="0"
     inkscape:pagecheckerboard="0"
     inkscape:deskcolor="#505050" />
  <g
     fill="#101618"
     fill-opacity="1"
     stroke="None"
     id="g12"
     transform="matrix(0.57979455,0,0,0.57979455,-136.47032,140.65975)"
     style="opacity:0.99;fill:#ffffff">
    <path
       d="m 696,359 c 9.98,-8.56 30.84,-19.13 30.93,-34.93 0.09,-15.8 -13.02,-33.38 -17.61,-48.39 C 704.74,260.67 690.14,247.53 687,232 683.86,216.48 671.82,204.04 659.75,193.25 647.67,182.47 635.96,172.92 622.23,164.77 608.5,156.62 592.28,148.4 577.07,143.93 561.87,139.45 538.72,129.5 528,146 c 7.29,2.72 14.53,7.6 20.75,12.25 6.23,4.64 11.68,9.43 17.5,14.5 5.82,5.08 10.16,10.88 16,16 5.83,5.12 9.47,11.41 15.5,16.5 6.03,5.09 12.67,13.6 11.22,21.72 -1.44,8.13 -14.52,10.76 -11.9,19.96 2.63,9.19 -8.45,11.46 -12.3,17.84 -3.85,6.38 -10.7,10.92 -16.02,15.98 -5.32,5.07 -10.58,10.48 -16,16 -5.41,5.53 -11.34,10.93 -17,16 -5.65,5.07 -10.53,10.7 -16,16 -5.46,5.31 -11.2,9.66 -16.5,15.5 -5.31,5.84 -11.05,9.9 -16.5,15.5 -5.44,5.6 -11.39,11.33 -17,16 -5.6,4.67 -10.27,11.27 -16,16 -5.74,4.72 -10.83,10.34 -16.5,15.5 -5.67,5.15 -10.65,10.47 -16.5,15.5 -5.85,5.03 -10.95,10.17 -16.67,15.33 -5.71,5.16 -11.52,10.69 -17.33,15.67 -5.81,4.99 -10.56,11.15 -17,15 -6.44,3.85 -13.97,6.45 -19.5,12.5 -5.54,6.05 -10.27,10.32 -16.17,15.83 -5.89,5.51 -11.54,10.15 -17.33,15.67 -5.78,5.53 -10.91,9.77 -16.45,15.55 -5.53,5.78 -5.54,18.72 -2.62,26.02 2.92,7.31 6.33,13.91 12.57,19.43 6.25,5.51 13.27,9.35 21.75,10.25 8.48,0.9 16.68,-4.99 22.25,-10.75 5.56,-5.77 11.01,-10.16 15.5,-16.5 4.49,-6.34 12.53,-9.16 16.5,-15.5 3.97,-6.35 13.85,-8.66 17.45,-14.55 3.59,-5.89 4.3,-14.72 11.53,-19.47 7.23,-4.75 8.87,-11.8 15.02,-16.98 6.14,-5.18 10.2,-10.89 15.5,-16.5 5.3,-5.61 10.44,-10.7 15.5,-16.5 5.05,-5.81 10.96,-10.71 15.5,-16.5 4.55,-5.79 11.78,-10.68 16.5,-16.5 4.72,-5.83 9.99,-11.06 15.5,-16.5 5.51,-5.44 10.27,-11.01 15.5,-16.5 5.23,-5.49 10.72,-10.49 16,-16 5.28,-5.51 11.28,-10.94 16.05,-16.95 4.77,-6.02 11.4,-10.11 15.95,-16.05 4.55,-5.94 11.8,-9.99 16.5,-15.5 4.69,-5.52 10.51,-10.48 16,-16 5.49,-5.51 11.08,-9.93 16.55,-15.45 5.48,-5.52 14.71,-4.6 21,-7.99 6.29,-3.4 17.49,2.42 21.93,7.46 4.44,5.04 8.81,13.05 12.85,19.15 4.03,6.11 8.34,13.35 11.6,20.4 3.26,7.06 5.92,16.89 7.32,24.68 M 655,195 c -8.27,-5.21 -15.51,-8.58 -24.08,-13.92 -8.56,-5.35 -16.12,-7.16 -25.15,-12.85 -9.03,-5.69 -18.15,0.65 -25.77,6.77 -10.88,-12.13 -23.83,-22.59 -37,-31 41.61,-0.43 79.78,26.06 112,51 m -46,45 c 9.08,11.75 18.56,23.89 27.3,35.7 8.75,11.81 -6.66,6.7 -9.05,0.05 -2.4,-6.64 -10.59,-12.31 -13.55,-18.45 -2.97,-6.13 -15.65,-12.86 -4.7,-17.3 m -2,17 c 0.03,2.37 2.5,3.72 3,6 -7.77,8.86 -17.16,16.82 -25.75,25.25 -8.59,8.43 -16.67,17.38 -25.5,25.5 -8.83,8.12 -17.84,17.1 -26.5,25.5 -8.67,8.39 -17.35,16.68 -26,25 -8.66,8.32 -17.54,16.48 -26,25 -8.46,8.51 -18.46,16.9 -26.95,25.05 -8.5,8.14 -17.47,17.39 -26.05,24.95 -8.58,7.55 -18.03,17.83 -26.5,24.5 -8.47,6.68 -19.85,26.38 -26.75,13.25 20.79,-16.72 39.61,-35.17 59.25,-53.75 19.64,-18.58 38.39,-36.16 58,-55 19.6,-18.84 38.01,-37.14 57.5,-55.5 C 568.24,294.39 587.41,273.52 607,257 M 399,512 c -5.32,-8.17 7.57,-14.38 13.25,-21.75 5.67,-7.38 15.02,-14.05 20.85,-21.15 5.83,-7.1 13.56,-14.31 20.65,-21.35 7.09,-7.04 13.3,-14.47 20.5,-21.5 7.2,-7.04 13.89,-14.11 20.5,-21.5 6.62,-7.39 14.32,-13.6 21,-21 6.68,-7.4 13.45,-14.48 20.5,-21.5 7.05,-7.02 14.02,-13.92 21,-21 6.98,-7.09 14.1,-13.79 21,-21 6.89,-7.21 14.3,-13.79 21.5,-20.5 7.21,-6.71 14.05,-14.54 21.25,-20.75 5.95,7.79 -9.08,13.09 -14.75,20.25 -5.67,7.15 -14.79,14.02 -21.5,20.5 -6.7,6.48 -14.33,14.17 -21,21 -6.67,6.83 -14.58,13.94 -21,21 -6.41,7.06 -13.11,14.62 -20.5,21.5 -7.39,6.88 -13.86,14.59 -20.5,21.5 -6.64,6.91 -14.29,13.8 -21,21 -6.71,7.21 -13.43,14.22 -20.5,21.5 -7.07,7.27 -13.35,14.47 -20.17,21.83 -6.81,7.36 -13.34,14.59 -20.33,21.67 -6.99,7.09 -12.76,15.99 -20.75,21.25 M 702,347 c -2.28,-3.66 -3.31,-8.53 -4,-13 6.21,-6.81 16.95,-12.39 15.67,-22.67 -1.28,-10.28 -5.01,-21.26 -7.67,-31.33 6.71,11.27 9.38,23.28 13.93,36.07 4.54,12.79 -9.25,22.96 -17.93,30.93 M 369,479 c 4.75,1.51 7.14,12.27 11.75,15.25 4.62,2.97 6.41,12.5 11.5,15.5 5.1,2.99 8.2,16.46 2,12.99 -6.19,-3.47 -5.54,-12.63 -11.02,-15.97 -5.48,-3.34 -6.98,-12.73 -11.53,-15.47 C 367.15,488.56 359.6,476 369,479 m -8,4 c 6.39,6.25 -4.49,13.47 -9.75,18.25 -5.27,4.78 -12.37,11.86 -18.25,15.75 3.89,10.13 10.11,18.55 17.77,27.23 7.66,8.68 11.39,21.35 -1.77,27.77 3.56,-8.08 3.58,-16.51 -0.92,-24.08 -4.5,-7.57 -9.43,-10.09 -13.85,-18.15 -4.42,-8.06 -14.06,-6.26 -21.23,-6.77 18.76,-8.28 32.44,-27.1 48,-40 m -37,56 c 15.96,3.95 15.41,30.93 -2.01,27.01 C 304.57,562.09 305.21,534.35 324,539 Z"
       id="path12"
       style="fill:#ffffff" />
  </g>
  <rect
     style="opacity:0.99;fill:#ffffff;stroke-width:4.2;stroke-linecap:round;stroke-linejoin:round;stroke-miterlimit:20"
     id="rect20"
     width="1"
     height="1"
     x="0"
     y="0" />
  <rect
     style="opacity:0.99;fill:#ffffff;stroke-width:4.2;stroke-linecap:round;stroke-linejoin:round;stroke-miterlimit:20"
     id="rect21"
     width="1"
     height="1"
     x="499"
     y="499" />
  <path
     id="rect4"
     style="opacity:0.99;fill:#ffffff;stroke-width:5.00001;stroke-linecap:round;stroke-linejoin:round;stroke-miterlimit:20"
     d="M 397.98633,25 320,160.07617 h 42.5293 v 141.82422 h 70.91407 V 160.07617 h 42.52928 z" />
</svg>
