<?xml version="1.0" encoding="UTF-8" standalone="no"?>
<svg
   viewBox="0 0 500 500"
   width="500"
   height="500"
   version="1.1"
   id="svg316"
   sodipodi:docname="e6b18d9e-be3e-46c8-88d6-359cad156997.svg"
   xmlns:inkscape="http://www.inkscape.org/namespaces/inkscape"
   xmlns:sodipodi="http://sodipodi.sourceforge.net/DTD/sodipodi-0.dtd"
   xmlns="http://www.w3.org/2000/svg"
   xmlns:svg="http://www.w3.org/2000/svg">
  <defs
     id="defs316" />
  <sodipodi:namedview
     id="namedview316"
     pagecolor="#505050"
     bordercolor="#eeeeee"
     borderopacity="1"
     inkscape:showpageshadow="0"
     inkscape:pageopacity="0"
     inkscape:pagecheckerboard="0"
     inkscape:deskcolor="#505050" />
  <g
     id="g316"
     transform="translate(751.52108,-69.248518)">
    <g
       fill="#ededed"
       fill-opacity="1"
       stroke="None"
       id="g160"
       transform="matrix(0.74282332,0,0,0.74282332,-193.2737,36.818914)">
      <path
         d="m -340.48018,164.68889 c -9.21,1.59 -18.41,5.04 -28,5 -1.33,0.26 -3.1,0.9 -5,1 -3.53,0.19 -6.67,0.74 -10,1 -16.01,1.27 -29.22,-3.89 -44,-7 -8.57,-1.8 -17.31,-3.84 -26,-5 -12.05,-1.61 -23.53,-5 -36,-5 -3.67,0 -7.33,0 -11,0 -3.33,0 -6.67,0 -10,0 -1.78,0.17 -4.55,1.01 -7,1 -1.33,-0.01 -2.67,0 -4,0 -6.84,0 -13.36,1.03 -20,2 -10.69,1.56 -21.65,6.59 -30.3,12.7 -8.66,6.1 -15.02,12.51 -20.95,21.05 -5.92,8.54 -14.52,14.93 -23.06,19.95 -8.53,5.01 -21.55,5.88 -26.38,15.61 -4.84,9.72 -8.86,17.27 -16.06,25.94 -7.21,8.67 -14.06,14.02 -25.02,17.98 -10.96,3.96 -17.06,7.78 -28.98,13.02 -11.92,5.23 -5.63,21.92 -7.25,30.75 0.04,2.19 -3.87,13.49 5,8 10.8,10.89 26.33,16.61 32,32 0.09,0.48 0,1 0,1 0.54,2.3 1.31,4.71 2,7 2.3,7.57 3.08,15.35 5,23 0.83,1.66 4.72,3.9 6,5 2.91,2.51 6.11,4.94 9,7 2.11,1.1 4.06,2.67 6,4 4.88,3.35 8.78,6.78 13,11 6.41,6.41 12.9,13.06 15,22 0.11,0.47 0,1 0,1 0,12.07 -0.57,23.09 -6.69,33.31 -6.13,10.21 5.44,19.74 4.69,30.69 -0.73,10.76 -7.85,19.72 -12,29 -2.51,5.62 -4.31,14.03 -8,19 0.04,2.6 1.39,4.1 3,6 1.69,1.99 3.51,3.86 6,5 1.4,0.64 2.63,0.51 4,1 9.93,3.56 26.02,0.08 36,-1 9.99,-1.08 22.59,-11.2 31,-6 0.22,0.14 0,1 0,1 0.21,1.4 0.61,3.35 2,4 0.07,-2.52 -0.93,-7.25 3,-7 2.49,-1.05 5.89,-0.75 5,3 2.69,-0.36 2.58,-6.06 6,-2 6.31,-6.58 20.35,-2.93 30,-4 0.5,0 1,0 1,0 9.32,0 19.45,-0.16 28,1 1.33,0 2.67,0 4,0 7.81,0 15.3,2.11 22.23,3.77 6.93,1.66 10.26,7.35 16.02,9.98 5.75,2.64 8.48,11.47 13.75,13.25 1.17,0.21 1.38,-0.42 2,-1 0.43,-0.68 0.25,-2.32 1,-3 7.15,3.27 15.98,5.12 21,12 0.5,0 1,0 1,0 0.5,0 1,0 1,0 1.33,-0.01 1.8,-0.91 3,-1 7.8,-0.59 12.97,5.96 19.1,3.09 6.13,-2.86 13.65,2.54 17.9,5.91 -0.23,-3.17 0.05,-6.12 1,-9 3.67,1.87 5.15,-4.1 9,-5 1.32,-0.95 2.8,-2 4,-3 3.26,-2.7 6.56,-6.34 10,-9 11.06,-8.56 25.5,-16.08 40.01,-17.99 14.51,-1.91 23,-8.77 34.99,-19.01 4.03,-3.45 7.92,-7.51 12,-11 2.13,-2.13 4.66,-4.74 4,-8 2.01,-0.82 1.47,1.82 3,2 1.18,-0.78 2.68,-1.45 4,-2 0.22,-0.37 0.02,-1.5 0,-2 -0.08,-1.84 -0.03,-3.47 1,-5 1.46,0.78 0.62,3.89 3,2 0.14,-0.04 0,-1 0,-1 -0.47,-3.52 1.37,-2.49 3,-4 5.22,-4.84 12.37,-7.43 19,-10 2.47,-0.96 9.5,-4.66 11,-2 1.56,-2.78 0.37,-2.11 3,-4 1.82,-1.31 4.44,-3.03 7,-3 0.28,1.28 -0.76,3.5 1,4 0,-0.5 0.04,-1.5 0,-2 -0.42,-5.91 16.35,-6.91 21,-8 0.47,-0.11 1.51,0.08 2,0 1.63,-0.25 3.36,0.19 5,0 -2.33,6.05 6.39,1.93 6,7 4.15,1.32 6.79,-2.03 6,-6 8.56,-0.84 15.9,-1.17 24,0 3.06,1.08 5.01,1.88 4,6 1.26,-0.08 0.56,-2.06 2,-2 2.78,-1.95 3.7,-1.93 8,-1 1.99,0.43 3.86,0.68 6,1 5.5,0.81 6.6,2.4 9,6 -1.56,-4.78 2.9,-6.82 7,-6 0.42,-8.71 -4.38,-13.75 -8,-21 -0.52,-1.04 -0.65,-1.63 -1,-3 -1.82,-7.18 4.35,-13.36 7,-20 0.26,-0.65 0.8,-1.52 1,-2 6.100004,-14.35 -1.19,-33.3 0.22,-47.78 1.41,-14.48 15.230004,-19.07 23.780004,-28.22 0.15,-0.45 0,-1.5 0,-2 0,-16.14 -15.36,-31.6 -29.000004,-37 1.54,-1.31 -0.29,-2.4 0,-4 -7.48,-4.21 -15.34,-7.4 -20,-15 -7,-11.43 -4.77,-23.19 -19,-30 -18.92,-5.05 -31.99,-12.98 -46.75,-27.25 -14.76,-14.27 -10.11,-37.63 -4.25,-54.75 1.5,-4.39 2.77,-11.2 7,-13 1.45,1.8 2.3,5.3 5,3 2.88,-10.22 -5.27,-17.01 -14,-19 5.57,-3.77 1.41,-10.23 -4.98,-12.02 -6.38,-1.79 -14.04,-1.98 -21.02,-1.98 -3.75,0 -7.99,-0.71 -11,-1 -18.08,0 -41.3,-3.2 -56.77,6.23 -15.47,9.43 -29.76,11.76 -47.23,14.77 m -7,144 c 19.27,5.15 18.99,30.99 -3,31 0.15,-2.47 2.79,-4.24 4,-6 1.23,-8.66 -13.4,-10.01 -20.23,-13.77 -6.83,-3.77 -19.63,-3.3 -28.99,-1.45 -9.37,1.85 -12.83,11.53 -0.78,16.22 -10.06,2.45 -19.13,-12.46 -10.77,-18.77 8.36,-6.31 16.24,-8.24 26.77,-9.23 10.53,-0.99 22.8,-1.5 33,2 m -109,11 c 1.58,2.56 -0.53,5.25 -4,4 -4.23,-1.52 0.66,-9.4 4,-4 m -1,10 c 9.96,7.45 -1.42,11.82 -2.99,19.01 -1.57,7.19 7.96,13.98 9.99,19.99 -19.52,0.22 -32.84,-38.52 -7,-39 m 112,30 c 5.62,2.54 5.66,11.53 0,14 -5.59,2.44 -11.35,-0.29 -16,-3 -3.13,-10.24 8.15,-14.88 16,-11 z"
         id="path160" />
    </g>
    <g
       fill="#dbdbdb"
       fill-opacity="1"
       stroke="None"
       id="g170"
       transform="matrix(0.74282332,0,0,0.74282332,-871.82808,17.274407)">
      <path
         d="m 215,210 c -1.03,3.28 1.67,2.78 3,4 0.96,0.22 5.45,-0.18 6,-1 0.33,-4.71 -6.22,-6.82 -9,-3 z"
         id="path170" />
    </g>
    <g
       fill="#e7e7e7"
       fill-opacity="1"
       stroke="None"
       id="g174"
       transform="matrix(0.74282332,0,0,0.74282332,-871.82808,17.274407)">
      <path
         d="m 165,315 c 0.86,0.21 2.12,0 3,0 0.85,0 3.29,-0.43 4,0 15.81,-5.55 -11.23,-16.13 -10,-2 1.17,-0.06 2.24,1.81 3,2 z"
         id="path174" />
    </g>
    <g
       fill="#9a9a9a"
       fill-opacity="1"
       stroke="None"
       id="g178"
       transform="matrix(0.74282332,0,0,0.74282332,-871.82808,17.274408)">
      <path
         d="m 567,360 c 4.64,-3.12 12.12,-3.15 9,-11 0.63,6.28 -4.48,9.91 -9,7 -4.39,-2.83 -3.81,-6.06 -7,-9 -3.92,-1.32 -13.42,-8.48 -8.91,-10.92 4.5,-2.43 17.57,2.32 18.91,5.92 0,-1.25 -2.06,-1.71 -2,-3 3.84,-0.16 3.76,5.01 7,6 -1.34,-3.44 -5.82,-8.46 -9,-10 -10.2,-3.5 -22.47,-2.99 -33,-2 -10.53,0.99 -18.41,2.92 -26.77,9.23 -8.36,6.31 0.71,21.22 10.77,18.77 -12.05,-4.69 -8.59,-14.37 0.78,-16.22 9.36,-1.85 22.16,-2.32 28.99,1.45 6.83,3.76 21.46,5.11 20.23,13.77 z"
         id="path178" />
    </g>
    <g
       fill="#bcbcbc"
       fill-opacity="1"
       stroke="None"
       id="g179"
       transform="matrix(0.74282332,0,0,0.74282332,-871.82808,17.274408)">
      <path
         d="m 575,345 c 0.47,1.21 0.51,2.77 1,4 3.12,7.85 -4.36,7.88 -9,11 -1.21,1.76 -3.85,3.53 -4,6 21.99,-0.01 22.27,-25.85 3,-31 3.18,1.54 7.66,6.56 9,10 z"
         id="path179" />
    </g>
    <g
       fill="#f1f1f1"
       fill-opacity="1"
       stroke="None"
       id="g180"
       transform="matrix(0.74282332,0,0,0.74282332,-871.82808,17.274407)">
      <path
         d="m 560,347 c 0.93,0.31 4.06,0.97 5,1 4.78,0.14 5,-1.63 5,-6 -1.34,-3.6 -14.41,-8.35 -18.91,-5.92 -4.51,2.44 4.99,9.6 8.91,10.92 z"
         id="path180" />
    </g>
    <g
       fill="#b6b6b6"
       fill-opacity="1"
       stroke="None"
       id="g185"
       transform="matrix(0.74282332,0,0,0.74282332,-871.82808,17.274407)">
      <path
         d="m 453,350 c 1.05,0.17 4.13,-3.02 4,-4 -3.34,-5.4 -8.23,2.48 -4,4 z"
         id="path185" />
    </g>
    <g
       fill="#898989"
       fill-opacity="1"
       stroke="None"
       id="g186"
       transform="matrix(0.74282332,0,0,0.74282332,-871.82808,17.274407)">
      <path
         d="m 453,350 c 3.47,1.25 5.58,-1.44 4,-4 0.13,0.98 -2.95,4.17 -4,4 z"
         id="path186" />
    </g>
    <g
       fill="#b6b6b6"
       fill-opacity="1"
       stroke="None"
       id="g191"
       transform="matrix(0.74282332,0,0,0.74282332,-871.82808,17.274407)">
      <path
         d="m 456,356 c -25.84,0.48 -12.52,39.22 7,39 -2.03,-6.01 -11.56,-12.8 -9.99,-19.99 1.57,-7.19 12.95,-11.56 2.99,-19.01 m -4,3 c -0.81,6.49 -7.2,-0.6 0,0 z"
         id="path191" />
    </g>
    <g
       fill="#ebebeb"
       fill-opacity="1"
       stroke="None"
       id="g192"
       transform="matrix(0.74282332,0,0,0.74282332,-871.82808,17.274407)">
      <path
         d="m 452,359 c -7.2,-0.6 -0.81,6.49 0,0 z"
         id="path192" />
    </g>
    <g
       fill="#a2a2a2"
       fill-opacity="1"
       stroke="None"
       id="g198"
       transform="matrix(0.74282332,0,0,0.74282332,-871.82808,17.274407)">
      <path
         d="m 568,392 c 4.11,3.26 -0.95,3.15 -1,6 2.08,0.38 1.34,2.11 1,2 5.66,-2.47 5.62,-11.46 0,-14 0.81,2.1 3.92,3.23 3,6 -1,-0.03 -2,0.04 -3,0 z"
         id="path198" />
    </g>
    <g
       fill="#eeeeef"
       fill-opacity="1"
       stroke="None"
       id="g200"
       transform="matrix(0.74282332,0,0,0.74282332,-871.82808,17.274407)">
      <path
         d="m 557,391 c -0.28,1.23 -1.72,2.27 -3,2 -0.59,8.49 9.09,4.29 13,5 0.05,-2.85 5.11,-2.74 1,-6 -0.01,-0.01 -3.04,-2.02 -3,-2 -2.92,-0.03 -5.4,0.69 -8,1 z"
         id="path200" />
    </g>
    <g
       fill="#efefef"
       fill-opacity="1"
       stroke="None"
       id="g204"
       transform="matrix(0.74282332,0,0,0.74282332,-871.82808,17.274407)">
      <path
         d="m 164,438 c 0.23,0.49 1.61,1.34 2,2 3.15,2.08 9.24,2.08 13,2 1.26,-1.45 3.44,-1.05 5,-2 0.69,-0.67 4.84,-4.45 5,-5 -1.09,-15.33 -25.25,-12.27 -25,3 z"
         id="path204" />
    </g>
    <g
       fill="#ebebeb"
       fill-opacity="1"
       stroke="None"
       id="g237"
       transform="matrix(0.74282332,0,0,0.74282332,-871.82808,17.274407)">
      <path
         d="m 192,527 c 0.33,0.18 0.73,0.84 1,1 2.37,1.39 5.66,-0.01 8,1 -0.04,-1.21 4.61,-2.86 5,-4 -1.09,-5.59 -4.09,-8.88 -9.77,-7.77 -5.68,1.11 -7.79,7.84 -4.23,9.77 z"
         id="path237" />
    </g>
    <g
       fill="#d8d8d8"
       fill-opacity="1"
       stroke="None"
       id="g299"
       transform="matrix(0.74282332,0,0,0.74282332,-871.82808,17.274407)">
      <path
         d="m 260,605 c 13.95,3.43 1.42,-12.83 0,0 z"
         id="path299" />
    </g>
    <g
       fill="#ededed"
       fill-opacity="1"
       stroke="None"
       id="g314"
       transform="matrix(0.74282332,0,0,0.74282332,-871.82808,17.274407)">
      <path
         d="m 515,638 c -0.67,6.01 11.19,7.38 13,3 -0.38,-7.47 -10.13,-9.83 -13,-3 z"
         id="path314" />
    </g>
  </g>
  <rect
     style="opacity:0.99;fill:#ffffff;stroke-width:5;stroke-linecap:round;stroke-linejoin:round;stroke-miterlimit:20"
     id="rect316"
     width="1"
     height="1"
     x="4.4514272e-06"
     y="0" />
  <rect
     style="opacity:0.99;fill:#ffffff;stroke-width:5;stroke-linecap:round;stroke-linejoin:round;stroke-miterlimit:20"
     id="rect317"
     width="1"
     height="1"
     x="499"
     y="499" />
</svg>
