<?xml version="1.0" encoding="UTF-8" standalone="no"?>
<!-- Created with Inkscape (http://www.inkscape.org/) -->

<svg
   width="500"
   height="500"
   viewBox="0 0 132.29167 132.29167"
   version="1.1"
   id="svg1"
   xml:space="preserve"
   inkscape:export-filename="merchant.png"
   inkscape:export-xdpi="96"
   inkscape:export-ydpi="96"
   sodipodi:docname="pvp.svg"
   xmlns:inkscape="http://www.inkscape.org/namespaces/inkscape"
   xmlns:sodipodi="http://sodipodi.sourceforge.net/DTD/sodipodi-0.dtd"
   xmlns="http://www.w3.org/2000/svg"
   xmlns:svg="http://www.w3.org/2000/svg"><sodipodi:namedview
     id="namedview1"
     pagecolor="#505050"
     bordercolor="#eeeeee"
     borderopacity="1"
     inkscape:showpageshadow="0"
     inkscape:pageopacity="0"
     inkscape:pagecheckerboard="0"
     inkscape:deskcolor="#505050"
     inkscape:document-units="px"
     showgrid="false"
     showguides="true"><inkscape:grid
       id="grid86"
       units="px"
       originx="7.2362587e-08"
       originy="-24.999744"
       spacingx="0.26458334"
       spacingy="0.26458334"
       empcolor="#0099e5"
       empopacity="0.30196078"
       color="#0099e5"
       opacity="0.14901961"
       empspacing="5"
       dotted="false"
       gridanglex="30"
       gridanglez="30"
       visible="false" /></sodipodi:namedview><defs
     id="defs1" /><g
     inkscape:label="Warstwa 1"
     inkscape:groupmode="layer"
     id="layer1"
     transform="translate(0,-6.6145158)"><path
       id="rect129"
       style="fill:#ffffff;stroke-width:1.11125;stroke-linecap:round;stroke-linejoin:round;stroke-miterlimit:20"
       d="m 126.15613,13.229131 a 6.1354266,6.123348 0 0 0 -4.33824,1.793689 6.1354266,6.123348 0 0 0 -1.40612,6.478158 l -16.88372,13.403834 7.04557,7.031612 13.4369,-16.847034 a 6.1354266,6.123348 0 0 0 6.48436,-1.40715 6.1354266,6.123348 0 0 0 1.79679,-4.329968 6.1354266,6.123348 0 0 0 -1.79679,-4.329452 6.1354266,6.123348 0 0 0 -4.33875,-1.793689 z M 5.6978436,13.244634 A 6.1354267,6.1233478 0 0 0 1.7967896,15.02282 6.1354267,6.1233478 0 0 0 0,19.352272 6.1354267,6.1233478 0 0 0 1.7967896,23.68224 6.1354267,6.1233478 0 0 0 8.2811485,25.08939 L 21.718055,41.936424 28.76362,34.904812 11.879379,21.500461 A 6.1354267,6.1233478 0 0 0 10.47378,15.02282 6.1354267,6.1233478 0 0 0 5.6978436,13.244634 Z M 53.875266,27.656158 c 0,0 -13.147538,4.884621 -18.950265,8.710063 -2.3122,1.524316 -6.161898,5.569169 -6.161898,5.569169 0,0 -4.053216,3.842363 -5.580538,6.150013 -3.832991,5.791309 -8.727116,18.913058 -8.727116,18.913058 l 4.696871,4.687569 c 0,0 4.894124,-13.121749 8.727116,-18.913058 1.52732,-2.30765 5.580538,-6.149496 5.580538,-6.149496 0,0 3.8497,-4.04537 6.161898,-5.569686 5.802728,-3.825441 18.950265,-8.710062 18.950265,-8.710062 z m 24.541138,0 -4.696871,4.68757 c 0,0 13.147556,4.884633 18.950265,8.710062 2.312192,1.524313 6.161898,5.569686 6.161898,5.569686 0,0 4.053294,3.841856 5.580534,6.149496 3.83301,5.791279 8.72712,18.913058 8.72712,18.913058 l 4.69687,-4.687569 c 0,0 -4.8942,-13.121779 -8.72711,-18.913058 -1.52733,-2.30764 -5.58054,-6.150013 -5.58054,-6.150013 0,0 -3.849707,-4.044856 -6.161901,-5.569169 C 91.56396,32.540791 78.416404,27.656158 78.416404,27.656158 Z M 42.854233,44.279433 31.111797,55.998615 51.769451,76.615962 63.500518,64.884895 Z m 46.583204,0 -67.358164,67.225877 c 0,0 -4.194791,5.07005 -5.547465,8.0269 -1.828033,3.99586 -3.302641,12.75943 -3.302641,12.75943 0,0 8.616057,-1.68576 12.549622,-3.53054 2.947637,-1.38238 8.04292,-5.53661 8.04292,-5.53661 L 101.17987,55.998615 Z m -8.325073,38.1832 -11.730551,11.730551 29.088148,29.031306 c 0,0 5.095249,4.15423 8.042919,5.53661 3.9336,1.84478 12.54962,3.53054 12.54962,3.53054 0,0 -1.47459,-8.76359 -3.30264,-12.75943 -1.35268,-2.95685 -5.54746,-8.0269 -5.54746,-8.0269 z" /><rect
       style="fill:#ffffff;stroke-width:1.11125;stroke-linecap:round;stroke-linejoin:round;stroke-miterlimit:20"
       id="rect1"
       width="0.26458335"
       height="0.26458335"
       x="0"
       y="6.6145158"
       rx="0.13229167"
       ry="1.8597413e-08" /><rect
       style="fill:#ffffff;stroke-width:1.11125;stroke-linecap:round;stroke-linejoin:round;stroke-miterlimit:20"
       id="rect2"
       width="0.26458335"
       height="0.26458335"
       x="132.02708"
       y="138.6416"
       rx="0.13229167"
       ry="1.8597413e-08" /></g></svg>
