<?xml version="1.0" encoding="UTF-8" standalone="no"?>
<svg
   viewBox="0 0 500 500"
   width="500"
   height="500"
   version="1.1"
   id="svg126"
   sodipodi:docname="2d7e24f9-02c7-4cd9-91ac-cf6b51e885e8.svg"
   xmlns:inkscape="http://www.inkscape.org/namespaces/inkscape"
   xmlns:sodipodi="http://sodipodi.sourceforge.net/DTD/sodipodi-0.dtd"
   xmlns="http://www.w3.org/2000/svg"
   xmlns:svg="http://www.w3.org/2000/svg">
  <defs
     id="defs126" />
  <sodipodi:namedview
     id="namedview126"
     pagecolor="#505050"
     bordercolor="#eeeeee"
     borderopacity="1"
     inkscape:showpageshadow="0"
     inkscape:pageopacity="0"
     inkscape:pagecheckerboard="0"
     inkscape:deskcolor="#505050" />
  <path
     d="m 440.80518,290.07785 c -0.33885,-3.50803 -0.45844,-8.89963 -0.9966,-12.95579 -3.11936,-12.02896 -7.9728,-19.47356 -7.9728,-32.8878 v -30.89459 c 2.72072,-26.47966 -26.48962,-29.43956 -44.14937,-38.55845 -17.66972,-9.12885 -35.55868,-22.99155 -55.51061,-27.21714 10.9626,-13.59362 23.96822,-25.80197 35.87759,-38.86739 14.98886,9.02919 99.69721,60.13914 92.48182,78.99481 31.64205,-3.68742 30.02681,-11.609 28.55184,-42.70291 -12.57709,4.71392 -70.87479,-57.399882 -81.46865,-64.894312 -10.60382,-7.48447 -12.3678,-15.67652 -22.92179,-24.915 -10.56396,-9.23848 -24.47649,-4.47473 -35.32947,-10.51413 C 338.51417,38.625758 219.83006,5.5388694 207.2131,2.3098854 c -12.61695,-3.23894902 -10.76651,-4.612289 -17.49356,6.529697 -6.71708,11.1419826 -4.94233,14.8326556 -1.31471,28.2369156 13.05546,-10.55399 130.05775,37.75573 139.78457,51.68819 -12.99566,13.234852 -25.84183,27.257012 -38.86739,40.860602 -17.879,-7.60406 -34.94079,-10.91277 -53.79646,-15.96553 -18.8457,-5.06273 -39.06671,3.20905 -53.6071,13.20494 -14.5404,9.9959 -23.45996,20.77911 -36.35597,32.40943 -12.896,11.63032 -24.00809,20.02169 -36.37589,32.38949 -12.367802,12.36781 -25.343532,19.19452 -32.160272,36.60511 -6.82671,17.4106 0.91687,46.64088 -3.03963,65.72576 -3.96647,19.07492 -4.19569,36.22641 8.04256,52.88955 -21.62622,-3.64755 -38.080085,14.39091 -40.860599,33.8844 -7.135655,0.38867 -13.842771,3.34857 -19.682846,7.22535 -5.840075,3.87677 -4.434869,13.52386 -11.211748,15.69644 2.262282,9.06906 17.390667,4.08606 25.911595,4.983 8.520928,0.89694 17.938798,1.80385 25.911598,4.983 -11.93927,28.36323 36.40579,48.67394 46.840192,17.9388 14.63009,-3.17916 11.67018,14.8593 21.70594,17.16145 10.0258,2.30214 21.21761,4.96306 31.11385,6.75694 9.89624,1.79388 16.39407,8.21199 24.83527,13.03553 8.4412,4.82354 15.58682,9.13882 23.99812,13.87267 -5.86997,10.59385 2.64099,13.37437 10.95263,15.95556 8.32161,2.57123 17.76938,2.14269 25.24388,-1.68425 7.4745,-3.82695 16.42396,-3.17916 22.85203,-8.04256 6.42807,-4.86341 11.32137,-8.94947 17.9388,-12.9558 6.61742,-3.99637 11.30144,-8.0326 17.93879,-11.9592 6.64732,-3.9266 11.33134,-8.8498 18.60652,-12.28807 7.27518,-3.43827 16.22465,0.88697 24.92496,2.14269 8.69035,1.26568 16.36417,3.24891 25.98136,4.91323 9.61719,1.66432 15.4174,-2.67089 25.22394,-4.67405 9.79658,-2.01313 12.49736,-9.65705 11.65025,-19.24434 -0.83714,-9.58729 16.86247,-4.73385 23.25068,-7.64392 6.37824,-2.91007 18.10821,-3.21902 24.91499,-5.9796 6.80678,-2.76058 22.00493,2.01313 27.8749,-2.0231 5.86997,-4.02626 -7.0061,-10.97256 -7.5044,-18.00856 -0.48833,-7.03599 -7.74358,-14.02216 -9.42783,-21.46676 -1.68426,-7.43463 -9.4378,-11.66022 -16.57346,-14.32114 -7.13565,-2.66092 -15.05862,-8.17212 -23.59948,-6.29851 12.14855,-20.57978 9.966,-44.6975 9.966,-68.76539 M 475.48421,174.7357 c -3.03963,3.55786 3.63759,-2.87021 0,0 -2.47157,1.95333 -4.9531,4.27541 -7.9728,4.983 v -2.9898 c -0.68765,-2.71075 0.18936,-6.16896 0,-8.9694 -0.85707,-12.59702 -77.41323,-52.25603 -85.75477,-60.80686 -8.34154,-8.560792 -20.35057,-8.780042 -30.3365,-14.510492 -9.9959,-5.72049 -14.95896,-14.76961 -26.24047,-18.60652 -11.29148,-3.82695 -119.20478,-54.947078 -131.79184,-51.70812 0.41858,-9.547435 -0.33965,-5.275263 4.25468,-13.3377556 4.60429,-8.05252602 1.12939,-4.735817 10.56719,-0.500268 9.44777,4.2255826 124.08569,33.1566436 133.01522,38.5382836 8.92954,5.38164 -0.89694,17.31094 4.90328,25.99133 -0.91688,-11.38117 7.07585,-22.46336 18.93539,-19.932 11.85954,2.53136 16.66315,5.9796 24.66585,15.19815 8.00269,9.20858 -8.71029,18.3474 -16.69305,18.68624 7.60406,3.14926 17.45046,-0.23918 22.9218,-5.9796 13.71321,7.49444 70.12734,75.647632 87.14926,73.166102 -3.57779,13.88263 1.52555,9.81511 -7.62324,20.77771 M 322.2098,111.68649 c -0.41857,0.60792 -1.51483,3.62762 -0.9966,2.9898 7.56419,-4.73385 16.76281,-18.516832 24.915,-12.9558 -30.75507,35.55868 -60.05511,72.36311 -90.69059,107.63278 13.17505,-21.08805 32.61871,-39.10658 44.84699,-60.79259 -4.37507,4.66409 -9.00926,9.63712 -13.20494,14.69985 -4.19569,5.06273 -8.07246,10.45433 -12.4575,15.4473 -4.39501,4.983 -8.21198,10.3148 -12.4575,15.44729 -4.24551,5.13249 -8.00269,10.77325 -11.48083,16.42397 -3.47813,5.65072 -7.9728,10.79317 -11.44096,16.46383 -3.47814,5.66068 -7.37484,11.14198 -11.4609,16.44389 -4.08606,5.29195 -7.36487,11.16192 -11.4609,16.4439 -4.08606,5.29195 -7.24528,11.05229 -11.9592,15.9456 -4.71391,4.8933 -8.21198,10.45433 -12.00902,15.89576 -3.79705,5.43147 -7.43464,11.17189 -11.41107,16.49373 -3.9864,5.31188 -7.32501,11.08219 -11.97913,15.92567 -4.65412,4.84347 -8.12229,10.27494 -12.93587,14.96893 -4.81358,4.69398 -9.11889,9.68695 -12.9558,14.94899 -3.84687,5.26205 -8.18208,10.72342 -11.95919,15.9456 -3.77712,5.22218 -8.09239,11.00246 -11.9592,15.9456 -3.87677,4.94313 -8.4412,11.30144 -11.9592,15.94559 -3.518,4.63419 -11.311412,13.11526 -8.221952,14.69985 4.125932,-1.92344 11.849572,-11.4011 14.949002,-14.949 13.53383,-18.20788 27.07762,-36.54531 39.86399,-54.81299 0.60793,3.70736 -3.79704,5.52117 -3.9864,8.9694 24.97479,-26.43979 42.54485,-59.94548 68.76539,-84.71098 -9.04913,11.29147 -16.95216,24.51635 -25.66245,36.12674 -8.72024,11.60042 -19.18454,22.66268 -27.40649,34.38269 -8.23191,11.71005 -16.43393,24.78544 -27.40649,34.3827 -10.98253,9.59725 -17.9687,24.50639 -27.9048,33.88439 -9.9361,9.36804 -23.878532,30.90456 -38.349162,18.91547 -14.46066,-11.9891 6.84664,-27.17728 14.92907,-37.35256 8.08242,-10.16532 19.862232,-22.41353 28.403092,-33.3861 8.55083,-10.9626 19.04502,-22.54309 27.95462,-33.83456 8.90961,-11.29148 18.67628,-23.53969 27.85497,-34.93083 9.18865,-11.38116 17.68965,-23.56958 26.42983,-35.35936 8.74018,-11.78977 17.54015,-23.7988 26.06108,-35.7281 8.52093,-11.9293 17.73948,-23.61941 26.24047,-35.54871 8.51097,-11.91934 21.09802,-21.24751 29.64885,-33.13695 2.76058,-3.22898 6.03939,-6.03939 8.9694,-8.9694 14.13178,-16.54355 31.42279,-32.63864 47.83679,-45.843592 -3.46817,6.428072 -10.14539,10.753312 -13.9524,16.942202 m 19.932,1.9932 c -7.12569,11.75988 -18.9354,22.76234 -28.9014,31.89119 8.86974,-10.99249 17.85907,-23.24071 28.9014,-31.89119 m 6.97619,0.9966 c -21.40696,24.87513 -42.25583,49.84992 -66.07456,73.4494 -23.81874,23.58952 -40.32243,52.91945 -64.48001,76.04057 20.20108,-25.78204 37.89072,-54.42432 61.04174,-78.48224 23.15101,-24.05791 45.83362,-47.40825 69.51283,-71.00773 m -103.64638,63.78239 c -3.60769,3.64755 -5.81017,2.64099 -10.96259,2.9898 -4.77372,0.32887 -9.41787,2.55129 -13.97233,2.96986 -4.56443,0.40861 -10.17529,6.20882 -4.88334,8.90961 5.30191,2.69081 10.3746,-4.88334 14.86927,-0.91688 -16.15489,7.62399 -31.29324,12.9558 -48.84336,8.97937 -17.55012,-3.97644 -36.05698,6.19885 -49.82002,13.94243 27.06765,-13.63349 57.11513,-2.58119 85.70758,-6.9762 -16.28444,5.14246 -32.24997,14.05206 -49.82999,15.9456 -4.24552,0.68765 -8.83984,0.39864 -12.9558,0 h -11.9592 c -3.9565,0 -8.01266,-0.26908 -11.95919,0 -19.932,1.35537 -22.07469,22.7723 -15.62669,37.55188 6.448,14.77957 15.14832,22.11455 24.34694,35.44905 9.20858,13.32454 -7.34495,30.8348 -16.69305,38.61825 -4.02626,-10.30485 -5.69059,-21.33721 -4.983,-32.8878 -6.46793,5.18232 -8.27178,9.88627 -13.25478,16.64322 -4.983002,6.75695 -14.430762,-0.67769 -18.636412,-5.68062 0.53816,12.59702 4.19568,24.48646 8.96939,35.87759 -14.55035,-16.08512 -22.28397,-44.52808 -10.19521,-64.0116 12.08875,-19.48353 20.320672,-38.41893 25.144212,-60.56337 -6.33837,5.95966 -12.955802,10.94266 -20.928602,13.95239 -0.64778,10.72342 -3.97643,20.76914 -6.97619,30.8946 -4.46477,-24.28714 3.29874,-51.99261 23.151012,-66.54297 19.86223,-14.55036 29.87806,-28.55259 48.35502,-43.33216 18.48693,-14.77958 28.16391,-34.05382 53.1387,-38.54848 24.98476,-4.49467 52.54075,6.66725 75.67183,13.88263 -10.30484,15.30778 -26.13085,27.63572 -36.8742,42.8538 m 58.79939,54.81299 c 0.63783,6.58752 0.62786,14.41083 0,20.92859 0,13.19498 -1.9932,19.94196 -4.91323,32.95756 -2.92004,13.02556 -14.68988,2.27224 -14.949,-8.11233 -0.24915,-10.39453 -9.59726,-17.7893 -19.00516,-19.86223 13.09532,7.93294 9.78661,25.06449 19.18455,34.63184 9.39793,9.56736 10.04572,31.3331 -2.93997,37.42233 -12.97573,6.09919 -25.59269,10.47426 -39.16637,14.65001 6.07925,10.4942 13.04549,7.22535 21.17774,1.24575 8.12229,-5.98956 13.28468,-8.4113 22.37367,-14.50052 9.08899,-6.09919 12.77641,5.99953 15.17821,15.31774 2.39184,9.32817 3.24892,27.68554 -8.91957,23.86856 -12.17845,-3.80701 -19.33403,-3.57779 -29.89799,-6.9762 -10.57392,-3.38844 -18.11818,-4.78368 -27.57592,-8.30167 -9.4677,-3.518 -16.92226,-6.93634 -25.30367,-11.57053 -8.37143,-4.64415 -13.02556,-10.98253 -20.84886,-16.02532 10.8131,-17.3807 24.17751,-32.58882 36.12674,-49.58084 11.9592,-16.99203 25.3834,-31.10388 36.92402,-48.78356 11.55059,-17.66972 51.49431,-21.37707 54.51401,5.68062 4.06613,-2.75062 1.73408,-11.15196 3.9864,-15.9456 -10.76328,-7.83328 -22.23414,-17.51026 -36.87419,-15.9456 4.08606,-10.39453 20.05159,-5.9796 28.92132,-11.93926 8.87971,-5.94971 20.12135,-8.0326 25.89167,-16.96213 -8.40134,-3.76715 -18.19792,-2.27225 -26.9082,-4.983 5.0129,-15.67652 23.8287,-12.44753 36.09685,-8.19205 12.26814,4.25548 22.89189,10.62375 33.89436,17.92883 11.00246,7.31504 25.91159,8.9096 36.64497,16.17481 h -24.91499 c -0.48834,6.0095 -1.93341,11.79974 -1.9932,17.9388 -1.72412,-5.80021 1.05639,-20.29077 -6.67722,-15.64662 -7.72365,4.65412 -15.26791,2.09286 -22.24411,5.66069 -6.98616,3.55786 -14.25138,3.40837 -19.99179,7.913 -5.73045,4.5146 -14.00223,3.68742 -18.08829,9.81651 -4.08606,6.12909 0.98664,19.67288 -0.76738,27.13741 -1.75402,7.46454 -1.76398,17.23121 -2.9898,24.915 -1.22582,7.68378 -3.85684,14.40087 -6.28854,21.61625 -2.42174,7.22535 -11.48083,8.30167 -10.87291,15.47719 0.60793,7.18549 2.84031,18.73608 0.21925,25.69235 -0.84711,-11.63032 -10.89283,-24.12769 -4.23555,-35.13015 6.66726,-10.99249 9.50757,-22.29394 10.20519,-35.63841 0.69762,-13.3345 -0.47837,-29.26017 -3.97644,-41.84722 -2.07292,2.09286 -0.4983,6.12909 -0.9966,8.9694 m 95.67359,-21.9252 c -4.75379,18.98523 -8.04257,40.57158 -22.9218,54.81299 8.73021,-17.42057 8.02263,-40.96025 22.9218,-54.81299 m -186.36417,8.9694 c -5.0129,7.84324 -10.47426,13.30461 -15.69645,21.17774 -5.22218,7.87314 -10.39453,12.49737 -15.94559,20.9286 -5.56103,8.42127 -10.23508,10.77324 -15.9456,20.9286 -5.72048,10.15535 -13.19498,0.13952 -11.431,-10.4344 1.76398,-10.57393 10.16532,-14.49057 18.8457,-18.02849 8.69035,-3.52797 14.03213,-10.08559 19.49349,-17.38071 5.46137,-7.29511 11.18185,-15.74627 20.67945,-17.19134 m -23.91839,2.9898 c -7.16556,11.00246 -15.40744,23.99812 -28.98113,27.82506 -13.56372,3.83691 -23.71907,16.0054 -29.81826,26.98793 -3.00973,-14.43077 -11.08219,-19.63302 -10.9626,-35.8776 0.11959,-16.24457 20.18115,-9.94606 31.89119,-8.96939 11.71005,0.97666 26.39993,-8.0625 37.8708,-9.966 m 152.47977,39.86399 c 0.57802,5.95967 0.56806,13.04549 0,18.9354 0,8.73021 0.51823,17.73947 4.29534,25.60265 3.77711,7.87313 3.35854,13.52385 -3.54789,18.99519 -6.90644,5.4813 -9.36804,9.78661 -15.69645,15.19814 -3.07949,3.0795 -8.71028,7.4745 -10.9626,10.9626 -4.22558,7.74358 -3.79704,18.05839 -7.9728,25.9116 -5.95966,-6.87654 0.64779,-19.30414 3.29875,-28.59245 2.65095,-9.28831 7.81334,-18.29757 10.97256,-27.89483 3.15922,-9.59726 6.90644,-18.67628 8.64052,-29.23027 1.73409,-10.54403 5.06273,-23.37027 3.99637,-34.87103 v -19.932 c 0,-4.81357 -0.81721,-10.95263 0.9966,-14.94899 3.83691,12.76644 6.68718,25.89166 5.9796,39.86399 m 81.72118,71.75519 c -0.0598,-15.79611 7.85321,-36.82437 -1.9932,-51.82319 -3.85684,5.97959 -9.26838,12.81627 -16.9422,12.95579 6.83668,-11.71004 15.49713,-22.64274 18.9354,-35.87759 9.17868,8.52093 9.10892,24.00809 9.966,36.87419 0.85707,12.86611 -3.25888,27.4065 -9.966,37.8708 m -42.85379,-51.82319 c 5.57099,4.24551 2.35197,18.38726 2.9898,24.91499 0.63782,6.52773 -4.0163,15.80607 -5.76035,22.14445 -1.73408,6.34834 -9.41787,10.95263 -15.16825,12.73654 10.78321,-14.71977 16.55353,-32.1802 15.9456,-50.82659 0,-2.31211 -1.15606,-11.3712 1.9932,-8.96939 M 75.053048,351.86704 c 0.31891,4.5744 -6.09919,4.62423 -8.9694,6.9762 5.86997,9.36804 20.50006,5.17235 29.89799,8.9694 -5.4813,10.00586 -14.78954,18.65635 -22.92179,26.90819 -1.45504,-3.74721 3.57779,-11.05229 0.21925,-14.17164 -3.35854,-3.11936 -6.08922,7.40473 -10.18525,5.20225 1.07633,-4.43487 1.15606,-9.18865 0.9966,-13.9524 -8.43123,4.86341 -7.48446,19.4337 -12.9558,27.90479 -7.773479,-18.38726 -0.20928,-48.41482 23.9184,-47.83679 m 334.857532,30.8946 c -3.09942,0.4385 -5.90983,0.4983 -8.96939,0 -5.5112,-0.29898 -9.81651,-2.43171 -14.949,-3.9864 8.9395,-8.66045 28.56255,-5.12253 39.54508,-11.28151 10.98253,-6.15899 28.05428,-2.053 36.44565,7.04596 8.39137,9.10892 10.60383,24.80537 16.69305,35.13014 -5.93973,-7.4147 -11.93927,-10.67358 -15.71638,-20.16121 -3.77711,-9.48763 -11.44096,-14.61016 -22.16438,-11.73995 -10.72341,2.88018 -20.20108,2.61109 -30.88463,4.99297 m -203.30636,20.92859 c -3.4881,0.0698 -7.21538,-0.66772 -9.966,-0.9966 -10.70348,-0.20928 -19.44366,-7.65388 -30.11724,-5.20225 -10.67359,2.45164 -20.76914,4.02627 -31.67194,5.20225 6.54766,-15.16825 25.52292,-17.03189 40.93035,-22.85203 15.4174,-5.81018 39.98358,4.03623 37.80103,23.84863 h -6.9762 m 255.12955,10.9626 c -10.46429,-5.63079 -16.68308,-11.85954 -26.65904,-19.18455 -9.966,-7.33497 -26.22054,-6.61742 -38.11994,-7.72364 11.48083,-1.39524 31.41282,-6.80678 41.55821,1.29558 10.13542,8.10235 15.68648,16.34423 23.22077,25.61261 m -441.493717,-14.949 c 0.159456,-5.71051 15.068589,-18.09825 20.66948,-11.70008 5.61086,6.38821 -14.530425,15.32771 -20.66948,11.70008 m 369.738537,5.9796 c -19.84231,0.12956 -36.7546,11.51073 -50.82659,24.915 -2.68086,-8.23192 -11.12206,-23.74898 -2.74065,-30.64545 8.3814,-6.89647 18.00856,-14.75964 28.66221,-12.21831 10.64368,2.5513 23.23074,5.38164 24.90503,17.94876 m -151.48317,41.85719 c -5.37168,0 -11.32138,-0.54813 -15.9456,-0.9966 h -23.9184 c -1.24575,5.0727 -4.58436,9.34811 -6.97619,13.9524 -2.16263,-8.8498 -0.0299,-21.52655 6.72704,-28.15394 6.75695,-6.61743 10.77325,-13.41424 16.96213,-19.91207 6.18889,-6.49783 10.60382,-15.27787 19.83234,-17.04185 9.22851,-1.76399 24.69574,-3.78708 34.21327,-2.66092 9.51753,1.12615 19.74264,4.80361 27.13741,9.73678 7.39477,4.94313 20.03166,5.67065 20.68942,16.18478 0.65775,10.51412 -18.67629,8.04256 -26.968,9.88627 -8.30167,1.84371 -17.77934,4.54449 -22.60288,14.27131 -4.82354,9.72681 -19.26427,3.3386 -29.15054,4.73384 m -38.8674,-38.86739 c -12.59702,4.93317 -28.90139,3.66749 -39.86399,12.9558 5.89987,0.0199 10.92274,-3.35854 16.9422,-2.9898 -1.89354,3.39841 -7.95287,4.65412 -11.9592,5.9796 6.83668,2.50146 15.52703,-2.03306 22.9218,0.9966 -4.97304,4.21562 -15.36757,2.93997 -21.9252,6.9762 2.30215,2.81041 8.4113,-1.25572 9.966,2.9898 -13.41424,2.91007 -27.35667,10.3447 -40.86059,3.9864 0.29898,2.91007 -0.92684,5.41153 -1.9932,7.97279 -6.45797,-7.19545 -1.37531,-17.28104 -2.9898,-27.90479 -1.61449,-10.62375 11.68015,-12.50733 19.93199,-11.9592 8.25185,0.54813 15.9157,-7.31504 24.13765,-5.20225 8.22195,2.11279 17.05182,5.37167 25.69234,6.19885 m 206.29616,22.9218 c -19.16461,8.88967 -39.20623,4.395 -58.79938,0 7.92296,-11.11209 18.3175,-14.28128 30.56571,-18.26768 12.25818,-3.97643 33.37613,0.13953 28.23367,18.26768 m -25.91159,24.91499 c -8.63056,0.93681 -3.15922,-12.93586 -11.19182,-14.71978 -8.03259,-1.78391 -15.15828,-3.76714 -23.68917,-3.21901 5.60089,-8.30168 13.47403,0.38867 22.94172,-0.0199 9.47767,-0.41857 13.3943,8.17212 11.93927,17.95873 m -111.61918,21.9252 c -6.60746,-4.73385 -11.81967,-6.49783 -19.16461,-10.73338 -7.34494,-4.23555 -17.76938,0.37871 -24.68578,-0.22922 13.67335,-8.43123 39.6846,-7.70372 43.85039,10.9626 m -9.966,-0.9966 c -10.41447,3.82694 -25.43322,6.84664 -27.90479,19.93199 1.47497,-9.41786 -9.16872,-9.79657 -15.9456,-9.96599 5.82014,-19.50346 29.85813,-22.16438 43.85039,-9.966 z"
     id="path65"
     style="fill:#ffffff;fill-opacity:1;stroke-width:0.9966"
     sodipodi:nodetypes="ccsccccccccsccccccsssccccscscccssccssccscscccscccscccccccccccccscsccccccccccscsscccsccsscsccccccccccccccscsscccccccccccsccccccsccccscscccsccscccccccccccccsccccccccccccccccccscccccccssscccccccccccsccscsccccssccccccccssccsccccccsccsccccccccscccccccsccsccccsccccccccccccccscccccccssscscsccccccccccsssccccccsccccscccccc" />
  <g
     fill="#3c3c3c"
     fill-opacity="1"
     stroke="None"
     id="g73"
     transform="matrix(0.99659981,0,0,0.99659981,-292.6486,-12.10575)"
     style="fill:#ffffff">
    <path
       d="m 569,232 c -9.72,8.3 -17.34,20.91 -26.23,30.77 -8.89,9.86 -17.31,21.52 -24.77,32.23 1.14,-1.06 2.97,-1.94 4,-3 16.16,-20.47 33.22,-40.61 49,-61 -0.55,0.4 -1.44,0.52 -2,1 z"
       id="path73"
       style="fill:#ffffff" />
  </g>
  <g
     fill="#060606"
     fill-opacity="1"
     stroke="None"
     id="g77"
     transform="matrix(0.99659981,0,0,0.99659981,-184.12317,-20.668348)"
     style="fill:#ffffff">
    <path
       d="m 441,269 c -3.16,4 -7.05,7.88 -11,11 -4.99,3.22 -9.33,8.93 -16,8 1.07,-6.82 6.94,-11.66 9,-18 -7.21,3.41 -18.19,24.41 -7.01,21.99 11.18,-2.42 23.47,-3.78 30.24,-12.76 6.77,-8.98 7.47,-19.24 13.77,-28.23 -8.71,1.8 -13.78,11.39 -19,18 z"
       id="path77"
       style="fill:#ffffff" />
  </g>
  <g
     fill="#2c2d2d"
     fill-opacity="1"
     stroke="None"
     id="g79"
     transform="matrix(0.99659981,0,0,0.99659981,-230.36111,-88.290269)"
     style="fill:#ffffff">
    <path
       d="m 537,266 c 0,0 -0.78,-0.25 -1,0 -40.5,46.09 -72.52,98.37 -109,147 10.48,-7.55 15.85,-19.21 22.75,-29.25 6.89,-10.05 14.21,-19.74 21.5,-29.5 7.29,-9.76 15.91,-19.64 22,-30 6.09,-10.37 15.02,-20.13 20.5,-30.5 5.49,-10.37 20.11,-16.52 23.25,-27.75 z"
       id="path79"
       style="fill:#ffffff" />
  </g>
  <g
     fill="#050505"
     fill-opacity="1"
     stroke="None"
     id="g82"
     transform="matrix(0.99659981,0,0,0.99659981,-127.21303,-54.961171)"
     style="fill:#ffffff">
    <path
       d="m 399,285 c -15.69,11.49 -29.36,27.39 -41,42 22.62,0.35 29.46,-27.48 41,-42 z"
       id="path82"
       style="fill:#ffffff" />
  </g>
  <g
     fill="#0c0c0c"
     fill-opacity="1"
     stroke="None"
     id="g85"
     transform="matrix(0.99659981,0,0,0.99659981,-355.43438,-45.661515)"
     style="fill:#ffffff">
    <path
       d="m 621,297 c -1.08,0.19 -5.85,-1.79 -7,-2 -6.42,-0.52 -15.7,-3.49 -20,3 8.25,-2.07 19.73,4.99 27,-1 z"
       id="path85"
       style="fill:#ffffff" />
  </g>
  <g
     fill="#171717"
     fill-opacity="1"
     stroke="None"
     id="g87"
     transform="matrix(0.99659981,0,0,0.99659981,-336.49899,-55.695486)"
     style="fill:#ffffff">
    <path
       d="m 600,306 c -6.87,-2.41 -15.97,-0.84 -23,1 7.14,1.49 16.12,3.36 23,-1 z"
       id="path87"
       style="fill:#ffffff" />
  </g>
  <g
     fill="#040404"
     fill-opacity="1"
     stroke="None"
     id="g102"
     transform="matrix(0.99659981,0,0,0.99659981,-249.7948,-175.34688)"
     style="fill:#ffffff">
    <path
       d="m 538,407 c -12.73,4.96 -25.71,11.11 -36.92,19.08 -11.22,7.96 -25.88,11.59 -36.08,18.92 14.33,5.8 29.6,-5.54 41.3,-12.7 11.71,-7.15 23.14,-15.1 31.7,-25.3 z"
       id="path102"
       style="fill:#ffffff" />
  </g>
  <g
     fill="#242425"
     fill-opacity="1"
     stroke="None"
     id="g103"
     transform="matrix(0.99659981,0,0,0.99659981,-140.16883,-204.44951)"
     style="fill:#ffffff">
    <path
       d="m 408,436 c -11.1,12.86 -23.99,25.71 -33,40 12.41,-12.04 24.11,-25.65 33,-40 z"
       id="path103"
       style="fill:#ffffff" />
  </g>
  <g
     fill="#060606"
     fill-opacity="1"
     stroke="None"
     id="g106"
     transform="matrix(0.99659981,0,0,0.99659981,-288.53242,-216.93672)"
     style="fill:#ffffff">
    <path
       d="m 548,474 c 3.84,-13.93 -8.14,-12.5 -16,-7 3.19,5.77 10.59,5.29 16,7 z"
       id="path106"
       style="fill:#ffffff" />
  </g>
  <g
     fill="#292929"
     fill-opacity="1"
     stroke="None"
     id="g109"
     transform="matrix(0.99659981,0,0,0.99659981,-97.315034,-252.2863)"
     style="fill:#ffffff">
    <path
       d="m 365,484 c -10.6,12.29 -23.99,25.85 -33,40 12.29,-11.18 23.35,-26.02 33,-40 z"
       id="path109"
       style="fill:#ffffff" />
  </g>
  <g
     fill="#1d1d1d"
     fill-opacity="1"
     stroke="None"
     id="g116"
     transform="matrix(0.99659981,0,0,0.99659981,-105.28783,-265.7404)"
     style="fill:#ffffff">
    <path
       d="m 369,501 c -10.27,9.38 -18.36,21.25 -25,33 10.48,-9.25 18.03,-21.46 25,-33 z"
       id="path116"
       style="fill:#ffffff" />
  </g>
  <g
     fill="#070707"
     fill-opacity="1"
     stroke="None"
     id="g121"
     transform="matrix(0.99659981,0,0,0.99659981,-251.2897,-275.39173)"
     style="fill:#ffffff">
    <path
       d="m 524,533 c -14.05,-3.05 -26.63,-18.74 -42,-11 12.58,6.04 26.74,16.35 42,11 z"
       id="path121"
       style="fill:#ffffff" />
  </g>
  <rect
     style="opacity:0.99;fill:#ffffff;stroke-width:5;stroke-linecap:round;stroke-linejoin:round;stroke-miterlimit:20"
     id="rect126"
     width="1"
     height="1"
     x="0"
     y="3.784136e-07" />
  <rect
     style="opacity:0.99;fill:#ffffff;stroke-width:5;stroke-linecap:round;stroke-linejoin:round;stroke-miterlimit:20"
     id="rect127"
     width="1"
     height="1"
     x="499"
     y="499" />
</svg>
